<svg xmlns="http://www.w3.org/2000/svg" xmlns:xlink="http://www.w3.org/1999/xlink" zoomAndPan="magnify" preserveAspectRatio="xMidYMid meet" version="1.0" viewBox="96.7 150.09 104.15 119.14"><defs><clipPath id="c484cad837"><path d="M 96.699219 150.09375 L 200.851562 150.09375 L 200.851562 218 L 96.699219 218 Z M 96.699219 150.09375 " clip-rule="nonzero"/></clipPath><clipPath id="38123863f3"><path d="M 96.699219 201 L 200.851562 201 L 200.851562 269.230469 L 96.699219 269.230469 Z M 96.699219 201 " clip-rule="nonzero"/></clipPath></defs><g clip-path="url(#c484cad837)"><path fill="#724913" d="M 96.875 166.261719 C 96.875 165.519531 97.058594 164.777344 97.617188 164.21875 L 110.988281 150.835938 C 111.542969 150.277344 112.285156 150.09375 113.027344 150.09375 C 113.773438 150.09375 114.515625 150.464844 115.070312 150.835938 L 148.496094 184.476562 L 182.109375 151.023438 C 182.664062 150.464844 183.410156 150.277344 184.152344 150.277344 C 184.894531 150.277344 185.636719 150.652344 186.195312 151.023438 L 199.5625 164.40625 C 200.679688 165.519531 200.679688 167.191406 199.5625 168.308594 L 150.910156 217.003906 C 150.355469 217.5625 149.425781 217.933594 148.683594 217.746094 C 147.941406 217.746094 147.011719 217.5625 146.453125 217.003906 L 97.617188 168.308594 C 97.058594 167.75 96.875 167.007812 96.875 166.261719 Z M 113.027344 156.785156 L 103.558594 166.261719 L 148.496094 211.242188 L 193.4375 166.261719 L 183.964844 156.785156 L 150.355469 190.425781 C 149.238281 191.539062 147.570312 191.539062 146.453125 190.425781 Z M 113.027344 156.785156 " fill-opacity="1" fill-rule="nonzero"/></g><g clip-path="url(#38123863f3)"><path fill="#724913" d="M 96.875 217.5625 C 96.875 216.816406 97.058594 216.074219 97.617188 215.515625 L 110.988281 202.132812 C 111.542969 201.578125 112.285156 201.390625 113.027344 201.390625 C 113.773438 201.390625 114.515625 201.761719 115.070312 202.132812 L 148.496094 235.773438 L 182.109375 202.320312 C 182.664062 201.761719 183.410156 201.578125 184.152344 201.578125 C 184.894531 201.578125 185.636719 201.949219 186.195312 202.320312 L 199.5625 215.703125 C 200.679688 216.816406 200.679688 218.492188 199.5625 219.605469 L 150.910156 268.300781 C 150.355469 268.859375 149.425781 269.230469 148.683594 269.042969 C 147.941406 269.042969 147.011719 268.859375 146.453125 268.300781 L 97.617188 219.605469 C 97.058594 219.046875 96.875 218.304688 96.875 217.5625 Z M 113.027344 208.269531 L 103.558594 217.746094 L 148.496094 262.539062 L 193.4375 217.5625 L 183.964844 208.082031 L 150.355469 241.722656 C 149.238281 242.839844 147.570312 242.839844 146.453125 241.722656 Z M 113.027344 208.269531 " fill-opacity="1" fill-rule="nonzero"/></g></svg>