<svg xmlns="http://www.w3.org/2000/svg" xmlns:xlink="http://www.w3.org/1999/xlink" zoomAndPan="magnify" preserveAspectRatio="xMidYMid meet" version="1.0" viewBox="85.14 63.46 128.23 124.46"><defs><g/><clipPath id="aa981c8760"><path d="M 146 63.464844 L 180 63.464844 L 180 134 L 146 134 Z M 146 63.464844 " clip-rule="nonzero"/></clipPath><clipPath id="513ee10a67"><path d="M 111.046875 80.417969 L 189.261719 80.417969 L 189.261719 137.035156 L 111.046875 137.035156 Z M 111.046875 80.417969 " clip-rule="nonzero"/></clipPath><clipPath id="98b04b011a"><path d="M 109.097656 76.222656 L 177.621094 76.222656 L 177.621094 138.382812 L 109.097656 138.382812 Z M 109.097656 76.222656 " clip-rule="nonzero"/></clipPath></defs><path fill="#a6a6a6" d="M 101.0625 187.179688 C 101.164062 187.179688 101.253906 187.214844 101.328125 187.289062 C 101.398438 187.363281 101.4375 187.453125 101.4375 187.554688 C 101.4375 187.660156 101.398438 187.746094 101.328125 187.820312 C 101.253906 187.894531 101.164062 187.929688 101.0625 187.929688 C 100.957031 187.929688 100.871094 187.894531 100.796875 187.820312 C 100.722656 187.746094 100.6875 187.660156 100.6875 187.554688 C 100.6875 187.453125 100.722656 187.363281 100.796875 187.289062 C 100.871094 187.214844 100.957031 187.179688 101.0625 187.179688 Z M 102.558594 187.179688 C 102.664062 187.179688 102.75 187.214844 102.824219 187.289062 C 102.898438 187.363281 102.933594 187.453125 102.933594 187.554688 C 102.933594 187.660156 102.898438 187.746094 102.824219 187.820312 C 102.75 187.894531 102.664062 187.929688 102.558594 187.929688 C 102.457031 187.929688 102.367188 187.894531 102.292969 187.820312 C 102.222656 187.746094 102.183594 187.660156 102.183594 187.554688 C 102.183594 187.453125 102.222656 187.363281 102.292969 187.289062 C 102.367188 187.214844 102.457031 187.179688 102.558594 187.179688 Z M 104.054688 187.179688 C 104.160156 187.179688 104.246094 187.214844 104.320312 187.289062 C 104.394531 187.363281 104.429688 187.453125 104.429688 187.554688 C 104.429688 187.660156 104.394531 187.746094 104.320312 187.820312 C 104.246094 187.894531 104.160156 187.929688 104.054688 187.929688 C 103.953125 187.929688 103.863281 187.894531 103.792969 187.820312 C 103.71875 187.746094 103.683594 187.660156 103.683594 187.554688 C 103.683594 187.453125 103.71875 187.363281 103.792969 187.289062 C 103.863281 187.214844 103.953125 187.179688 104.054688 187.179688 Z M 105.554688 187.179688 C 105.65625 187.179688 105.746094 187.214844 105.816406 187.289062 C 105.890625 187.363281 105.925781 187.453125 105.925781 187.554688 C 105.925781 187.660156 105.890625 187.746094 105.816406 187.820312 C 105.746094 187.894531 105.65625 187.929688 105.554688 187.929688 C 105.449219 187.929688 105.359375 187.894531 105.289062 187.820312 C 105.214844 187.746094 105.179688 187.660156 105.179688 187.554688 C 105.179688 187.453125 105.214844 187.363281 105.289062 187.289062 C 105.359375 187.214844 105.449219 187.179688 105.554688 187.179688 Z M 107.050781 187.179688 C 107.152344 187.179688 107.242188 187.214844 107.3125 187.289062 C 107.386719 187.363281 107.425781 187.453125 107.425781 187.554688 C 107.425781 187.660156 107.386719 187.746094 107.3125 187.820312 C 107.242188 187.894531 107.152344 187.929688 107.050781 187.929688 C 106.945312 187.929688 106.859375 187.894531 106.785156 187.820312 C 106.710938 187.746094 106.675781 187.660156 106.675781 187.554688 C 106.675781 187.453125 106.710938 187.363281 106.785156 187.289062 C 106.859375 187.214844 106.945312 187.179688 107.050781 187.179688 Z M 108.546875 187.179688 C 108.648438 187.179688 108.738281 187.214844 108.8125 187.289062 C 108.882812 187.363281 108.921875 187.453125 108.921875 187.554688 C 108.921875 187.660156 108.882812 187.746094 108.8125 187.820312 C 108.738281 187.894531 108.648438 187.929688 108.546875 187.929688 C 108.441406 187.929688 108.355469 187.894531 108.28125 187.820312 C 108.207031 187.746094 108.171875 187.660156 108.171875 187.554688 C 108.171875 187.453125 108.207031 187.363281 108.28125 187.289062 C 108.355469 187.214844 108.441406 187.179688 108.546875 187.179688 Z M 110.042969 187.179688 C 110.148438 187.179688 110.234375 187.214844 110.308594 187.289062 C 110.382812 187.363281 110.417969 187.453125 110.417969 187.554688 C 110.417969 187.660156 110.382812 187.746094 110.308594 187.820312 C 110.234375 187.894531 110.148438 187.929688 110.042969 187.929688 C 109.941406 187.929688 109.851562 187.894531 109.777344 187.820312 C 109.707031 187.746094 109.667969 187.660156 109.667969 187.554688 C 109.667969 187.453125 109.707031 187.363281 109.777344 187.289062 C 109.851562 187.214844 109.941406 187.179688 110.042969 187.179688 Z M 111.539062 187.179688 C 111.644531 187.179688 111.730469 187.214844 111.804688 187.289062 C 111.878906 187.363281 111.914062 187.453125 111.914062 187.554688 C 111.914062 187.660156 111.878906 187.746094 111.804688 187.820312 C 111.730469 187.894531 111.644531 187.929688 111.539062 187.929688 C 111.4375 187.929688 111.347656 187.894531 111.277344 187.820312 C 111.203125 187.746094 111.164062 187.660156 111.164062 187.554688 C 111.164062 187.453125 111.203125 187.363281 111.277344 187.289062 C 111.347656 187.214844 111.4375 187.179688 111.539062 187.179688 Z M 113.035156 187.179688 C 113.140625 187.179688 113.230469 187.214844 113.300781 187.289062 C 113.375 187.363281 113.410156 187.453125 113.410156 187.554688 C 113.410156 187.660156 113.375 187.746094 113.300781 187.820312 C 113.230469 187.894531 113.140625 187.929688 113.035156 187.929688 C 112.933594 187.929688 112.84375 187.894531 112.773438 187.820312 C 112.699219 187.746094 112.664062 187.660156 112.664062 187.554688 C 112.664062 187.453125 112.699219 187.363281 112.773438 187.289062 C 112.84375 187.214844 112.933594 187.179688 113.035156 187.179688 Z M 114.535156 187.179688 C 114.636719 187.179688 114.726562 187.214844 114.796875 187.289062 C 114.871094 187.363281 114.90625 187.453125 114.90625 187.554688 C 114.90625 187.660156 114.871094 187.746094 114.796875 187.820312 C 114.726562 187.894531 114.636719 187.929688 114.535156 187.929688 C 114.429688 187.929688 114.34375 187.894531 114.269531 187.820312 C 114.195312 187.746094 114.160156 187.660156 114.160156 187.554688 C 114.160156 187.453125 114.195312 187.363281 114.269531 187.289062 C 114.34375 187.214844 114.429688 187.179688 114.535156 187.179688 Z M 116.03125 187.179688 C 116.132812 187.179688 116.222656 187.214844 116.296875 187.289062 C 116.367188 187.363281 116.40625 187.453125 116.40625 187.554688 C 116.40625 187.660156 116.367188 187.746094 116.296875 187.820312 C 116.222656 187.894531 116.132812 187.929688 116.03125 187.929688 C 115.925781 187.929688 115.839844 187.894531 115.765625 187.820312 C 115.691406 187.746094 115.65625 187.660156 115.65625 187.554688 C 115.65625 187.453125 115.691406 187.363281 115.765625 187.289062 C 115.839844 187.214844 115.925781 187.179688 116.03125 187.179688 Z M 117.527344 187.179688 C 117.632812 187.179688 117.71875 187.214844 117.792969 187.289062 C 117.863281 187.363281 117.902344 187.453125 117.902344 187.554688 C 117.902344 187.660156 117.863281 187.746094 117.792969 187.820312 C 117.71875 187.894531 117.632812 187.929688 117.527344 187.929688 C 117.425781 187.929688 117.335938 187.894531 117.261719 187.820312 C 117.191406 187.746094 117.152344 187.660156 117.152344 187.554688 C 117.152344 187.453125 117.191406 187.363281 117.261719 187.289062 C 117.335938 187.214844 117.425781 187.179688 117.527344 187.179688 Z M 119.023438 187.179688 C 119.128906 187.179688 119.214844 187.214844 119.289062 187.289062 C 119.363281 187.363281 119.398438 187.453125 119.398438 187.554688 C 119.398438 187.660156 119.363281 187.746094 119.289062 187.820312 C 119.214844 187.894531 119.128906 187.929688 119.023438 187.929688 C 118.921875 187.929688 118.832031 187.894531 118.757812 187.820312 C 118.6875 187.746094 118.648438 187.660156 118.648438 187.554688 C 118.648438 187.453125 118.6875 187.363281 118.757812 187.289062 C 118.832031 187.214844 118.921875 187.179688 119.023438 187.179688 Z M 120.519531 187.179688 C 120.625 187.179688 120.710938 187.214844 120.785156 187.289062 C 120.859375 187.363281 120.894531 187.453125 120.894531 187.554688 C 120.894531 187.660156 120.859375 187.746094 120.785156 187.820312 C 120.710938 187.894531 120.625 187.929688 120.519531 187.929688 C 120.417969 187.929688 120.328125 187.894531 120.257812 187.820312 C 120.183594 187.746094 120.148438 187.660156 120.148438 187.554688 C 120.148438 187.453125 120.183594 187.363281 120.257812 187.289062 C 120.328125 187.214844 120.417969 187.179688 120.519531 187.179688 Z M 122.019531 187.179688 C 122.121094 187.179688 122.210938 187.214844 122.28125 187.289062 C 122.355469 187.363281 122.390625 187.453125 122.390625 187.554688 C 122.390625 187.660156 122.355469 187.746094 122.28125 187.820312 C 122.210938 187.894531 122.121094 187.929688 122.019531 187.929688 C 121.914062 187.929688 121.828125 187.894531 121.753906 187.820312 C 121.679688 187.746094 121.644531 187.660156 121.644531 187.554688 C 121.644531 187.453125 121.679688 187.363281 121.753906 187.289062 C 121.828125 187.214844 121.914062 187.179688 122.019531 187.179688 Z M 123.515625 187.179688 C 123.617188 187.179688 123.707031 187.214844 123.78125 187.289062 C 123.851562 187.363281 123.890625 187.453125 123.890625 187.554688 C 123.890625 187.660156 123.851562 187.746094 123.78125 187.820312 C 123.707031 187.894531 123.617188 187.929688 123.515625 187.929688 C 123.410156 187.929688 123.324219 187.894531 123.25 187.820312 C 123.175781 187.746094 123.140625 187.660156 123.140625 187.554688 C 123.140625 187.453125 123.175781 187.363281 123.25 187.289062 C 123.324219 187.214844 123.410156 187.179688 123.515625 187.179688 Z M 125.011719 187.179688 C 125.113281 187.179688 125.203125 187.214844 125.277344 187.289062 C 125.347656 187.363281 125.386719 187.453125 125.386719 187.554688 C 125.386719 187.660156 125.347656 187.746094 125.277344 187.820312 C 125.203125 187.894531 125.113281 187.929688 125.011719 187.929688 C 124.910156 187.929688 124.820312 187.894531 124.746094 187.820312 C 124.675781 187.746094 124.636719 187.660156 124.636719 187.554688 C 124.636719 187.453125 124.675781 187.363281 124.746094 187.289062 C 124.820312 187.214844 124.910156 187.179688 125.011719 187.179688 Z M 126.507812 187.179688 C 126.613281 187.179688 126.699219 187.214844 126.773438 187.289062 C 126.847656 187.363281 126.882812 187.453125 126.882812 187.554688 C 126.882812 187.660156 126.847656 187.746094 126.773438 187.820312 C 126.699219 187.894531 126.613281 187.929688 126.507812 187.929688 C 126.40625 187.929688 126.316406 187.894531 126.242188 187.820312 C 126.171875 187.746094 126.132812 187.660156 126.132812 187.554688 C 126.132812 187.453125 126.171875 187.363281 126.242188 187.289062 C 126.316406 187.214844 126.40625 187.179688 126.507812 187.179688 Z M 128.003906 187.179688 C 128.109375 187.179688 128.195312 187.214844 128.269531 187.289062 C 128.34375 187.363281 128.378906 187.453125 128.378906 187.554688 C 128.378906 187.660156 128.34375 187.746094 128.269531 187.820312 C 128.195312 187.894531 128.109375 187.929688 128.003906 187.929688 C 127.902344 187.929688 127.8125 187.894531 127.742188 187.820312 C 127.667969 187.746094 127.632812 187.660156 127.632812 187.554688 C 127.632812 187.453125 127.667969 187.363281 127.742188 187.289062 C 127.8125 187.214844 127.902344 187.179688 128.003906 187.179688 Z M 129.503906 187.179688 C 129.605469 187.179688 129.695312 187.214844 129.765625 187.289062 C 129.839844 187.363281 129.875 187.453125 129.875 187.554688 C 129.875 187.660156 129.839844 187.746094 129.765625 187.820312 C 129.695312 187.894531 129.605469 187.929688 129.503906 187.929688 C 129.398438 187.929688 129.3125 187.894531 129.238281 187.820312 C 129.164062 187.746094 129.128906 187.660156 129.128906 187.554688 C 129.128906 187.453125 129.164062 187.363281 129.238281 187.289062 C 129.3125 187.214844 129.398438 187.179688 129.503906 187.179688 Z M 131 187.179688 C 131.101562 187.179688 131.191406 187.214844 131.265625 187.289062 C 131.335938 187.363281 131.375 187.453125 131.375 187.554688 C 131.375 187.660156 131.335938 187.746094 131.265625 187.820312 C 131.191406 187.894531 131.101562 187.929688 131 187.929688 C 130.894531 187.929688 130.808594 187.894531 130.734375 187.820312 C 130.660156 187.746094 130.625 187.660156 130.625 187.554688 C 130.625 187.453125 130.660156 187.363281 130.734375 187.289062 C 130.808594 187.214844 130.894531 187.179688 131 187.179688 Z M 132.496094 187.179688 C 132.597656 187.179688 132.6875 187.214844 132.761719 187.289062 C 132.832031 187.363281 132.871094 187.453125 132.871094 187.554688 C 132.871094 187.660156 132.832031 187.746094 132.761719 187.820312 C 132.6875 187.894531 132.597656 187.929688 132.496094 187.929688 C 132.390625 187.929688 132.304688 187.894531 132.230469 187.820312 C 132.160156 187.746094 132.121094 187.660156 132.121094 187.554688 C 132.121094 187.453125 132.160156 187.363281 132.230469 187.289062 C 132.304688 187.214844 132.390625 187.179688 132.496094 187.179688 Z M 133.992188 187.179688 C 134.097656 187.179688 134.183594 187.214844 134.257812 187.289062 C 134.332031 187.363281 134.367188 187.453125 134.367188 187.554688 C 134.367188 187.660156 134.332031 187.746094 134.257812 187.820312 C 134.183594 187.894531 134.097656 187.929688 133.992188 187.929688 C 133.890625 187.929688 133.800781 187.894531 133.726562 187.820312 C 133.65625 187.746094 133.617188 187.660156 133.617188 187.554688 C 133.617188 187.453125 133.65625 187.363281 133.726562 187.289062 C 133.800781 187.214844 133.890625 187.179688 133.992188 187.179688 Z M 135.488281 187.179688 C 135.59375 187.179688 135.679688 187.214844 135.753906 187.289062 C 135.828125 187.363281 135.863281 187.453125 135.863281 187.554688 C 135.863281 187.660156 135.828125 187.746094 135.753906 187.820312 C 135.679688 187.894531 135.59375 187.929688 135.488281 187.929688 C 135.386719 187.929688 135.296875 187.894531 135.226562 187.820312 C 135.152344 187.746094 135.117188 187.660156 135.117188 187.554688 C 135.117188 187.453125 135.152344 187.363281 135.226562 187.289062 C 135.296875 187.214844 135.386719 187.179688 135.488281 187.179688 Z M 136.988281 187.179688 C 137.089844 187.179688 137.179688 187.214844 137.25 187.289062 C 137.324219 187.363281 137.359375 187.453125 137.359375 187.554688 C 137.359375 187.660156 137.324219 187.746094 137.25 187.820312 C 137.179688 187.894531 137.089844 187.929688 136.988281 187.929688 C 136.882812 187.929688 136.792969 187.894531 136.722656 187.820312 C 136.648438 187.746094 136.613281 187.660156 136.613281 187.554688 C 136.613281 187.453125 136.648438 187.363281 136.722656 187.289062 C 136.792969 187.214844 136.882812 187.179688 136.988281 187.179688 Z M 138.484375 187.179688 C 138.585938 187.179688 138.675781 187.214844 138.746094 187.289062 C 138.820312 187.363281 138.859375 187.453125 138.859375 187.554688 C 138.859375 187.660156 138.820312 187.746094 138.746094 187.820312 C 138.675781 187.894531 138.585938 187.929688 138.484375 187.929688 C 138.378906 187.929688 138.292969 187.894531 138.21875 187.820312 C 138.144531 187.746094 138.109375 187.660156 138.109375 187.554688 C 138.109375 187.453125 138.144531 187.363281 138.21875 187.289062 C 138.292969 187.214844 138.378906 187.179688 138.484375 187.179688 Z M 139.980469 187.179688 C 140.082031 187.179688 140.171875 187.214844 140.246094 187.289062 C 140.316406 187.363281 140.355469 187.453125 140.355469 187.554688 C 140.355469 187.660156 140.316406 187.746094 140.246094 187.820312 C 140.171875 187.894531 140.082031 187.929688 139.980469 187.929688 C 139.875 187.929688 139.789062 187.894531 139.714844 187.820312 C 139.640625 187.746094 139.605469 187.660156 139.605469 187.554688 C 139.605469 187.453125 139.640625 187.363281 139.714844 187.289062 C 139.789062 187.214844 139.875 187.179688 139.980469 187.179688 Z M 141.476562 187.179688 C 141.582031 187.179688 141.667969 187.214844 141.742188 187.289062 C 141.816406 187.363281 141.851562 187.453125 141.851562 187.554688 C 141.851562 187.660156 141.816406 187.746094 141.742188 187.820312 C 141.667969 187.894531 141.582031 187.929688 141.476562 187.929688 C 141.375 187.929688 141.285156 187.894531 141.210938 187.820312 C 141.140625 187.746094 141.101562 187.660156 141.101562 187.554688 C 141.101562 187.453125 141.140625 187.363281 141.210938 187.289062 C 141.285156 187.214844 141.375 187.179688 141.476562 187.179688 Z M 142.972656 187.179688 C 143.078125 187.179688 143.164062 187.214844 143.238281 187.289062 C 143.3125 187.363281 143.347656 187.453125 143.347656 187.554688 C 143.347656 187.660156 143.3125 187.746094 143.238281 187.820312 C 143.164062 187.894531 143.078125 187.929688 142.972656 187.929688 C 142.871094 187.929688 142.78125 187.894531 142.710938 187.820312 C 142.636719 187.746094 142.597656 187.660156 142.597656 187.554688 C 142.597656 187.453125 142.636719 187.363281 142.710938 187.289062 C 142.78125 187.214844 142.871094 187.179688 142.972656 187.179688 Z M 144.46875 187.179688 C 144.574219 187.179688 144.664062 187.214844 144.734375 187.289062 C 144.808594 187.363281 144.84375 187.453125 144.84375 187.554688 C 144.84375 187.660156 144.808594 187.746094 144.734375 187.820312 C 144.664062 187.894531 144.574219 187.929688 144.46875 187.929688 C 144.367188 187.929688 144.277344 187.894531 144.207031 187.820312 C 144.132812 187.746094 144.097656 187.660156 144.097656 187.554688 C 144.097656 187.453125 144.132812 187.363281 144.207031 187.289062 C 144.277344 187.214844 144.367188 187.179688 144.46875 187.179688 Z M 145.96875 187.179688 C 146.070312 187.179688 146.160156 187.214844 146.230469 187.289062 C 146.304688 187.363281 146.339844 187.453125 146.339844 187.554688 C 146.339844 187.660156 146.304688 187.746094 146.230469 187.820312 C 146.160156 187.894531 146.070312 187.929688 145.96875 187.929688 C 145.863281 187.929688 145.777344 187.894531 145.703125 187.820312 C 145.628906 187.746094 145.59375 187.660156 145.59375 187.554688 C 145.59375 187.453125 145.628906 187.363281 145.703125 187.289062 C 145.777344 187.214844 145.863281 187.179688 145.96875 187.179688 Z M 147.464844 187.179688 C 147.566406 187.179688 147.65625 187.214844 147.730469 187.289062 C 147.800781 187.363281 147.839844 187.453125 147.839844 187.554688 C 147.839844 187.660156 147.800781 187.746094 147.730469 187.820312 C 147.65625 187.894531 147.566406 187.929688 147.464844 187.929688 C 147.359375 187.929688 147.273438 187.894531 147.199219 187.820312 C 147.125 187.746094 147.089844 187.660156 147.089844 187.554688 C 147.089844 187.453125 147.125 187.363281 147.199219 187.289062 C 147.273438 187.214844 147.359375 187.179688 147.464844 187.179688 Z M 148.960938 187.179688 C 149.066406 187.179688 149.152344 187.214844 149.226562 187.289062 C 149.300781 187.363281 149.335938 187.453125 149.335938 187.554688 C 149.335938 187.660156 149.300781 187.746094 149.226562 187.820312 C 149.152344 187.894531 149.066406 187.929688 148.960938 187.929688 C 148.859375 187.929688 148.769531 187.894531 148.695312 187.820312 C 148.625 187.746094 148.585938 187.660156 148.585938 187.554688 C 148.585938 187.453125 148.625 187.363281 148.695312 187.289062 C 148.769531 187.214844 148.859375 187.179688 148.960938 187.179688 Z M 150.457031 187.179688 C 150.5625 187.179688 150.648438 187.214844 150.722656 187.289062 C 150.796875 187.363281 150.832031 187.453125 150.832031 187.554688 C 150.832031 187.660156 150.796875 187.746094 150.722656 187.820312 C 150.648438 187.894531 150.5625 187.929688 150.457031 187.929688 C 150.355469 187.929688 150.265625 187.894531 150.191406 187.820312 C 150.121094 187.746094 150.082031 187.660156 150.082031 187.554688 C 150.082031 187.453125 150.121094 187.363281 150.191406 187.289062 C 150.265625 187.214844 150.355469 187.179688 150.457031 187.179688 Z M 151.953125 187.179688 C 152.058594 187.179688 152.144531 187.214844 152.21875 187.289062 C 152.292969 187.363281 152.328125 187.453125 152.328125 187.554688 C 152.328125 187.660156 152.292969 187.746094 152.21875 187.820312 C 152.144531 187.894531 152.058594 187.929688 151.953125 187.929688 C 151.851562 187.929688 151.761719 187.894531 151.691406 187.820312 C 151.617188 187.746094 151.582031 187.660156 151.582031 187.554688 C 151.582031 187.453125 151.617188 187.363281 151.691406 187.289062 C 151.761719 187.214844 151.851562 187.179688 151.953125 187.179688 Z M 153.453125 187.179688 C 153.554688 187.179688 153.644531 187.214844 153.714844 187.289062 C 153.789062 187.363281 153.824219 187.453125 153.824219 187.554688 C 153.824219 187.660156 153.789062 187.746094 153.714844 187.820312 C 153.644531 187.894531 153.554688 187.929688 153.453125 187.929688 C 153.347656 187.929688 153.261719 187.894531 153.1875 187.820312 C 153.113281 187.746094 153.078125 187.660156 153.078125 187.554688 C 153.078125 187.453125 153.113281 187.363281 153.1875 187.289062 C 153.261719 187.214844 153.347656 187.179688 153.453125 187.179688 Z M 154.949219 187.179688 C 155.050781 187.179688 155.140625 187.214844 155.214844 187.289062 C 155.285156 187.363281 155.324219 187.453125 155.324219 187.554688 C 155.324219 187.660156 155.285156 187.746094 155.214844 187.820312 C 155.140625 187.894531 155.050781 187.929688 154.949219 187.929688 C 154.84375 187.929688 154.757812 187.894531 154.683594 187.820312 C 154.609375 187.746094 154.574219 187.660156 154.574219 187.554688 C 154.574219 187.453125 154.609375 187.363281 154.683594 187.289062 C 154.757812 187.214844 154.84375 187.179688 154.949219 187.179688 Z M 156.445312 187.179688 C 156.546875 187.179688 156.636719 187.214844 156.710938 187.289062 C 156.78125 187.363281 156.820312 187.453125 156.820312 187.554688 C 156.820312 187.660156 156.78125 187.746094 156.710938 187.820312 C 156.636719 187.894531 156.546875 187.929688 156.445312 187.929688 C 156.34375 187.929688 156.253906 187.894531 156.179688 187.820312 C 156.109375 187.746094 156.070312 187.660156 156.070312 187.554688 C 156.070312 187.453125 156.109375 187.363281 156.179688 187.289062 C 156.253906 187.214844 156.34375 187.179688 156.445312 187.179688 Z M 157.941406 187.179688 C 158.046875 187.179688 158.132812 187.214844 158.207031 187.289062 C 158.28125 187.363281 158.316406 187.453125 158.316406 187.554688 C 158.316406 187.660156 158.28125 187.746094 158.207031 187.820312 C 158.132812 187.894531 158.046875 187.929688 157.941406 187.929688 C 157.839844 187.929688 157.75 187.894531 157.675781 187.820312 C 157.605469 187.746094 157.566406 187.660156 157.566406 187.554688 C 157.566406 187.453125 157.605469 187.363281 157.675781 187.289062 C 157.75 187.214844 157.839844 187.179688 157.941406 187.179688 Z M 159.4375 187.179688 C 159.542969 187.179688 159.628906 187.214844 159.703125 187.289062 C 159.777344 187.363281 159.8125 187.453125 159.8125 187.554688 C 159.8125 187.660156 159.777344 187.746094 159.703125 187.820312 C 159.628906 187.894531 159.542969 187.929688 159.4375 187.929688 C 159.335938 187.929688 159.246094 187.894531 159.175781 187.820312 C 159.101562 187.746094 159.066406 187.660156 159.066406 187.554688 C 159.066406 187.453125 159.101562 187.363281 159.175781 187.289062 C 159.246094 187.214844 159.335938 187.179688 159.4375 187.179688 Z M 160.9375 187.179688 C 161.039062 187.179688 161.128906 187.214844 161.199219 187.289062 C 161.273438 187.363281 161.308594 187.453125 161.308594 187.554688 C 161.308594 187.660156 161.273438 187.746094 161.199219 187.820312 C 161.128906 187.894531 161.039062 187.929688 160.9375 187.929688 C 160.832031 187.929688 160.746094 187.894531 160.671875 187.820312 C 160.597656 187.746094 160.5625 187.660156 160.5625 187.554688 C 160.5625 187.453125 160.597656 187.363281 160.671875 187.289062 C 160.746094 187.214844 160.832031 187.179688 160.9375 187.179688 Z M 162.433594 187.179688 C 162.535156 187.179688 162.625 187.214844 162.699219 187.289062 C 162.769531 187.363281 162.808594 187.453125 162.808594 187.554688 C 162.808594 187.660156 162.769531 187.746094 162.699219 187.820312 C 162.625 187.894531 162.535156 187.929688 162.433594 187.929688 C 162.328125 187.929688 162.242188 187.894531 162.167969 187.820312 C 162.09375 187.746094 162.058594 187.660156 162.058594 187.554688 C 162.058594 187.453125 162.09375 187.363281 162.167969 187.289062 C 162.242188 187.214844 162.328125 187.179688 162.433594 187.179688 Z M 163.929688 187.179688 C 164.03125 187.179688 164.121094 187.214844 164.195312 187.289062 C 164.265625 187.363281 164.304688 187.453125 164.304688 187.554688 C 164.304688 187.660156 164.265625 187.746094 164.195312 187.820312 C 164.121094 187.894531 164.03125 187.929688 163.929688 187.929688 C 163.828125 187.929688 163.738281 187.894531 163.664062 187.820312 C 163.59375 187.746094 163.554688 187.660156 163.554688 187.554688 C 163.554688 187.453125 163.59375 187.363281 163.664062 187.289062 C 163.738281 187.214844 163.828125 187.179688 163.929688 187.179688 Z M 165.425781 187.179688 C 165.53125 187.179688 165.617188 187.214844 165.691406 187.289062 C 165.765625 187.363281 165.800781 187.453125 165.800781 187.554688 C 165.800781 187.660156 165.765625 187.746094 165.691406 187.820312 C 165.617188 187.894531 165.53125 187.929688 165.425781 187.929688 C 165.324219 187.929688 165.234375 187.894531 165.160156 187.820312 C 165.089844 187.746094 165.050781 187.660156 165.050781 187.554688 C 165.050781 187.453125 165.089844 187.363281 165.160156 187.289062 C 165.234375 187.214844 165.324219 187.179688 165.425781 187.179688 Z M 166.921875 187.179688 C 167.027344 187.179688 167.113281 187.214844 167.1875 187.289062 C 167.261719 187.363281 167.296875 187.453125 167.296875 187.554688 C 167.296875 187.660156 167.261719 187.746094 167.1875 187.820312 C 167.113281 187.894531 167.027344 187.929688 166.921875 187.929688 C 166.820312 187.929688 166.730469 187.894531 166.660156 187.820312 C 166.585938 187.746094 166.550781 187.660156 166.550781 187.554688 C 166.550781 187.453125 166.585938 187.363281 166.660156 187.289062 C 166.730469 187.214844 166.820312 187.179688 166.921875 187.179688 Z M 168.421875 187.179688 C 168.523438 187.179688 168.613281 187.214844 168.683594 187.289062 C 168.757812 187.363281 168.792969 187.453125 168.792969 187.554688 C 168.792969 187.660156 168.757812 187.746094 168.683594 187.820312 C 168.613281 187.894531 168.523438 187.929688 168.421875 187.929688 C 168.316406 187.929688 168.226562 187.894531 168.15625 187.820312 C 168.082031 187.746094 168.046875 187.660156 168.046875 187.554688 C 168.046875 187.453125 168.082031 187.363281 168.15625 187.289062 C 168.226562 187.214844 168.316406 187.179688 168.421875 187.179688 Z M 169.917969 187.179688 C 170.019531 187.179688 170.109375 187.214844 170.179688 187.289062 C 170.253906 187.363281 170.292969 187.453125 170.292969 187.554688 C 170.292969 187.660156 170.253906 187.746094 170.179688 187.820312 C 170.109375 187.894531 170.019531 187.929688 169.917969 187.929688 C 169.8125 187.929688 169.726562 187.894531 169.652344 187.820312 C 169.578125 187.746094 169.542969 187.660156 169.542969 187.554688 C 169.542969 187.453125 169.578125 187.363281 169.652344 187.289062 C 169.726562 187.214844 169.8125 187.179688 169.917969 187.179688 Z M 171.414062 187.179688 C 171.515625 187.179688 171.605469 187.214844 171.679688 187.289062 C 171.75 187.363281 171.789062 187.453125 171.789062 187.554688 C 171.789062 187.660156 171.75 187.746094 171.679688 187.820312 C 171.605469 187.894531 171.515625 187.929688 171.414062 187.929688 C 171.308594 187.929688 171.222656 187.894531 171.148438 187.820312 C 171.074219 187.746094 171.039062 187.660156 171.039062 187.554688 C 171.039062 187.453125 171.074219 187.363281 171.148438 187.289062 C 171.222656 187.214844 171.308594 187.179688 171.414062 187.179688 Z M 172.910156 187.179688 C 173.015625 187.179688 173.101562 187.214844 173.175781 187.289062 C 173.25 187.363281 173.285156 187.453125 173.285156 187.554688 C 173.285156 187.660156 173.25 187.746094 173.175781 187.820312 C 173.101562 187.894531 173.015625 187.929688 172.910156 187.929688 C 172.808594 187.929688 172.71875 187.894531 172.644531 187.820312 C 172.574219 187.746094 172.535156 187.660156 172.535156 187.554688 C 172.535156 187.453125 172.574219 187.363281 172.644531 187.289062 C 172.71875 187.214844 172.808594 187.179688 172.910156 187.179688 Z M 174.40625 187.179688 C 174.511719 187.179688 174.597656 187.214844 174.671875 187.289062 C 174.746094 187.363281 174.78125 187.453125 174.78125 187.554688 C 174.78125 187.660156 174.746094 187.746094 174.671875 187.820312 C 174.597656 187.894531 174.511719 187.929688 174.40625 187.929688 C 174.304688 187.929688 174.214844 187.894531 174.144531 187.820312 C 174.070312 187.746094 174.03125 187.660156 174.035156 187.554688 C 174.03125 187.453125 174.070312 187.363281 174.144531 187.289062 C 174.214844 187.214844 174.304688 187.179688 174.40625 187.179688 Z M 175.902344 187.179688 L 175.90625 187.179688 C 176.007812 187.179688 176.097656 187.214844 176.167969 187.289062 C 176.242188 187.363281 176.277344 187.453125 176.277344 187.554688 C 176.277344 187.660156 176.242188 187.746094 176.167969 187.820312 C 176.097656 187.894531 176.007812 187.929688 175.90625 187.929688 L 175.902344 187.929688 C 175.800781 187.929688 175.710938 187.894531 175.640625 187.820312 C 175.566406 187.746094 175.53125 187.660156 175.53125 187.554688 C 175.53125 187.453125 175.566406 187.363281 175.640625 187.289062 C 175.710938 187.214844 175.800781 187.179688 175.902344 187.179688 Z M 177.402344 187.179688 C 177.503906 187.179688 177.59375 187.214844 177.664062 187.289062 C 177.738281 187.363281 177.773438 187.453125 177.773438 187.554688 C 177.773438 187.660156 177.738281 187.746094 177.664062 187.820312 C 177.59375 187.894531 177.503906 187.929688 177.402344 187.929688 C 177.296875 187.929688 177.210938 187.894531 177.136719 187.820312 C 177.0625 187.746094 177.027344 187.660156 177.027344 187.554688 C 177.027344 187.453125 177.0625 187.363281 177.136719 187.289062 C 177.210938 187.214844 177.296875 187.179688 177.402344 187.179688 Z M 178.898438 187.179688 C 179 187.179688 179.089844 187.214844 179.164062 187.289062 C 179.234375 187.363281 179.273438 187.453125 179.273438 187.554688 C 179.273438 187.660156 179.234375 187.746094 179.164062 187.820312 C 179.089844 187.894531 179 187.929688 178.898438 187.929688 C 178.792969 187.929688 178.707031 187.894531 178.632812 187.820312 C 178.558594 187.746094 178.523438 187.660156 178.523438 187.554688 C 178.523438 187.453125 178.558594 187.363281 178.632812 187.289062 C 178.707031 187.214844 178.792969 187.179688 178.898438 187.179688 Z M 180.394531 187.179688 C 180.5 187.179688 180.585938 187.214844 180.660156 187.289062 C 180.734375 187.363281 180.769531 187.453125 180.769531 187.554688 C 180.769531 187.660156 180.734375 187.746094 180.660156 187.820312 C 180.585938 187.894531 180.5 187.929688 180.394531 187.929688 C 180.292969 187.929688 180.203125 187.894531 180.128906 187.820312 C 180.058594 187.746094 180.019531 187.660156 180.019531 187.554688 C 180.019531 187.453125 180.058594 187.363281 180.128906 187.289062 C 180.203125 187.214844 180.292969 187.179688 180.394531 187.179688 Z M 181.890625 187.179688 C 181.996094 187.179688 182.082031 187.214844 182.15625 187.289062 C 182.230469 187.363281 182.265625 187.453125 182.265625 187.554688 C 182.265625 187.660156 182.230469 187.746094 182.15625 187.820312 C 182.082031 187.894531 181.996094 187.929688 181.890625 187.929688 C 181.789062 187.929688 181.699219 187.894531 181.628906 187.820312 C 181.554688 187.746094 181.515625 187.660156 181.515625 187.554688 C 181.515625 187.453125 181.554688 187.363281 181.628906 187.289062 C 181.699219 187.214844 181.789062 187.179688 181.890625 187.179688 Z M 183.386719 187.179688 C 183.492188 187.179688 183.578125 187.214844 183.652344 187.289062 C 183.726562 187.363281 183.761719 187.453125 183.761719 187.554688 C 183.761719 187.660156 183.726562 187.746094 183.652344 187.820312 C 183.578125 187.894531 183.492188 187.929688 183.386719 187.929688 C 183.285156 187.929688 183.195312 187.894531 183.125 187.820312 C 183.050781 187.746094 183.015625 187.660156 183.015625 187.554688 C 183.015625 187.453125 183.050781 187.363281 183.125 187.289062 C 183.195312 187.214844 183.285156 187.179688 183.386719 187.179688 Z M 184.886719 187.179688 C 184.988281 187.179688 185.078125 187.214844 185.148438 187.289062 C 185.222656 187.363281 185.257812 187.453125 185.257812 187.554688 C 185.257812 187.660156 185.222656 187.746094 185.148438 187.820312 C 185.078125 187.894531 184.988281 187.929688 184.886719 187.929688 C 184.78125 187.929688 184.695312 187.894531 184.621094 187.820312 C 184.546875 187.746094 184.511719 187.660156 184.511719 187.554688 C 184.511719 187.453125 184.546875 187.363281 184.621094 187.289062 C 184.695312 187.214844 184.78125 187.179688 184.886719 187.179688 Z M 186.382812 187.179688 C 186.484375 187.179688 186.574219 187.214844 186.648438 187.289062 C 186.71875 187.363281 186.757812 187.453125 186.757812 187.554688 C 186.757812 187.660156 186.71875 187.746094 186.648438 187.820312 C 186.574219 187.894531 186.484375 187.929688 186.382812 187.929688 C 186.277344 187.929688 186.191406 187.894531 186.117188 187.820312 C 186.042969 187.746094 186.007812 187.660156 186.007812 187.554688 C 186.007812 187.453125 186.042969 187.363281 186.117188 187.289062 C 186.191406 187.214844 186.277344 187.179688 186.382812 187.179688 Z M 187.878906 187.179688 C 187.980469 187.179688 188.070312 187.214844 188.144531 187.289062 C 188.214844 187.363281 188.253906 187.453125 188.253906 187.554688 C 188.253906 187.660156 188.214844 187.746094 188.144531 187.820312 C 188.070312 187.894531 187.980469 187.929688 187.878906 187.929688 C 187.777344 187.929688 187.6875 187.894531 187.613281 187.820312 C 187.542969 187.746094 187.503906 187.660156 187.503906 187.554688 C 187.503906 187.453125 187.542969 187.363281 187.613281 187.289062 C 187.6875 187.214844 187.777344 187.179688 187.878906 187.179688 Z M 189.375 187.179688 C 189.480469 187.179688 189.566406 187.214844 189.640625 187.289062 C 189.714844 187.363281 189.75 187.453125 189.75 187.554688 C 189.75 187.660156 189.714844 187.746094 189.640625 187.820312 C 189.566406 187.894531 189.480469 187.929688 189.375 187.929688 C 189.273438 187.929688 189.183594 187.894531 189.109375 187.820312 C 189.039062 187.746094 189 187.660156 189 187.554688 C 189 187.453125 189.039062 187.363281 189.109375 187.289062 C 189.183594 187.214844 189.273438 187.179688 189.375 187.179688 Z M 190.871094 187.179688 C 190.976562 187.179688 191.0625 187.214844 191.136719 187.289062 C 191.210938 187.363281 191.246094 187.453125 191.246094 187.554688 C 191.246094 187.660156 191.210938 187.746094 191.136719 187.820312 C 191.0625 187.894531 190.976562 187.929688 190.871094 187.929688 C 190.769531 187.929688 190.679688 187.894531 190.609375 187.820312 C 190.535156 187.746094 190.5 187.660156 190.5 187.554688 C 190.5 187.453125 190.535156 187.363281 190.609375 187.289062 C 190.679688 187.214844 190.769531 187.179688 190.871094 187.179688 Z M 192.371094 187.179688 C 192.472656 187.179688 192.5625 187.214844 192.632812 187.289062 C 192.707031 187.363281 192.742188 187.453125 192.742188 187.554688 C 192.742188 187.660156 192.707031 187.746094 192.632812 187.820312 C 192.5625 187.894531 192.472656 187.929688 192.371094 187.929688 C 192.265625 187.929688 192.179688 187.894531 192.105469 187.820312 C 192.03125 187.746094 191.996094 187.660156 191.996094 187.554688 C 191.996094 187.453125 192.03125 187.363281 192.105469 187.289062 C 192.179688 187.214844 192.265625 187.179688 192.371094 187.179688 Z M 193.867188 187.179688 C 193.96875 187.179688 194.058594 187.214844 194.132812 187.289062 C 194.203125 187.363281 194.242188 187.453125 194.242188 187.554688 C 194.242188 187.660156 194.203125 187.746094 194.132812 187.820312 C 194.058594 187.894531 193.96875 187.929688 193.867188 187.929688 C 193.761719 187.929688 193.675781 187.894531 193.601562 187.820312 C 193.527344 187.746094 193.492188 187.660156 193.492188 187.554688 C 193.492188 187.453125 193.527344 187.363281 193.601562 187.289062 C 193.675781 187.214844 193.761719 187.179688 193.867188 187.179688 Z M 195.363281 187.179688 C 195.464844 187.179688 195.554688 187.214844 195.628906 187.289062 C 195.699219 187.363281 195.738281 187.453125 195.738281 187.554688 C 195.738281 187.660156 195.699219 187.746094 195.628906 187.820312 C 195.554688 187.894531 195.464844 187.929688 195.363281 187.929688 C 195.261719 187.929688 195.171875 187.894531 195.097656 187.820312 C 195.027344 187.746094 194.988281 187.660156 194.988281 187.554688 C 194.988281 187.453125 195.027344 187.363281 195.097656 187.289062 C 195.171875 187.214844 195.261719 187.179688 195.363281 187.179688 Z M 196.859375 187.179688 C 196.964844 187.179688 197.050781 187.214844 197.125 187.289062 C 197.199219 187.363281 197.234375 187.453125 197.234375 187.554688 C 197.234375 187.660156 197.199219 187.746094 197.125 187.820312 C 197.050781 187.894531 196.964844 187.929688 196.859375 187.929688 C 196.757812 187.929688 196.667969 187.894531 196.59375 187.820312 C 196.523438 187.746094 196.484375 187.660156 196.484375 187.554688 C 196.484375 187.453125 196.523438 187.363281 196.59375 187.289062 C 196.667969 187.214844 196.757812 187.179688 196.859375 187.179688 Z M 196.859375 187.179688 " fill-opacity="1" fill-rule="nonzero"/><g clip-path="url(#aa981c8760)"><path fill="#eca97c" d="M 166.058594 115.363281 C 165.789062 115.558594 165.429688 115.871094 165.203125 116.367188 C 164.679688 117.578125 165.503906 118.867188 166.554688 120.84375 C 167.378906 122.386719 168.070312 124.003906 168.816406 125.59375 C 168.578125 126.117188 168.324219 126.640625 168.070312 127.179688 C 167.199219 128.976562 166.300781 130.667969 165.414062 132.242188 C 165.550781 132.453125 165.789062 132.75 166.195312 133.019531 C 166.824219 133.425781 167.4375 133.457031 167.707031 133.457031 C 168.683594 132.46875 169.761719 131.269531 170.84375 129.859375 C 171.007812 130.21875 171.171875 130.59375 171.335938 130.984375 C 171.726562 130.925781 172.328125 130.789062 172.988281 130.414062 C 173.585938 130.070312 173.992188 129.667969 174.230469 129.382812 C 173.960938 129.007812 173.585938 128.421875 173.257812 127.675781 C 173.121094 127.359375 173.015625 127.074219 172.925781 126.789062 C 173.480469 125.863281 174.019531 124.859375 174.515625 123.792969 C 175.296875 122.148438 175.867188 120.558594 176.300781 119.121094 C 176.570312 118.089844 176.855469 117.054688 177.125 116.019531 L 171.277344 119.824219 C 169.523438 118.328125 167.785156 116.84375 166.058594 115.363281 Z M 165.535156 94.046875 C 165.085938 93.75 164.710938 93.433594 164.378906 93.148438 L 160.375 95.441406 L 150.839844 97.359375 L 148.019531 96.683594 L 146.507812 99.664062 C 146.851562 99.753906 147.632812 99.890625 148.53125 99.589844 C 149.117188 99.394531 149.535156 99.082031 149.789062 98.871094 L 160.902344 98.375 L 167.167969 94.945312 C 166.644531 94.738281 166.105469 94.4375 165.535156 94.046875 Z M 179.867188 78.082031 L 178.5625 83.714844 C 177.558594 84.058594 176.464844 83.757812 175.835938 82.980469 C 175.28125 82.304688 175.160156 81.378906 175.476562 80.539062 L 175.835938 79.054688 L 172.671875 69.875 L 171.53125 68.253906 C 171.128906 66.652344 171.007812 65.8125 171.15625 65.769531 C 171.261719 65.738281 171.503906 66.097656 171.875 66.847656 C 172.582031 64.078125 173.046875 63.476562 173.363281 63.492188 C 173.839844 63.523438 174.109375 65.140625 174.171875 65.5 C 174.441406 67.175781 174.125 68.585938 173.839844 69.453125 L 179.867188 78.082031 " fill-opacity="1" fill-rule="nonzero"/></g><g clip-path="url(#513ee10a67)"><path fill="#ee4a46" d="M 170.363281 86.933594 C 169.988281 87.171875 169.433594 87.5625 168.832031 88.101562 C 167.886719 88.941406 167.4375 89.613281 166.914062 90.242188 C 166.328125 90.933594 165.398438 91.863281 163.960938 92.746094 C 164.46875 93.253906 165.144531 93.824219 166.015625 94.363281 C 166.539062 94.675781 167.035156 94.933594 167.5 95.125 L 168.757812 94.363281 C 168.878906 94.675781 169.179688 95.367188 169.882812 95.890625 C 171.128906 96.804688 172.597656 96.445312 172.792969 96.386719 C 173.0625 96.925781 173.390625 97.777344 173.375 98.796875 C 173.363281 99.859375 173 100.382812 172.65625 101.433594 C 172.011719 103.441406 172.566406 103.949219 172.160156 105.910156 C 171.785156 107.769531 170.949219 109.027344 170.273438 110.046875 C 168.804688 112.261719 167.019531 113.625 165.847656 114.359375 C 165.878906 114.644531 166.253906 117.535156 168.9375 119.0625 C 171.59375 120.558594 174.214844 119.453125 174.484375 119.332031 C 175.503906 119.269531 177.066406 119.046875 178.789062 118.296875 C 180.707031 117.460938 182.027344 116.320312 182.777344 115.570312 C 183.199219 115.675781 186.332031 116.425781 188.25 114.597656 C 188.519531 114.328125 188.984375 113.910156 189.179688 113.207031 C 189.585938 111.722656 188.445312 110.40625 187.035156 108.277344 C 186.269531 107.125 185.191406 105.402344 184.082031 103.125 C 183.210938 102.0625 182.191406 100.59375 181.308594 98.738281 C 180.632812 97.3125 180.199219 95.996094 179.914062 94.886719 C 179.238281 91.875 178.5625 88.867188 177.90625 85.839844 L 178.578125 83.699219 C 178.445312 83.726562 177.289062 83.984375 176.34375 83.203125 C 175.582031 82.574219 175.25 81.527344 175.492188 80.523438 C 174.605469 81.464844 173.722656 82.394531 172.851562 83.339844 C 172.730469 83.355469 172.507812 83.414062 172.296875 83.609375 C 171.953125 83.90625 171.90625 84.328125 171.90625 84.417969 C 171.546875 85.929688 171.1875 87.457031 170.84375 88.96875 C 170.664062 88.3125 170.511719 87.621094 170.363281 86.933594 Z M 125.589844 109.941406 C 127.105469 111.558594 128.347656 112.800781 129.21875 113.640625 C 130.042969 114.433594 130.835938 114.957031 131.257812 116.035156 C 131.753906 117.308594 131.484375 118.507812 131.421875 118.835938 C 131.109375 120.515625 131.527344 124.542969 134.585938 134.609375 C 132.335938 135.417969 130.089844 136.226562 127.839844 137.019531 L 126.382812 128.691406 L 118.585938 134.730469 C 117.914062 134.878906 116.894531 135.011719 115.679688 134.820312 C 113.789062 134.519531 112.484375 133.605469 111.871094 133.113281 C 114.6875 129.890625 117.507812 126.6875 120.34375 123.464844 C 119.082031 121.128906 117.824219 118.808594 116.5625 116.46875 C 115.46875 115.542969 114.269531 114.417969 113.085938 113.039062 C 112.335938 112.171875 111.675781 111.316406 111.121094 110.507812 C 114.195312 108.773438 117.269531 107.050781 120.34375 105.3125 L 125.589844 109.941406 " fill-opacity="1" fill-rule="nonzero"/></g><g clip-path="url(#98b04b011a)"><path fill="#24469d" d="M 126.113281 86.019531 L 124.449219 86.617188 L 124.449219 87.203125 C 123.21875 86.992188 121.660156 86.859375 119.875 86.980469 C 118.84375 87.054688 117.914062 87.203125 117.101562 87.382812 C 116.097656 89.089844 114.960938 90.242188 113.925781 91.050781 C 113.113281 91.683594 112.679688 91.847656 111.960938 92.445312 C 110.550781 93.597656 109.667969 95.023438 109.097656 96.339844 C 109.320312 97.042969 109.726562 98.078125 110.535156 99.15625 C 111.375 100.277344 112.289062 100.984375 112.90625 101.386719 C 112.289062 102.226562 111.148438 103.980469 110.851562 106.496094 C 110.640625 108.203125 110.878906 109.625 111.121094 110.523438 C 113.640625 110.972656 115.5 110.6875 116.714844 110.34375 C 119.113281 109.683594 120.25 108.488281 122.351562 108.636719 C 123.789062 108.742188 124.898438 109.414062 125.605469 109.941406 C 124.78125 108.261719 124.839844 107.152344 125.050781 106.449219 C 125.09375 106.269531 125.15625 106.152344 125.410156 105.507812 C 125.828125 104.441406 126.175781 103.574219 126.398438 103.003906 C 127.570312 101.898438 128.722656 100.804688 129.894531 99.695312 C 130.253906 100.382812 130.851562 101.433594 131.765625 102.554688 C 133.132812 104.25 134.285156 105.671875 136.027344 105.910156 C 137.226562 106.074219 138.214844 105.6875 139.203125 105.265625 C 140.898438 104.5625 142.007812 103.5 142.609375 102.824219 C 142.113281 102.046875 141.617188 101.269531 141.125 100.503906 L 136.820312 101.132812 C 136.234375 100.503906 135.320312 99.367188 134.722656 97.6875 C 134.136719 96.054688 134.089844 94.632812 134.136719 93.792969 C 132.773438 92.503906 131.421875 91.230469 130.058594 89.945312 L 129.113281 90.257812 C 128.484375 89.511719 127.839844 88.65625 127.210938 87.726562 C 126.804688 87.144531 126.445312 86.574219 126.113281 86.019531 Z M 173.421875 83.535156 C 174.007812 82.816406 174.589844 82.09375 175.175781 81.390625 C 175.011719 80.644531 174.5 78.695312 172.714844 77.316406 C 172.148438 76.882812 171.59375 76.597656 171.097656 76.417969 C 170.601562 76.328125 169.582031 76.207031 168.414062 76.597656 C 166.945312 77.078125 166.105469 78.035156 165.789062 78.441406 C 166.015625 79.113281 166.222656 79.773438 166.449219 80.449219 Z M 171.503906 132.886719 C 171.351562 133.066406 171.171875 133.351562 171.039062 133.726562 C 170.691406 134.652344 170.992188 135.207031 170.738281 135.835938 C 170.585938 136.195312 170.226562 136.660156 169.253906 137.003906 C 169.222656 137.019531 168.921875 137.140625 168.847656 137.441406 C 168.789062 137.722656 168.9375 138.039062 169.253906 138.175781 C 171.398438 138.636719 172.355469 138.25 172.820312 137.769531 C 173.167969 137.425781 173.300781 136.960938 174.230469 135.582031 C 174.472656 135.238281 174.664062 134.96875 174.800781 134.773438 C 175.085938 134.832031 175.386719 134.878906 175.671875 134.9375 L 177.542969 132.390625 L 174.980469 129.769531 Z M 167.933594 134.265625 L 167.257812 137.453125 L 165.039062 137.453125 L 165.039062 136.8125 C 164.351562 137.09375 163.421875 137.378906 162.324219 137.515625 C 160.542969 137.738281 159.058594 137.46875 158.128906 137.214844 C 158.1875 136.914062 158.320312 136.480469 158.667969 136.105469 C 159.460938 135.253906 160.617188 135.597656 161.921875 135.027344 C 162.492188 134.789062 163.242188 134.292969 163.960938 133.246094 L 167.933594 134.265625 " fill-opacity="1" fill-rule="nonzero"/></g><path fill="#3b5672" d="M 133.851562 81.121094 C 134.03125 81.03125 134.585938 80.746094 134.570312 80.402344 C 134.554688 80.027344 133.851562 79.789062 133.265625 79.59375 C 132.710938 79.414062 131.601562 79.054688 130.132812 79.324219 C 129.535156 79.429688 129.039062 79.625 128.695312 79.773438 C 127.675781 79.804688 127.089844 80.164062 126.804688 80.386719 C 125.410156 81.480469 125.125 84.042969 126.371094 86.617188 L 131.4375 86.617188 C 132.246094 84.792969 133.042969 82.949219 133.851562 81.121094 Z M 111.855469 133.125 C 111.628906 133.351562 111.332031 133.726562 111.121094 134.234375 C 110.714844 135.191406 110.851562 136.046875 110.925781 136.421875 C 112.078125 136.75 113.398438 137.035156 114.855469 137.230469 C 117.734375 137.621094 120.25 137.515625 122.246094 137.261719 C 122.425781 136.914062 122.425781 136.691406 122.351562 136.527344 C 122.125 136.015625 121.183594 136.210938 120.101562 135.792969 C 119.457031 135.539062 118.960938 135.148438 118.589844 134.757812 C 116.339844 134.191406 114.105469 133.652344 111.855469 133.125 Z M 134.570312 134.59375 C 135.1875 135.597656 135.847656 136.03125 136.402344 136.226562 C 137.644531 136.644531 138.828125 136.03125 139.28125 136.601562 C 139.503906 136.886719 139.429688 137.320312 139.308594 137.679688 C 135.441406 137.738281 131.558594 137.816406 127.6875 137.875 L 127.839844 137.003906 L 134.570312 134.59375 " fill-opacity="1" fill-rule="nonzero"/><path fill="#f9e1c7" d="M 125.605469 92.699219 C 125.574219 90.140625 125.800781 87.890625 126.101562 86.003906 C 126.445312 86.574219 126.804688 87.144531 127.195312 87.710938 C 127.839844 88.640625 128.46875 89.496094 129.097656 90.242188 L 130.042969 89.929688 L 129.277344 91.890625 L 128.421875 95.605469 C 127.660156 96.609375 126.894531 97.597656 126.144531 98.601562 C 125.859375 96.910156 125.636719 94.917969 125.605469 92.699219 " fill-opacity="1" fill-rule="nonzero"/><path fill="#eca97c" d="M 141.109375 100.488281 L 144.332031 98.375 C 144.484375 98.03125 144.707031 97.613281 145.050781 97.179688 C 145.546875 96.535156 146.085938 96.128906 146.492188 95.875 C 146.761719 95.890625 147.839844 95.964844 148.410156 96.773438 C 148.457031 96.835938 148.980469 97.597656 148.679688 97.972656 C 148.472656 98.242188 147.902344 98.257812 147.332031 97.925781 C 147.136719 98.527344 146.941406 99.125 146.746094 99.710938 C 146.445312 99.84375 146.132812 99.996094 145.800781 100.160156 C 144.347656 100.9375 143.3125 101.941406 142.578125 102.796875 C 142.097656 102.046875 141.605469 101.269531 141.109375 100.488281 Z M 120.085938 101.34375 C 120.550781 101.359375 120.808594 101.222656 121.257812 101.3125 C 121.707031 101.386719 122.050781 101.613281 122.261719 101.777344 C 121.855469 101.835938 121.449219 101.910156 121.046875 101.972656 C 121.347656 102.105469 121.75 102.316406 122.261719 102.570312 C 123.476562 103.199219 123.535156 103.273438 123.535156 103.363281 C 123.535156 103.8125 121.855469 104.457031 120.238281 104.1875 C 119.351562 104.039062 118.691406 103.664062 118.289062 103.363281 C 118.242188 103.304688 117.671875 102.421875 118.09375 101.566406 C 118.257812 101.238281 118.496094 101.027344 118.664062 100.921875 C 119.261719 101.253906 119.757812 101.328125 120.085938 101.34375 Z M 132.652344 81.300781 C 132.21875 81.285156 131.871094 81.210938 131.617188 81.121094 C 131.378906 83.5625 131.0625 84.792969 130.703125 84.808594 C 130.523438 84.820312 130.328125 84.523438 130.117188 83.9375 C 129.699219 83.546875 129.082031 83.472656 128.617188 83.757812 C 128.109375 84.074219 127.882812 84.730469 128.125 85.332031 L 126.371094 86.632812 L 129.097656 90.257812 L 130.042969 89.945312 L 130.539062 89 C 131.960938 89.40625 132.816406 88.957031 133.042969 88.820312 C 134.570312 87.921875 134.75 85.179688 134.675781 83.625 C 134.660156 83.414062 134.257812 80.988281 133.851562 81.121094 C 133.582031 81.210938 133.160156 81.316406 132.652344 81.300781 Z M 168.441406 80.71875 C 169.71875 81.152344 170.78125 80.734375 171.035156 80.628906 C 171.382812 80.507812 171.742188 80.628906 171.9375 80.898438 C 172.160156 81.226562 172.070312 81.707031 171.710938 81.976562 L 173.195312 83.457031 C 173.046875 83.398438 172.835938 83.355469 172.613281 83.414062 C 172.011719 83.59375 171.832031 84.550781 171.488281 86.140625 C 171.351562 86.785156 171.128906 87.773438 170.8125 89 L 170.363281 86.949219 L 170.183594 85.375 C 168.292969 85.808594 167.992188 85.691406 167.992188 85.691406 C 167.617188 85.539062 167.257812 85.121094 166.867188 83.324219 C 166.660156 82.320312 166.417969 80.867188 166.417969 79.070312 C 166.570312 79.308594 167.167969 80.285156 168.441406 80.71875 " fill-opacity="1" fill-rule="nonzero"/><path fill="#f9e1c7" d="M 171.335938 130.96875 C 171.261719 131.074219 171.039062 131.480469 171.097656 132.003906 C 171.15625 132.46875 171.410156 132.765625 171.503906 132.871094 C 171.773438 132.886719 172.714844 132.917969 173.617188 132.273438 C 174.664062 131.507812 174.859375 130.371094 174.890625 130.160156 C 175.070312 129.890625 175.011719 129.546875 174.785156 129.382812 C 174.636719 129.261719 174.410156 129.261719 174.214844 129.351562 C 173.960938 129.652344 173.511719 130.101562 172.835938 130.460938 C 172.25 130.789062 171.695312 130.925781 171.335938 130.96875 Z M 166.195312 133.019531 C 166.824219 133.425781 167.4375 133.457031 167.707031 133.457031 C 167.738281 133.484375 168.023438 133.816406 167.949219 134.265625 C 167.875 134.640625 167.605469 134.832031 167.542969 134.863281 C 167.320312 134.921875 166.253906 135.179688 165.191406 134.5625 C 164.453125 134.144531 164.09375 133.515625 163.976562 133.261719 C 164.078125 133.097656 164.273438 132.839844 164.589844 132.617188 C 164.917969 132.390625 165.234375 132.289062 165.429688 132.242188 C 165.550781 132.453125 165.789062 132.765625 166.195312 133.019531 " fill-opacity="1" fill-rule="nonzero"/><path fill="#3b5672" d="M 148.710938 96.96875 C 148.664062 96.910156 148.5625 96.9375 148.574219 97.027344 C 148.664062 97.34375 148.742188 97.734375 148.394531 97.925781 C 148.109375 98.09375 147.765625 98.0625 147.453125 98.046875 C 147.453125 98.003906 147.390625 97.957031 147.363281 98.015625 C 147.0625 98.527344 146.714844 99.035156 146.476562 99.558594 C 146.433594 99.648438 146.566406 99.738281 146.625 99.648438 C 146.910156 99.214844 147.136719 98.722656 147.363281 98.257812 C 147.375 98.257812 147.375 98.273438 147.390625 98.273438 C 147.765625 98.332031 148.335938 98.285156 148.636719 98.003906 C 148.921875 97.71875 148.90625 97.269531 148.710938 96.96875 Z M 172.28125 122.445312 C 172.148438 121.503906 171.980469 120.542969 171.367188 119.78125 C 171.308594 119.707031 171.1875 119.796875 171.246094 119.886719 C 171.863281 120.875 171.9375 121.953125 172.101562 123.074219 C 172.175781 123.628906 172.328125 124.140625 172.460938 124.679688 C 172.613281 125.261719 172.597656 125.875 172.777344 126.445312 C 172.820312 126.609375 173.046875 126.535156 173.015625 126.386719 C 172.898438 125.683594 172.851562 125.023438 172.65625 124.335938 C 172.476562 123.71875 172.355469 123.089844 172.28125 122.445312 Z M 168.984375 125.683594 C 168.921875 125.546875 168.683594 125.636719 168.742188 125.785156 C 169.222656 127.121094 169.824219 128.4375 170.617188 129.605469 C 170.738281 129.785156 171.023438 129.621094 170.902344 129.441406 C 170.136719 128.226562 169.628906 126.941406 168.984375 125.683594 Z M 184.1875 109.3125 C 184.203125 109.355469 184.277344 109.339844 184.261719 109.296875 C 183.871094 108.203125 183.511719 106.972656 182.898438 105.984375 C 182.867188 105.941406 182.777344 105.972656 182.808594 106.03125 C 183.152344 107.152344 183.738281 108.21875 184.1875 109.3125 Z M 179.132812 105.671875 C 178.550781 107.558594 179.613281 109.730469 179.988281 111.558594 C 180.003906 111.632812 180.125 111.601562 180.109375 111.527344 C 179.957031 110.585938 179.660156 109.683594 179.449219 108.757812 C 179.195312 107.707031 179.179688 106.75 179.238281 105.6875 C 179.238281 105.625 179.148438 105.625 179.132812 105.671875 Z M 175.609375 110.914062 C 175.476562 111.394531 175.429688 111.902344 175.28125 112.382812 C 175.160156 112.800781 174.964844 113.160156 175.027344 113.609375 C 175.039062 113.683594 175.144531 113.683594 175.144531 113.609375 C 175.117188 113.101562 175.386719 112.636719 175.503906 112.15625 C 175.609375 111.765625 175.714844 111.332031 175.683594 110.929688 C 175.671875 110.882812 175.609375 110.867188 175.609375 110.914062 Z M 170.585938 113.847656 C 171.5625 113.25 172.25 112.082031 172.867188 111.125 C 173.570312 110.046875 174.289062 108.863281 174.710938 107.632812 C 174.726562 107.574219 174.636719 107.542969 174.605469 107.589844 C 174.035156 108.621094 173.554688 109.699219 172.941406 110.703125 C 172.296875 111.738281 171.578125 113.070312 170.542969 113.730469 C 170.453125 113.789062 170.511719 113.894531 170.585938 113.847656 Z M 187.441406 109.371094 C 186.824219 110.554688 185.988281 111.378906 184.953125 112.203125 C 183.886719 113.070312 182.554688 113.953125 181.1875 113.25 C 181.097656 113.207031 181.023438 113.296875 181.054688 113.371094 C 181.039062 113.386719 181.023438 113.386719 181.007812 113.398438 C 180.242188 114.253906 179.464844 115.078125 178.460938 115.660156 C 177.621094 116.15625 175.835938 116.980469 174.90625 116.320312 C 174.875 116.289062 174.847656 116.304688 174.832031 116.335938 C 174.785156 116.277344 174.710938 116.230469 174.621094 116.277344 C 173.121094 116.996094 171.578125 117.460938 170.03125 116.546875 C 168.816406 115.828125 167.695312 114.929688 167.019531 113.667969 C 166.957031 113.566406 166.777344 113.640625 166.824219 113.757812 C 167.347656 115.167969 168.894531 116.351562 170.199219 117.023438 C 171.667969 117.773438 173.4375 117.414062 174.785156 116.558594 C 174.832031 116.53125 174.859375 116.484375 174.859375 116.457031 C 175.503906 117.191406 177.109375 116.621094 177.84375 116.320312 C 179.179688 115.75 180.332031 114.761719 181.234375 113.640625 C 181.25 113.625 181.261719 113.609375 181.261719 113.578125 C 182.179688 114.296875 183.675781 113.550781 184.488281 112.996094 C 185.820312 112.082031 187.007812 110.988281 187.753906 109.550781 C 187.832031 109.355469 187.546875 109.175781 187.441406 109.371094 Z M 179.433594 98.511719 C 179.222656 98.570312 179.058594 98.707031 178.894531 98.839844 C 178.382812 99.230469 178.023438 99.261719 177.425781 99.066406 C 177.140625 98.976562 176.871094 98.871094 176.570312 98.917969 C 175.804688 99.007812 175.429688 99.785156 174.589844 99.558594 C 174.125 99.425781 173.722656 99.261719 173.347656 99.664062 C 173.300781 99.710938 173.363281 99.785156 173.421875 99.753906 C 174.109375 99.425781 174.726562 100.113281 175.445312 99.800781 C 175.746094 99.664062 175.984375 99.441406 176.285156 99.320312 C 176.855469 99.097656 177.214844 99.367188 177.738281 99.484375 C 178.234375 99.605469 178.5625 99.484375 178.953125 99.1875 C 179.328125 98.917969 179.402344 98.828125 179.957031 98.78125 C 180.109375 98.765625 180.257812 98.796875 180.410156 98.765625 C 180.632812 98.722656 180.796875 98.648438 180.964844 98.480469 C 181.113281 98.332031 180.886719 98.105469 180.738281 98.257812 C 180.363281 98.601562 179.855469 98.375 179.433594 98.511719 Z M 173.644531 98.75 C 174.035156 97.988281 175.070312 98.78125 175.671875 98.707031 C 176.148438 98.648438 176.359375 98.257812 176.78125 98.0625 C 177.335938 97.792969 178.007812 98.210938 178.609375 98.03125 C 179.132812 97.882812 179.777344 96.984375 180.332031 97.148438 C 180.527344 97.207031 180.617188 96.894531 180.421875 96.835938 C 179.792969 96.640625 179.507812 97.105469 179.042969 97.449219 C 178.488281 97.851562 178.097656 97.734375 177.453125 97.6875 C 177.140625 97.65625 176.914062 97.644531 176.644531 97.792969 C 176.253906 97.988281 176.015625 98.390625 175.519531 98.390625 C 175.160156 98.40625 174.832031 98.183594 174.484375 98.152344 C 174.050781 98.105469 173.660156 98.242188 173.496094 98.660156 C 173.421875 98.78125 173.601562 98.855469 173.644531 98.75 Z M 172.957031 96.023438 C 173.105469 95.996094 173.210938 95.800781 173.300781 95.664062 C 173.40625 95.5 173.464844 95.320312 173.496094 95.140625 C 173.511719 95.066406 173.40625 95.035156 173.390625 95.113281 C 173.332031 95.277344 173.242188 95.441406 173.152344 95.574219 C 173.078125 95.695312 172.925781 95.800781 172.882812 95.933594 C 172.867188 95.996094 172.910156 96.039062 172.957031 96.023438 Z M 170.855469 85.078125 C 171.246094 84.777344 171.800781 84.3125 171.890625 83.804688 C 171.90625 83.742188 171.816406 83.667969 171.773438 83.726562 C 171.621094 83.921875 171.515625 84.164062 171.382812 84.355469 C 171.21875 84.597656 171.007812 84.808594 170.78125 84.988281 C 170.738281 85.03125 170.8125 85.121094 170.855469 85.078125 Z M 171.140625 81.003906 C 171.246094 81.03125 171.367188 81.0625 171.441406 81.136719 C 171.398438 81.167969 171.351562 81.210938 171.308594 81.242188 C 171.277344 81.257812 171.246094 81.285156 171.21875 81.300781 L 171.128906 81.390625 C 171.082031 81.4375 171.128906 81.511719 171.1875 81.496094 C 171.230469 81.480469 171.261719 81.496094 171.308594 81.464844 C 171.351562 81.453125 171.382812 81.421875 171.425781 81.390625 C 171.457031 81.363281 171.503906 81.347656 171.53125 81.316406 C 171.546875 81.464844 171.441406 81.542969 171.425781 81.691406 C 171.425781 81.722656 171.457031 81.75 171.488281 81.75 C 171.710938 81.722656 171.757812 81.375 171.695312 81.195312 C 171.621094 80.988281 171.382812 80.808594 171.15625 80.867188 C 171.066406 80.867188 171.066406 80.972656 171.140625 81.003906 Z M 169.191406 95.113281 C 168.804688 94.019531 168.832031 93.105469 168.90625 91.964844 C 168.90625 91.890625 168.789062 91.875 168.773438 91.953125 C 168.546875 92.953125 168.351562 94.304688 169.027344 95.1875 C 169.089844 95.261719 169.222656 95.214844 169.191406 95.113281 Z M 177.441406 86.738281 C 177.589844 86.738281 177.632812 86.5 177.46875 86.46875 C 176.71875 86.304688 176.046875 86.15625 175.429688 85.660156 C 175.355469 85.601562 175.234375 85.707031 175.3125 85.78125 C 175.878906 86.304688 176.644531 86.769531 177.441406 86.738281 Z M 126.101562 119.179688 C 124.449219 118.027344 122.382812 117.398438 120.523438 116.679688 C 118.574219 115.929688 116.667969 115.121094 114.929688 113.984375 C 115.09375 113.667969 115.152344 113.265625 115.167969 112.9375 C 115.242188 112.9375 115.335938 112.847656 115.273438 112.769531 C 114.734375 111.992188 113.953125 111.289062 113.234375 110.675781 C 113.175781 110.613281 113.070312 110.703125 113.128906 110.777344 C 113.773438 111.453125 114.359375 112.1875 115.019531 112.847656 C 114.988281 113.117188 114.898438 113.398438 114.792969 113.65625 C 114.765625 113.730469 114.734375 113.789062 114.6875 113.847656 C 114.613281 113.820312 114.523438 113.9375 114.597656 114 C 114.539062 114.089844 114.480469 114.195312 114.449219 114.296875 C 114.417969 114.375 114.523438 114.449219 114.585938 114.402344 C 114.675781 114.34375 114.75 114.253906 114.824219 114.164062 C 116.351562 115.300781 118.09375 116.082031 119.863281 116.785156 C 120.925781 117.203125 121.992188 117.609375 123.039062 118.058594 C 124.03125 118.476562 124.960938 119 125.917969 119.464844 C 125.949219 119.480469 125.964844 119.480469 125.980469 119.480469 C 127.027344 125.082031 127.867188 130.757812 127.945312 136.464844 C 127.945312 136.707031 128.320312 136.707031 128.320312 136.464844 C 128.0625 130.699219 127.539062 124.964844 126.175781 119.332031 C 126.191406 119.285156 126.160156 119.226562 126.101562 119.179688 Z M 129.757812 118.460938 C 129.503906 118.386719 129.203125 118.402344 128.949219 118.359375 C 128.859375 118.34375 128.828125 118.476562 128.917969 118.492188 C 129.1875 118.550781 129.457031 118.65625 129.742188 118.671875 C 129.863281 118.6875 129.878906 118.492188 129.757812 118.460938 Z M 124.707031 120.019531 C 124.691406 119.976562 124.628906 119.960938 124.601562 119.976562 C 123.445312 119.316406 122.214844 118.761719 120.988281 118.238281 C 119.832031 117.742188 118.664062 117.203125 117.449219 116.828125 C 117.386719 116.816406 117.328125 116.921875 117.402344 116.949219 C 117.644531 117.054688 117.882812 117.160156 118.121094 117.25 C 118.078125 117.25 118.046875 117.28125 118.0625 117.339844 C 118.84375 119.527344 120.460938 121.25 121.363281 123.375 C 121.375 123.40625 121.390625 123.421875 121.40625 123.433594 C 118.675781 127.015625 115.859375 130.503906 112.785156 133.785156 C 112.636719 133.949219 112.875 134.191406 113.023438 134.023438 C 116.128906 130.714844 119.050781 127.210938 121.570312 123.433594 C 121.644531 123.40625 121.691406 123.332031 121.660156 123.253906 C 120.792969 121.113281 119.082031 119.453125 118.210938 117.308594 L 118.199219 117.292969 C 119.140625 117.683594 120.085938 118.042969 121 118.476562 C 122.1875 119.03125 123.324219 119.675781 124.496094 120.261719 C 124.539062 120.273438 124.570312 120.273438 124.613281 120.273438 C 125.035156 121.789062 125.410156 123.300781 125.710938 124.84375 C 125.859375 125.621094 126.007812 126.402344 126.113281 127.195312 C 126.234375 128.019531 126.265625 128.886719 126.472656 129.679688 C 126.503906 129.800781 126.683594 129.769531 126.683594 129.652344 C 126.757812 128.109375 126.324219 126.402344 126.007812 124.902344 C 125.679688 123.242188 125.246094 121.609375 124.707031 120.019531 Z M 141.167969 101.867188 C 140.882812 101.449219 140.660156 101 140.390625 100.578125 C 140.34375 100.503906 140.238281 100.546875 140.269531 100.636719 C 140.507812 101.628906 141.214844 102.71875 141.992188 103.363281 C 142.160156 103.5 142.382812 103.289062 142.234375 103.125 C 141.875 102.691406 141.484375 102.316406 141.167969 101.867188 Z M 141.304688 101.132812 L 141.273438 101.101562 C 141.273438 101.101562 141.257812 101.101562 141.257812 101.117188 C 141.257812 101.117188 141.273438 101.132812 141.304688 101.132812 C 141.289062 101.148438 141.304688 101.132812 141.304688 101.132812 Z M 141.167969 100.445312 C 141.09375 100.398438 141.019531 100.503906 141.078125 100.5625 C 141.394531 100.921875 141.707031 101.238281 141.949219 101.640625 C 142.171875 102.015625 142.351562 102.421875 142.5625 102.796875 C 142.667969 102.988281 142.9375 102.824219 142.847656 102.628906 C 142.488281 101.867188 141.964844 100.847656 141.167969 100.445312 Z M 111.988281 110.285156 C 115.542969 110.089844 118.78125 108.007812 122.382812 108.21875 C 122.425781 108.21875 122.425781 108.15625 122.382812 108.144531 C 118.707031 107.664062 115.46875 109.820312 111.855469 109.941406 C 111.480469 108.710938 111.765625 107.109375 111.976562 105.910156 C 112.199219 104.578125 112.664062 103.378906 113.128906 102.121094 C 113.160156 102.0625 113.054688 102.015625 113.023438 102.078125 C 112.261719 103.410156 111.808594 104.996094 111.570312 106.511719 C 111.359375 107.769531 111.148438 109.28125 111.691406 110.496094 C 111.78125 110.703125 112.09375 110.523438 111.988281 110.316406 Z M 130.972656 97.105469 C 130.492188 97.898438 129.832031 98.78125 129.894531 99.753906 C 129.894531 99.859375 130.058594 99.890625 130.089844 99.785156 C 130.296875 98.828125 130.554688 98.003906 131.019531 97.132812 C 131.019531 97.105469 130.988281 97.074219 130.972656 97.105469 Z M 118.453125 100.804688 C 118.257812 100.59375 118.019531 100.429688 117.777344 100.277344 C 117.582031 100.714844 117.402344 101.132812 117.3125 101.613281 C 117.238281 102.03125 117.117188 102.644531 117.207031 103.066406 L 117.207031 103.125 C 117.507812 103.183594 117.808594 103.246094 118.121094 103.304688 C 117.613281 102.375 117.914062 101.613281 118.453125 100.804688 Z M 113.339844 96.011719 C 113.28125 95.949219 113.355469 95.84375 113.429688 95.890625 C 113.652344 96.054688 113.863281 96.234375 114.074219 96.414062 C 114.074219 96.371094 114.074219 96.324219 114.121094 96.296875 C 115.4375 95.304688 116.609375 94.226562 117.761719 93.042969 C 117.777344 93.03125 117.777344 93.03125 117.792969 93.03125 C 118.09375 92.746094 118.40625 92.460938 118.707031 92.175781 C 119.039062 91.847656 119.367188 91.441406 119.789062 91.203125 C 119.832031 91.171875 119.90625 91.230469 119.863281 91.277344 C 119.59375 91.667969 119.171875 91.964844 118.8125 92.28125 C 118.453125 92.59375 118.109375 92.925781 117.746094 93.238281 C 116.714844 94.453125 115.5 95.546875 114.238281 96.503906 C 114.222656 96.519531 114.210938 96.519531 114.195312 96.519531 C 114.792969 97.074219 115.335938 97.6875 115.890625 98.300781 C 116.277344 98.738281 116.683594 99.171875 117.148438 99.546875 C 117.613281 99.933594 118.210938 100.175781 118.617188 100.636719 C 118.632812 100.652344 118.648438 100.683594 118.648438 100.714844 L 118.648438 100.757812 C 118.648438 100.773438 118.632812 100.789062 118.632812 100.789062 C 118.46875 101.117188 118.300781 101.460938 118.199219 101.820312 C 118.0625 102.316406 118.167969 102.691406 118.378906 103.140625 C 118.40625 103.214844 118.378906 103.273438 118.332031 103.320312 L 118.347656 103.320312 C 118.40625 103.335938 118.394531 103.425781 118.332031 103.410156 C 116.652344 103.335938 115.035156 102.75 113.59375 101.925781 C 113.460938 101.851562 113.578125 101.640625 113.714844 101.71875 C 114.71875 102.347656 115.769531 102.75 116.878906 103.019531 C 116.742188 102.660156 116.910156 102.105469 116.953125 101.777344 C 117.042969 101.207031 117.179688 100.5625 117.582031 100.113281 C 117.371094 99.980469 117.179688 99.84375 116.996094 99.695312 C 116.578125 99.351562 116.1875 98.960938 115.8125 98.558594 C 114.972656 97.71875 114.222656 96.804688 113.339844 96.011719 Z M 122.785156 108.59375 C 122.785156 108.441406 122.800781 108.277344 122.800781 108.128906 C 123.144531 108.324219 123.535156 108.457031 123.878906 108.652344 C 124.300781 108.890625 124.707031 109.144531 125.125 109.371094 C 125.246094 109.429688 125.351562 109.25 125.230469 109.175781 C 124.78125 108.890625 124.316406 108.652344 123.851562 108.398438 C 123.535156 108.21875 123.175781 108.023438 122.800781 108.007812 C 122.832031 106.855469 122.816406 105.6875 122.679688 104.53125 C 122.664062 104.429688 122.515625 104.414062 122.515625 104.53125 C 122.484375 105.894531 122.515625 107.242188 122.441406 108.605469 C 122.425781 108.816406 122.785156 108.816406 122.785156 108.59375 Z M 123.941406 102.316406 C 124.285156 101.65625 124.75 101.089844 125.125 100.445312 C 125.453125 99.859375 125.664062 99.214844 126.023438 98.632812 C 126.070312 98.558594 125.949219 98.480469 125.90625 98.558594 C 125.484375 99.097656 125.273438 99.738281 124.914062 100.324219 C 124.523438 100.953125 124.046875 101.507812 123.699219 102.167969 C 123.609375 102.332031 123.867188 102.480469 123.941406 102.316406 Z M 130.417969 95.84375 C 130.539062 95.589844 130.464844 95.246094 130.449219 94.976562 C 130.433594 94.496094 130.433594 94.019531 130.433594 93.554688 C 130.449219 92.550781 130.566406 91.5625 130.644531 90.558594 C 130.644531 90.5 130.539062 90.484375 130.539062 90.542969 C 130.238281 92.070312 130.359375 93.597656 130.207031 95.125 C 130.117188 96.085938 129.097656 96.625 128.363281 97.132812 C 127.675781 97.613281 126.953125 98.078125 126.234375 98.527344 C 126.085938 98.617188 126.21875 98.855469 126.371094 98.765625 C 127.164062 98.257812 127.957031 97.746094 128.722656 97.195312 C 129.113281 96.925781 129.488281 96.640625 129.863281 96.355469 C 130.058594 96.21875 130.3125 96.054688 130.417969 95.84375 Z M 125.53125 98.707031 C 125.378906 94.917969 124.691406 91.140625 124.480469 87.339844 C 124.480469 87.234375 124.316406 87.25 124.332031 87.339844 C 124.71875 91.113281 124.71875 94.976562 125.351562 98.722656 C 125.363281 98.839844 125.53125 98.8125 125.53125 98.707031 Z M 128.828125 87.351562 C 129.007812 87.59375 129.25 87.710938 129.503906 87.832031 C 129.59375 87.878906 129.667969 87.757812 129.578125 87.710938 C 129.292969 87.546875 129.070312 87.382812 128.917969 87.082031 C 128.785156 86.84375 128.707031 86.558594 128.515625 86.363281 C 128.4375 86.289062 128.332031 86.363281 128.347656 86.453125 C 128.410156 86.769531 128.632812 87.113281 128.828125 87.351562 Z M 128.992188 84.433594 C 129.128906 84.613281 129.25 84.792969 129.398438 84.957031 C 129.441406 85.015625 129.546875 84.941406 129.503906 84.882812 C 129.382812 84.703125 129.25 84.535156 129.144531 84.355469 C 129.082031 84.222656 128.917969 84.328125 128.992188 84.433594 Z M 128.738281 84.835938 C 128.8125 84.628906 128.859375 84.417969 129.039062 84.265625 C 129.21875 84.117188 129.398438 84.148438 129.59375 84.222656 C 129.667969 84.253906 129.714844 84.148438 129.667969 84.085938 C 129.503906 83.90625 129.203125 83.9375 128.992188 84.042969 C 128.738281 84.191406 128.589844 84.492188 128.5 84.761719 C 128.46875 84.925781 128.695312 84.988281 128.738281 84.835938 Z M 128.078125 92.042969 L 127.882812 91.171875 C 127.882812 91.171875 127.867188 91.171875 127.867188 91.15625 C 127.507812 90.917969 127.269531 90.484375 127.058594 90.125 C 126.773438 89.660156 126.503906 89.195312 126.25 88.714844 C 126.21875 88.65625 126.308594 88.609375 126.339844 88.671875 C 126.59375 89.074219 126.835938 89.511719 127.121094 89.898438 C 127.359375 90.242188 127.6875 90.542969 127.914062 90.902344 L 128.828125 89.808594 L 129.144531 90.257812 L 129.234375 91.066406 L 129.054688 91.488281 C 129.097656 91.488281 129.144531 91.488281 129.1875 91.472656 C 129.277344 91.472656 129.351562 91.441406 129.429688 91.488281 C 129.472656 91.5 129.472656 91.5625 129.429688 91.59375 C 129.351562 91.636719 129.277344 91.605469 129.1875 91.605469 C 129.128906 91.605469 129.070312 91.59375 129.007812 91.59375 L 128.886719 91.875 L 129.25 92.339844 L 128.5 95.636719 L 126.21875 98.632812 L 125.949219 96.714844 L 128.078125 92.042969 " fill-opacity="1" fill-rule="nonzero"/><g fill="#24469d" fill-opacity="1"><g transform="translate(83.489741, 166.559547)"><g><path d="M 10.363281 0 L 13.667969 0 L 13.667969 -8.070312 C 13.667969 -9.621094 13.449219 -10.386719 13.152344 -11.003906 C 12.484375 -12.363281 11.078125 -13.25 9.054688 -13.25 L 1.652344 -13.25 L 1.652344 -10.488281 L 8.242188 -10.488281 C 9.648438 -10.488281 10.363281 -9.671875 10.363281 -8.167969 Z M 1.652344 0 L 4.960938 0 L 4.960938 -6.835938 L 1.652344 -6.835938 Z M 1.652344 0 "/></g></g></g><g fill="#24469d" fill-opacity="1"><g transform="translate(99.450182, 166.559547)"><g><path d="M 1.40625 0 L 5.503906 0 C 10.734375 0 12.855469 -1.875 13.519531 -6.21875 C 13.71875 -7.574219 13.792969 -9.351562 13.816406 -10.78125 C 13.84375 -11.792969 13.84375 -12.535156 13.84375 -13.25 L 10.4375 -13.25 L 10.4375 -11.078125 C 10.4375 -9.152344 10.289062 -6.515625 9.894531 -5.15625 C 9.648438 -4.023438 9.277344 -3.429688 8.609375 -3.109375 L 4.710938 -13.25 L 1.109375 -13.25 L 5.28125 -2.761719 L 1.40625 -2.761719 Z M 1.40625 0 "/></g></g></g><g fill="#24469d" fill-opacity="1"><g transform="translate(115.509302, 166.559547)"><g><path d="M 1.035156 0.542969 L 5.476562 -2 L 5.527344 -2 C 5.648438 -1.382812 5.847656 -0.667969 6.09375 0 L 9.203125 0 L 8.710938 -1.875 C 8.316406 -3.429688 8.265625 -4.6875 8.265625 -6.710938 L 8.265625 -13.25 L 1.777344 -13.25 L 1.777344 -10.511719 L 5.007812 -10.511719 L 5.007812 -6.808594 C 5.007812 -6.144531 5.007812 -5.578125 5.035156 -5.058594 L 1.035156 -2.789062 Z M 1.035156 0.542969 "/></g></g></g><g fill="#24469d" fill-opacity="1"><g transform="translate(126.634829, 166.559547)"><g><path d="M 10.363281 0 L 13.667969 0 L 13.667969 -8.070312 C 13.667969 -9.621094 13.449219 -10.386719 13.152344 -11.003906 C 12.484375 -12.363281 11.078125 -13.25 9.054688 -13.25 L 1.652344 -13.25 L 1.652344 -10.488281 L 8.242188 -10.488281 C 9.648438 -10.488281 10.363281 -9.671875 10.363281 -8.167969 Z M 1.652344 0 L 4.960938 0 L 4.960938 -6.835938 L 1.652344 -6.835938 Z M 1.652344 0 "/></g></g></g><g fill="#24469d" fill-opacity="1"><g transform="translate(142.59527, 166.559547)"><g/></g></g><g fill="#24469d" fill-opacity="1"><g transform="translate(148.935216, 166.559547)"><g><path d="M 7.699219 0 L 11.003906 0 L 11.003906 -8.070312 C 11.003906 -9.621094 10.78125 -10.386719 10.488281 -11.003906 C 9.796875 -12.386719 8.414062 -13.25 6.414062 -13.25 L 0.914062 -13.25 L 0.914062 -10.488281 L 5.578125 -10.488281 C 7.007812 -10.488281 7.699219 -9.671875 7.699219 -8.167969 Z M 7.699219 0 "/></g></g></g><g fill="#24469d" fill-opacity="1"><g transform="translate(162.231528, 166.559547)"><g><path d="M 2.761719 0 L 6.121094 0 L 6.121094 -13.25 L 1.257812 -13.25 L 1.257812 -10.488281 L 2.761719 -10.488281 Z M 2.761719 0 "/></g></g></g><g fill="#24469d" fill-opacity="1"><g transform="translate(170.816255, 166.559547)"><g><path d="M 9.152344 0.34375 C 13.988281 0.34375 17.246094 -2.910156 17.246094 -7.699219 L 17.246094 -13.25 L 14.113281 -13.25 L 14.113281 -7.996094 C 14.113281 -4.589844 12.164062 -2.367188 9.226562 -2.367188 C 7.648438 -2.367188 6.367188 -3.011719 5.578125 -4.195312 C 9.277344 -4.960938 10.882812 -6.710938 10.882812 -10.089844 L 10.882812 -13.25 L 7.820312 -13.25 L 7.820312 -10.238281 C 7.820312 -7.847656 6.882812 -6.710938 4.710938 -6.316406 C 4.613281 -6.761719 4.589844 -7.230469 4.589844 -7.746094 L 4.589844 -13.25 L 1.457031 -13.25 L 1.457031 -7.304688 C 1.457031 -2.542969 4.589844 0.34375 9.152344 0.34375 Z M 9.152344 0.34375 "/></g></g></g><g fill="#24469d" fill-opacity="1"><g transform="translate(190.32888, 166.559547)"><g><path d="M 2.664062 -4.640625 L 5.972656 -4.640625 L 5.972656 -13.25 L 1.160156 -13.25 L 1.160156 -10.488281 L 2.664062 -10.488281 Z M 2.664062 -4.640625 "/></g></g></g><g fill="#24469d" fill-opacity="1"><g transform="translate(198.79026, 166.559547)"><g><path d="M 1.035156 0 L 4.492188 0 C 4.589844 -0.8125 4.710938 -1.503906 4.859375 -2.441406 C 5.082031 -3.628906 5.15625 -4.960938 6.488281 -5.675781 L 10.707031 0 L 14.582031 0 L 10.089844 -6.046875 C 12.78125 -6.808594 13.449219 -8.5625 13.941406 -11.152344 C 14.089844 -11.867188 14.210938 -12.609375 14.3125 -13.25 L 10.90625 -13.25 C 10.808594 -12.632812 10.734375 -11.941406 10.632812 -11.277344 C 10.4375 -9.917969 10.289062 -8.609375 8.683594 -7.96875 L 4.761719 -13.25 L 0.886719 -13.25 L 5.007812 -7.671875 C 2.589844 -6.859375 2.023438 -5.082031 1.554688 -2.761719 C 1.355469 -1.777344 1.183594 -0.863281 1.035156 0 Z M 1.035156 0 "/></g></g></g></svg>