<svg xmlns="http://www.w3.org/2000/svg" xmlns:xlink="http://www.w3.org/1999/xlink" width="1020" zoomAndPan="magnify" viewBox="0 0 765 409.499983" height="546" preserveAspectRatio="xMidYMid meet" version="1.2"><defs><clipPath id="57590aa49c"><path d="M 346 27.546875 L 425 27.546875 L 425 248 L 346 248 Z M 346 27.546875 "/></clipPath></defs><g id="834ed591af"><g style="fill:#724913;fill-opacity:1;"><g transform="translate(296.090405, 313.11315)"><path style="stroke:none" d="M 9.984375 -18.84375 C 9.984375 -18.476562 9.941406 -18.203125 9.859375 -18.015625 C 9.785156 -17.828125 9.707031 -17.671875 9.625 -17.546875 C 9.539062 -17.429688 9.457031 -17.035156 9.375 -16.359375 C 9.300781 -15.679688 9.265625 -14.726562 9.265625 -13.5 L 9.265625 -13.1875 C 9.265625 -10.820312 9.453125 -8.09375 9.828125 -5 C 10.210938 -1.914062 10.40625 0.238281 10.40625 1.46875 C 10.40625 2.601562 10.328125 3.734375 10.171875 4.859375 C 10.109375 5.222656 10.019531 5.578125 9.90625 5.921875 C 9.800781 6.265625 9.695312 6.546875 9.59375 6.765625 C 9.5 6.992188 9.363281 7.234375 9.1875 7.484375 C 9.019531 7.734375 8.894531 7.910156 8.8125 8.015625 C 8.726562 8.117188 8.585938 8.269531 8.390625 8.46875 C 8.203125 8.675781 8.101562 8.796875 8.09375 8.828125 C 7.632812 9.273438 7.34375 9.46875 7.21875 9.40625 C 7.09375 9.34375 7.03125 8.910156 7.03125 8.109375 C 7.03125 4.828125 6.972656 0.734375 6.859375 -4.171875 C 6.742188 -9.085938 6.6875 -13.21875 6.6875 -16.5625 C 6.6875 -17.1875 6.484375 -17.585938 6.078125 -17.765625 C 5.671875 -17.941406 4.972656 -18.03125 3.984375 -18.03125 L 2.515625 -18.03125 C 2.234375 -18.03125 2.007812 -18.113281 1.84375 -18.28125 C 1.675781 -18.445312 1.632812 -18.65625 1.71875 -18.90625 L 3.0625 -23.734375 C 3.132812 -23.953125 3.265625 -24.148438 3.453125 -24.328125 C 3.648438 -24.503906 3.828125 -24.59375 3.984375 -24.59375 C 4.222656 -24.59375 4.363281 -24.515625 4.40625 -24.359375 C 4.613281 -23.035156 4.859375 -22.25 5.140625 -22 L 8.96875 -22 C 9.644531 -22 9.984375 -21.550781 9.984375 -20.65625 Z M 9.984375 -18.84375 "/></g></g><g style="fill:#724913;fill-opacity:1;"><g transform="translate(308.986088, 313.11315)"><path style="stroke:none" d="M 17.3125 -22 C 17.96875 -22 18.550781 -21.925781 19.0625 -21.78125 C 19.570312 -21.644531 20 -21.472656 20.34375 -21.265625 C 20.6875 -21.066406 20.984375 -20.78125 21.234375 -20.40625 C 21.484375 -20.039062 21.675781 -19.695312 21.8125 -19.375 C 21.957031 -19.0625 22.082031 -18.644531 22.1875 -18.125 C 22.289062 -17.601562 22.359375 -17.160156 22.390625 -16.796875 C 22.429688 -16.441406 22.472656 -15.960938 22.515625 -15.359375 C 22.566406 -14.765625 22.613281 -14.304688 22.65625 -13.984375 L 23.359375 -3.796875 C 23.367188 -3.734375 23.375 -3.648438 23.375 -3.546875 C 23.375 -2.941406 23.175781 -2.253906 22.78125 -1.484375 C 22.382812 -0.710938 21.960938 -0.09375 21.515625 0.375 C 21.273438 0.613281 21.0625 0.734375 20.875 0.734375 C 20.519531 0.734375 20.34375 0 20.34375 -1.46875 C 20.34375 -2.070312 20.285156 -3.96875 20.171875 -7.15625 C 20.054688 -10.351562 20 -12.328125 20 -13.078125 C 20 -13.890625 19.988281 -14.46875 19.96875 -14.8125 C 19.945312 -15.164062 19.875 -15.578125 19.75 -16.046875 C 19.625 -16.523438 19.429688 -16.851562 19.171875 -17.03125 C 18.910156 -17.207031 18.523438 -17.394531 18.015625 -17.59375 C 17.503906 -17.789062 16.878906 -17.910156 16.140625 -17.953125 C 15.398438 -18.003906 14.472656 -18.03125 13.359375 -18.03125 L 9.984375 -18.03125 C 9.347656 -18.03125 8.84375 -17.640625 8.46875 -16.859375 C 8.09375 -16.085938 7.90625 -15.28125 7.90625 -14.4375 L 8.578125 -5.21875 C 8.578125 -5.09375 8.582031 -4.914062 8.59375 -4.6875 C 8.601562 -4.46875 8.609375 -4.3125 8.609375 -4.21875 C 8.609375 -4.03125 8.601562 -3.847656 8.59375 -3.671875 C 8.582031 -3.503906 8.566406 -3.367188 8.546875 -3.265625 C 8.535156 -3.160156 8.5 -3.019531 8.4375 -2.84375 C 8.382812 -2.675781 8.351562 -2.566406 8.34375 -2.515625 C 8.34375 -2.472656 8.300781 -2.351562 8.21875 -2.15625 C 8.144531 -1.957031 8.101562 -1.847656 8.09375 -1.828125 C 7.726562 -0.960938 7.414062 -0.441406 7.15625 -0.265625 C 6.894531 -0.0859375 6.300781 0 5.375 0 L 2.15625 0 C 1.382812 0 1 -0.160156 1 -0.484375 C 1 -0.554688 1.128906 -0.96875 1.390625 -1.71875 C 1.609375 -2.300781 1.835938 -2.671875 2.078125 -2.828125 C 2.316406 -2.992188 2.847656 -3.15625 3.671875 -3.3125 C 4.585938 -3.445312 5.15625 -3.640625 5.375 -3.890625 C 5.59375 -4.148438 5.703125 -4.789062 5.703125 -5.8125 L 5.703125 -5.96875 L 5.59375 -13.515625 C 5.59375 -13.734375 5.609375 -13.945312 5.640625 -14.15625 C 5.671875 -14.375 5.695312 -14.5625 5.71875 -14.71875 C 5.75 -14.875 5.804688 -15.054688 5.890625 -15.265625 C 5.972656 -15.472656 6.03125 -15.628906 6.0625 -15.734375 C 6.101562 -15.835938 6.179688 -15.992188 6.296875 -16.203125 C 6.421875 -16.410156 6.5 -16.539062 6.53125 -16.59375 C 6.5625 -16.65625 6.648438 -16.800781 6.796875 -17.03125 C 6.953125 -17.257812 7.035156 -17.390625 7.046875 -17.421875 L 5.703125 -18.03125 C 5.660156 -18.039062 5.585938 -18.066406 5.484375 -18.109375 C 5.390625 -18.148438 5.320312 -18.179688 5.28125 -18.203125 C 5.238281 -18.222656 5.179688 -18.253906 5.109375 -18.296875 C 5.046875 -18.335938 5 -18.375 4.96875 -18.40625 C 4.9375 -18.445312 4.90625 -18.492188 4.875 -18.546875 C 4.851562 -18.609375 4.84375 -18.664062 4.84375 -18.71875 C 4.84375 -18.757812 4.859375 -18.820312 4.890625 -18.90625 L 6.234375 -23.734375 C 6.316406 -23.984375 6.453125 -24.179688 6.640625 -24.328125 C 6.828125 -24.472656 7.007812 -24.546875 7.1875 -24.546875 C 7.4375 -24.546875 7.5625 -24.421875 7.5625 -24.171875 C 7.5625 -23.765625 7.628906 -23.34375 7.765625 -22.90625 C 7.910156 -22.476562 8.085938 -22.175781 8.296875 -22 Z M 17.3125 -22 "/></g></g><g style="fill:#724913;fill-opacity:1;"><g transform="translate(333.917738, 313.11315)"><path style="stroke:none" d="M 6.9375 -13.015625 C 6.9375 -11.648438 6.972656 -10.148438 7.046875 -8.515625 C 7.117188 -6.890625 7.15625 -5.882812 7.15625 -5.5 C 7.15625 -4.445312 6.972656 -3.554688 6.609375 -2.828125 C 6.242188 -2.097656 5.59375 -1.222656 4.65625 -0.203125 C 4.414062 0.046875 4.15625 0.203125 3.875 0.265625 L 3.25 0.375 C 3.007812 0.40625 2.867188 0.390625 2.828125 0.328125 C 2.796875 0.273438 2.78125 0.140625 2.78125 -0.078125 C 2.78125 -1.390625 3.082031 -3.910156 3.6875 -7.640625 C 4.289062 -11.367188 4.59375 -14.335938 4.59375 -16.546875 C 4.59375 -17.015625 4.5 -17.378906 4.3125 -17.640625 C 4.125 -17.898438 3.914062 -18.03125 3.6875 -18.03125 L 3.328125 -18.03125 C 3.054688 -18.03125 2.835938 -18.113281 2.671875 -18.28125 C 2.515625 -18.445312 2.46875 -18.65625 2.53125 -18.90625 L 3.875 -23.734375 C 3.957031 -23.972656 4.109375 -24.164062 4.328125 -24.3125 C 4.546875 -24.46875 4.753906 -24.546875 4.953125 -24.546875 C 5.128906 -24.546875 5.21875 -24.484375 5.21875 -24.359375 C 5.21875 -23.941406 5.289062 -23.488281 5.4375 -23 C 5.582031 -22.507812 5.753906 -22.175781 5.953125 -22 L 23.140625 -22 C 23.421875 -22 23.609375 -21.941406 23.703125 -21.828125 C 23.796875 -21.722656 23.8125 -21.519531 23.75 -21.21875 L 23.390625 -19.3125 C 23.304688 -18.9375 23.207031 -18.648438 23.09375 -18.453125 C 22.988281 -18.265625 22.882812 -18.144531 22.78125 -18.09375 C 22.675781 -18.039062 22.566406 -17.972656 22.453125 -17.890625 C 22.335938 -17.816406 22.222656 -17.644531 22.109375 -17.375 C 22.003906 -17.113281 21.910156 -16.734375 21.828125 -16.234375 C 21.660156 -15.335938 21.578125 -14.328125 21.578125 -13.203125 C 21.578125 -12.128906 21.726562 -10.640625 22.03125 -8.734375 C 22.34375 -6.828125 22.5 -5.3125 22.5 -4.1875 C 22.5 -3.488281 22.347656 -2.835938 22.046875 -2.234375 C 21.742188 -1.640625 21.328125 -0.992188 20.796875 -0.296875 C 20.578125 -0.00390625 20.210938 0.21875 19.703125 0.375 L 19.4375 0.375 C 19.195312 0.4375 19.050781 0.441406 19 0.390625 C 18.957031 0.335938 18.9375 0.207031 18.9375 0 C 18.9375 -0.976562 18.945312 -2.988281 18.96875 -6.03125 C 18.988281 -9.070312 19 -12.546875 19 -16.453125 C 19 -17.003906 18.867188 -17.40625 18.609375 -17.65625 C 18.347656 -17.90625 17.863281 -18.03125 17.15625 -18.03125 L 9.4375 -18.03125 C 8.945312 -18.03125 8.523438 -17.863281 8.171875 -17.53125 C 7.828125 -17.207031 7.570312 -16.769531 7.40625 -16.21875 C 7.238281 -15.675781 7.117188 -15.144531 7.046875 -14.625 C 6.972656 -14.113281 6.9375 -13.578125 6.9375 -13.015625 Z M 6.9375 -13.015625 "/></g></g><g style="fill:#724913;fill-opacity:1;"><g transform="translate(359.667156, 313.11315)"><path style="stroke:none" d="M 3.578125 -18.03125 C 3.304688 -18.03125 3.085938 -18.113281 2.921875 -18.28125 C 2.765625 -18.445312 2.71875 -18.65625 2.78125 -18.90625 L 4.125 -23.734375 C 4.207031 -23.972656 4.359375 -24.164062 4.578125 -24.3125 C 4.796875 -24.46875 5.003906 -24.546875 5.203125 -24.546875 C 5.378906 -24.546875 5.46875 -24.484375 5.46875 -24.359375 C 5.46875 -23.941406 5.539062 -23.488281 5.6875 -23 C 5.832031 -22.507812 6.003906 -22.175781 6.203125 -22 L 21.609375 -22 C 21.890625 -22 22.078125 -21.941406 22.171875 -21.828125 C 22.265625 -21.722656 22.28125 -21.519531 22.21875 -21.21875 L 21.859375 -19.3125 C 21.773438 -18.9375 21.675781 -18.648438 21.5625 -18.453125 C 21.457031 -18.265625 21.351562 -18.144531 21.25 -18.09375 C 21.144531 -18.039062 21.035156 -17.972656 20.921875 -17.890625 C 20.804688 -17.816406 20.691406 -17.644531 20.578125 -17.375 C 20.472656 -17.113281 20.378906 -16.734375 20.296875 -16.234375 C 20.128906 -15.335938 20.046875 -14.328125 20.046875 -13.203125 C 20.046875 -12.128906 20.195312 -10.640625 20.5 -8.734375 C 20.8125 -6.828125 20.96875 -5.3125 20.96875 -4.1875 C 20.96875 -3.488281 20.816406 -2.835938 20.515625 -2.234375 C 20.210938 -1.640625 19.796875 -0.992188 19.265625 -0.296875 C 19.128906 -0.109375 19.03125 0.00390625 18.96875 0.046875 C 18.90625 0.0859375 18.757812 0.140625 18.53125 0.203125 L 17.90625 0.375 C 17.664062 0.4375 17.519531 0.441406 17.46875 0.390625 C 17.425781 0.335938 17.40625 0.207031 17.40625 0 C 17.40625 -0.976562 17.414062 -2.988281 17.4375 -6.03125 C 17.457031 -9.070312 17.46875 -12.546875 17.46875 -16.453125 C 17.46875 -17.003906 17.335938 -17.40625 17.078125 -17.65625 C 16.816406 -17.90625 16.332031 -18.03125 15.625 -18.03125 Z M 5.28125 -13.578125 C 5.53125 -13.691406 5.703125 -13.710938 5.796875 -13.640625 C 5.890625 -13.578125 5.9375 -13.363281 5.9375 -13 L 5.9375 -10.9375 C 5.9375 -10.550781 6.019531 -9.703125 6.1875 -8.390625 C 6.363281 -7.078125 6.453125 -6.003906 6.453125 -5.171875 C 6.453125 -2.710938 5.628906 -0.988281 3.984375 0 C 3.566406 0.25 3.222656 0.375 2.953125 0.375 C 2.585938 0.375 2.40625 0.128906 2.40625 -0.359375 C 2.40625 -0.492188 2.425781 -0.664062 2.46875 -0.875 C 2.769531 -2.488281 2.992188 -4.003906 3.140625 -5.421875 C 3.285156 -6.835938 3.363281 -7.921875 3.375 -8.671875 C 3.382812 -9.429688 3.398438 -10.117188 3.421875 -10.734375 C 3.441406 -11.359375 3.5 -11.820312 3.59375 -12.125 C 3.6875 -12.425781 3.859375 -12.691406 4.109375 -12.921875 C 4.359375 -13.148438 4.75 -13.367188 5.28125 -13.578125 Z M 5.28125 -13.578125 "/></g></g><g style="fill:#724913;fill-opacity:1;"><g transform="translate(383.885874, 313.11315)"><path style="stroke:none" d=""/></g></g><g style="fill:#724913;fill-opacity:1;"><g transform="translate(397.515453, 313.11315)"><path style="stroke:none" d="M 5.53125 -24.703125 C 5.53125 -24.679688 5.523438 -24.632812 5.515625 -24.5625 C 5.503906 -24.5 5.488281 -24.398438 5.46875 -24.265625 C 5.457031 -24.128906 5.453125 -23.988281 5.453125 -23.84375 C 5.453125 -23.070312 5.578125 -22.523438 5.828125 -22.203125 L 8.875 -21.65625 C 10.769531 -21.332031 11.71875 -20.265625 11.71875 -18.453125 C 11.71875 -17.484375 11.453125 -16.164062 10.921875 -14.5 C 10.398438 -12.84375 9.867188 -11.546875 9.328125 -10.609375 C 8.640625 -9.535156 7.816406 -8.816406 6.859375 -8.453125 C 6.734375 -8.410156 6.609375 -8.390625 6.484375 -8.390625 C 6.253906 -8.390625 6.054688 -8.4375 5.890625 -8.53125 C 5.722656 -8.632812 5.640625 -8.75 5.640625 -8.875 C 5.640625 -8.914062 5.644531 -8.945312 5.65625 -8.96875 C 7.457031 -12.15625 8.359375 -14.425781 8.359375 -15.78125 C 8.359375 -17.050781 7.578125 -17.835938 6.015625 -18.140625 L 2.578125 -18.765625 C 2.367188 -18.796875 2.191406 -18.875 2.046875 -19 C 1.910156 -19.132812 1.84375 -19.285156 1.84375 -19.453125 C 1.84375 -19.566406 1.867188 -19.671875 1.921875 -19.765625 L 4.09375 -24.296875 C 4.3125 -24.703125 4.664062 -24.90625 5.15625 -24.90625 C 5.40625 -24.90625 5.53125 -24.835938 5.53125 -24.703125 Z M 5.53125 -24.703125 "/></g></g><g style="fill:#724913;fill-opacity:1;"><g transform="translate(411.480529, 313.11315)"><path style="stroke:none" d="M 17.828125 -2.3125 L 17.109375 -0.71875 C 16.941406 -0.320312 16.785156 -0.046875 16.640625 0.109375 C 16.503906 0.273438 16.289062 0.425781 16 0.5625 C 15.832031 0.632812 15.710938 0.671875 15.640625 0.671875 C 15.484375 0.671875 15.40625 0.347656 15.40625 -0.296875 C 15.40625 -0.941406 15.359375 -3.085938 15.265625 -6.734375 C 15.179688 -10.390625 15.140625 -12.503906 15.140625 -13.078125 C 15.140625 -13.898438 15.128906 -14.488281 15.109375 -14.84375 C 15.085938 -15.207031 15.007812 -15.628906 14.875 -16.109375 C 14.738281 -16.585938 14.546875 -16.90625 14.296875 -17.0625 C 14.046875 -17.226562 13.664062 -17.410156 13.15625 -17.609375 C 12.644531 -17.804688 12.019531 -17.925781 11.28125 -17.96875 C 10.550781 -18.007812 9.617188 -18.03125 8.484375 -18.03125 L 2.71875 -18.03125 C 2.5 -18.03125 2.304688 -18.09375 2.140625 -18.21875 C 1.972656 -18.34375 1.890625 -18.503906 1.890625 -18.703125 C 1.890625 -18.734375 1.898438 -18.800781 1.921875 -18.90625 L 3.265625 -23.734375 C 3.347656 -23.984375 3.484375 -24.179688 3.671875 -24.328125 C 3.867188 -24.472656 4.054688 -24.546875 4.234375 -24.546875 C 4.484375 -24.546875 4.609375 -24.421875 4.609375 -24.171875 C 4.609375 -23.765625 4.675781 -23.34375 4.8125 -22.90625 C 4.957031 -22.476562 5.132812 -22.175781 5.34375 -22 L 12.453125 -22 C 13.140625 -22 13.75 -21.929688 14.28125 -21.796875 C 14.8125 -21.660156 15.25 -21.488281 15.59375 -21.28125 C 15.945312 -21.070312 16.25 -20.785156 16.5 -20.421875 C 16.75 -20.054688 16.941406 -19.707031 17.078125 -19.375 C 17.210938 -19.050781 17.320312 -18.632812 17.40625 -18.125 C 17.488281 -17.625 17.539062 -17.179688 17.5625 -16.796875 C 17.59375 -16.421875 17.628906 -15.945312 17.671875 -15.375 C 17.710938 -14.8125 17.753906 -14.347656 17.796875 -13.984375 L 18.34375 -6.75 C 18.34375 -6.632812 18.351562 -6.273438 18.375 -5.671875 C 18.40625 -5.078125 18.421875 -4.738281 18.421875 -4.65625 C 18.421875 -4.207031 18.378906 -3.835938 18.296875 -3.546875 C 18.210938 -3.253906 18.054688 -2.84375 17.828125 -2.3125 Z M 17.828125 -2.3125 "/></g></g><g style="fill:#724913;fill-opacity:1;"><g transform="translate(431.421656, 313.11315)"><path style="stroke:none" d="M 10 -16.796875 C 10 -16.359375 9.992188 -15.710938 9.984375 -14.859375 C 9.984375 -14.003906 9.984375 -13.441406 9.984375 -13.171875 C 9.984375 -12.085938 10.109375 -10.597656 10.359375 -8.703125 C 10.609375 -6.816406 10.734375 -5.3125 10.734375 -4.1875 C 10.734375 -3.488281 10.582031 -2.835938 10.28125 -2.234375 C 9.976562 -1.640625 9.5625 -0.992188 9.03125 -0.296875 C 8.894531 -0.109375 8.796875 0.00390625 8.734375 0.046875 C 8.671875 0.0859375 8.523438 0.140625 8.296875 0.203125 L 7.671875 0.375 C 7.429688 0.4375 7.285156 0.441406 7.234375 0.390625 C 7.191406 0.335938 7.171875 0.207031 7.171875 0 L 7.171875 -16.453125 C 7.171875 -16.960938 7.046875 -17.320312 6.796875 -17.53125 C 6.554688 -17.738281 6.085938 -17.90625 5.390625 -18.03125 C 3.378906 -18.363281 2.359375 -18.53125 2.328125 -18.53125 C 2.097656 -18.570312 1.921875 -18.695312 1.796875 -18.90625 C 1.671875 -19.113281 1.640625 -19.335938 1.703125 -19.578125 L 2.765625 -23.734375 C 2.835938 -23.972656 2.984375 -24.164062 3.203125 -24.3125 C 3.429688 -24.46875 3.644531 -24.546875 3.84375 -24.546875 C 4.019531 -24.546875 4.109375 -24.484375 4.109375 -24.359375 C 4.109375 -23.953125 4.171875 -23.539062 4.296875 -23.125 C 4.429688 -22.707031 4.609375 -22.40625 4.828125 -22.21875 C 5.765625 -22.03125 6.550781 -21.816406 7.1875 -21.578125 C 7.832031 -21.347656 8.335938 -21.117188 8.703125 -20.890625 C 9.078125 -20.660156 9.359375 -20.375 9.546875 -20.03125 C 9.734375 -19.6875 9.851562 -19.359375 9.90625 -19.046875 C 9.96875 -18.742188 10 -18.347656 10 -17.859375 Z M 10 -16.796875 "/></g></g><g style="fill:#724913;fill-opacity:1;"><g transform="translate(443.939905, 313.11315)"><path style="stroke:none" d="M 3.578125 -18.03125 C 3.304688 -18.03125 3.085938 -18.113281 2.921875 -18.28125 C 2.765625 -18.445312 2.71875 -18.65625 2.78125 -18.90625 L 4.125 -23.734375 C 4.207031 -23.972656 4.359375 -24.164062 4.578125 -24.3125 C 4.796875 -24.46875 5.003906 -24.546875 5.203125 -24.546875 C 5.378906 -24.546875 5.46875 -24.484375 5.46875 -24.359375 C 5.46875 -23.941406 5.539062 -23.488281 5.6875 -23 C 5.832031 -22.507812 6.003906 -22.175781 6.203125 -22 L 21.609375 -22 C 21.890625 -22 22.078125 -21.941406 22.171875 -21.828125 C 22.265625 -21.722656 22.28125 -21.519531 22.21875 -21.21875 L 21.859375 -19.3125 C 21.773438 -18.9375 21.675781 -18.648438 21.5625 -18.453125 C 21.457031 -18.265625 21.351562 -18.144531 21.25 -18.09375 C 21.144531 -18.039062 21.035156 -17.972656 20.921875 -17.890625 C 20.804688 -17.816406 20.691406 -17.644531 20.578125 -17.375 C 20.472656 -17.113281 20.378906 -16.734375 20.296875 -16.234375 C 20.128906 -15.335938 20.046875 -14.328125 20.046875 -13.203125 C 20.046875 -12.128906 20.195312 -10.640625 20.5 -8.734375 C 20.8125 -6.828125 20.96875 -5.3125 20.96875 -4.1875 C 20.96875 -3.488281 20.816406 -2.835938 20.515625 -2.234375 C 20.210938 -1.640625 19.796875 -0.992188 19.265625 -0.296875 C 19.128906 -0.109375 19.03125 0.00390625 18.96875 0.046875 C 18.90625 0.0859375 18.757812 0.140625 18.53125 0.203125 L 17.90625 0.375 C 17.664062 0.4375 17.519531 0.441406 17.46875 0.390625 C 17.425781 0.335938 17.40625 0.207031 17.40625 0 C 17.40625 -0.976562 17.414062 -2.988281 17.4375 -6.03125 C 17.457031 -9.070312 17.46875 -12.546875 17.46875 -16.453125 C 17.46875 -17.003906 17.335938 -17.40625 17.078125 -17.65625 C 16.816406 -17.90625 16.332031 -18.03125 15.625 -18.03125 Z M 5.28125 -13.578125 C 5.53125 -13.691406 5.703125 -13.710938 5.796875 -13.640625 C 5.890625 -13.578125 5.9375 -13.363281 5.9375 -13 L 5.9375 -10.9375 C 5.9375 -10.550781 6.019531 -9.703125 6.1875 -8.390625 C 6.363281 -7.078125 6.453125 -6.003906 6.453125 -5.171875 C 6.453125 -2.710938 5.628906 -0.988281 3.984375 0 C 3.566406 0.25 3.222656 0.375 2.953125 0.375 C 2.585938 0.375 2.40625 0.128906 2.40625 -0.359375 C 2.40625 -0.492188 2.425781 -0.664062 2.46875 -0.875 C 2.769531 -2.488281 2.992188 -4.003906 3.140625 -5.421875 C 3.285156 -6.835938 3.363281 -7.921875 3.375 -8.671875 C 3.382812 -9.429688 3.398438 -10.117188 3.421875 -10.734375 C 3.441406 -11.359375 3.5 -11.820312 3.59375 -12.125 C 3.6875 -12.425781 3.859375 -12.691406 4.109375 -12.921875 C 4.359375 -13.148438 4.75 -13.367188 5.28125 -13.578125 Z M 5.28125 -13.578125 "/></g></g><g style="fill:#724913;fill-opacity:1;"><g transform="translate(247.832921, 380.530827)"><path style="stroke:none" d="M 11.859375 -19.921875 C 11.859375 -19.410156 11.851562 -18.644531 11.84375 -17.625 C 11.84375 -16.613281 11.84375 -15.945312 11.84375 -15.625 C 11.84375 -14.34375 11.988281 -12.578125 12.28125 -10.328125 C 12.582031 -8.085938 12.734375 -6.300781 12.734375 -4.96875 C 12.734375 -4.144531 12.554688 -3.375 12.203125 -2.65625 C 11.847656 -1.945312 11.351562 -1.175781 10.71875 -0.34375 C 10.550781 -0.132812 10.429688 -0.00390625 10.359375 0.046875 C 10.285156 0.0976562 10.113281 0.164062 9.84375 0.25 L 9.109375 0.453125 C 8.828125 0.515625 8.65625 0.515625 8.59375 0.453125 C 8.53125 0.398438 8.5 0.25 8.5 0 L 8.5 -19.53125 C 8.5 -20.125 8.351562 -20.546875 8.0625 -20.796875 C 7.78125 -21.046875 7.222656 -21.242188 6.390625 -21.390625 C 4.003906 -21.785156 2.796875 -21.984375 2.765625 -21.984375 C 2.492188 -22.035156 2.285156 -22.1875 2.140625 -22.4375 C 1.992188 -22.6875 1.953125 -22.953125 2.015625 -23.234375 L 3.28125 -28.15625 C 3.363281 -28.4375 3.535156 -28.664062 3.796875 -28.84375 C 4.066406 -29.03125 4.316406 -29.125 4.546875 -29.125 C 4.765625 -29.125 4.875 -29.050781 4.875 -28.90625 C 4.875 -28.425781 4.953125 -27.9375 5.109375 -27.4375 C 5.265625 -26.9375 5.46875 -26.578125 5.71875 -26.359375 C 6.832031 -26.128906 7.769531 -25.875 8.53125 -25.59375 C 9.289062 -25.320312 9.890625 -25.050781 10.328125 -24.78125 C 10.773438 -24.507812 11.109375 -24.171875 11.328125 -23.765625 C 11.554688 -23.359375 11.703125 -22.972656 11.765625 -22.609375 C 11.828125 -22.242188 11.859375 -21.769531 11.859375 -21.1875 Z M 11.859375 -19.921875 "/></g></g><g style="fill:#724913;fill-opacity:1;"><g transform="translate(262.678083, 380.530827)"><path style="stroke:none" d="M 4 -0.5 C 4 -0.957031 4.335938 -2.191406 5.015625 -4.203125 C 5.703125 -6.222656 6.382812 -8.5 7.0625 -11.03125 C 7.738281 -13.570312 8.078125 -15.710938 8.078125 -17.453125 C 8.078125 -18.765625 7.695312 -19.601562 6.9375 -19.96875 L 3.265625 -21.390625 C 2.992188 -21.484375 2.800781 -21.5625 2.6875 -21.625 C 2.570312 -21.6875 2.460938 -21.785156 2.359375 -21.921875 C 2.265625 -22.066406 2.25 -22.238281 2.3125 -22.4375 L 3.90625 -28.15625 C 3.988281 -28.414062 4.140625 -28.644531 4.359375 -28.84375 C 4.585938 -29.050781 4.789062 -29.15625 4.96875 -29.15625 C 5.1875 -29.15625 5.363281 -29.070312 5.5 -28.90625 C 5.664062 -28.65625 5.8125 -28.160156 5.9375 -27.421875 C 6.0625 -26.679688 6.207031 -26.238281 6.375 -26.09375 C 6.8125 -25.789062 7.476562 -25.503906 8.375 -25.234375 C 9.269531 -24.960938 9.96875 -24.660156 10.46875 -24.328125 C 10.96875 -23.992188 11.21875 -23.492188 11.21875 -22.828125 C 11.21875 -22.566406 11.195312 -22.296875 11.15625 -22.015625 C 11.113281 -21.742188 11.039062 -21.351562 10.9375 -20.84375 C 10.84375 -20.34375 10.753906 -19.796875 10.671875 -19.203125 C 10.671875 -18.953125 10.789062 -18.789062 11.03125 -18.71875 C 11.269531 -18.644531 11.472656 -18.695312 11.640625 -18.875 C 13.679688 -20.632812 15.253906 -22.34375 16.359375 -24 C 16.628906 -24.3125 16.828125 -24.617188 16.953125 -24.921875 C 17.085938 -25.234375 17.15625 -25.445312 17.15625 -25.5625 C 17.15625 -25.6875 17.253906 -25.796875 17.453125 -25.890625 C 17.660156 -25.992188 17.945312 -26.050781 18.3125 -26.0625 C 18.675781 -26.082031 19.296875 -26.09375 20.171875 -26.09375 C 21.128906 -26.09375 21.910156 -26.0625 22.515625 -26 C 23.117188 -25.945312 23.722656 -25.8125 24.328125 -25.59375 C 24.941406 -25.375 25.421875 -25.070312 25.765625 -24.6875 C 26.117188 -24.3125 26.457031 -23.785156 26.78125 -23.109375 C 27.113281 -22.441406 27.382812 -21.628906 27.59375 -20.671875 C 27.800781 -19.722656 28 -18.5625 28.1875 -17.1875 C 28.25 -16.675781 28.359375 -15.847656 28.515625 -14.703125 C 28.671875 -13.554688 28.796875 -12.625 28.890625 -11.90625 C 28.984375 -11.195312 29.070312 -10.28125 29.15625 -9.15625 C 29.238281 -8.039062 29.28125 -6.953125 29.28125 -5.890625 C 29.28125 -5.265625 29.203125 -4.640625 29.046875 -4.015625 C 28.898438 -3.390625 28.664062 -2.757812 28.34375 -2.125 C 28.019531 -1.5 27.523438 -0.988281 26.859375 -0.59375 C 26.191406 -0.195312 25.414062 0 24.53125 0 L 13.75 0 C 13.382812 0 13.140625 -0.046875 13.015625 -0.140625 C 12.890625 -0.242188 12.894531 -0.453125 13.03125 -0.765625 L 14.34375 -4.109375 C 14.507812 -4.503906 14.640625 -4.738281 14.734375 -4.8125 C 14.828125 -4.882812 15.046875 -4.921875 15.390625 -4.921875 L 23.609375 -4.921875 C 24.660156 -4.921875 25.367188 -5.03125 25.734375 -5.25 C 26.109375 -5.46875 26.296875 -5.941406 26.296875 -6.671875 C 26.296875 -6.765625 26.273438 -6.945312 26.234375 -7.21875 C 26.203125 -7.5 26.1875 -7.726562 26.1875 -7.90625 L 25.390625 -14.109375 C 24.929688 -16.691406 24.335938 -18.492188 23.609375 -19.515625 C 22.878906 -20.546875 21.664062 -21.0625 19.96875 -21.0625 C 19.3125 -21.0625 18.609375 -21.003906 17.859375 -20.890625 C 16.828125 -20.554688 16.003906 -20.132812 15.390625 -19.625 C 14.660156 -19.125 14.015625 -18.59375 13.453125 -18.03125 C 12.890625 -17.46875 12.398438 -16.8125 11.984375 -16.0625 C 11.566406 -15.320312 11.222656 -14.628906 10.953125 -13.984375 C 10.679688 -13.347656 10.410156 -12.5 10.140625 -11.4375 C 9.878906 -10.375 9.671875 -9.460938 9.515625 -8.703125 C 9.359375 -7.941406 9.144531 -6.851562 8.875 -5.4375 C 8.613281 -4.019531 8.382812 -2.835938 8.1875 -1.890625 C 8.019531 -1.128906 7.816406 -0.625 7.578125 -0.375 C 7.335938 -0.125 6.851562 0 6.125 0 L 4.90625 0 C 4.570312 0 4.335938 -0.0234375 4.203125 -0.078125 C 4.066406 -0.140625 4 -0.28125 4 -0.5 Z M 4 -0.5 "/></g></g><g style="fill:#724913;fill-opacity:1;"><g transform="translate(293.43765, 380.530827)"><path style="stroke:none" d="M 2.484375 -21.984375 L 4.15625 -28.15625 C 4.238281 -28.4375 4.40625 -28.671875 4.65625 -28.859375 C 4.914062 -29.054688 5.15625 -29.15625 5.375 -29.15625 C 5.664062 -29.15625 5.8125 -28.992188 5.8125 -28.671875 C 5.8125 -28.191406 5.894531 -27.691406 6.0625 -27.171875 C 6.226562 -26.660156 6.4375 -26.300781 6.6875 -26.09375 L 19.625 -26.09375 C 20.664062 -26.09375 21.691406 -25.632812 22.703125 -24.71875 C 23.710938 -23.8125 24.296875 -22.703125 24.453125 -21.390625 C 24.816406 -19.515625 25 -17.554688 25 -15.515625 C 25 -14.242188 24.957031 -13.066406 24.875 -11.984375 C 24.800781 -10.910156 24.648438 -9.800781 24.421875 -8.65625 C 24.203125 -7.507812 23.921875 -6.484375 23.578125 -5.578125 C 23.234375 -4.679688 22.765625 -3.816406 22.171875 -2.984375 C 21.585938 -2.148438 20.898438 -1.460938 20.109375 -0.921875 C 19.316406 -0.390625 18.363281 0.0351562 17.25 0.359375 C 16.144531 0.679688 14.90625 0.84375 13.53125 0.84375 C 12.5 0.84375 11.566406 0.726562 10.734375 0.5 C 9.910156 0.269531 9.191406 -0.00390625 8.578125 -0.328125 C 7.960938 -0.660156 7.421875 -1.171875 6.953125 -1.859375 C 6.484375 -2.546875 6.085938 -3.171875 5.765625 -3.734375 C 5.453125 -4.296875 5.191406 -5.113281 4.984375 -6.1875 C 4.773438 -7.269531 4.617188 -8.175781 4.515625 -8.90625 C 4.410156 -9.644531 4.328125 -10.71875 4.265625 -12.125 C 4.203125 -13.53125 4.164062 -14.648438 4.15625 -15.484375 C 4.15625 -16.316406 4.15625 -17.554688 4.15625 -19.203125 C 4.15625 -19.566406 4.148438 -19.832031 4.140625 -20 C 4.128906 -20.175781 4.054688 -20.335938 3.921875 -20.484375 C 3.796875 -20.640625 3.707031 -20.726562 3.65625 -20.75 C 3.601562 -20.78125 3.421875 -20.878906 3.109375 -21.046875 C 2.578125 -21.242188 2.367188 -21.554688 2.484375 -21.984375 Z M 21.8125 -12.4375 C 21.8125 -13.363281 21.796875 -14.144531 21.765625 -14.78125 C 21.742188 -15.425781 21.691406 -16.066406 21.609375 -16.703125 C 21.523438 -17.335938 21.410156 -17.859375 21.265625 -18.265625 C 21.128906 -18.671875 20.945312 -19.0625 20.71875 -19.4375 C 20.488281 -19.820312 20.207031 -20.125 19.875 -20.34375 C 19.539062 -20.570312 19.132812 -20.769531 18.65625 -20.9375 C 18.1875 -21.101562 17.65625 -21.21875 17.0625 -21.28125 C 16.46875 -21.351562 15.78125 -21.390625 15 -21.390625 C 12.363281 -21.390625 10.175781 -21.265625 8.4375 -21.015625 C 7.789062 -20.921875 7.347656 -20.742188 7.109375 -20.484375 C 6.878906 -20.222656 6.765625 -19.695312 6.765625 -18.90625 C 6.765625 -17.125 6.828125 -15.523438 6.953125 -14.109375 C 7.085938 -12.691406 7.265625 -11.503906 7.484375 -10.546875 C 7.710938 -9.585938 8.007812 -8.753906 8.375 -8.046875 C 8.738281 -7.335938 9.109375 -6.785156 9.484375 -6.390625 C 9.859375 -6.003906 10.300781 -5.695312 10.8125 -5.46875 C 11.332031 -5.238281 11.816406 -5.085938 12.265625 -5.015625 C 12.722656 -4.953125 13.253906 -4.921875 13.859375 -4.921875 C 14.984375 -4.921875 16.097656 -5.109375 17.203125 -5.484375 C 18.304688 -5.867188 19.265625 -6.351562 20.078125 -6.9375 C 20.804688 -7.632812 21.273438 -8.3125 21.484375 -8.96875 C 21.703125 -9.632812 21.8125 -10.425781 21.8125 -11.34375 Z M 21.8125 -12.4375 "/></g></g><g style="fill:#724913;fill-opacity:1;"><g transform="translate(320.342941, 380.530827)"><path style="stroke:none" d=""/></g></g><g style="fill:#724913;fill-opacity:1;"><g transform="translate(336.506009, 380.530827)"><path style="stroke:none" d="M 19.875 -26.09375 C 20.695312 -26.09375 21.4375 -26.015625 22.09375 -25.859375 C 22.75 -25.710938 23.296875 -25.523438 23.734375 -25.296875 C 24.179688 -25.066406 24.5625 -24.75 24.875 -24.34375 C 25.1875 -23.945312 25.425781 -23.554688 25.59375 -23.171875 C 25.757812 -22.796875 25.890625 -22.320312 25.984375 -21.75 C 26.085938 -21.175781 26.148438 -20.65625 26.171875 -20.1875 C 26.203125 -19.726562 26.21875 -19.164062 26.21875 -18.5 L 26.21875 -3.484375 C 26.21875 -3.128906 26.226562 -2.71875 26.25 -2.25 C 26.28125 -1.789062 26.296875 -1.5 26.296875 -1.375 C 26.296875 -0.789062 26.128906 -0.414062 25.796875 -0.25 C 25.460938 -0.0820312 24.691406 0 23.484375 0 L 5.890625 0 C 5.472656 0 5.164062 -0.0507812 4.96875 -0.15625 C 4.769531 -0.269531 4.65625 -0.394531 4.625 -0.53125 C 4.59375 -0.675781 4.578125 -0.90625 4.578125 -1.21875 C 4.578125 -1.894531 4.546875 -2.898438 4.484375 -4.234375 C 4.429688 -5.578125 4.40625 -6.570312 4.40625 -7.21875 C 4.40625 -13.394531 4.898438 -17.894531 5.890625 -20.71875 L 3.53125 -21.390625 C 2.75 -21.617188 2.4375 -21.96875 2.59375 -22.4375 L 4.171875 -28.15625 C 4.273438 -28.4375 4.453125 -28.664062 4.703125 -28.84375 C 4.960938 -29.03125 5.210938 -29.125 5.453125 -29.125 C 5.660156 -29.125 5.765625 -29.050781 5.765625 -28.90625 C 5.765625 -28.40625 5.851562 -27.863281 6.03125 -27.28125 C 6.207031 -26.695312 6.410156 -26.300781 6.640625 -26.09375 Z M 7.578125 -12.4375 C 7.578125 -9.050781 7.664062 -6.953125 7.84375 -6.140625 C 8.019531 -5.328125 8.503906 -4.921875 9.296875 -4.921875 L 21.71875 -4.921875 C 22.695312 -4.921875 23.304688 -5.070312 23.546875 -5.375 C 23.785156 -5.6875 23.90625 -6.304688 23.90625 -7.234375 L 23.90625 -7.8125 C 23.90625 -8.40625 23.878906 -9.082031 23.828125 -9.84375 C 23.773438 -10.613281 23.707031 -11.347656 23.625 -12.046875 C 23.539062 -12.753906 23.460938 -13.390625 23.390625 -13.953125 C 23.316406 -14.515625 23.25 -15.019531 23.1875 -15.46875 L 23.078125 -16.171875 C 22.941406 -17.128906 22.757812 -17.910156 22.53125 -18.515625 C 22.300781 -19.117188 22.015625 -19.617188 21.671875 -20.015625 C 21.335938 -20.421875 20.835938 -20.71875 20.171875 -20.90625 C 19.503906 -21.09375 18.789062 -21.21875 18.03125 -21.28125 C 17.28125 -21.351562 16.269531 -21.390625 15 -21.390625 L 9.046875 -21.390625 C 8.554688 -21.390625 8.226562 -21.273438 8.0625 -21.046875 C 7.894531 -20.828125 7.8125 -20.453125 7.8125 -19.921875 C 7.8125 -19.078125 7.769531 -17.820312 7.6875 -16.15625 C 7.613281 -14.5 7.578125 -13.257812 7.578125 -12.4375 Z M 7.578125 -12.4375 "/></g></g><g style="fill:#724913;fill-opacity:1;"><g transform="translate(365.873065, 380.530827)"><path style="stroke:none" d="M 21.140625 -2.734375 L 20.296875 -0.84375 C 20.097656 -0.382812 19.914062 -0.0625 19.75 0.125 C 19.582031 0.320312 19.328125 0.503906 18.984375 0.671875 C 18.773438 0.753906 18.628906 0.796875 18.546875 0.796875 C 18.367188 0.796875 18.28125 0.414062 18.28125 -0.34375 C 18.28125 -1.113281 18.222656 -3.664062 18.109375 -8 C 18.003906 -12.332031 17.953125 -14.835938 17.953125 -15.515625 C 17.953125 -16.492188 17.941406 -17.191406 17.921875 -17.609375 C 17.898438 -18.035156 17.804688 -18.535156 17.640625 -19.109375 C 17.484375 -19.679688 17.253906 -20.0625 16.953125 -20.25 C 16.660156 -20.445312 16.210938 -20.660156 15.609375 -20.890625 C 15.003906 -21.117188 14.265625 -21.257812 13.390625 -21.3125 C 12.523438 -21.363281 11.421875 -21.390625 10.078125 -21.390625 L 3.234375 -21.390625 C 2.960938 -21.390625 2.726562 -21.460938 2.53125 -21.609375 C 2.332031 -21.765625 2.234375 -21.957031 2.234375 -22.1875 C 2.234375 -22.21875 2.25 -22.300781 2.28125 -22.4375 L 3.875 -28.15625 C 3.976562 -28.457031 4.140625 -28.691406 4.359375 -28.859375 C 4.585938 -29.035156 4.8125 -29.125 5.03125 -29.125 C 5.320312 -29.125 5.46875 -28.972656 5.46875 -28.671875 C 5.46875 -28.191406 5.550781 -27.691406 5.71875 -27.171875 C 5.882812 -26.660156 6.09375 -26.300781 6.34375 -26.09375 L 14.78125 -26.09375 C 15.59375 -26.09375 16.3125 -26.015625 16.9375 -25.859375 C 17.570312 -25.703125 18.09375 -25.5 18.5 -25.25 C 18.914062 -25 19.269531 -24.65625 19.5625 -24.21875 C 19.863281 -23.789062 20.09375 -23.378906 20.25 -22.984375 C 20.414062 -22.597656 20.546875 -22.109375 20.640625 -21.515625 C 20.742188 -20.921875 20.8125 -20.394531 20.84375 -19.9375 C 20.875 -19.476562 20.914062 -18.910156 20.96875 -18.234375 C 21.019531 -17.566406 21.066406 -17.019531 21.109375 -16.59375 L 21.765625 -8.015625 C 21.765625 -7.878906 21.78125 -7.453125 21.8125 -6.734375 C 21.84375 -6.023438 21.859375 -5.617188 21.859375 -5.515625 C 21.859375 -4.984375 21.804688 -4.546875 21.703125 -4.203125 C 21.609375 -3.859375 21.421875 -3.367188 21.140625 -2.734375 Z M 21.140625 -2.734375 "/></g></g><g style="fill:#724913;fill-opacity:1;"><g transform="translate(389.520882, 380.530827)"><path style="stroke:none" d="M 11.859375 -19.921875 C 11.859375 -19.410156 11.851562 -18.644531 11.84375 -17.625 C 11.84375 -16.613281 11.84375 -15.945312 11.84375 -15.625 C 11.84375 -14.34375 11.988281 -12.578125 12.28125 -10.328125 C 12.582031 -8.085938 12.734375 -6.300781 12.734375 -4.96875 C 12.734375 -4.144531 12.554688 -3.375 12.203125 -2.65625 C 11.847656 -1.945312 11.351562 -1.175781 10.71875 -0.34375 C 10.550781 -0.132812 10.429688 -0.00390625 10.359375 0.046875 C 10.285156 0.0976562 10.113281 0.164062 9.84375 0.25 L 9.109375 0.453125 C 8.828125 0.515625 8.65625 0.515625 8.59375 0.453125 C 8.53125 0.398438 8.5 0.25 8.5 0 L 8.5 -19.53125 C 8.5 -20.125 8.351562 -20.546875 8.0625 -20.796875 C 7.78125 -21.046875 7.222656 -21.242188 6.390625 -21.390625 C 4.003906 -21.785156 2.796875 -21.984375 2.765625 -21.984375 C 2.492188 -22.035156 2.285156 -22.1875 2.140625 -22.4375 C 1.992188 -22.6875 1.953125 -22.953125 2.015625 -23.234375 L 3.28125 -28.15625 C 3.363281 -28.4375 3.535156 -28.664062 3.796875 -28.84375 C 4.066406 -29.03125 4.316406 -29.125 4.546875 -29.125 C 4.765625 -29.125 4.875 -29.050781 4.875 -28.90625 C 4.875 -28.425781 4.953125 -27.9375 5.109375 -27.4375 C 5.265625 -26.9375 5.46875 -26.578125 5.71875 -26.359375 C 6.832031 -26.128906 7.769531 -25.875 8.53125 -25.59375 C 9.289062 -25.320312 9.890625 -25.050781 10.328125 -24.78125 C 10.773438 -24.507812 11.109375 -24.171875 11.328125 -23.765625 C 11.554688 -23.359375 11.703125 -22.972656 11.765625 -22.609375 C 11.828125 -22.242188 11.859375 -21.769531 11.859375 -21.1875 Z M 11.859375 -19.921875 "/></g></g><g style="fill:#724913;fill-opacity:1;"><g transform="translate(404.366044, 380.530827)"><path style="stroke:none" d=""/></g></g><g style="fill:#724913;fill-opacity:1;"><g transform="translate(420.529111, 380.530827)"><path style="stroke:none" d="M 6.5625 -29.296875 C 6.5625 -29.285156 6.550781 -29.238281 6.53125 -29.15625 C 6.519531 -29.070312 6.503906 -28.945312 6.484375 -28.78125 C 6.472656 -28.625 6.46875 -28.457031 6.46875 -28.28125 C 6.46875 -27.363281 6.617188 -26.71875 6.921875 -26.34375 L 10.515625 -25.6875 C 12.773438 -25.3125 13.90625 -24.046875 13.90625 -21.890625 C 13.90625 -20.742188 13.59375 -19.179688 12.96875 -17.203125 C 12.34375 -15.234375 11.707031 -13.691406 11.0625 -12.578125 C 10.25 -11.304688 9.273438 -10.453125 8.140625 -10.015625 C 7.984375 -9.972656 7.832031 -9.953125 7.6875 -9.953125 C 7.414062 -9.953125 7.179688 -10.007812 6.984375 -10.125 C 6.785156 -10.238281 6.6875 -10.367188 6.6875 -10.515625 C 6.6875 -10.566406 6.695312 -10.609375 6.71875 -10.640625 C 8.851562 -14.421875 9.921875 -17.117188 9.921875 -18.734375 C 9.921875 -20.234375 8.992188 -21.160156 7.140625 -21.515625 L 3.0625 -22.265625 C 2.8125 -22.296875 2.601562 -22.390625 2.4375 -22.546875 C 2.269531 -22.703125 2.1875 -22.878906 2.1875 -23.078125 C 2.1875 -23.210938 2.21875 -23.335938 2.28125 -23.453125 L 4.84375 -28.828125 C 5.113281 -29.304688 5.539062 -29.546875 6.125 -29.546875 C 6.414062 -29.546875 6.5625 -29.460938 6.5625 -29.296875 Z M 6.5625 -29.296875 "/></g></g><g style="fill:#724913;fill-opacity:1;"><g transform="translate(437.090039, 380.530827)"><path style="stroke:none" d="M 6.421875 -35.34375 C 5.785156 -34.300781 5.46875 -32.757812 5.46875 -30.71875 C 5.46875 -29.675781 5.644531 -28.554688 6 -27.359375 C 6.28125 -26.515625 6.828125 -26.09375 7.640625 -26.09375 L 18.921875 -26.09375 C 21.472656 -25.65625 22.75 -24.113281 22.75 -21.46875 C 22.75 -19.425781 21.984375 -16.992188 20.453125 -14.171875 C 18.921875 -11.359375 16.878906 -8.65625 14.328125 -6.0625 C 11.773438 -3.476562 9.160156 -1.550781 6.484375 -0.28125 C 5.691406 0.0703125 5.257812 0.210938 5.1875 0.140625 C 5.113281 0.0664062 5.257812 -0.457031 5.625 -1.4375 L 7.1875 -4.921875 C 7.332031 -5.335938 7.507812 -5.671875 7.71875 -5.921875 C 7.925781 -6.171875 8.28125 -6.421875 8.78125 -6.671875 C 11.84375 -8.296875 14.25 -10.238281 16 -12.5 C 17.75 -14.757812 18.625 -16.773438 18.625 -18.546875 C 18.625 -19.429688 18.390625 -20.125 17.921875 -20.625 C 17.453125 -21.132812 16.757812 -21.390625 15.84375 -21.390625 L 4.5 -21.390625 C 3.601562 -21.390625 3.039062 -21.535156 2.8125 -21.828125 C 2.582031 -22.128906 2.46875 -22.644531 2.46875 -23.375 C 2.46875 -24.507812 2.5 -25.585938 2.5625 -26.609375 C 2.625 -27.640625 2.753906 -28.765625 2.953125 -29.984375 C 3.160156 -31.203125 3.320312 -32.140625 3.4375 -32.796875 C 3.5625 -33.460938 3.789062 -34.59375 4.125 -36.1875 C 4.457031 -37.78125 4.679688 -38.867188 4.796875 -39.453125 C 4.929688 -40.054688 5.0625 -40.421875 5.1875 -40.546875 C 5.320312 -40.671875 5.675781 -40.734375 6.25 -40.734375 L 9.421875 -40.734375 C 9.921875 -40.734375 10.195312 -40.648438 10.25 -40.484375 C 10.3125 -40.328125 10.269531 -40.046875 10.125 -39.640625 L 9.296875 -36.765625 C 9.179688 -36.378906 9.046875 -36.128906 8.890625 -36.015625 C 8.734375 -35.898438 8.460938 -35.84375 8.078125 -35.84375 C 7.460938 -35.84375 7.066406 -35.816406 6.890625 -35.765625 C 6.722656 -35.710938 6.566406 -35.570312 6.421875 -35.34375 Z M 6.421875 -35.34375 "/></g></g><g style="fill:#724913;fill-opacity:1;"><g transform="translate(462.254704, 380.530827)"><path style="stroke:none" d="M 8.234375 -15.453125 C 8.234375 -13.828125 8.273438 -12.046875 8.359375 -10.109375 C 8.441406 -8.179688 8.484375 -6.984375 8.484375 -6.515625 C 8.484375 -5.273438 8.265625 -4.222656 7.828125 -3.359375 C 7.398438 -2.492188 6.628906 -1.457031 5.515625 -0.25 C 5.234375 0.0507812 4.925781 0.242188 4.59375 0.328125 L 3.859375 0.453125 C 3.578125 0.484375 3.414062 0.460938 3.375 0.390625 C 3.332031 0.328125 3.3125 0.164062 3.3125 -0.09375 C 3.3125 -1.65625 3.664062 -4.644531 4.375 -9.0625 C 5.09375 -13.476562 5.453125 -17 5.453125 -19.625 C 5.453125 -20.1875 5.335938 -20.617188 5.109375 -20.921875 C 4.890625 -21.234375 4.644531 -21.390625 4.375 -21.390625 L 3.953125 -21.390625 C 3.617188 -21.390625 3.359375 -21.488281 3.171875 -21.6875 C 2.984375 -21.882812 2.929688 -22.132812 3.015625 -22.4375 L 4.59375 -28.15625 C 4.695312 -28.4375 4.875 -28.664062 5.125 -28.84375 C 5.382812 -29.03125 5.632812 -29.125 5.875 -29.125 C 6.082031 -29.125 6.1875 -29.050781 6.1875 -28.90625 C 6.1875 -28.40625 6.273438 -27.863281 6.453125 -27.28125 C 6.628906 -26.695312 6.832031 -26.300781 7.0625 -26.09375 L 27.453125 -26.09375 C 27.785156 -26.09375 28.003906 -26.03125 28.109375 -25.90625 C 28.222656 -25.78125 28.25 -25.535156 28.1875 -25.171875 L 27.75 -22.90625 C 27.65625 -22.457031 27.539062 -22.117188 27.40625 -21.890625 C 27.269531 -21.671875 27.140625 -21.523438 27.015625 -21.453125 C 26.898438 -21.390625 26.773438 -21.3125 26.640625 -21.21875 C 26.503906 -21.132812 26.367188 -20.929688 26.234375 -20.609375 C 26.109375 -20.296875 25.992188 -19.84375 25.890625 -19.25 C 25.691406 -18.1875 25.59375 -16.992188 25.59375 -15.671875 C 25.59375 -14.390625 25.773438 -12.617188 26.140625 -10.359375 C 26.503906 -8.097656 26.6875 -6.300781 26.6875 -4.96875 C 26.6875 -4.144531 26.507812 -3.375 26.15625 -2.65625 C 25.800781 -1.945312 25.304688 -1.175781 24.671875 -0.34375 C 24.410156 0 23.976562 0.265625 23.375 0.453125 L 23.0625 0.453125 C 22.78125 0.515625 22.609375 0.515625 22.546875 0.453125 C 22.484375 0.398438 22.453125 0.25 22.453125 0 C 22.453125 -1.15625 22.460938 -3.535156 22.484375 -7.140625 C 22.515625 -10.753906 22.53125 -14.882812 22.53125 -19.53125 C 22.53125 -20.175781 22.375 -20.644531 22.0625 -20.9375 C 21.757812 -21.238281 21.1875 -21.390625 20.34375 -21.390625 L 11.1875 -21.390625 C 10.613281 -21.390625 10.117188 -21.191406 9.703125 -20.796875 C 9.285156 -20.410156 8.976562 -19.894531 8.78125 -19.25 C 8.582031 -18.601562 8.441406 -17.972656 8.359375 -17.359375 C 8.273438 -16.742188 8.234375 -16.109375 8.234375 -15.453125 Z M 8.234375 -15.453125 "/></g></g><g style="fill:#724913;fill-opacity:1;"><g transform="translate(492.790445, 380.530827)"><path style="stroke:none" d="M 21.140625 -2.734375 L 20.296875 -0.84375 C 20.097656 -0.382812 19.914062 -0.0625 19.75 0.125 C 19.582031 0.320312 19.328125 0.503906 18.984375 0.671875 C 18.773438 0.753906 18.628906 0.796875 18.546875 0.796875 C 18.367188 0.796875 18.28125 0.414062 18.28125 -0.34375 C 18.28125 -1.113281 18.222656 -3.664062 18.109375 -8 C 18.003906 -12.332031 17.953125 -14.835938 17.953125 -15.515625 C 17.953125 -16.492188 17.941406 -17.191406 17.921875 -17.609375 C 17.898438 -18.035156 17.804688 -18.535156 17.640625 -19.109375 C 17.484375 -19.679688 17.253906 -20.0625 16.953125 -20.25 C 16.660156 -20.445312 16.210938 -20.660156 15.609375 -20.890625 C 15.003906 -21.117188 14.265625 -21.257812 13.390625 -21.3125 C 12.523438 -21.363281 11.421875 -21.390625 10.078125 -21.390625 L 3.234375 -21.390625 C 2.960938 -21.390625 2.726562 -21.460938 2.53125 -21.609375 C 2.332031 -21.765625 2.234375 -21.957031 2.234375 -22.1875 C 2.234375 -22.21875 2.25 -22.300781 2.28125 -22.4375 L 3.875 -28.15625 C 3.976562 -28.457031 4.140625 -28.691406 4.359375 -28.859375 C 4.585938 -29.035156 4.8125 -29.125 5.03125 -29.125 C 5.320312 -29.125 5.46875 -28.972656 5.46875 -28.671875 C 5.46875 -28.191406 5.550781 -27.691406 5.71875 -27.171875 C 5.882812 -26.660156 6.09375 -26.300781 6.34375 -26.09375 L 14.78125 -26.09375 C 15.59375 -26.09375 16.3125 -26.015625 16.9375 -25.859375 C 17.570312 -25.703125 18.09375 -25.5 18.5 -25.25 C 18.914062 -25 19.269531 -24.65625 19.5625 -24.21875 C 19.863281 -23.789062 20.09375 -23.378906 20.25 -22.984375 C 20.414062 -22.597656 20.546875 -22.109375 20.640625 -21.515625 C 20.742188 -20.921875 20.8125 -20.394531 20.84375 -19.9375 C 20.875 -19.476562 20.914062 -18.910156 20.96875 -18.234375 C 21.019531 -17.566406 21.066406 -17.019531 21.109375 -16.59375 L 21.765625 -8.015625 C 21.765625 -7.878906 21.78125 -7.453125 21.8125 -6.734375 C 21.84375 -6.023438 21.859375 -5.617188 21.859375 -5.515625 C 21.859375 -4.984375 21.804688 -4.546875 21.703125 -4.203125 C 21.609375 -3.859375 21.421875 -3.367188 21.140625 -2.734375 Z M 21.140625 -2.734375 "/></g></g><path style=" stroke:none;fill-rule:nonzero;fill:#f49588;fill-opacity:1;" d="M 375.546875 24.617188 C 376.664062 27.277344 377.03125 30.007812 375.582031 30.492188 C 373.03125 31.339844 372.914062 28.378906 371.800781 25.714844 C 370.683594 23.050781 368.382812 22.367188 370.984375 20.835938 C 372.28125 20.054688 374.433594 21.953125 375.546875 24.617188 "/><path style=" stroke:none;fill-rule:nonzero;fill:#f49588;fill-opacity:1;" d="M 398.058594 23.75 C 396.789062 26.347656 396.273438 29.058594 397.691406 29.625 C 400.191406 30.609375 400.488281 27.660156 401.753906 25.066406 C 403.023438 22.46875 405.355469 21.902344 402.839844 20.238281 C 401.589844 19.390625 399.339844 21.152344 398.058594 23.75 "/><g clip-rule="nonzero" clip-path="url(#57590aa49c)"><path style=" stroke:none;fill-rule:nonzero;fill:#fabc9f;fill-opacity:1;" d="M 351.941406 142.511719 C 350.308594 142.847656 347.390625 137.984375 346.441406 133.324219 C 345.792969 130.113281 346.140625 127.101562 346.839844 121.089844 C 347.242188 117.746094 347.558594 116.679688 347.542969 113.984375 C 347.542969 110.386719 346.957031 103.398438 348.492188 96.574219 C 350.472656 87.734375 350.523438 88.765625 350.941406 86.121094 C 351.972656 79.378906 351.40625 74.117188 351.289062 73.070312 C 350.722656 68.09375 351.488281 67.960938 351.273438 63.75 C 351.074219 59.835938 349.257812 55.925781 351.773438 52.414062 C 353.855469 49.5 356.886719 48.320312 360.035156 47.070312 C 364.550781 45.304688 365.984375 46.105469 371.183594 44.023438 C 374.414062 42.710938 376.214844 41.960938 377.582031 40.144531 C 380.195312 36.632812 379.097656 32.007812 378.695312 30.574219 C 385.445312 29.574219 392.207031 28.5625 398.957031 27.5625 C 398.339844 29.261719 397.507812 32.15625 397.773438 35.769531 C 397.921875 37.933594 398.171875 41.394531 400.457031 44.039062 C 402.804688 46.789062 405.1875 46.15625 410.636719 48.367188 C 413.519531 49.535156 417.433594 49.21875 420.582031 53.613281 C 423.898438 58.222656 424.214844 78.148438 423.78125 85.371094 C 423.382812 92.144531 423.265625 91.679688 423.214844 94.625 C 423.015625 102.78125 423.949219 103.179688 423.449219 108.457031 C 422.863281 114.484375 421.582031 114.617188 421.847656 119.128906 C 421.980469 121.65625 422.382812 121.605469 423.464844 128.265625 C 424.464844 134.425781 424.347656 135.820312 423.964844 137.203125 C 423.679688 138.21875 422.832031 141.183594 419.898438 143.394531 C 417.015625 145.59375 413.882812 145.691406 412.851562 145.675781 C 413.601562 144.59375 414.417969 143.195312 415.101562 141.480469 C 416.183594 138.800781 416.535156 136.371094 416.652344 134.625 C 415.035156 136.871094 413.402344 139.132812 411.785156 141.398438 C 411.335938 138.867188 411.335938 136.722656 411.4375 135.171875 C 411.570312 133.191406 411.703125 131.179688 412.734375 128.863281 C 413.953125 126.117188 414.933594 126.351562 415.515625 124.371094 C 416.183594 122.039062 415.167969 120.625 414.234375 116.5625 C 413.851562 114.867188 413.652344 112.917969 413.25 109.023438 C 412.667969 103.199219 413.585938 102.949219 412.835938 96.824219 C 412.203125 91.511719 410.1875 86.269531 409.535156 84.523438 C 408.703125 82.308594 407.105469 74.136719 407.605469 73.402344 C 406.4375 74.203125 404.671875 81.160156 403.90625 83.738281 C 401.640625 91.414062 401.390625 95.609375 401.773438 99.785156 C 402.320312 105.679688 403.839844 108.441406 404.15625 109.238281 C 410.003906 124.253906 408.785156 145.144531 408.738281 150.785156 C 408.738281 150.785156 408.585938 168.628906 403.539062 190.433594 C 403.253906 191.648438 402.390625 195.179688 402.140625 200.003906 C 401.9375 203.984375 402.253906 206.496094 402.371094 208.960938 C 402.722656 215.917969 401.222656 217.484375 400.539062 225.074219 C 399.339844 238.140625 402.753906 243.617188 399.257812 246.3125 C 398.007812 247.277344 395.640625 248.078125 390.710938 246.511719 C 391.394531 239.6875 390.644531 234.410156 389.808594 230.816406 C 388.59375 225.523438 389.976562 224.207031 389.527344 219.761719 C 389.292969 217.398438 387.042969 217.765625 388.375 205.648438 C 389.160156 198.589844 389.210938 197.558594 388.925781 195.84375 C 388.445312 192.914062 387.542969 191.367188 387.359375 187.789062 C 387.226562 185.007812 387.644531 182.976562 387.859375 181.796875 C 388.242188 179.566406 388.394531 177.550781 387.277344 157.128906 C 387.128906 154.398438 386.925781 150.917969 386.695312 146.839844 C 385.394531 146.640625 385.445312 145.976562 384.144531 145.757812 C 384.3125 147.308594 384.777344 148.871094 384.128906 152.816406 C 381.914062 167.414062 378.464844 170.476562 378.03125 183.695312 C 377.78125 191.21875 381.144531 199.539062 380.8125 208.511719 C 380.796875 209.175781 380.8125 215.933594 379.398438 222.425781 C 377.664062 230.367188 376.199219 237.824219 375.382812 238.507812 C 372.867188 240.585938 369.035156 238.640625 365.816406 236.210938 C 363.234375 234.261719 367.066406 229.585938 365.953125 217.566406 C 365.535156 212.988281 364.703125 210.109375 363.320312 196.992188 C 362.417969 188.503906 362.253906 190.617188 361.285156 175.9375 C 360.570312 164.984375 359.621094 151.320312 361.121094 139.035156 C 362.371094 128.863281 365.351562 120.992188 364.519531 114.683594 C 364.335938 113.25 363.335938 110.820312 363.117188 109.421875 C 362.484375 105.496094 364.617188 94.476562 364.417969 94.441406 C 364.003906 94.324219 356.421875 112.519531 355.589844 114.632812 C 355.253906 115.5 354.65625 117.3125 354.773438 119.558594 C 354.90625 122.421875 356.105469 123.9375 356.769531 125.703125 C 357.621094 127.914062 357.988281 131.429688 355.472656 136.886719 C 355.273438 136.054688 355.054688 135.222656 354.839844 134.375 C 354.457031 132.894531 354.089844 131.410156 353.707031 129.929688 C 354.039062 141.097656 352.621094 142.378906 351.941406 142.511719 "/></g><path style=" stroke:none;fill-rule:nonzero;fill:#221411;fill-opacity:1;" d="M 400.9375 238.65625 C 400.191406 237.589844 398.257812 237.671875 396.855469 237.539062 C 395.609375 237.40625 393.359375 237.289062 390.875 238.089844 C 390.757812 238.773438 390.894531 239.902344 390.527344 241.152344 C 390.109375 242.585938 389.460938 243.980469 389.578125 245.148438 C 389.742188 246.796875 391.058594 247.8125 392.058594 250.425781 C 392.925781 252.671875 394.089844 254.667969 394.425781 255.300781 C 396.109375 258.511719 404.121094 261.195312 407.105469 254.953125 C 407.621094 253.886719 407.371094 251.472656 406.421875 249.691406 C 404.105469 245.332031 401.339844 244.816406 401.023438 241.734375 C 400.890625 240.46875 401.554688 239.519531 400.9375 238.65625 "/><path style=" stroke:none;fill-rule:nonzero;fill:#221411;fill-opacity:1;" d="M 377.363281 233.746094 C 377.597656 234.363281 377.597656 236.308594 377.179688 237.339844 C 376.546875 238.90625 375.015625 239.105469 374.148438 240.703125 C 373.566406 241.769531 373.28125 242.367188 372.78125 244.464844 C 372.183594 247.011719 371.949219 249.226562 369.667969 251.039062 C 367.050781 253.105469 363.386719 253.488281 362.835938 253.554688 C 359.554688 253.871094 355.554688 253.136719 353.921875 251.023438 C 352.824219 249.574219 353.238281 248.042969 353.539062 246.945312 C 354.222656 244.363281 356.804688 244.050781 359.769531 241.003906 C 361.019531 239.703125 362.503906 236.957031 363.800781 234.496094 C 364.683594 232.847656 368.949219 232.429688 370.5 232.582031 C 372.132812 232.714844 376.679688 233.894531 377.363281 233.746094 "/><path style=" stroke:none;fill-rule:nonzero;fill:#f49588;fill-opacity:1;" d="M 398.125 38.796875 C 397.90625 37.664062 397.824219 36.617188 397.773438 35.769531 C 397.507812 32.15625 398.339844 29.261719 398.957031 27.5625 C 392.207031 28.5625 385.445312 29.574219 378.695312 30.574219 C 379.097656 32.007812 380.195312 36.632812 377.582031 40.144531 C 377.582031 40.144531 383.410156 43.890625 384.695312 43.824219 C 386.476562 43.722656 392.707031 43.160156 398.125 38.796875 "/><path style=" stroke:none;fill-rule:nonzero;fill:#ffffff;fill-opacity:1;" d="M 378.113281 39.296875 C 384.996094 44.722656 395.324219 41.160156 398.140625 38.765625 C 398.921875 39.730469 400.257812 42.59375 401.039062 44.640625 C 403.589844 51.382812 400.773438 58.054688 399.773438 60.769531 C 396.390625 69.855469 400.191406 68.425781 397.40625 89.53125 C 395.757812 102.03125 394.859375 108.359375 391.160156 111.535156 C 384.027344 117.664062 372.117188 114.53125 368.601562 113.5 C 368.035156 102.414062 367.933594 90.199219 368.601562 77.066406 C 369.199219 65.0625 370.382812 53.929688 371.847656 43.757812 C 372.683594 43.476562 373.648438 43.074219 374.664062 42.492188 C 375.515625 42.027344 377.515625 39.761719 378.113281 39.296875 "/><path style=" stroke:none;fill-rule:nonzero;fill:#fabc9f;fill-opacity:1;" d="M 399.574219 19.023438 C 399.722656 28.792969 392.277344 40.777344 386.292969 41.109375 C 380.3125 41.425781 375.015625 33.789062 374.464844 24.015625 C 373.898438 14.261719 374.796875 5.722656 384.277344 5.757812 C 390.277344 5.757812 399.40625 7.355469 399.574219 19.023438 "/><path style=" stroke:none;fill-rule:nonzero;fill:#2b1512;fill-opacity:1;" d="M 374.363281 22.402344 C 373.53125 21.785156 372.699219 21.171875 371.867188 20.554688 C 371.832031 19.324219 371.816406 17.492188 371.933594 15.292969 C 372.164062 11.234375 372.617188 9.335938 373.164062 7.621094 C 374.882812 2.160156 385.578125 0.898438 389.558594 1.480469 C 390.644531 1.628906 396.789062 2.359375 400.191406 7.054688 C 401.339844 8.636719 401.824219 9.851562 402.039062 11.464844 C 402.539062 15.328125 402.972656 18.605469 402.804688 20.65625 C 402.273438 20.804688 401.023438 21.253906 399.957031 22.433594 C 398.824219 23.699219 398.558594 25.066406 398.472656 25.597656 C 397.90625 24.101562 397.207031 21.753906 397.175781 18.789062 C 397.140625 16.175781 397.640625 14.03125 398.105469 12.582031 C 396.789062 13.464844 395.175781 14.296875 393.257812 14.84375 C 384.777344 17.308594 377.664062 12.796875 375.964844 11.683594 C 375.996094 13.082031 375.929688 14.277344 375.816406 15.894531 C 375.648438 18.324219 374.765625 20.453125 374.363281 22.402344 "/><path style=" stroke:none;fill-rule:nonzero;fill:#181614;fill-opacity:1;" d="M 363.117188 109.421875 C 363.386719 110.886719 363.667969 112.335938 364.386719 114 C 364.050781 115.265625 363.585938 117.113281 363.035156 119.34375 C 362.1875 122.871094 361.453125 126.019531 361.285156 127.214844 C 356.988281 156.164062 364.386719 224.523438 364.96875 233.480469 C 365.984375 233.980469 370.234375 236.074219 371.132812 236.160156 C 372.300781 236.277344 375.03125 235.175781 377.378906 233.746094 C 377.746094 233.527344 381.914062 221.644531 381.644531 205.164062 C 381.230469 180.25 385.292969 146.992188 385.460938 146.957031 C 385.8125 147.707031 383.546875 210.859375 390.792969 238.023438 C 391.226562 239.621094 394.058594 240.601562 395.058594 240.601562 C 396.40625 240.601562 400.554688 238.855469 400.9375 238.65625 C 400.371094 231.53125 411.367188 148.15625 410.1875 130.429688 C 409.71875 123.488281 407.6875 119.476562 406.703125 115.28125 C 405.738281 111.054688 404.554688 108.074219 403.003906 106.277344 C 400.824219 107.058594 385.09375 112.550781 378.714844 113.484375 C 377.113281 113.71875 376.097656 113.667969 375.699219 113.652344 C 373.214844 113.5 371.816406 112.703125 367.535156 111.039062 C 366.632812 110.703125 364.800781 110.003906 363.117188 109.421875 "/><path style=" stroke:none;fill-rule:nonzero;fill:#ffffff;fill-opacity:1;" d="M 346.839844 120.890625 C 346.574219 120.890625 346.125 119.644531 346.207031 116.878906 C 346.339844 112.96875 350.722656 110.40625 353.738281 113.585938 C 354.472656 114.367188 354.773438 116.0625 354.90625 116.980469 C 355.089844 118.128906 354.820312 120.175781 354.820312 120.359375 C 354.820312 120.890625 348.308594 120.890625 346.839844 120.890625 "/><path style=" stroke:none;fill-rule:nonzero;fill:#ffffff;fill-opacity:1;" d="M 422.597656 121.691406 C 422.78125 121.691406 423.332031 120.175781 423.597656 117.328125 C 423.964844 113.433594 418.417969 111.203125 415.402344 114.382812 C 414.667969 115.164062 414.367188 116.863281 414.21875 117.777344 C 414.050781 118.925781 414.316406 120.976562 414.316406 121.15625 C 414.316406 121.707031 421.148438 121.691406 422.597656 121.691406 "/><path style=" stroke:none;fill-rule:nonzero;fill:#100f0d;fill-opacity:1;" d="M 404.671875 108.941406 C 404.171875 107.875 403.621094 106.976562 403.003906 106.277344 C 400.824219 107.058594 385.09375 112.550781 378.714844 113.484375 C 377.113281 113.71875 376.097656 113.667969 375.699219 113.652344 C 373.214844 113.5 371.816406 112.703125 367.535156 111.039062 C 366.632812 110.703125 364.800781 110.003906 363.117188 109.421875 C 363.367188 110.886719 363.667969 112.335938 364.386719 113.984375 C 367.71875 115.5 371.75 117.144531 374.613281 117.296875 C 381.644531 117.644531 386.910156 115.382812 392.941406 113.535156 C 396.109375 112.550781 400.140625 111.105469 404.671875 108.941406 "/><path style=" stroke:none;fill-rule:nonzero;fill:#131110;fill-opacity:1;" d="M 377.679688 39.730469 C 371.714844 41.5625 358.503906 42.34375 353.488281 47.4375 C 349.207031 51.765625 350.171875 62.535156 349.90625 66.210938 C 348.625 83.289062 347.890625 92.5625 347.242188 96.589844 C 346.476562 101.351562 346.457031 108.375 346.207031 116.878906 C 346.90625 116.496094 354.1875 116.613281 354.90625 116.980469 C 355.789062 115.730469 362.71875 98.371094 363.152344 98.535156 C 363.367188 98.605469 363.152344 105.726562 362.519531 108.507812 C 362.21875 109.789062 361.734375 117.128906 362.335938 117.328125 C 368.367188 119.394531 371.582031 119.859375 377.664062 119.027344 C 373.949219 118.3125 368.167969 51.480469 377.679688 39.730469 "/><path style=" stroke:none;fill-rule:nonzero;fill:#131110;fill-opacity:1;" d="M 404.65625 40.710938 C 401.289062 39.945312 400.757812 39.496094 398.390625 39.046875 C 390.777344 54.808594 387.128906 115.78125 387.777344 117.3125 C 397.921875 114.714844 405.804688 110.304688 406.652344 109.839844 C 408.46875 108.875 404.304688 96.804688 404.65625 85.96875 C 404.769531 82.507812 405.253906 79.660156 405.652344 77.78125 C 407.953125 83.957031 410.152344 91.429688 411.550781 100.050781 C 412.300781 104.695312 413.816406 113.316406 414.183594 117.144531 C 416.433594 116.878906 422.464844 117.5625 423.964844 117.863281 C 425.648438 105.09375 423.597656 90.648438 423.863281 84.003906 C 424.199219 76.5 424.148438 66.628906 423.332031 59.15625 C 422.964844 55.859375 423.332031 44.988281 404.65625 40.710938 "/><path style=" stroke:none;fill-rule:nonzero;fill:#100f0d;fill-opacity:1;" d="M 385.277344 144.761719 C 385.210938 144.277344 385.113281 143.8125 385.027344 143.328125 C 384.660156 141.414062 384.210938 139.535156 383.644531 137.667969 C 383.078125 135.820312 382.414062 133.992188 381.597656 132.226562 C 382.027344 134.125 382.480469 135.988281 382.894531 137.871094 C 383.3125 139.734375 383.695312 141.613281 384.046875 143.511719 C 384.144531 143.976562 384.226562 144.445312 384.3125 144.925781 C 384.394531 145.394531 384.429688 145.875 384.5625 146.34375 C 384.8125 147.257812 385.226562 147.707031 385.277344 147.972656 C 385.363281 147.789062 385.363281 147.339844 385.460938 146.957031 C 385.511719 147.007812 385.496094 147.207031 385.542969 147.257812 C 385.511719 146.941406 385.542969 146.507812 385.496094 146.207031 C 385.429688 145.726562 385.363281 145.242188 385.277344 144.761719 "/><path style=" stroke:none;fill-rule:nonzero;fill:#131110;fill-opacity:1;" d="M 377.429688 46.921875 C 378.03125 47.867188 379.511719 47.820312 380.664062 47.753906 C 381.679688 47.703125 383.277344 47.46875 384.511719 47.019531 C 384.960938 47.335938 385.542969 47.535156 386.160156 47.570312 C 386.8125 47.585938 387.394531 47.417969 387.878906 47.136719 C 389.078125 47.667969 390.675781 48.035156 391.675781 48.152344 C 392.824219 48.300781 394.292969 48.46875 394.976562 47.570312 C 395.425781 46.96875 395.40625 46.121094 395.375 44.90625 C 395.339844 43.808594 395.324219 43.226562 395.074219 42.859375 C 394.191406 41.59375 390.308594 42.410156 388.011719 43.707031 C 387.5625 43.375 386.976562 43.175781 386.34375 43.140625 C 385.710938 43.125 385.113281 43.292969 384.644531 43.574219 C 382.445312 42.109375 378.679688 41.027344 377.699219 42.210938 C 377.414062 42.558594 377.347656 43.140625 377.230469 44.242188 C 377.113281 45.457031 377.015625 46.304688 377.429688 46.921875 "/><path style=" stroke:none;fill-rule:nonzero;fill:#131110;fill-opacity:1;" d="M 381.496094 42.640625 L 380.363281 44.390625 C 378.515625 43.890625 376.980469 43.140625 376.179688 41.808594 L 376.929688 40.027344 C 377.5625 41.09375 379.597656 42.210938 381.496094 42.640625 "/><path style=" stroke:none;fill-rule:nonzero;fill:#131110;fill-opacity:1;" d="M 398.257812 39.332031 L 399.539062 40.976562 C 398.023438 42.808594 396.390625 44.222656 394.542969 44.707031 L 393.257812 43.058594 C 395.191406 42.660156 396.789062 41.210938 398.257812 39.332031 "/><path style=" stroke:none;fill-rule:nonzero;fill:#100f0d;fill-opacity:1;" d="M 363.152344 98.535156 C 363.21875 98.554688 363.253906 99.320312 363.234375 100.453125 C 363.269531 100.167969 363.300781 99.886719 363.335938 99.601562 C 363.46875 98.054688 363.570312 96.523438 363.617188 94.992188 C 363.652344 93.445312 363.667969 91.914062 363.636719 90.363281 C 363.617188 89.597656 363.601562 88.832031 363.570312 88.066406 C 363.535156 87.300781 363.484375 86.535156 363.4375 85.753906 C 363.320312 84.222656 363.1875 82.691406 362.871094 81.144531 C 362.570312 79.644531 362.320312 78.148438 362.136719 76.632812 C 361.953125 75.132812 361.804688 73.601562 361.734375 72.085938 C 361.652344 70.554688 361.636719 69.023438 361.652344 67.492188 C 361.417969 69.007812 361.304688 70.539062 361.253906 72.085938 L 361.238281 72.671875 L 361.238281 73.238281 C 361.238281 73.621094 361.238281 74.019531 361.238281 74.402344 C 361.253906 75.167969 361.285156 75.949219 361.351562 76.714844 C 361.386719 77.097656 361.417969 77.480469 361.453125 77.863281 C 361.503906 78.246094 361.535156 78.628906 361.585938 79.011719 C 361.6875 79.792969 361.804688 80.558594 361.953125 81.308594 C 362.085938 82.042969 362.167969 82.789062 362.234375 83.554688 C 362.320312 84.304688 362.386719 85.070312 362.4375 85.820312 C 362.550781 87.351562 362.636719 88.867188 362.6875 90.398438 C 362.753906 91.929688 362.800781 93.460938 362.835938 94.976562 L 362.871094 97.273438 C 362.871094 97.835938 362.871094 98.402344 362.851562 98.953125 C 363.003906 98.671875 363.117188 98.519531 363.152344 98.535156 "/><path style=" stroke:none;fill-rule:nonzero;fill:#100f0d;fill-opacity:1;" d="M 405.605469 71.773438 C 405.519531 69.839844 405.472656 67.925781 405.4375 65.996094 C 405.40625 64.066406 405.386719 62.132812 405.335938 60.1875 C 404.972656 62.101562 404.769531 64.03125 404.65625 65.980469 C 404.554688 67.910156 404.519531 69.875 404.605469 71.804688 C 404.6875 73.753906 404.855469 75.699219 405.121094 77.613281 C 405.1875 78.164062 405.269531 78.710938 405.371094 79.261719 C 405.472656 78.710938 405.570312 78.230469 405.652344 77.78125 C 405.753906 78.046875 405.855469 78.3125 405.953125 78.597656 C 405.9375 78.246094 405.902344 77.898438 405.886719 77.546875 C 405.769531 75.617188 405.671875 73.703125 405.605469 71.773438 "/></g></svg>