<svg xmlns="http://www.w3.org/2000/svg" xmlns:xlink="http://www.w3.org/1999/xlink" width="290" zoomAndPan="magnify" viewBox="0 0 217.5 293.999989" height="392" preserveAspectRatio="xMidYMid meet" version="1.2"><defs><clipPath id="58ea546fcd"><path d="M 83.671875 18.984375 L 137 18.984375 L 137 168 L 83.671875 168 Z M 83.671875 18.984375 "/></clipPath><clipPath id="c37d9fb57b"><path d="M 83.671875 76 L 90 76 L 90 82.457031 L 83.671875 82.457031 Z M 83.671875 76 "/></clipPath><clipPath id="705b86d982"><path d="M 83.671875 27 L 106 27 L 106 82 L 83.671875 82 Z M 83.671875 27 "/></clipPath></defs><g id="da955a287c"><path style=" stroke:none;fill-rule:nonzero;fill:#f49588;fill-opacity:1;" d="M 103.773438 17.003906 C 104.527344 18.804688 104.773438 20.652344 103.796875 20.980469 C 102.074219 21.554688 101.996094 19.550781 101.242188 17.746094 C 100.488281 15.941406 98.9375 15.480469 100.691406 14.445312 C 101.566406 13.914062 103.019531 15.199219 103.773438 17.003906 "/><path style=" stroke:none;fill-rule:nonzero;fill:#f49588;fill-opacity:1;" d="M 118.96875 16.417969 C 118.113281 18.175781 117.765625 20.011719 118.722656 20.394531 C 120.410156 21.058594 120.613281 19.066406 121.46875 17.304688 C 122.320312 15.546875 123.898438 15.164062 122.199219 14.039062 C 121.355469 13.464844 119.835938 14.65625 118.96875 16.417969 "/><g clip-rule="nonzero" clip-path="url(#58ea546fcd)"><path style=" stroke:none;fill-rule:nonzero;fill:#fabc9f;fill-opacity:1;" d="M 87.832031 96.824219 C 86.730469 97.050781 84.761719 93.761719 84.121094 90.605469 C 83.683594 88.429688 83.917969 86.390625 84.390625 82.320312 C 84.660156 80.054688 84.875 79.335938 84.863281 77.507812 C 84.863281 75.074219 84.46875 70.339844 85.503906 65.722656 C 86.84375 59.738281 86.878906 60.4375 87.160156 58.644531 C 87.855469 54.078125 87.472656 50.519531 87.394531 49.808594 C 87.011719 46.4375 87.53125 46.347656 87.382812 43.496094 C 87.25 40.847656 86.023438 38.199219 87.722656 35.824219 C 89.128906 33.851562 91.175781 33.050781 93.300781 32.203125 C 96.347656 31.011719 97.316406 31.550781 100.824219 30.144531 C 103.007812 29.253906 104.222656 28.746094 105.144531 27.515625 C 106.910156 25.140625 106.167969 22.007812 105.898438 21.035156 C 110.453125 20.359375 115.019531 19.671875 119.578125 18.996094 C 119.160156 20.144531 118.597656 22.105469 118.777344 24.554688 C 118.878906 26.019531 119.046875 28.363281 120.589844 30.152344 C 122.175781 32.011719 123.785156 31.585938 127.460938 33.085938 C 129.410156 33.871094 132.050781 33.660156 134.179688 36.632812 C 136.417969 39.753906 136.628906 53.246094 136.335938 58.136719 C 136.066406 62.722656 135.988281 62.40625 135.953125 64.402344 C 135.820312 69.925781 136.449219 70.195312 136.113281 73.769531 C 135.71875 77.847656 134.851562 77.9375 135.03125 80.992188 C 135.121094 82.703125 135.394531 82.671875 136.125 87.179688 C 136.796875 91.347656 136.71875 92.296875 136.460938 93.230469 C 136.269531 93.917969 135.695312 95.921875 133.714844 97.421875 C 131.769531 98.910156 129.65625 98.976562 128.957031 98.964844 C 129.464844 98.234375 130.015625 97.289062 130.476562 96.125 C 131.207031 94.3125 131.445312 92.667969 131.523438 91.484375 C 130.433594 93.003906 129.328125 94.539062 128.238281 96.070312 C 127.933594 94.355469 127.933594 92.902344 128.003906 91.855469 C 128.09375 90.515625 128.183594 89.152344 128.878906 87.585938 C 129.699219 85.726562 130.363281 85.882812 130.757812 84.542969 C 131.207031 82.964844 130.523438 82.003906 129.890625 79.257812 C 129.632812 78.105469 129.5 76.789062 129.226562 74.152344 C 128.835938 70.207031 129.453125 70.039062 128.945312 65.890625 C 128.519531 62.296875 127.160156 58.746094 126.71875 57.5625 C 126.15625 56.0625 125.078125 50.53125 125.414062 50.035156 C 124.628906 50.574219 123.433594 55.285156 122.917969 57.03125 C 121.386719 62.226562 121.21875 65.066406 121.476562 67.894531 C 121.847656 71.886719 122.871094 73.757812 123.085938 74.296875 C 127.035156 84.460938 126.214844 98.605469 126.179688 102.425781 C 126.179688 102.425781 126.078125 114.507812 122.671875 129.269531 C 122.480469 130.09375 121.894531 132.484375 121.726562 135.75 C 121.589844 138.445312 121.804688 140.144531 121.882812 141.8125 C 122.121094 146.523438 121.105469 147.585938 120.644531 152.722656 C 119.835938 161.570312 122.140625 165.277344 119.78125 167.101562 C 118.9375 167.757812 117.339844 168.296875 114.007812 167.238281 C 114.46875 162.617188 113.964844 159.046875 113.402344 156.609375 C 112.582031 153.027344 113.515625 152.136719 113.210938 149.128906 C 113.054688 147.527344 111.535156 147.777344 112.433594 139.570312 C 112.960938 134.792969 112.996094 134.09375 112.804688 132.933594 C 112.480469 130.949219 111.871094 129.902344 111.746094 127.480469 C 111.65625 125.597656 111.9375 124.222656 112.085938 123.421875 C 112.34375 121.910156 112.445312 120.546875 111.691406 106.71875 C 111.589844 104.871094 111.457031 102.515625 111.296875 99.753906 C 110.421875 99.621094 110.453125 99.167969 109.578125 99.023438 C 109.691406 100.070312 110.003906 101.128906 109.566406 103.800781 C 108.070312 113.683594 105.742188 115.757812 105.449219 124.707031 C 105.28125 129.800781 107.550781 135.433594 107.328125 141.507812 C 107.316406 141.960938 107.328125 146.535156 106.371094 150.929688 C 105.203125 156.308594 104.210938 161.355469 103.660156 161.816406 C 101.960938 163.226562 99.375 161.90625 97.203125 160.261719 C 95.460938 158.945312 98.046875 155.777344 97.292969 147.640625 C 97.011719 144.542969 96.449219 142.589844 95.515625 133.710938 C 94.910156 127.964844 94.796875 129.394531 94.144531 119.453125 C 93.660156 112.039062 93.019531 102.785156 94.03125 94.46875 C 94.875 87.585938 96.886719 82.253906 96.324219 77.984375 C 96.203125 77.011719 95.527344 75.367188 95.382812 74.421875 C 94.953125 71.761719 96.394531 64.300781 96.257812 64.277344 C 95.976562 64.199219 90.859375 76.515625 90.296875 77.949219 C 90.070312 78.535156 89.667969 79.761719 89.746094 81.285156 C 89.835938 83.222656 90.644531 84.25 91.09375 85.441406 C 91.667969 86.941406 91.917969 89.320312 90.21875 93.015625 C 90.082031 92.453125 89.9375 91.890625 89.789062 91.316406 C 89.53125 90.3125 89.285156 89.308594 89.027344 88.304688 C 89.25 95.867188 88.292969 96.734375 87.832031 96.824219 "/></g><path style=" stroke:none;fill-rule:nonzero;fill:#221411;fill-opacity:1;" d="M 120.914062 161.917969 C 120.410156 161.199219 119.105469 161.253906 118.160156 161.164062 C 117.316406 161.074219 115.796875 160.996094 114.121094 161.535156 C 114.042969 161.996094 114.132812 162.765625 113.886719 163.609375 C 113.605469 164.578125 113.164062 165.527344 113.242188 166.3125 C 113.355469 167.429688 114.246094 168.117188 114.921875 169.886719 C 115.503906 171.40625 116.292969 172.761719 116.515625 173.1875 C 117.652344 175.363281 123.0625 177.179688 125.078125 172.953125 C 125.425781 172.230469 125.257812 170.597656 124.617188 169.390625 C 123.054688 166.4375 121.1875 166.089844 120.972656 164.003906 C 120.882812 163.148438 121.332031 162.503906 120.914062 161.917969 "/><path style=" stroke:none;fill-rule:nonzero;fill:#221411;fill-opacity:1;" d="M 105 158.59375 C 105.15625 159.011719 105.15625 160.332031 104.875 161.027344 C 104.449219 162.089844 103.414062 162.222656 102.828125 163.304688 C 102.433594 164.027344 102.242188 164.433594 101.90625 165.851562 C 101.5 167.578125 101.34375 169.074219 99.800781 170.304688 C 98.035156 171.703125 95.5625 171.960938 95.191406 172.003906 C 92.972656 172.21875 90.273438 171.722656 89.171875 170.292969 C 88.429688 169.3125 88.710938 168.273438 88.914062 167.53125 C 89.375 165.785156 91.117188 165.570312 93.121094 163.507812 C 93.964844 162.628906 94.964844 160.769531 95.84375 159.101562 C 96.4375 157.984375 99.316406 157.703125 100.363281 157.804688 C 101.464844 157.894531 104.539062 158.695312 105 158.59375 "/><path style=" stroke:none;fill-rule:nonzero;fill:#f49588;fill-opacity:1;" d="M 119.015625 26.605469 C 118.867188 25.835938 118.8125 25.128906 118.777344 24.554688 C 118.597656 22.105469 119.160156 20.144531 119.578125 18.996094 C 115.019531 19.671875 110.453125 20.359375 105.898438 21.035156 C 106.167969 22.007812 106.910156 25.140625 105.144531 27.515625 C 105.144531 27.515625 109.082031 30.050781 109.949219 30.007812 C 111.152344 29.941406 115.359375 29.554688 119.015625 26.605469 "/><path style=" stroke:none;fill-rule:nonzero;fill:#ffffff;fill-opacity:1;" d="M 105.503906 26.941406 C 110.152344 30.617188 117.125 28.203125 119.027344 26.582031 C 119.554688 27.234375 120.453125 29.171875 120.984375 30.558594 C 122.703125 35.125 120.804688 39.644531 120.128906 41.480469 C 117.84375 47.632812 120.410156 46.664062 118.53125 60.953125 C 117.417969 69.417969 116.808594 73.699219 114.3125 75.851562 C 109.5 80 101.457031 77.882812 99.082031 77.183594 C 98.699219 69.675781 98.632812 61.40625 99.082031 52.511719 C 99.488281 44.386719 100.285156 36.847656 101.277344 29.960938 C 101.839844 29.769531 102.492188 29.5 103.175781 29.105469 C 103.75 28.789062 105.101562 27.257812 105.503906 26.941406 "/><path style=" stroke:none;fill-rule:nonzero;fill:#fabc9f;fill-opacity:1;" d="M 119.992188 13.214844 C 120.09375 19.832031 115.066406 27.945312 111.027344 28.171875 C 106.988281 28.382812 103.414062 23.210938 103.042969 16.597656 C 102.660156 9.992188 103.265625 4.210938 109.667969 4.234375 C 113.714844 4.234375 119.878906 5.316406 119.992188 13.214844 "/><path style=" stroke:none;fill-rule:nonzero;fill:#2b1512;fill-opacity:1;" d="M 102.972656 15.503906 C 102.410156 15.085938 101.847656 14.667969 101.285156 14.253906 C 101.265625 13.417969 101.253906 12.179688 101.332031 10.691406 C 101.488281 7.941406 101.792969 6.65625 102.164062 5.496094 C 103.324219 1.800781 110.542969 0.941406 113.234375 1.335938 C 113.964844 1.4375 118.113281 1.933594 120.410156 5.113281 C 121.1875 6.183594 121.511719 7.007812 121.65625 8.097656 C 121.996094 10.714844 122.289062 12.933594 122.175781 14.320312 C 121.816406 14.421875 120.972656 14.726562 120.253906 15.527344 C 119.488281 16.382812 119.308594 17.304688 119.25 17.667969 C 118.867188 16.652344 118.394531 15.0625 118.375 13.058594 C 118.351562 11.289062 118.6875 9.835938 119.003906 8.855469 C 118.113281 9.453125 117.023438 10.015625 115.730469 10.386719 C 110.003906 12.054688 105.203125 9 104.054688 8.246094 C 104.078125 9.191406 104.03125 10.003906 103.953125 11.097656 C 103.839844 12.742188 103.242188 14.183594 102.972656 15.503906 "/><path style=" stroke:none;fill-rule:nonzero;fill:#181614;fill-opacity:1;" d="M 95.382812 74.421875 C 95.5625 75.414062 95.753906 76.394531 96.234375 77.519531 C 96.011719 78.375 95.695312 79.628906 95.324219 81.136719 C 94.75 83.527344 94.257812 85.65625 94.144531 86.46875 C 91.242188 106.066406 96.234375 152.351562 96.628906 158.414062 C 97.316406 158.753906 100.183594 160.171875 100.792969 160.230469 C 101.578125 160.308594 103.425781 159.5625 105.011719 158.59375 C 105.257812 158.449219 108.070312 150.402344 107.890625 139.246094 C 107.609375 122.375 110.351562 99.855469 110.464844 99.835938 C 110.703125 100.339844 109.171875 143.097656 114.066406 161.492188 C 114.359375 162.574219 116.269531 163.238281 116.945312 163.238281 C 117.855469 163.238281 120.65625 162.054688 120.914062 161.917969 C 120.53125 157.09375 127.957031 100.644531 127.160156 88.644531 C 126.84375 83.945312 125.472656 81.226562 124.808594 78.386719 C 124.15625 75.527344 123.355469 73.507812 122.308594 72.292969 C 120.835938 72.820312 110.21875 76.539062 105.910156 77.171875 C 104.832031 77.328125 104.144531 77.296875 103.875 77.285156 C 102.199219 77.183594 101.253906 76.640625 98.363281 75.515625 C 97.753906 75.289062 96.515625 74.816406 95.382812 74.421875 "/><g clip-rule="nonzero" clip-path="url(#c37d9fb57b)"><path style=" stroke:none;fill-rule:nonzero;fill:#ffffff;fill-opacity:1;" d="M 84.390625 82.1875 C 84.210938 82.1875 83.90625 81.339844 83.964844 79.46875 C 84.054688 76.820312 87.011719 75.085938 89.046875 77.238281 C 89.542969 77.769531 89.746094 78.917969 89.835938 79.539062 C 89.960938 80.316406 89.78125 81.703125 89.78125 81.824219 C 89.78125 82.1875 85.382812 82.1875 84.390625 82.1875 "/></g><path style=" stroke:none;fill-rule:nonzero;fill:#ffffff;fill-opacity:1;" d="M 135.539062 82.726562 C 135.664062 82.726562 136.035156 81.703125 136.214844 79.773438 C 136.460938 77.136719 132.714844 75.628906 130.679688 77.78125 C 130.183594 78.308594 129.980469 79.457031 129.878906 80.078125 C 129.769531 80.855469 129.949219 82.242188 129.949219 82.367188 C 129.949219 82.738281 134.558594 82.726562 135.539062 82.726562 "/><path style=" stroke:none;fill-rule:nonzero;fill:#100f0d;fill-opacity:1;" d="M 123.433594 74.09375 C 123.097656 73.375 122.726562 72.765625 122.308594 72.292969 C 120.835938 72.820312 110.21875 76.539062 105.910156 77.171875 C 104.832031 77.328125 104.144531 77.296875 103.875 77.285156 C 102.199219 77.183594 101.253906 76.640625 98.363281 75.515625 C 97.753906 75.289062 96.515625 74.816406 95.382812 74.421875 C 95.550781 75.414062 95.753906 76.394531 96.234375 77.507812 C 98.484375 78.535156 101.207031 79.648438 103.144531 79.75 C 107.890625 79.988281 111.445312 78.457031 115.515625 77.203125 C 117.652344 76.539062 120.375 75.558594 123.433594 74.09375 "/><g clip-rule="nonzero" clip-path="url(#705b86d982)"><path style=" stroke:none;fill-rule:nonzero;fill:#131110;fill-opacity:1;" d="M 105.210938 27.234375 C 101.1875 28.476562 92.265625 29.003906 88.878906 32.453125 C 85.988281 35.382812 86.640625 42.675781 86.460938 45.164062 C 85.59375 56.726562 85.101562 63.003906 84.660156 65.730469 C 84.144531 68.957031 84.132812 73.710938 83.964844 79.46875 C 84.4375 79.210938 89.351562 79.289062 89.835938 79.539062 C 90.433594 78.691406 95.109375 66.9375 95.402344 67.050781 C 95.550781 67.097656 95.402344 71.917969 94.976562 73.800781 C 94.773438 74.667969 94.449219 79.640625 94.851562 79.773438 C 98.925781 81.171875 101.09375 81.488281 105.203125 80.925781 C 102.691406 80.4375 98.789062 35.191406 105.210938 27.234375 "/></g><path style=" stroke:none;fill-rule:nonzero;fill:#131110;fill-opacity:1;" d="M 123.425781 27.898438 C 121.152344 27.382812 120.792969 27.078125 119.195312 26.773438 C 114.054688 37.445312 111.589844 78.726562 112.027344 79.761719 C 118.878906 78.003906 124.199219 75.019531 124.773438 74.703125 C 126 74.050781 123.1875 65.878906 123.425781 58.542969 C 123.503906 56.199219 123.828125 54.269531 124.097656 52.996094 C 125.652344 57.179688 127.136719 62.238281 128.082031 68.078125 C 128.585938 71.21875 129.609375 77.058594 129.859375 79.648438 C 131.375 79.46875 135.449219 79.933594 136.460938 80.136719 C 137.597656 71.492188 136.214844 61.710938 136.394531 57.210938 C 136.617188 52.128906 136.585938 45.445312 136.035156 40.386719 C 135.785156 38.15625 136.035156 30.796875 123.425781 27.898438 "/><path style=" stroke:none;fill-rule:nonzero;fill:#100f0d;fill-opacity:1;" d="M 110.34375 98.347656 C 110.296875 98.019531 110.230469 97.703125 110.171875 97.378906 C 109.925781 96.082031 109.621094 94.808594 109.238281 93.546875 C 108.855469 92.296875 108.40625 91.054688 107.855469 89.859375 C 108.148438 91.144531 108.453125 92.40625 108.734375 93.679688 C 109.015625 94.941406 109.273438 96.21875 109.507812 97.5 C 109.578125 97.816406 109.632812 98.132812 109.691406 98.460938 C 109.746094 98.773438 109.769531 99.101562 109.859375 99.417969 C 110.027344 100.039062 110.308594 100.339844 110.34375 100.523438 C 110.398438 100.398438 110.398438 100.09375 110.464844 99.835938 C 110.5 99.867188 110.488281 100.003906 110.523438 100.039062 C 110.5 99.824219 110.523438 99.53125 110.488281 99.328125 C 110.441406 99 110.398438 98.671875 110.34375 98.347656 "/><path style=" stroke:none;fill-rule:nonzero;fill:#131110;fill-opacity:1;" d="M 105.042969 32.105469 C 105.449219 32.746094 106.449219 32.710938 107.226562 32.667969 C 107.914062 32.632812 108.992188 32.476562 109.824219 32.171875 C 110.128906 32.386719 110.523438 32.519531 110.9375 32.542969 C 111.375 32.554688 111.769531 32.441406 112.097656 32.25 C 112.90625 32.609375 113.988281 32.859375 114.660156 32.9375 C 115.4375 33.039062 116.425781 33.152344 116.886719 32.542969 C 117.191406 32.136719 117.179688 31.5625 117.160156 30.738281 C 117.136719 29.996094 117.125 29.601562 116.957031 29.355469 C 116.359375 28.496094 113.738281 29.050781 112.1875 29.929688 C 111.882812 29.703125 111.488281 29.566406 111.0625 29.546875 C 110.632812 29.535156 110.230469 29.648438 109.914062 29.839844 C 108.429688 28.847656 105.886719 28.113281 105.222656 28.914062 C 105.03125 29.152344 104.988281 29.546875 104.910156 30.289062 C 104.832031 31.113281 104.761719 31.6875 105.042969 32.105469 "/><path style=" stroke:none;fill-rule:nonzero;fill:#131110;fill-opacity:1;" d="M 107.789062 29.207031 L 107.023438 30.390625 C 105.773438 30.050781 104.738281 29.546875 104.199219 28.644531 L 104.707031 27.4375 C 105.132812 28.160156 106.507812 28.914062 107.789062 29.207031 "/><path style=" stroke:none;fill-rule:nonzero;fill:#131110;fill-opacity:1;" d="M 119.105469 26.964844 L 119.972656 28.082031 C 118.945312 29.320312 117.84375 30.277344 116.597656 30.605469 L 115.730469 29.488281 C 117.035156 29.21875 118.113281 28.238281 119.105469 26.964844 "/><path style=" stroke:none;fill-rule:nonzero;fill:#100f0d;fill-opacity:1;" d="M 95.402344 67.050781 C 95.449219 67.0625 95.472656 67.582031 95.460938 68.347656 C 95.484375 68.15625 95.503906 67.964844 95.527344 67.773438 C 95.617188 66.722656 95.683594 65.6875 95.71875 64.652344 C 95.742188 63.601562 95.753906 62.566406 95.730469 61.515625 C 95.71875 61 95.707031 60.480469 95.683594 59.960938 C 95.664062 59.445312 95.628906 58.925781 95.59375 58.394531 C 95.515625 57.359375 95.425781 56.320312 95.210938 55.273438 C 95.011719 54.257812 94.839844 53.246094 94.71875 52.21875 C 94.59375 51.207031 94.492188 50.167969 94.449219 49.144531 C 94.390625 48.105469 94.378906 47.070312 94.390625 46.03125 C 94.234375 47.058594 94.15625 48.09375 94.121094 49.144531 L 94.109375 49.539062 L 94.109375 49.921875 C 94.109375 50.179688 94.109375 50.449219 94.109375 50.710938 C 94.121094 51.226562 94.144531 51.757812 94.1875 52.277344 C 94.210938 52.535156 94.234375 52.792969 94.257812 53.054688 C 94.289062 53.3125 94.3125 53.574219 94.347656 53.832031 C 94.414062 54.359375 94.492188 54.878906 94.59375 55.386719 C 94.683594 55.882812 94.738281 56.390625 94.785156 56.90625 C 94.839844 57.414062 94.886719 57.933594 94.921875 58.441406 C 95 59.476562 95.054688 60.503906 95.089844 61.539062 C 95.132812 62.578125 95.167969 63.613281 95.191406 64.640625 L 95.210938 66.195312 C 95.210938 66.578125 95.210938 66.960938 95.203125 67.332031 C 95.300781 67.140625 95.382812 67.039062 95.402344 67.050781 "/><path style=" stroke:none;fill-rule:nonzero;fill:#100f0d;fill-opacity:1;" d="M 124.066406 48.929688 C 124.007812 47.621094 123.976562 46.324219 123.953125 45.019531 C 123.929688 43.710938 123.917969 42.402344 123.886719 41.085938 C 123.636719 42.382812 123.503906 43.6875 123.425781 45.007812 C 123.355469 46.316406 123.335938 47.644531 123.390625 48.953125 C 123.445312 50.269531 123.558594 51.589844 123.738281 52.886719 C 123.785156 53.257812 123.839844 53.628906 123.90625 54 C 123.976562 53.628906 124.042969 53.300781 124.097656 52.996094 C 124.167969 53.179688 124.234375 53.359375 124.300781 53.550781 C 124.289062 53.3125 124.269531 53.078125 124.257812 52.839844 C 124.179688 51.53125 124.109375 50.238281 124.066406 48.929688 "/><g style="fill:#724913;fill-opacity:1;"><g transform="translate(44.475547, 221.778729)"><path style="stroke:none" d="M 7.421875 -14.015625 C 7.421875 -13.742188 7.390625 -13.535156 7.328125 -13.390625 C 7.273438 -13.253906 7.21875 -13.140625 7.15625 -13.046875 C 7.09375 -12.960938 7.03125 -12.664062 6.96875 -12.15625 C 6.914062 -11.65625 6.890625 -10.945312 6.890625 -10.03125 L 6.890625 -9.796875 C 6.890625 -8.046875 7.03125 -6.019531 7.3125 -3.71875 C 7.59375 -1.425781 7.734375 0.175781 7.734375 1.09375 C 7.734375 1.9375 7.675781 2.773438 7.5625 3.609375 C 7.519531 3.878906 7.457031 4.140625 7.375 4.390625 C 7.289062 4.648438 7.210938 4.863281 7.140625 5.03125 C 7.066406 5.195312 6.960938 5.375 6.828125 5.5625 C 6.703125 5.75 6.609375 5.878906 6.546875 5.953125 C 6.484375 6.035156 6.378906 6.148438 6.234375 6.296875 C 6.097656 6.453125 6.023438 6.539062 6.015625 6.5625 C 5.671875 6.894531 5.453125 7.035156 5.359375 6.984375 C 5.265625 6.941406 5.21875 6.625 5.21875 6.03125 C 5.21875 3.59375 5.175781 0.546875 5.09375 -3.109375 C 5.007812 -6.765625 4.96875 -9.832031 4.96875 -12.3125 C 4.96875 -12.78125 4.816406 -13.078125 4.515625 -13.203125 C 4.210938 -13.335938 3.695312 -13.40625 2.96875 -13.40625 L 1.875 -13.40625 C 1.664062 -13.40625 1.5 -13.46875 1.375 -13.59375 C 1.25 -13.71875 1.21875 -13.875 1.28125 -14.0625 L 2.28125 -17.640625 C 2.332031 -17.804688 2.429688 -17.953125 2.578125 -18.078125 C 2.722656 -18.210938 2.851562 -18.28125 2.96875 -18.28125 C 3.132812 -18.28125 3.234375 -18.222656 3.265625 -18.109375 C 3.421875 -17.117188 3.601562 -16.53125 3.8125 -16.34375 L 6.671875 -16.34375 C 7.171875 -16.34375 7.421875 -16.015625 7.421875 -15.359375 Z M 7.421875 -14.015625 "/></g></g><g style="fill:#724913;fill-opacity:1;"><g transform="translate(54.060541, 221.778729)"><path style="stroke:none" d="M 12.875 -16.34375 C 13.363281 -16.34375 13.796875 -16.289062 14.171875 -16.1875 C 14.554688 -16.082031 14.875 -15.957031 15.125 -15.8125 C 15.382812 -15.664062 15.601562 -15.453125 15.78125 -15.171875 C 15.96875 -14.898438 16.113281 -14.644531 16.21875 -14.40625 C 16.320312 -14.175781 16.410156 -13.863281 16.484375 -13.46875 C 16.566406 -13.082031 16.617188 -12.753906 16.640625 -12.484375 C 16.671875 -12.222656 16.703125 -11.867188 16.734375 -11.421875 C 16.773438 -10.972656 16.8125 -10.628906 16.84375 -10.390625 L 17.359375 -2.828125 C 17.367188 -2.785156 17.375 -2.722656 17.375 -2.640625 C 17.375 -2.191406 17.222656 -1.679688 16.921875 -1.109375 C 16.628906 -0.535156 16.316406 -0.0703125 15.984375 0.28125 C 15.816406 0.457031 15.664062 0.546875 15.53125 0.546875 C 15.257812 0.546875 15.125 0 15.125 -1.09375 C 15.125 -1.539062 15.082031 -2.953125 15 -5.328125 C 14.914062 -7.703125 14.875 -9.164062 14.875 -9.71875 C 14.875 -10.320312 14.863281 -10.753906 14.84375 -11.015625 C 14.832031 -11.273438 14.78125 -11.582031 14.6875 -11.9375 C 14.59375 -12.289062 14.445312 -12.53125 14.25 -12.65625 C 14.0625 -12.789062 13.773438 -12.929688 13.390625 -13.078125 C 13.015625 -13.222656 12.550781 -13.3125 12 -13.34375 C 11.445312 -13.382812 10.753906 -13.40625 9.921875 -13.40625 L 7.421875 -13.40625 C 6.953125 -13.40625 6.578125 -13.113281 6.296875 -12.53125 C 6.015625 -11.957031 5.875 -11.359375 5.875 -10.734375 L 6.375 -3.875 C 6.375 -3.78125 6.378906 -3.648438 6.390625 -3.484375 C 6.398438 -3.316406 6.40625 -3.203125 6.40625 -3.140625 C 6.40625 -3.003906 6.398438 -2.867188 6.390625 -2.734375 C 6.378906 -2.609375 6.367188 -2.503906 6.359375 -2.421875 C 6.347656 -2.347656 6.320312 -2.25 6.28125 -2.125 C 6.238281 -2 6.210938 -1.914062 6.203125 -1.875 C 6.203125 -1.84375 6.171875 -1.753906 6.109375 -1.609375 C 6.054688 -1.460938 6.023438 -1.378906 6.015625 -1.359375 C 5.742188 -0.710938 5.507812 -0.320312 5.3125 -0.1875 C 5.125 -0.0625 4.679688 0 3.984375 0 L 1.609375 0 C 1.035156 0 0.75 -0.117188 0.75 -0.359375 C 0.75 -0.410156 0.84375 -0.71875 1.03125 -1.28125 C 1.195312 -1.71875 1.367188 -1.992188 1.546875 -2.109375 C 1.722656 -2.234375 2.117188 -2.351562 2.734375 -2.46875 C 3.410156 -2.570312 3.828125 -2.71875 3.984375 -2.90625 C 4.148438 -3.09375 4.234375 -3.5625 4.234375 -4.3125 L 4.234375 -4.4375 L 4.15625 -10.046875 C 4.15625 -10.203125 4.164062 -10.359375 4.1875 -10.515625 C 4.207031 -10.679688 4.226562 -10.820312 4.25 -10.9375 C 4.269531 -11.050781 4.3125 -11.1875 4.375 -11.34375 C 4.4375 -11.5 4.476562 -11.613281 4.5 -11.6875 C 4.53125 -11.769531 4.585938 -11.890625 4.671875 -12.046875 C 4.765625 -12.203125 4.820312 -12.300781 4.84375 -12.34375 C 4.875 -12.382812 4.941406 -12.488281 5.046875 -12.65625 C 5.160156 -12.832031 5.222656 -12.929688 5.234375 -12.953125 L 4.234375 -13.40625 C 4.203125 -13.414062 4.148438 -13.4375 4.078125 -13.46875 C 4.003906 -13.5 3.953125 -13.519531 3.921875 -13.53125 C 3.890625 -13.550781 3.847656 -13.578125 3.796875 -13.609375 C 3.742188 -13.640625 3.707031 -13.664062 3.6875 -13.6875 C 3.664062 -13.71875 3.644531 -13.753906 3.625 -13.796875 C 3.601562 -13.835938 3.59375 -13.878906 3.59375 -13.921875 C 3.59375 -13.953125 3.601562 -14 3.625 -14.0625 L 4.625 -17.640625 C 4.6875 -17.828125 4.785156 -17.972656 4.921875 -18.078125 C 5.066406 -18.191406 5.207031 -18.25 5.34375 -18.25 C 5.53125 -18.25 5.625 -18.15625 5.625 -17.96875 C 5.625 -17.664062 5.675781 -17.351562 5.78125 -17.03125 C 5.882812 -16.707031 6.015625 -16.476562 6.171875 -16.34375 Z M 12.875 -16.34375 "/></g></g><g style="fill:#724913;fill-opacity:1;"><g transform="translate(72.59153, 221.778729)"><path style="stroke:none" d="M 5.15625 -9.671875 C 5.15625 -8.660156 5.179688 -7.546875 5.234375 -6.328125 C 5.285156 -5.117188 5.3125 -4.367188 5.3125 -4.078125 C 5.3125 -3.304688 5.175781 -2.648438 4.90625 -2.109375 C 4.632812 -1.566406 4.148438 -0.914062 3.453125 -0.15625 C 3.273438 0.03125 3.085938 0.148438 2.890625 0.203125 L 2.421875 0.28125 C 2.242188 0.300781 2.140625 0.289062 2.109375 0.25 C 2.085938 0.207031 2.078125 0.101562 2.078125 -0.0625 C 2.078125 -1.039062 2.296875 -2.910156 2.734375 -5.671875 C 3.179688 -8.441406 3.40625 -10.648438 3.40625 -12.296875 C 3.40625 -12.648438 3.335938 -12.921875 3.203125 -13.109375 C 3.066406 -13.304688 2.914062 -13.40625 2.75 -13.40625 L 2.484375 -13.40625 C 2.273438 -13.40625 2.109375 -13.46875 1.984375 -13.59375 C 1.867188 -13.71875 1.835938 -13.875 1.890625 -14.0625 L 2.890625 -17.640625 C 2.953125 -17.816406 3.0625 -17.960938 3.21875 -18.078125 C 3.375 -18.191406 3.523438 -18.25 3.671875 -18.25 C 3.804688 -18.25 3.875 -18.203125 3.875 -18.109375 C 3.875 -17.796875 3.925781 -17.457031 4.03125 -17.09375 C 4.144531 -16.726562 4.273438 -16.476562 4.421875 -16.34375 L 17.203125 -16.34375 C 17.410156 -16.34375 17.546875 -16.300781 17.609375 -16.21875 C 17.679688 -16.144531 17.695312 -16 17.65625 -15.78125 L 17.390625 -14.359375 C 17.328125 -14.078125 17.253906 -13.863281 17.171875 -13.71875 C 17.085938 -13.582031 17.003906 -13.492188 16.921875 -13.453125 C 16.847656 -13.410156 16.769531 -13.359375 16.6875 -13.296875 C 16.601562 -13.242188 16.519531 -13.117188 16.4375 -12.921875 C 16.351562 -12.722656 16.28125 -12.4375 16.21875 -12.0625 C 16.09375 -11.394531 16.03125 -10.644531 16.03125 -9.8125 C 16.03125 -9.019531 16.144531 -7.910156 16.375 -6.484375 C 16.601562 -5.066406 16.71875 -3.945312 16.71875 -3.125 C 16.71875 -2.601562 16.601562 -2.117188 16.375 -1.671875 C 16.15625 -1.222656 15.851562 -0.738281 15.46875 -0.21875 C 15.300781 0 15.03125 0.164062 14.65625 0.28125 L 14.453125 0.28125 C 14.273438 0.320312 14.164062 0.320312 14.125 0.28125 C 14.09375 0.25 14.078125 0.15625 14.078125 0 C 14.078125 -0.726562 14.082031 -2.222656 14.09375 -4.484375 C 14.113281 -6.742188 14.125 -9.328125 14.125 -12.234375 C 14.125 -12.640625 14.023438 -12.9375 13.828125 -13.125 C 13.640625 -13.3125 13.28125 -13.40625 12.75 -13.40625 L 7.015625 -13.40625 C 6.648438 -13.40625 6.335938 -13.28125 6.078125 -13.03125 C 5.816406 -12.789062 5.625 -12.46875 5.5 -12.0625 C 5.375 -11.65625 5.285156 -11.257812 5.234375 -10.875 C 5.179688 -10.488281 5.15625 -10.085938 5.15625 -9.671875 Z M 5.15625 -9.671875 "/></g></g><g style="fill:#724913;fill-opacity:1;"><g transform="translate(91.730347, 221.778729)"><path style="stroke:none" d="M 2.671875 -13.40625 C 2.460938 -13.40625 2.296875 -13.46875 2.171875 -13.59375 C 2.054688 -13.71875 2.023438 -13.875 2.078125 -14.0625 L 3.078125 -17.640625 C 3.140625 -17.816406 3.25 -17.960938 3.40625 -18.078125 C 3.5625 -18.191406 3.710938 -18.25 3.859375 -18.25 C 3.992188 -18.25 4.0625 -18.203125 4.0625 -18.109375 C 4.0625 -17.796875 4.113281 -17.457031 4.21875 -17.09375 C 4.332031 -16.726562 4.460938 -16.476562 4.609375 -16.34375 L 16.0625 -16.34375 C 16.269531 -16.34375 16.40625 -16.300781 16.46875 -16.21875 C 16.539062 -16.144531 16.554688 -16 16.515625 -15.78125 L 16.25 -14.359375 C 16.1875 -14.078125 16.113281 -13.863281 16.03125 -13.71875 C 15.957031 -13.582031 15.878906 -13.492188 15.796875 -13.453125 C 15.722656 -13.410156 15.644531 -13.359375 15.5625 -13.296875 C 15.476562 -13.242188 15.394531 -13.117188 15.3125 -12.921875 C 15.226562 -12.722656 15.15625 -12.4375 15.09375 -12.0625 C 14.96875 -11.394531 14.90625 -10.644531 14.90625 -9.8125 C 14.90625 -9.019531 15.019531 -7.910156 15.25 -6.484375 C 15.476562 -5.066406 15.59375 -3.945312 15.59375 -3.125 C 15.59375 -2.601562 15.476562 -2.117188 15.25 -1.671875 C 15.03125 -1.222656 14.722656 -0.738281 14.328125 -0.21875 C 14.222656 -0.0820312 14.144531 0 14.09375 0.03125 C 14.050781 0.0625 13.945312 0.101562 13.78125 0.15625 L 13.3125 0.28125 C 13.132812 0.320312 13.023438 0.320312 12.984375 0.28125 C 12.953125 0.25 12.9375 0.15625 12.9375 0 C 12.9375 -0.726562 12.941406 -2.222656 12.953125 -4.484375 C 12.972656 -6.742188 12.984375 -9.328125 12.984375 -12.234375 C 12.984375 -12.640625 12.882812 -12.9375 12.6875 -13.125 C 12.5 -13.3125 12.140625 -13.40625 11.609375 -13.40625 Z M 3.921875 -10.09375 C 4.109375 -10.175781 4.234375 -10.191406 4.296875 -10.140625 C 4.367188 -10.085938 4.40625 -9.925781 4.40625 -9.65625 L 4.40625 -8.140625 C 4.40625 -7.847656 4.46875 -7.210938 4.59375 -6.234375 C 4.726562 -5.253906 4.796875 -4.457031 4.796875 -3.84375 C 4.796875 -2.019531 4.1875 -0.738281 2.96875 0 C 2.65625 0.1875 2.398438 0.28125 2.203125 0.28125 C 1.929688 0.28125 1.796875 0.0976562 1.796875 -0.265625 C 1.796875 -0.367188 1.8125 -0.5 1.84375 -0.65625 C 2.0625 -1.851562 2.222656 -2.976562 2.328125 -4.03125 C 2.441406 -5.082031 2.503906 -5.890625 2.515625 -6.453125 C 2.523438 -7.015625 2.535156 -7.523438 2.546875 -7.984375 C 2.566406 -8.453125 2.609375 -8.796875 2.671875 -9.015625 C 2.742188 -9.242188 2.867188 -9.441406 3.046875 -9.609375 C 3.234375 -9.773438 3.523438 -9.9375 3.921875 -10.09375 Z M 3.921875 -10.09375 "/></g></g><g style="fill:#724913;fill-opacity:1;"><g transform="translate(109.731433, 221.778729)"><path style="stroke:none" d=""/></g></g><g style="fill:#724913;fill-opacity:1;"><g transform="translate(119.861915, 221.778729)"><path style="stroke:none" d="M 4.109375 -18.359375 C 4.109375 -18.347656 4.101562 -18.316406 4.09375 -18.265625 C 4.082031 -18.210938 4.070312 -18.132812 4.0625 -18.03125 C 4.050781 -17.9375 4.046875 -17.832031 4.046875 -17.71875 C 4.046875 -17.144531 4.140625 -16.738281 4.328125 -16.5 L 6.59375 -16.09375 C 8.007812 -15.863281 8.71875 -15.070312 8.71875 -13.71875 C 8.71875 -13 8.519531 -12.019531 8.125 -10.78125 C 7.738281 -9.550781 7.34375 -8.585938 6.9375 -7.890625 C 6.425781 -7.085938 5.8125 -6.550781 5.09375 -6.28125 C 5 -6.25 4.90625 -6.234375 4.8125 -6.234375 C 4.644531 -6.234375 4.5 -6.269531 4.375 -6.34375 C 4.25 -6.414062 4.1875 -6.5 4.1875 -6.59375 C 4.1875 -6.625 4.191406 -6.648438 4.203125 -6.671875 C 5.546875 -9.035156 6.21875 -10.722656 6.21875 -11.734375 C 6.21875 -12.679688 5.632812 -13.265625 4.46875 -13.484375 L 1.921875 -13.953125 C 1.765625 -13.972656 1.632812 -14.03125 1.53125 -14.125 C 1.425781 -14.226562 1.375 -14.34375 1.375 -14.46875 C 1.375 -14.550781 1.394531 -14.628906 1.4375 -14.703125 L 3.046875 -18.0625 C 3.203125 -18.363281 3.460938 -18.515625 3.828125 -18.515625 C 4.015625 -18.515625 4.109375 -18.460938 4.109375 -18.359375 Z M 4.109375 -18.359375 "/></g></g><g style="fill:#724913;fill-opacity:1;"><g transform="translate(130.241762, 221.778729)"><path style="stroke:none" d="M 13.25 -1.71875 L 12.71875 -0.53125 C 12.59375 -0.238281 12.476562 -0.0351562 12.375 0.078125 C 12.269531 0.203125 12.109375 0.316406 11.890625 0.421875 C 11.765625 0.472656 11.675781 0.5 11.625 0.5 C 11.507812 0.5 11.453125 0.257812 11.453125 -0.21875 C 11.453125 -0.695312 11.414062 -2.296875 11.34375 -5.015625 C 11.28125 -7.734375 11.25 -9.300781 11.25 -9.71875 C 11.25 -10.332031 11.238281 -10.769531 11.21875 -11.03125 C 11.207031 -11.300781 11.148438 -11.613281 11.046875 -11.96875 C 10.953125 -12.332031 10.8125 -12.570312 10.625 -12.6875 C 10.4375 -12.8125 10.15625 -12.945312 9.78125 -13.09375 C 9.40625 -13.238281 8.941406 -13.328125 8.390625 -13.359375 C 7.847656 -13.390625 7.15625 -13.40625 6.3125 -13.40625 L 2.03125 -13.40625 C 1.863281 -13.40625 1.71875 -13.453125 1.59375 -13.546875 C 1.46875 -13.640625 1.40625 -13.757812 1.40625 -13.90625 C 1.40625 -13.925781 1.414062 -13.976562 1.4375 -14.0625 L 2.4375 -17.640625 C 2.5 -17.828125 2.597656 -17.972656 2.734375 -18.078125 C 2.878906 -18.191406 3.019531 -18.25 3.15625 -18.25 C 3.332031 -18.25 3.421875 -18.15625 3.421875 -17.96875 C 3.421875 -17.664062 3.472656 -17.351562 3.578125 -17.03125 C 3.679688 -16.707031 3.8125 -16.476562 3.96875 -16.34375 L 9.265625 -16.34375 C 9.765625 -16.34375 10.210938 -16.289062 10.609375 -16.1875 C 11.003906 -16.09375 11.332031 -15.96875 11.59375 -15.8125 C 11.851562 -15.664062 12.078125 -15.457031 12.265625 -15.1875 C 12.453125 -14.914062 12.59375 -14.65625 12.6875 -14.40625 C 12.789062 -14.164062 12.875 -13.859375 12.9375 -13.484375 C 13 -13.109375 13.039062 -12.773438 13.0625 -12.484375 C 13.082031 -12.203125 13.109375 -11.847656 13.140625 -11.421875 C 13.171875 -11.003906 13.203125 -10.660156 13.234375 -10.390625 L 13.640625 -5.015625 C 13.640625 -4.929688 13.648438 -4.664062 13.671875 -4.21875 C 13.691406 -3.769531 13.703125 -3.515625 13.703125 -3.453125 C 13.703125 -3.128906 13.671875 -2.859375 13.609375 -2.640625 C 13.546875 -2.421875 13.425781 -2.113281 13.25 -1.71875 Z M 13.25 -1.71875 "/></g></g><g style="fill:#724913;fill-opacity:1;"><g transform="translate(145.063436, 221.778729)"><path style="stroke:none" d="M 7.4375 -12.484375 C 7.4375 -12.160156 7.429688 -11.679688 7.421875 -11.046875 C 7.421875 -10.410156 7.421875 -9.988281 7.421875 -9.78125 C 7.421875 -8.988281 7.515625 -7.882812 7.703125 -6.46875 C 7.890625 -5.0625 7.984375 -3.945312 7.984375 -3.125 C 7.984375 -2.601562 7.867188 -2.117188 7.640625 -1.671875 C 7.421875 -1.222656 7.113281 -0.738281 6.71875 -0.21875 C 6.613281 -0.0820312 6.535156 0 6.484375 0.03125 C 6.441406 0.0625 6.335938 0.101562 6.171875 0.15625 L 5.703125 0.28125 C 5.523438 0.320312 5.414062 0.320312 5.375 0.28125 C 5.34375 0.25 5.328125 0.15625 5.328125 0 L 5.328125 -12.234375 C 5.328125 -12.609375 5.234375 -12.875 5.046875 -13.03125 C 4.867188 -13.1875 4.519531 -13.3125 4 -13.40625 C 2.507812 -13.65625 1.753906 -13.78125 1.734375 -13.78125 C 1.566406 -13.8125 1.4375 -13.90625 1.34375 -14.0625 C 1.25 -14.21875 1.222656 -14.382812 1.265625 -14.5625 L 2.0625 -17.640625 C 2.113281 -17.816406 2.222656 -17.960938 2.390625 -18.078125 C 2.554688 -18.191406 2.710938 -18.25 2.859375 -18.25 C 2.992188 -18.25 3.0625 -18.203125 3.0625 -18.109375 C 3.0625 -17.804688 3.109375 -17.5 3.203125 -17.1875 C 3.296875 -16.875 3.421875 -16.648438 3.578125 -16.515625 C 4.273438 -16.367188 4.863281 -16.210938 5.34375 -16.046875 C 5.820312 -15.878906 6.195312 -15.707031 6.46875 -15.53125 C 6.75 -15.363281 6.957031 -15.148438 7.09375 -14.890625 C 7.238281 -14.640625 7.332031 -14.398438 7.375 -14.171875 C 7.414062 -13.941406 7.4375 -13.644531 7.4375 -13.28125 Z M 7.4375 -12.484375 "/></g></g><g style="fill:#724913;fill-opacity:1;"><g transform="translate(154.367894, 221.778729)"><path style="stroke:none" d="M 2.671875 -13.40625 C 2.460938 -13.40625 2.296875 -13.46875 2.171875 -13.59375 C 2.054688 -13.71875 2.023438 -13.875 2.078125 -14.0625 L 3.078125 -17.640625 C 3.140625 -17.816406 3.25 -17.960938 3.40625 -18.078125 C 3.5625 -18.191406 3.710938 -18.25 3.859375 -18.25 C 3.992188 -18.25 4.0625 -18.203125 4.0625 -18.109375 C 4.0625 -17.796875 4.113281 -17.457031 4.21875 -17.09375 C 4.332031 -16.726562 4.460938 -16.476562 4.609375 -16.34375 L 16.0625 -16.34375 C 16.269531 -16.34375 16.40625 -16.300781 16.46875 -16.21875 C 16.539062 -16.144531 16.554688 -16 16.515625 -15.78125 L 16.25 -14.359375 C 16.1875 -14.078125 16.113281 -13.863281 16.03125 -13.71875 C 15.957031 -13.582031 15.878906 -13.492188 15.796875 -13.453125 C 15.722656 -13.410156 15.644531 -13.359375 15.5625 -13.296875 C 15.476562 -13.242188 15.394531 -13.117188 15.3125 -12.921875 C 15.226562 -12.722656 15.15625 -12.4375 15.09375 -12.0625 C 14.96875 -11.394531 14.90625 -10.644531 14.90625 -9.8125 C 14.90625 -9.019531 15.019531 -7.910156 15.25 -6.484375 C 15.476562 -5.066406 15.59375 -3.945312 15.59375 -3.125 C 15.59375 -2.601562 15.476562 -2.117188 15.25 -1.671875 C 15.03125 -1.222656 14.722656 -0.738281 14.328125 -0.21875 C 14.222656 -0.0820312 14.144531 0 14.09375 0.03125 C 14.050781 0.0625 13.945312 0.101562 13.78125 0.15625 L 13.3125 0.28125 C 13.132812 0.320312 13.023438 0.320312 12.984375 0.28125 C 12.953125 0.25 12.9375 0.15625 12.9375 0 C 12.9375 -0.726562 12.941406 -2.222656 12.953125 -4.484375 C 12.972656 -6.742188 12.984375 -9.328125 12.984375 -12.234375 C 12.984375 -12.640625 12.882812 -12.9375 12.6875 -13.125 C 12.5 -13.3125 12.140625 -13.40625 11.609375 -13.40625 Z M 3.921875 -10.09375 C 4.109375 -10.175781 4.234375 -10.191406 4.296875 -10.140625 C 4.367188 -10.085938 4.40625 -9.925781 4.40625 -9.65625 L 4.40625 -8.140625 C 4.40625 -7.847656 4.46875 -7.210938 4.59375 -6.234375 C 4.726562 -5.253906 4.796875 -4.457031 4.796875 -3.84375 C 4.796875 -2.019531 4.1875 -0.738281 2.96875 0 C 2.65625 0.1875 2.398438 0.28125 2.203125 0.28125 C 1.929688 0.28125 1.796875 0.0976562 1.796875 -0.265625 C 1.796875 -0.367188 1.8125 -0.5 1.84375 -0.65625 C 2.0625 -1.851562 2.222656 -2.976562 2.328125 -4.03125 C 2.441406 -5.082031 2.503906 -5.890625 2.515625 -6.453125 C 2.523438 -7.015625 2.535156 -7.523438 2.546875 -7.984375 C 2.566406 -8.453125 2.609375 -8.796875 2.671875 -9.015625 C 2.742188 -9.242188 2.867188 -9.441406 3.046875 -9.609375 C 3.234375 -9.773438 3.523438 -9.9375 3.921875 -10.09375 Z M 3.921875 -10.09375 "/></g></g><g style="fill:#724913;fill-opacity:1;"><g transform="translate(8.452891, 271.913474)"><path style="stroke:none" d="M 8.828125 -14.828125 C 8.828125 -14.441406 8.820312 -13.875 8.8125 -13.125 C 8.8125 -12.375 8.8125 -11.875 8.8125 -11.625 C 8.8125 -10.675781 8.921875 -9.363281 9.140625 -7.6875 C 9.367188 -6.019531 9.484375 -4.691406 9.484375 -3.703125 C 9.484375 -3.085938 9.347656 -2.515625 9.078125 -1.984375 C 8.816406 -1.453125 8.453125 -0.878906 7.984375 -0.265625 C 7.859375 -0.0976562 7.765625 0 7.703125 0.03125 C 7.648438 0.0703125 7.523438 0.125 7.328125 0.1875 L 6.78125 0.328125 C 6.5625 0.378906 6.429688 0.382812 6.390625 0.34375 C 6.347656 0.300781 6.328125 0.1875 6.328125 0 L 6.328125 -14.53125 C 6.328125 -14.976562 6.21875 -15.289062 6 -15.46875 C 5.789062 -15.65625 5.375 -15.804688 4.75 -15.921875 C 2.976562 -16.210938 2.078125 -16.359375 2.046875 -16.359375 C 1.859375 -16.398438 1.707031 -16.507812 1.59375 -16.6875 C 1.476562 -16.875 1.445312 -17.070312 1.5 -17.28125 L 2.4375 -20.953125 C 2.5 -21.160156 2.628906 -21.332031 2.828125 -21.46875 C 3.023438 -21.601562 3.210938 -21.671875 3.390625 -21.671875 C 3.546875 -21.671875 3.625 -21.613281 3.625 -21.5 C 3.625 -21.144531 3.679688 -20.78125 3.796875 -20.40625 C 3.921875 -20.039062 4.070312 -19.78125 4.25 -19.625 C 5.082031 -19.445312 5.78125 -19.253906 6.34375 -19.046875 C 6.914062 -18.847656 7.363281 -18.644531 7.6875 -18.4375 C 8.019531 -18.238281 8.269531 -17.988281 8.4375 -17.6875 C 8.601562 -17.382812 8.707031 -17.097656 8.75 -16.828125 C 8.800781 -16.554688 8.828125 -16.203125 8.828125 -15.765625 Z M 8.828125 -14.828125 "/></g></g><g style="fill:#724913;fill-opacity:1;"><g transform="translate(19.50236, 271.913474)"><path style="stroke:none" d="M 2.984375 -0.375 C 2.984375 -0.71875 3.234375 -1.640625 3.734375 -3.140625 C 4.242188 -4.640625 4.75 -6.332031 5.25 -8.21875 C 5.757812 -10.101562 6.015625 -11.695312 6.015625 -13 C 6.015625 -13.96875 5.726562 -14.585938 5.15625 -14.859375 L 2.421875 -15.921875 C 2.222656 -15.992188 2.082031 -16.050781 2 -16.09375 C 1.914062 -16.132812 1.832031 -16.207031 1.75 -16.3125 C 1.675781 -16.414062 1.664062 -16.539062 1.71875 -16.6875 L 2.90625 -20.953125 C 2.96875 -21.148438 3.082031 -21.320312 3.25 -21.46875 C 3.414062 -21.613281 3.566406 -21.6875 3.703125 -21.6875 C 3.859375 -21.6875 3.988281 -21.625 4.09375 -21.5 C 4.21875 -21.320312 4.320312 -20.957031 4.40625 -20.40625 C 4.5 -19.851562 4.609375 -19.523438 4.734375 -19.421875 C 5.066406 -19.191406 5.566406 -18.972656 6.234375 -18.765625 C 6.898438 -18.566406 7.414062 -18.34375 7.78125 -18.09375 C 8.15625 -17.851562 8.34375 -17.484375 8.34375 -16.984375 C 8.34375 -16.785156 8.328125 -16.582031 8.296875 -16.375 C 8.265625 -16.175781 8.210938 -15.890625 8.140625 -15.515625 C 8.066406 -15.140625 8 -14.726562 7.9375 -14.28125 C 7.9375 -14.101562 8.023438 -13.984375 8.203125 -13.921875 C 8.390625 -13.867188 8.539062 -13.910156 8.65625 -14.046875 C 10.175781 -15.359375 11.347656 -16.628906 12.171875 -17.859375 C 12.367188 -18.097656 12.515625 -18.328125 12.609375 -18.546875 C 12.710938 -18.773438 12.765625 -18.929688 12.765625 -19.015625 C 12.765625 -19.109375 12.835938 -19.191406 12.984375 -19.265625 C 13.140625 -19.335938 13.351562 -19.378906 13.625 -19.390625 C 13.894531 -19.410156 14.359375 -19.421875 15.015625 -19.421875 C 15.722656 -19.421875 16.300781 -19.394531 16.75 -19.34375 C 17.207031 -19.300781 17.660156 -19.203125 18.109375 -19.046875 C 18.554688 -18.890625 18.910156 -18.664062 19.171875 -18.375 C 19.429688 -18.09375 19.679688 -17.703125 19.921875 -17.203125 C 20.171875 -16.703125 20.375 -16.097656 20.53125 -15.390625 C 20.6875 -14.679688 20.832031 -13.816406 20.96875 -12.796875 C 21.019531 -12.410156 21.101562 -11.789062 21.21875 -10.9375 C 21.332031 -10.082031 21.421875 -9.390625 21.484375 -8.859375 C 21.554688 -8.328125 21.625 -7.644531 21.6875 -6.8125 C 21.75 -5.988281 21.78125 -5.179688 21.78125 -4.390625 C 21.78125 -3.921875 21.722656 -3.453125 21.609375 -2.984375 C 21.503906 -2.523438 21.332031 -2.0625 21.09375 -1.59375 C 20.851562 -1.125 20.484375 -0.738281 19.984375 -0.4375 C 19.492188 -0.144531 18.914062 0 18.25 0 L 10.234375 0 C 9.960938 0 9.78125 -0.0351562 9.6875 -0.109375 C 9.59375 -0.179688 9.597656 -0.335938 9.703125 -0.578125 L 10.671875 -3.046875 C 10.796875 -3.347656 10.890625 -3.523438 10.953125 -3.578125 C 11.023438 -3.640625 11.191406 -3.671875 11.453125 -3.671875 L 17.5625 -3.671875 C 18.351562 -3.671875 18.882812 -3.75 19.15625 -3.90625 C 19.425781 -4.0625 19.5625 -4.410156 19.5625 -4.953125 C 19.5625 -5.035156 19.546875 -5.175781 19.515625 -5.375 C 19.492188 -5.582031 19.484375 -5.753906 19.484375 -5.890625 L 18.890625 -10.5 C 18.546875 -12.414062 18.101562 -13.753906 17.5625 -14.515625 C 17.019531 -15.285156 16.117188 -15.671875 14.859375 -15.671875 C 14.367188 -15.671875 13.847656 -15.628906 13.296875 -15.546875 C 12.523438 -15.296875 11.910156 -14.984375 11.453125 -14.609375 C 10.910156 -14.234375 10.429688 -13.835938 10.015625 -13.421875 C 9.597656 -13.003906 9.234375 -12.515625 8.921875 -11.953125 C 8.609375 -11.398438 8.347656 -10.882812 8.140625 -10.40625 C 7.941406 -9.9375 7.742188 -9.304688 7.546875 -8.515625 C 7.347656 -7.722656 7.191406 -7.039062 7.078125 -6.46875 C 6.960938 -5.90625 6.804688 -5.097656 6.609375 -4.046875 C 6.410156 -2.992188 6.238281 -2.113281 6.09375 -1.40625 C 5.96875 -0.84375 5.816406 -0.46875 5.640625 -0.28125 C 5.460938 -0.09375 5.097656 0 4.546875 0 L 3.640625 0 C 3.398438 0 3.226562 -0.0195312 3.125 -0.0625 C 3.03125 -0.101562 2.984375 -0.207031 2.984375 -0.375 Z M 2.984375 -0.375 "/></g></g><g style="fill:#724913;fill-opacity:1;"><g transform="translate(42.397157, 271.913474)"><path style="stroke:none" d="M 1.84375 -16.359375 L 3.09375 -20.953125 C 3.15625 -21.160156 3.28125 -21.332031 3.46875 -21.46875 C 3.65625 -21.613281 3.832031 -21.6875 4 -21.6875 C 4.21875 -21.6875 4.328125 -21.570312 4.328125 -21.34375 C 4.328125 -20.976562 4.390625 -20.601562 4.515625 -20.21875 C 4.640625 -19.84375 4.796875 -19.578125 4.984375 -19.421875 L 14.609375 -19.421875 C 15.378906 -19.421875 16.140625 -19.078125 16.890625 -18.390625 C 17.648438 -17.710938 18.082031 -16.890625 18.1875 -15.921875 C 18.457031 -14.523438 18.59375 -13.066406 18.59375 -11.546875 C 18.59375 -10.597656 18.566406 -9.722656 18.515625 -8.921875 C 18.460938 -8.117188 18.351562 -7.289062 18.1875 -6.4375 C 18.019531 -5.582031 17.804688 -4.816406 17.546875 -4.140625 C 17.285156 -3.472656 16.9375 -2.832031 16.5 -2.21875 C 16.0625 -1.601562 15.546875 -1.09375 14.953125 -0.6875 C 14.367188 -0.289062 13.664062 0.0234375 12.84375 0.265625 C 12.019531 0.503906 11.09375 0.625 10.0625 0.625 C 9.300781 0.625 8.613281 0.535156 8 0.359375 C 7.382812 0.191406 6.847656 -0.0078125 6.390625 -0.25 C 5.929688 -0.488281 5.523438 -0.863281 5.171875 -1.375 C 4.816406 -1.882812 4.519531 -2.347656 4.28125 -2.765625 C 4.050781 -3.191406 3.859375 -3.804688 3.703125 -4.609375 C 3.554688 -5.410156 3.441406 -6.082031 3.359375 -6.625 C 3.273438 -7.175781 3.210938 -7.972656 3.171875 -9.015625 C 3.128906 -10.066406 3.101562 -10.898438 3.09375 -11.515625 C 3.09375 -12.140625 3.09375 -13.0625 3.09375 -14.28125 C 3.09375 -14.5625 3.085938 -14.765625 3.078125 -14.890625 C 3.078125 -15.015625 3.023438 -15.132812 2.921875 -15.25 C 2.828125 -15.363281 2.757812 -15.425781 2.71875 -15.4375 C 2.6875 -15.457031 2.550781 -15.53125 2.3125 -15.65625 C 1.914062 -15.800781 1.757812 -16.035156 1.84375 -16.359375 Z M 16.234375 -9.25 C 16.234375 -9.945312 16.222656 -10.53125 16.203125 -11 C 16.179688 -11.476562 16.140625 -11.953125 16.078125 -12.421875 C 16.015625 -12.898438 15.929688 -13.289062 15.828125 -13.59375 C 15.722656 -13.894531 15.582031 -14.1875 15.40625 -14.46875 C 15.238281 -14.757812 15.03125 -14.988281 14.78125 -15.15625 C 14.539062 -15.320312 14.242188 -15.460938 13.890625 -15.578125 C 13.535156 -15.703125 13.132812 -15.789062 12.6875 -15.84375 C 12.25 -15.894531 11.738281 -15.921875 11.15625 -15.921875 C 9.195312 -15.921875 7.570312 -15.828125 6.28125 -15.640625 C 5.789062 -15.566406 5.457031 -15.429688 5.28125 -15.234375 C 5.113281 -15.046875 5.03125 -14.65625 5.03125 -14.0625 C 5.03125 -12.75 5.078125 -11.5625 5.171875 -10.5 C 5.273438 -9.445312 5.410156 -8.5625 5.578125 -7.84375 C 5.742188 -7.132812 5.960938 -6.515625 6.234375 -5.984375 C 6.503906 -5.460938 6.78125 -5.054688 7.0625 -4.765625 C 7.34375 -4.472656 7.671875 -4.238281 8.046875 -4.0625 C 8.429688 -3.894531 8.789062 -3.785156 9.125 -3.734375 C 9.46875 -3.691406 9.863281 -3.671875 10.3125 -3.671875 C 11.144531 -3.671875 11.972656 -3.8125 12.796875 -4.09375 C 13.617188 -4.375 14.332031 -4.726562 14.9375 -5.15625 C 15.476562 -5.675781 15.828125 -6.179688 15.984375 -6.671875 C 16.148438 -7.171875 16.234375 -7.757812 16.234375 -8.4375 Z M 16.234375 -9.25 "/></g></g><g style="fill:#724913;fill-opacity:1;"><g transform="translate(62.423164, 271.913474)"><path style="stroke:none" d=""/></g></g><g style="fill:#724913;fill-opacity:1;"><g transform="translate(74.453575, 271.913474)"><path style="stroke:none" d="M 14.78125 -19.421875 C 15.40625 -19.421875 15.957031 -19.363281 16.4375 -19.25 C 16.925781 -19.132812 17.332031 -18.988281 17.65625 -18.8125 C 17.988281 -18.644531 18.269531 -18.410156 18.5 -18.109375 C 18.738281 -17.816406 18.921875 -17.53125 19.046875 -17.25 C 19.171875 -16.96875 19.269531 -16.613281 19.34375 -16.1875 C 19.414062 -15.757812 19.460938 -15.375 19.484375 -15.03125 C 19.503906 -14.6875 19.515625 -14.265625 19.515625 -13.765625 L 19.515625 -2.59375 C 19.515625 -2.332031 19.519531 -2.03125 19.53125 -1.6875 C 19.550781 -1.34375 19.5625 -1.117188 19.5625 -1.015625 C 19.5625 -0.585938 19.4375 -0.3125 19.1875 -0.1875 C 18.945312 -0.0625 18.375 0 17.46875 0 L 4.390625 0 C 4.078125 0 3.847656 -0.0351562 3.703125 -0.109375 C 3.554688 -0.191406 3.46875 -0.285156 3.4375 -0.390625 C 3.414062 -0.503906 3.40625 -0.675781 3.40625 -0.90625 C 3.40625 -1.414062 3.382812 -2.164062 3.34375 -3.15625 C 3.300781 -4.144531 3.28125 -4.882812 3.28125 -5.375 C 3.28125 -9.96875 3.648438 -13.316406 4.390625 -15.421875 L 2.625 -15.921875 C 2.050781 -16.085938 1.816406 -16.34375 1.921875 -16.6875 L 3.109375 -20.953125 C 3.179688 -21.160156 3.3125 -21.332031 3.5 -21.46875 C 3.695312 -21.601562 3.878906 -21.671875 4.046875 -21.671875 C 4.210938 -21.671875 4.296875 -21.613281 4.296875 -21.5 C 4.296875 -21.132812 4.359375 -20.734375 4.484375 -20.296875 C 4.617188 -19.867188 4.769531 -19.578125 4.9375 -19.421875 Z M 5.640625 -9.25 C 5.640625 -6.738281 5.703125 -5.179688 5.828125 -4.578125 C 5.960938 -3.972656 6.328125 -3.671875 6.921875 -3.671875 L 16.15625 -3.671875 C 16.882812 -3.671875 17.335938 -3.78125 17.515625 -4 C 17.691406 -4.226562 17.78125 -4.691406 17.78125 -5.390625 L 17.78125 -5.8125 C 17.78125 -6.257812 17.757812 -6.765625 17.71875 -7.328125 C 17.6875 -7.898438 17.640625 -8.445312 17.578125 -8.96875 C 17.515625 -9.488281 17.457031 -9.957031 17.40625 -10.375 C 17.351562 -10.800781 17.300781 -11.179688 17.25 -11.515625 L 17.171875 -12.03125 C 17.078125 -12.75 16.941406 -13.332031 16.765625 -13.78125 C 16.597656 -14.226562 16.382812 -14.597656 16.125 -14.890625 C 15.875 -15.191406 15.5 -15.410156 15 -15.546875 C 14.507812 -15.691406 13.984375 -15.789062 13.421875 -15.84375 C 12.867188 -15.894531 12.113281 -15.921875 11.15625 -15.921875 L 6.734375 -15.921875 C 6.367188 -15.921875 6.125 -15.835938 6 -15.671875 C 5.875 -15.503906 5.8125 -15.222656 5.8125 -14.828125 C 5.8125 -14.191406 5.78125 -13.257812 5.71875 -12.03125 C 5.664062 -10.800781 5.640625 -9.875 5.640625 -9.25 Z M 5.640625 -9.25 "/></g></g><g style="fill:#724913;fill-opacity:1;"><g transform="translate(96.311906, 271.913474)"><path style="stroke:none" d="M 15.734375 -2.03125 L 15.109375 -0.625 C 14.953125 -0.28125 14.8125 -0.0390625 14.6875 0.09375 C 14.570312 0.238281 14.382812 0.375 14.125 0.5 C 13.976562 0.5625 13.875 0.59375 13.8125 0.59375 C 13.675781 0.59375 13.609375 0.3125 13.609375 -0.25 C 13.609375 -0.820312 13.566406 -2.722656 13.484375 -5.953125 C 13.398438 -9.179688 13.359375 -11.046875 13.359375 -11.546875 C 13.359375 -12.273438 13.347656 -12.796875 13.328125 -13.109375 C 13.316406 -13.421875 13.25 -13.789062 13.125 -14.21875 C 13.007812 -14.644531 12.84375 -14.925781 12.625 -15.0625 C 12.40625 -15.207031 12.066406 -15.367188 11.609375 -15.546875 C 11.160156 -15.722656 10.613281 -15.828125 9.96875 -15.859375 C 9.320312 -15.898438 8.5 -15.921875 7.5 -15.921875 L 2.40625 -15.921875 C 2.207031 -15.921875 2.035156 -15.972656 1.890625 -16.078125 C 1.742188 -16.191406 1.671875 -16.335938 1.671875 -16.515625 C 1.671875 -16.535156 1.679688 -16.59375 1.703125 -16.6875 L 2.890625 -20.953125 C 2.960938 -21.171875 3.082031 -21.34375 3.25 -21.46875 C 3.414062 -21.601562 3.578125 -21.671875 3.734375 -21.671875 C 3.960938 -21.671875 4.078125 -21.5625 4.078125 -21.34375 C 4.078125 -20.976562 4.132812 -20.601562 4.25 -20.21875 C 4.375 -19.84375 4.53125 -19.578125 4.71875 -19.421875 L 11 -19.421875 C 11.601562 -19.421875 12.140625 -19.359375 12.609375 -19.234375 C 13.078125 -19.117188 13.460938 -18.96875 13.765625 -18.78125 C 14.078125 -18.601562 14.34375 -18.351562 14.5625 -18.03125 C 14.789062 -17.707031 14.960938 -17.398438 15.078125 -17.109375 C 15.191406 -16.816406 15.285156 -16.445312 15.359375 -16 C 15.429688 -15.5625 15.476562 -15.171875 15.5 -14.828125 C 15.53125 -14.492188 15.5625 -14.078125 15.59375 -13.578125 C 15.632812 -13.078125 15.675781 -12.664062 15.71875 -12.34375 L 16.1875 -5.953125 C 16.1875 -5.859375 16.195312 -5.546875 16.21875 -5.015625 C 16.25 -4.484375 16.265625 -4.179688 16.265625 -4.109375 C 16.265625 -3.710938 16.226562 -3.382812 16.15625 -3.125 C 16.082031 -2.863281 15.941406 -2.5 15.734375 -2.03125 Z M 15.734375 -2.03125 "/></g></g><g style="fill:#724913;fill-opacity:1;"><g transform="translate(113.913322, 271.913474)"><path style="stroke:none" d="M 8.828125 -14.828125 C 8.828125 -14.441406 8.820312 -13.875 8.8125 -13.125 C 8.8125 -12.375 8.8125 -11.875 8.8125 -11.625 C 8.8125 -10.675781 8.921875 -9.363281 9.140625 -7.6875 C 9.367188 -6.019531 9.484375 -4.691406 9.484375 -3.703125 C 9.484375 -3.085938 9.347656 -2.515625 9.078125 -1.984375 C 8.816406 -1.453125 8.453125 -0.878906 7.984375 -0.265625 C 7.859375 -0.0976562 7.765625 0 7.703125 0.03125 C 7.648438 0.0703125 7.523438 0.125 7.328125 0.1875 L 6.78125 0.328125 C 6.5625 0.378906 6.429688 0.382812 6.390625 0.34375 C 6.347656 0.300781 6.328125 0.1875 6.328125 0 L 6.328125 -14.53125 C 6.328125 -14.976562 6.21875 -15.289062 6 -15.46875 C 5.789062 -15.65625 5.375 -15.804688 4.75 -15.921875 C 2.976562 -16.210938 2.078125 -16.359375 2.046875 -16.359375 C 1.859375 -16.398438 1.707031 -16.507812 1.59375 -16.6875 C 1.476562 -16.875 1.445312 -17.070312 1.5 -17.28125 L 2.4375 -20.953125 C 2.5 -21.160156 2.628906 -21.332031 2.828125 -21.46875 C 3.023438 -21.601562 3.210938 -21.671875 3.390625 -21.671875 C 3.546875 -21.671875 3.625 -21.613281 3.625 -21.5 C 3.625 -21.144531 3.679688 -20.78125 3.796875 -20.40625 C 3.921875 -20.039062 4.070312 -19.78125 4.25 -19.625 C 5.082031 -19.445312 5.78125 -19.253906 6.34375 -19.046875 C 6.914062 -18.847656 7.363281 -18.644531 7.6875 -18.4375 C 8.019531 -18.238281 8.269531 -17.988281 8.4375 -17.6875 C 8.601562 -17.382812 8.707031 -17.097656 8.75 -16.828125 C 8.800781 -16.554688 8.828125 -16.203125 8.828125 -15.765625 Z M 8.828125 -14.828125 "/></g></g><g style="fill:#724913;fill-opacity:1;"><g transform="translate(124.962792, 271.913474)"><path style="stroke:none" d=""/></g></g><g style="fill:#724913;fill-opacity:1;"><g transform="translate(136.993202, 271.913474)"><path style="stroke:none" d="M 4.890625 -21.796875 C 4.890625 -21.785156 4.878906 -21.75 4.859375 -21.6875 C 4.847656 -21.625 4.835938 -21.535156 4.828125 -21.421875 C 4.816406 -21.304688 4.8125 -21.179688 4.8125 -21.046875 C 4.8125 -20.367188 4.921875 -19.882812 5.140625 -19.59375 L 7.828125 -19.125 C 9.503906 -18.832031 10.34375 -17.882812 10.34375 -16.28125 C 10.34375 -15.4375 10.109375 -14.28125 9.640625 -12.8125 C 9.179688 -11.34375 8.710938 -10.191406 8.234375 -9.359375 C 7.628906 -8.410156 6.898438 -7.773438 6.046875 -7.453125 C 5.941406 -7.421875 5.832031 -7.40625 5.71875 -7.40625 C 5.519531 -7.40625 5.347656 -7.445312 5.203125 -7.53125 C 5.054688 -7.613281 4.984375 -7.710938 4.984375 -7.828125 C 4.984375 -7.867188 4.988281 -7.898438 5 -7.921875 C 6.59375 -10.734375 7.390625 -12.738281 7.390625 -13.9375 C 7.390625 -15.0625 6.695312 -15.753906 5.3125 -16.015625 L 2.28125 -16.5625 C 2.09375 -16.59375 1.9375 -16.664062 1.8125 -16.78125 C 1.6875 -16.894531 1.625 -17.023438 1.625 -17.171875 C 1.625 -17.273438 1.648438 -17.367188 1.703125 -17.453125 L 3.609375 -21.453125 C 3.804688 -21.804688 4.117188 -21.984375 4.546875 -21.984375 C 4.773438 -21.984375 4.890625 -21.921875 4.890625 -21.796875 Z M 4.890625 -21.796875 "/></g></g><g style="fill:#724913;fill-opacity:1;"><g transform="translate(149.319746, 271.913474)"><path style="stroke:none" d="M 4.78125 -26.296875 C 4.3125 -25.523438 4.078125 -24.378906 4.078125 -22.859375 C 4.078125 -22.078125 4.203125 -21.242188 4.453125 -20.359375 C 4.671875 -19.734375 5.082031 -19.421875 5.6875 -19.421875 L 14.078125 -19.421875 C 15.984375 -19.097656 16.9375 -17.945312 16.9375 -15.96875 C 16.9375 -14.457031 16.363281 -12.648438 15.21875 -10.546875 C 14.082031 -8.453125 12.5625 -6.441406 10.65625 -4.515625 C 8.757812 -2.585938 6.816406 -1.148438 4.828125 -0.203125 C 4.234375 0.0546875 3.910156 0.15625 3.859375 0.09375 C 3.804688 0.0390625 3.914062 -0.347656 4.1875 -1.078125 L 5.34375 -3.671875 C 5.457031 -3.972656 5.59375 -4.21875 5.75 -4.40625 C 5.90625 -4.59375 6.164062 -4.773438 6.53125 -4.953125 C 8.8125 -6.171875 10.601562 -7.617188 11.90625 -9.296875 C 13.207031 -10.984375 13.859375 -12.488281 13.859375 -13.8125 C 13.859375 -14.457031 13.679688 -14.96875 13.328125 -15.34375 C 12.984375 -15.726562 12.472656 -15.921875 11.796875 -15.921875 L 3.34375 -15.921875 C 2.675781 -15.921875 2.253906 -16.03125 2.078125 -16.25 C 1.910156 -16.46875 1.828125 -16.847656 1.828125 -17.390625 C 1.828125 -18.234375 1.851562 -19.035156 1.90625 -19.796875 C 1.957031 -20.566406 2.054688 -21.40625 2.203125 -22.3125 C 2.347656 -23.21875 2.46875 -23.914062 2.5625 -24.40625 C 2.65625 -24.90625 2.820312 -25.742188 3.0625 -26.921875 C 3.3125 -28.109375 3.484375 -28.921875 3.578125 -29.359375 C 3.671875 -29.816406 3.765625 -30.085938 3.859375 -30.171875 C 3.960938 -30.265625 4.222656 -30.3125 4.640625 -30.3125 L 7.015625 -30.3125 C 7.378906 -30.3125 7.582031 -30.25 7.625 -30.125 C 7.675781 -30.007812 7.644531 -29.800781 7.53125 -29.5 L 6.921875 -27.359375 C 6.835938 -27.078125 6.734375 -26.890625 6.609375 -26.796875 C 6.492188 -26.710938 6.296875 -26.671875 6.015625 -26.671875 C 5.554688 -26.671875 5.257812 -26.648438 5.125 -26.609375 C 5 -26.578125 4.882812 -26.472656 4.78125 -26.296875 Z M 4.78125 -26.296875 "/></g></g><g style="fill:#724913;fill-opacity:1;"><g transform="translate(168.05017, 271.913474)"><path style="stroke:none" d="M 6.125 -11.5 C 6.125 -10.289062 6.15625 -8.96875 6.21875 -7.53125 C 6.28125 -6.09375 6.3125 -5.195312 6.3125 -4.84375 C 6.3125 -3.925781 6.148438 -3.144531 5.828125 -2.5 C 5.503906 -1.851562 4.929688 -1.082031 4.109375 -0.1875 C 3.898438 0.03125 3.671875 0.171875 3.421875 0.234375 L 2.875 0.328125 C 2.65625 0.359375 2.53125 0.347656 2.5 0.296875 C 2.476562 0.242188 2.46875 0.117188 2.46875 -0.078125 C 2.46875 -1.234375 2.726562 -3.453125 3.25 -6.734375 C 3.78125 -10.023438 4.046875 -12.648438 4.046875 -14.609375 C 4.046875 -15.023438 3.960938 -15.347656 3.796875 -15.578125 C 3.628906 -15.804688 3.445312 -15.921875 3.25 -15.921875 L 2.9375 -15.921875 C 2.695312 -15.921875 2.503906 -15.992188 2.359375 -16.140625 C 2.210938 -16.285156 2.171875 -16.46875 2.234375 -16.6875 L 3.421875 -20.953125 C 3.492188 -21.160156 3.625 -21.332031 3.8125 -21.46875 C 4.007812 -21.601562 4.195312 -21.671875 4.375 -21.671875 C 4.53125 -21.671875 4.609375 -21.613281 4.609375 -21.5 C 4.609375 -21.132812 4.671875 -20.734375 4.796875 -20.296875 C 4.929688 -19.867188 5.082031 -19.578125 5.25 -19.421875 L 20.4375 -19.421875 C 20.675781 -19.421875 20.835938 -19.375 20.921875 -19.28125 C 21.003906 -19.1875 21.019531 -19.003906 20.96875 -18.734375 L 20.65625 -17.046875 C 20.582031 -16.710938 20.492188 -16.460938 20.390625 -16.296875 C 20.296875 -16.128906 20.203125 -16.019531 20.109375 -15.96875 C 20.015625 -15.925781 19.914062 -15.867188 19.8125 -15.796875 C 19.71875 -15.734375 19.617188 -15.582031 19.515625 -15.34375 C 19.421875 -15.113281 19.335938 -14.773438 19.265625 -14.328125 C 19.117188 -13.535156 19.046875 -12.644531 19.046875 -11.65625 C 19.046875 -10.707031 19.179688 -9.390625 19.453125 -7.703125 C 19.722656 -6.023438 19.859375 -4.691406 19.859375 -3.703125 C 19.859375 -3.085938 19.722656 -2.515625 19.453125 -1.984375 C 19.191406 -1.453125 18.828125 -0.878906 18.359375 -0.265625 C 18.160156 -0.00390625 17.835938 0.191406 17.390625 0.328125 L 17.15625 0.328125 C 16.945312 0.378906 16.820312 0.382812 16.78125 0.34375 C 16.738281 0.300781 16.71875 0.1875 16.71875 0 C 16.71875 -0.863281 16.722656 -2.632812 16.734375 -5.3125 C 16.753906 -8 16.765625 -11.070312 16.765625 -14.53125 C 16.765625 -15.007812 16.648438 -15.359375 16.421875 -15.578125 C 16.191406 -15.804688 15.765625 -15.921875 15.140625 -15.921875 L 8.328125 -15.921875 C 7.898438 -15.921875 7.53125 -15.773438 7.21875 -15.484375 C 6.90625 -15.191406 6.675781 -14.804688 6.53125 -14.328125 C 6.382812 -13.847656 6.28125 -13.378906 6.21875 -12.921875 C 6.15625 -12.460938 6.125 -11.988281 6.125 -11.5 Z M 6.125 -11.5 "/></g></g><g style="fill:#724913;fill-opacity:1;"><g transform="translate(190.778392, 271.913474)"><path style="stroke:none" d="M 15.734375 -2.03125 L 15.109375 -0.625 C 14.953125 -0.28125 14.8125 -0.0390625 14.6875 0.09375 C 14.570312 0.238281 14.382812 0.375 14.125 0.5 C 13.976562 0.5625 13.875 0.59375 13.8125 0.59375 C 13.675781 0.59375 13.609375 0.3125 13.609375 -0.25 C 13.609375 -0.820312 13.566406 -2.722656 13.484375 -5.953125 C 13.398438 -9.179688 13.359375 -11.046875 13.359375 -11.546875 C 13.359375 -12.273438 13.347656 -12.796875 13.328125 -13.109375 C 13.316406 -13.421875 13.25 -13.789062 13.125 -14.21875 C 13.007812 -14.644531 12.84375 -14.925781 12.625 -15.0625 C 12.40625 -15.207031 12.066406 -15.367188 11.609375 -15.546875 C 11.160156 -15.722656 10.613281 -15.828125 9.96875 -15.859375 C 9.320312 -15.898438 8.5 -15.921875 7.5 -15.921875 L 2.40625 -15.921875 C 2.207031 -15.921875 2.035156 -15.972656 1.890625 -16.078125 C 1.742188 -16.191406 1.671875 -16.335938 1.671875 -16.515625 C 1.671875 -16.535156 1.679688 -16.59375 1.703125 -16.6875 L 2.890625 -20.953125 C 2.960938 -21.171875 3.082031 -21.34375 3.25 -21.46875 C 3.414062 -21.601562 3.578125 -21.671875 3.734375 -21.671875 C 3.960938 -21.671875 4.078125 -21.5625 4.078125 -21.34375 C 4.078125 -20.976562 4.132812 -20.601562 4.25 -20.21875 C 4.375 -19.84375 4.53125 -19.578125 4.71875 -19.421875 L 11 -19.421875 C 11.601562 -19.421875 12.140625 -19.359375 12.609375 -19.234375 C 13.078125 -19.117188 13.460938 -18.96875 13.765625 -18.78125 C 14.078125 -18.601562 14.34375 -18.351562 14.5625 -18.03125 C 14.789062 -17.707031 14.960938 -17.398438 15.078125 -17.109375 C 15.191406 -16.816406 15.285156 -16.445312 15.359375 -16 C 15.429688 -15.5625 15.476562 -15.171875 15.5 -14.828125 C 15.53125 -14.492188 15.5625 -14.078125 15.59375 -13.578125 C 15.632812 -13.078125 15.675781 -12.664062 15.71875 -12.34375 L 16.1875 -5.953125 C 16.1875 -5.859375 16.195312 -5.546875 16.21875 -5.015625 C 16.25 -4.484375 16.265625 -4.179688 16.265625 -4.109375 C 16.265625 -3.710938 16.226562 -3.382812 16.15625 -3.125 C 16.082031 -2.863281 15.941406 -2.5 15.734375 -2.03125 Z M 15.734375 -2.03125 "/></g></g></g></svg>