<svg xmlns="http://www.w3.org/2000/svg" xmlns:xlink="http://www.w3.org/1999/xlink" width="1013" zoomAndPan="magnify" viewBox="0 0 759.75 374.999991" height="500" preserveAspectRatio="xMidYMid meet" version="1.2"><defs><clipPath id="c197eb0871"><path d="M 343 27.632812 L 422 27.632812 L 422 248 L 343 248 Z M 343 27.632812 "/></clipPath><clipPath id="d8db1840b7"><path d="M 343 112 L 353 112 L 353 121.460938 L 343 121.460938 Z M 343 112 "/></clipPath></defs><g id="10fc79cd9a"><g style="fill:#724913;fill-opacity:1;"><g transform="translate(315.30606, 303.307315)"><path style="stroke:none" d="M 7.4375 -14.046875 C 7.4375 -13.773438 7.40625 -13.566406 7.34375 -13.421875 C 7.289062 -13.285156 7.234375 -13.171875 7.171875 -13.078125 C 7.109375 -12.992188 7.046875 -12.695312 6.984375 -12.1875 C 6.929688 -11.6875 6.90625 -10.976562 6.90625 -10.0625 L 6.90625 -9.828125 C 6.90625 -8.066406 7.046875 -6.035156 7.328125 -3.734375 C 7.609375 -1.429688 7.75 0.175781 7.75 1.09375 C 7.75 1.9375 7.691406 2.78125 7.578125 3.625 C 7.535156 3.894531 7.472656 4.15625 7.390625 4.40625 C 7.304688 4.664062 7.226562 4.878906 7.15625 5.046875 C 7.082031 5.210938 6.976562 5.390625 6.84375 5.578125 C 6.71875 5.765625 6.625 5.894531 6.5625 5.96875 C 6.5 6.050781 6.394531 6.164062 6.25 6.3125 C 6.113281 6.46875 6.039062 6.554688 6.03125 6.578125 C 5.6875 6.910156 5.46875 7.050781 5.375 7 C 5.28125 6.957031 5.234375 6.640625 5.234375 6.046875 C 5.234375 3.597656 5.191406 0.546875 5.109375 -3.109375 C 5.023438 -6.773438 4.984375 -9.851562 4.984375 -12.34375 C 4.984375 -12.8125 4.832031 -13.109375 4.53125 -13.234375 C 4.226562 -13.367188 3.707031 -13.4375 2.96875 -13.4375 L 1.875 -13.4375 C 1.664062 -13.4375 1.5 -13.5 1.375 -13.625 C 1.25 -13.75 1.21875 -13.90625 1.28125 -14.09375 L 2.28125 -17.671875 C 2.332031 -17.835938 2.429688 -17.984375 2.578125 -18.109375 C 2.722656 -18.242188 2.851562 -18.3125 2.96875 -18.3125 C 3.144531 -18.3125 3.25 -18.253906 3.28125 -18.140625 C 3.4375 -17.148438 3.617188 -16.5625 3.828125 -16.375 L 6.6875 -16.375 C 7.1875 -16.375 7.4375 -16.046875 7.4375 -15.390625 Z M 7.4375 -14.046875 "/></g></g><g style="fill:#724913;fill-opacity:1;"><g transform="translate(324.909929, 303.307315)"><path style="stroke:none" d="M 12.90625 -16.375 C 13.394531 -16.375 13.828125 -16.320312 14.203125 -16.21875 C 14.585938 -16.113281 14.90625 -15.988281 15.15625 -15.84375 C 15.414062 -15.695312 15.632812 -15.484375 15.8125 -15.203125 C 16 -14.929688 16.144531 -14.675781 16.25 -14.4375 C 16.351562 -14.207031 16.441406 -13.894531 16.515625 -13.5 C 16.597656 -13.113281 16.648438 -12.785156 16.671875 -12.515625 C 16.703125 -12.253906 16.734375 -11.898438 16.765625 -11.453125 C 16.804688 -11.003906 16.84375 -10.660156 16.875 -10.421875 L 17.390625 -2.828125 C 17.398438 -2.785156 17.40625 -2.722656 17.40625 -2.640625 C 17.40625 -2.191406 17.253906 -1.679688 16.953125 -1.109375 C 16.660156 -0.535156 16.347656 -0.0703125 16.015625 0.28125 C 15.847656 0.457031 15.695312 0.546875 15.5625 0.546875 C 15.289062 0.546875 15.15625 0 15.15625 -1.09375 C 15.15625 -1.539062 15.113281 -2.953125 15.03125 -5.328125 C 14.945312 -7.710938 14.90625 -9.1875 14.90625 -9.75 C 14.90625 -10.351562 14.894531 -10.785156 14.875 -11.046875 C 14.863281 -11.304688 14.8125 -11.613281 14.71875 -11.96875 C 14.625 -12.320312 14.476562 -12.5625 14.28125 -12.6875 C 14.09375 -12.820312 13.804688 -12.960938 13.421875 -13.109375 C 13.046875 -13.253906 12.582031 -13.34375 12.03125 -13.375 C 11.476562 -13.414062 10.785156 -13.4375 9.953125 -13.4375 L 7.4375 -13.4375 C 6.96875 -13.4375 6.59375 -13.144531 6.3125 -12.5625 C 6.03125 -11.988281 5.890625 -11.390625 5.890625 -10.765625 L 6.390625 -3.890625 C 6.390625 -3.796875 6.394531 -3.664062 6.40625 -3.5 C 6.414062 -3.332031 6.421875 -3.210938 6.421875 -3.140625 C 6.421875 -3.003906 6.414062 -2.867188 6.40625 -2.734375 C 6.394531 -2.609375 6.382812 -2.503906 6.375 -2.421875 C 6.363281 -2.347656 6.335938 -2.25 6.296875 -2.125 C 6.253906 -2 6.226562 -1.914062 6.21875 -1.875 C 6.21875 -1.84375 6.1875 -1.753906 6.125 -1.609375 C 6.070312 -1.460938 6.039062 -1.378906 6.03125 -1.359375 C 5.757812 -0.710938 5.523438 -0.320312 5.328125 -0.1875 C 5.140625 -0.0625 4.695312 0 4 0 L 1.609375 0 C 1.035156 0 0.75 -0.117188 0.75 -0.359375 C 0.75 -0.410156 0.84375 -0.71875 1.03125 -1.28125 C 1.195312 -1.71875 1.367188 -1.992188 1.546875 -2.109375 C 1.722656 -2.234375 2.117188 -2.351562 2.734375 -2.46875 C 3.421875 -2.570312 3.84375 -2.71875 4 -2.90625 C 4.164062 -3.09375 4.25 -3.566406 4.25 -4.328125 L 4.25 -4.453125 L 4.171875 -10.078125 C 4.171875 -10.234375 4.179688 -10.390625 4.203125 -10.546875 C 4.222656 -10.710938 4.242188 -10.851562 4.265625 -10.96875 C 4.285156 -11.082031 4.328125 -11.21875 4.390625 -11.375 C 4.453125 -11.53125 4.492188 -11.644531 4.515625 -11.71875 C 4.546875 -11.800781 4.601562 -11.921875 4.6875 -12.078125 C 4.78125 -12.234375 4.835938 -12.332031 4.859375 -12.375 C 4.890625 -12.414062 4.957031 -12.519531 5.0625 -12.6875 C 5.175781 -12.863281 5.238281 -12.960938 5.25 -12.984375 L 4.25 -13.4375 C 4.21875 -13.445312 4.164062 -13.46875 4.09375 -13.5 C 4.019531 -13.53125 3.96875 -13.550781 3.9375 -13.5625 C 3.90625 -13.582031 3.863281 -13.609375 3.8125 -13.640625 C 3.757812 -13.671875 3.722656 -13.695312 3.703125 -13.71875 C 3.679688 -13.75 3.660156 -13.785156 3.640625 -13.828125 C 3.617188 -13.867188 3.609375 -13.910156 3.609375 -13.953125 C 3.609375 -13.984375 3.617188 -14.03125 3.640625 -14.09375 L 4.640625 -17.671875 C 4.703125 -17.859375 4.800781 -18.003906 4.9375 -18.109375 C 5.082031 -18.222656 5.222656 -18.28125 5.359375 -18.28125 C 5.546875 -18.28125 5.640625 -18.1875 5.640625 -18 C 5.640625 -17.695312 5.691406 -17.382812 5.796875 -17.0625 C 5.898438 -16.738281 6.03125 -16.507812 6.1875 -16.375 Z M 12.90625 -16.375 "/></g></g><g style="fill:#724913;fill-opacity:1;"><g transform="translate(343.477408, 303.307315)"><path style="stroke:none" d="M 5.171875 -9.703125 C 5.171875 -8.679688 5.195312 -7.5625 5.25 -6.34375 C 5.300781 -5.132812 5.328125 -4.382812 5.328125 -4.09375 C 5.328125 -3.3125 5.191406 -2.648438 4.921875 -2.109375 C 4.648438 -1.566406 4.164062 -0.914062 3.46875 -0.15625 C 3.289062 0.03125 3.097656 0.148438 2.890625 0.203125 L 2.421875 0.28125 C 2.242188 0.300781 2.140625 0.289062 2.109375 0.25 C 2.085938 0.207031 2.078125 0.101562 2.078125 -0.0625 C 2.078125 -1.039062 2.300781 -2.914062 2.75 -5.6875 C 3.195312 -8.46875 3.421875 -10.679688 3.421875 -12.328125 C 3.421875 -12.679688 3.347656 -12.953125 3.203125 -13.140625 C 3.066406 -13.335938 2.914062 -13.4375 2.75 -13.4375 L 2.484375 -13.4375 C 2.273438 -13.4375 2.109375 -13.5 1.984375 -13.625 C 1.867188 -13.75 1.835938 -13.90625 1.890625 -14.09375 L 2.890625 -17.671875 C 2.953125 -17.847656 3.0625 -17.992188 3.21875 -18.109375 C 3.382812 -18.222656 3.539062 -18.28125 3.6875 -18.28125 C 3.820312 -18.28125 3.890625 -18.234375 3.890625 -18.140625 C 3.890625 -17.828125 3.941406 -17.488281 4.046875 -17.125 C 4.160156 -16.757812 4.289062 -16.507812 4.4375 -16.375 L 17.234375 -16.375 C 17.441406 -16.375 17.578125 -16.332031 17.640625 -16.25 C 17.710938 -16.175781 17.726562 -16.03125 17.6875 -15.8125 L 17.421875 -14.390625 C 17.359375 -14.109375 17.285156 -13.894531 17.203125 -13.75 C 17.117188 -13.613281 17.035156 -13.523438 16.953125 -13.484375 C 16.878906 -13.441406 16.800781 -13.390625 16.71875 -13.328125 C 16.632812 -13.273438 16.550781 -13.148438 16.46875 -12.953125 C 16.382812 -12.753906 16.3125 -12.46875 16.25 -12.09375 C 16.125 -11.425781 16.0625 -10.675781 16.0625 -9.84375 C 16.0625 -9.039062 16.175781 -7.925781 16.40625 -6.5 C 16.632812 -5.082031 16.75 -3.957031 16.75 -3.125 C 16.75 -2.601562 16.632812 -2.117188 16.40625 -1.671875 C 16.1875 -1.222656 15.882812 -0.738281 15.5 -0.21875 C 15.332031 0 15.0625 0.164062 14.6875 0.28125 L 14.484375 0.28125 C 14.304688 0.320312 14.195312 0.320312 14.15625 0.28125 C 14.125 0.25 14.109375 0.15625 14.109375 0 C 14.109375 -0.726562 14.113281 -2.222656 14.125 -4.484375 C 14.144531 -6.753906 14.15625 -9.347656 14.15625 -12.265625 C 14.15625 -12.671875 14.054688 -12.96875 13.859375 -13.15625 C 13.671875 -13.34375 13.3125 -13.4375 12.78125 -13.4375 L 7.03125 -13.4375 C 6.664062 -13.4375 6.351562 -13.3125 6.09375 -13.0625 C 5.832031 -12.820312 5.640625 -12.5 5.515625 -12.09375 C 5.390625 -11.6875 5.300781 -11.289062 5.25 -10.90625 C 5.195312 -10.519531 5.171875 -10.117188 5.171875 -9.703125 Z M 5.171875 -9.703125 "/></g></g><g style="fill:#724913;fill-opacity:1;"><g transform="translate(362.653912, 303.307315)"><path style="stroke:none" d="M 2.671875 -13.4375 C 2.460938 -13.4375 2.296875 -13.5 2.171875 -13.625 C 2.054688 -13.75 2.023438 -13.90625 2.078125 -14.09375 L 3.078125 -17.671875 C 3.140625 -17.847656 3.25 -17.992188 3.40625 -18.109375 C 3.570312 -18.222656 3.726562 -18.28125 3.875 -18.28125 C 4.007812 -18.28125 4.078125 -18.234375 4.078125 -18.140625 C 4.078125 -17.828125 4.128906 -17.488281 4.234375 -17.125 C 4.347656 -16.757812 4.476562 -16.507812 4.625 -16.375 L 16.09375 -16.375 C 16.300781 -16.375 16.4375 -16.332031 16.5 -16.25 C 16.570312 -16.175781 16.585938 -16.03125 16.546875 -15.8125 L 16.28125 -14.390625 C 16.21875 -14.109375 16.144531 -13.894531 16.0625 -13.75 C 15.988281 -13.613281 15.910156 -13.523438 15.828125 -13.484375 C 15.753906 -13.441406 15.675781 -13.390625 15.59375 -13.328125 C 15.507812 -13.273438 15.425781 -13.148438 15.34375 -12.953125 C 15.257812 -12.753906 15.1875 -12.46875 15.125 -12.09375 C 15 -11.425781 14.9375 -10.675781 14.9375 -9.84375 C 14.9375 -9.039062 15.050781 -7.925781 15.28125 -6.5 C 15.507812 -5.082031 15.625 -3.957031 15.625 -3.125 C 15.625 -2.601562 15.507812 -2.117188 15.28125 -1.671875 C 15.0625 -1.222656 14.753906 -0.738281 14.359375 -0.21875 C 14.253906 -0.0820312 14.175781 0 14.125 0.03125 C 14.082031 0.0625 13.976562 0.101562 13.8125 0.15625 L 13.34375 0.28125 C 13.164062 0.320312 13.054688 0.320312 13.015625 0.28125 C 12.984375 0.25 12.96875 0.15625 12.96875 0 C 12.96875 -0.726562 12.972656 -2.222656 12.984375 -4.484375 C 13.003906 -6.753906 13.015625 -9.347656 13.015625 -12.265625 C 13.015625 -12.671875 12.914062 -12.96875 12.71875 -13.15625 C 12.53125 -13.34375 12.171875 -13.4375 11.640625 -13.4375 Z M 3.9375 -10.125 C 4.125 -10.207031 4.25 -10.222656 4.3125 -10.171875 C 4.382812 -10.117188 4.421875 -9.957031 4.421875 -9.6875 L 4.421875 -8.15625 C 4.421875 -7.863281 4.484375 -7.226562 4.609375 -6.25 C 4.742188 -5.269531 4.8125 -4.472656 4.8125 -3.859375 C 4.8125 -2.023438 4.195312 -0.738281 2.96875 0 C 2.65625 0.1875 2.398438 0.28125 2.203125 0.28125 C 1.929688 0.28125 1.796875 0.0976562 1.796875 -0.265625 C 1.796875 -0.367188 1.8125 -0.5 1.84375 -0.65625 C 2.0625 -1.851562 2.222656 -2.976562 2.328125 -4.03125 C 2.441406 -5.09375 2.503906 -5.90625 2.515625 -6.46875 C 2.523438 -7.03125 2.535156 -7.539062 2.546875 -8 C 2.566406 -8.46875 2.609375 -8.8125 2.671875 -9.03125 C 2.742188 -9.257812 2.875 -9.457031 3.0625 -9.625 C 3.25 -9.800781 3.539062 -9.96875 3.9375 -10.125 Z M 3.9375 -10.125 "/></g></g><g style="fill:#724913;fill-opacity:1;"><g transform="translate(380.690445, 303.307315)"><path style="stroke:none" d=""/></g></g><g style="fill:#724913;fill-opacity:1;"><g transform="translate(390.840875, 303.307315)"><path style="stroke:none" d="M 4.125 -18.390625 C 4.125 -18.378906 4.117188 -18.347656 4.109375 -18.296875 C 4.097656 -18.242188 4.085938 -18.164062 4.078125 -18.0625 C 4.066406 -17.96875 4.0625 -17.863281 4.0625 -17.75 C 4.0625 -17.175781 4.15625 -16.769531 4.34375 -16.53125 L 6.609375 -16.125 C 8.023438 -15.894531 8.734375 -15.101562 8.734375 -13.75 C 8.734375 -13.03125 8.535156 -12.050781 8.140625 -10.8125 C 7.753906 -9.570312 7.359375 -8.601562 6.953125 -7.90625 C 6.441406 -7.101562 5.828125 -6.566406 5.109375 -6.296875 C 5.015625 -6.265625 4.921875 -6.25 4.828125 -6.25 C 4.660156 -6.25 4.515625 -6.285156 4.390625 -6.359375 C 4.265625 -6.429688 4.203125 -6.515625 4.203125 -6.609375 C 4.203125 -6.640625 4.207031 -6.664062 4.21875 -6.6875 C 5.5625 -9.0625 6.234375 -10.753906 6.234375 -11.765625 C 6.234375 -12.710938 5.648438 -13.296875 4.484375 -13.515625 L 1.921875 -13.984375 C 1.765625 -14.003906 1.632812 -14.0625 1.53125 -14.15625 C 1.425781 -14.257812 1.375 -14.375 1.375 -14.5 C 1.375 -14.582031 1.394531 -14.660156 1.4375 -14.734375 L 3.046875 -18.09375 C 3.210938 -18.394531 3.476562 -18.546875 3.84375 -18.546875 C 4.03125 -18.546875 4.125 -18.492188 4.125 -18.390625 Z M 4.125 -18.390625 "/></g></g><g style="fill:#724913;fill-opacity:1;"><g transform="translate(401.241162, 303.307315)"><path style="stroke:none" d="M 13.28125 -1.71875 L 12.75 -0.53125 C 12.625 -0.238281 12.507812 -0.0351562 12.40625 0.078125 C 12.300781 0.203125 12.140625 0.316406 11.921875 0.421875 C 11.796875 0.472656 11.707031 0.5 11.65625 0.5 C 11.539062 0.5 11.484375 0.257812 11.484375 -0.21875 C 11.484375 -0.695312 11.445312 -2.296875 11.375 -5.015625 C 11.3125 -7.742188 11.28125 -9.320312 11.28125 -9.75 C 11.28125 -10.363281 11.269531 -10.800781 11.25 -11.0625 C 11.238281 -11.332031 11.179688 -11.644531 11.078125 -12 C 10.984375 -12.363281 10.84375 -12.601562 10.65625 -12.71875 C 10.46875 -12.84375 10.179688 -12.976562 9.796875 -13.125 C 9.421875 -13.269531 8.957031 -13.359375 8.40625 -13.390625 C 7.863281 -13.421875 7.171875 -13.4375 6.328125 -13.4375 L 2.03125 -13.4375 C 1.863281 -13.4375 1.71875 -13.484375 1.59375 -13.578125 C 1.46875 -13.671875 1.40625 -13.789062 1.40625 -13.9375 C 1.40625 -13.957031 1.414062 -14.007812 1.4375 -14.09375 L 2.4375 -17.671875 C 2.5 -17.859375 2.597656 -18.003906 2.734375 -18.109375 C 2.878906 -18.222656 3.019531 -18.28125 3.15625 -18.28125 C 3.34375 -18.28125 3.4375 -18.1875 3.4375 -18 C 3.4375 -17.695312 3.488281 -17.382812 3.59375 -17.0625 C 3.695312 -16.738281 3.828125 -16.507812 3.984375 -16.375 L 9.28125 -16.375 C 9.789062 -16.375 10.242188 -16.320312 10.640625 -16.21875 C 11.035156 -16.125 11.363281 -16 11.625 -15.84375 C 11.882812 -15.695312 12.109375 -15.488281 12.296875 -15.21875 C 12.484375 -14.945312 12.625 -14.6875 12.71875 -14.4375 C 12.820312 -14.195312 12.90625 -13.890625 12.96875 -13.515625 C 13.03125 -13.140625 13.070312 -12.804688 13.09375 -12.515625 C 13.113281 -12.234375 13.140625 -11.878906 13.171875 -11.453125 C 13.203125 -11.035156 13.234375 -10.691406 13.265625 -10.421875 L 13.671875 -5.03125 C 13.671875 -4.945312 13.679688 -4.679688 13.703125 -4.234375 C 13.722656 -3.785156 13.734375 -3.53125 13.734375 -3.46875 C 13.734375 -3.132812 13.703125 -2.859375 13.640625 -2.640625 C 13.578125 -2.421875 13.457031 -2.113281 13.28125 -1.71875 Z M 13.28125 -1.71875 "/></g></g><g style="fill:#724913;fill-opacity:1;"><g transform="translate(416.092021, 303.307315)"><path style="stroke:none" d="M 7.453125 -12.515625 C 7.453125 -12.191406 7.445312 -11.710938 7.4375 -11.078125 C 7.4375 -10.441406 7.4375 -10.019531 7.4375 -9.8125 C 7.4375 -9.007812 7.53125 -7.898438 7.71875 -6.484375 C 7.90625 -5.078125 8 -3.957031 8 -3.125 C 8 -2.601562 7.882812 -2.117188 7.65625 -1.671875 C 7.4375 -1.222656 7.128906 -0.738281 6.734375 -0.21875 C 6.628906 -0.0820312 6.550781 0 6.5 0.03125 C 6.457031 0.0625 6.351562 0.101562 6.1875 0.15625 L 5.71875 0.28125 C 5.539062 0.320312 5.429688 0.320312 5.390625 0.28125 C 5.359375 0.25 5.34375 0.15625 5.34375 0 L 5.34375 -12.265625 C 5.34375 -12.640625 5.25 -12.90625 5.0625 -13.0625 C 4.882812 -13.21875 4.535156 -13.34375 4.015625 -13.4375 C 2.515625 -13.6875 1.753906 -13.8125 1.734375 -13.8125 C 1.566406 -13.84375 1.4375 -13.9375 1.34375 -14.09375 C 1.25 -14.25 1.222656 -14.414062 1.265625 -14.59375 L 2.0625 -17.671875 C 2.113281 -17.847656 2.222656 -17.992188 2.390625 -18.109375 C 2.554688 -18.222656 2.710938 -18.28125 2.859375 -18.28125 C 2.992188 -18.28125 3.0625 -18.234375 3.0625 -18.140625 C 3.0625 -17.835938 3.109375 -17.53125 3.203125 -17.21875 C 3.304688 -16.90625 3.4375 -16.679688 3.59375 -16.546875 C 4.289062 -16.398438 4.878906 -16.242188 5.359375 -16.078125 C 5.835938 -15.910156 6.210938 -15.738281 6.484375 -15.5625 C 6.765625 -15.394531 6.972656 -15.179688 7.109375 -14.921875 C 7.253906 -14.671875 7.347656 -14.429688 7.390625 -14.203125 C 7.429688 -13.972656 7.453125 -13.675781 7.453125 -13.3125 Z M 7.453125 -12.515625 "/></g></g><g style="fill:#724913;fill-opacity:1;"><g transform="translate(425.414801, 303.307315)"><path style="stroke:none" d="M 2.671875 -13.4375 C 2.460938 -13.4375 2.296875 -13.5 2.171875 -13.625 C 2.054688 -13.75 2.023438 -13.90625 2.078125 -14.09375 L 3.078125 -17.671875 C 3.140625 -17.847656 3.25 -17.992188 3.40625 -18.109375 C 3.570312 -18.222656 3.726562 -18.28125 3.875 -18.28125 C 4.007812 -18.28125 4.078125 -18.234375 4.078125 -18.140625 C 4.078125 -17.828125 4.128906 -17.488281 4.234375 -17.125 C 4.347656 -16.757812 4.476562 -16.507812 4.625 -16.375 L 16.09375 -16.375 C 16.300781 -16.375 16.4375 -16.332031 16.5 -16.25 C 16.570312 -16.175781 16.585938 -16.03125 16.546875 -15.8125 L 16.28125 -14.390625 C 16.21875 -14.109375 16.144531 -13.894531 16.0625 -13.75 C 15.988281 -13.613281 15.910156 -13.523438 15.828125 -13.484375 C 15.753906 -13.441406 15.675781 -13.390625 15.59375 -13.328125 C 15.507812 -13.273438 15.425781 -13.148438 15.34375 -12.953125 C 15.257812 -12.753906 15.1875 -12.46875 15.125 -12.09375 C 15 -11.425781 14.9375 -10.675781 14.9375 -9.84375 C 14.9375 -9.039062 15.050781 -7.925781 15.28125 -6.5 C 15.507812 -5.082031 15.625 -3.957031 15.625 -3.125 C 15.625 -2.601562 15.507812 -2.117188 15.28125 -1.671875 C 15.0625 -1.222656 14.753906 -0.738281 14.359375 -0.21875 C 14.253906 -0.0820312 14.175781 0 14.125 0.03125 C 14.082031 0.0625 13.976562 0.101562 13.8125 0.15625 L 13.34375 0.28125 C 13.164062 0.320312 13.054688 0.320312 13.015625 0.28125 C 12.984375 0.25 12.96875 0.15625 12.96875 0 C 12.96875 -0.726562 12.972656 -2.222656 12.984375 -4.484375 C 13.003906 -6.753906 13.015625 -9.347656 13.015625 -12.265625 C 13.015625 -12.671875 12.914062 -12.96875 12.71875 -13.15625 C 12.53125 -13.34375 12.171875 -13.4375 11.640625 -13.4375 Z M 3.9375 -10.125 C 4.125 -10.207031 4.25 -10.222656 4.3125 -10.171875 C 4.382812 -10.117188 4.421875 -9.957031 4.421875 -9.6875 L 4.421875 -8.15625 C 4.421875 -7.863281 4.484375 -7.226562 4.609375 -6.25 C 4.742188 -5.269531 4.8125 -4.472656 4.8125 -3.859375 C 4.8125 -2.023438 4.195312 -0.738281 2.96875 0 C 2.65625 0.1875 2.398438 0.28125 2.203125 0.28125 C 1.929688 0.28125 1.796875 0.0976562 1.796875 -0.265625 C 1.796875 -0.367188 1.8125 -0.5 1.84375 -0.65625 C 2.0625 -1.851562 2.222656 -2.976562 2.328125 -4.03125 C 2.441406 -5.09375 2.503906 -5.90625 2.515625 -6.46875 C 2.523438 -7.03125 2.535156 -7.539062 2.546875 -8 C 2.566406 -8.46875 2.609375 -8.8125 2.671875 -9.03125 C 2.742188 -9.257812 2.875 -9.457031 3.0625 -9.625 C 3.25 -9.800781 3.539062 -9.96875 3.9375 -10.125 Z M 3.9375 -10.125 "/></g></g><g style="fill:#724913;fill-opacity:1;"><g transform="translate(279.212466, 353.540783)"><path style="stroke:none" d="M 8.84375 -14.859375 C 8.84375 -14.472656 8.835938 -13.898438 8.828125 -13.140625 C 8.828125 -12.390625 8.828125 -11.890625 8.828125 -11.640625 C 8.828125 -10.691406 8.9375 -9.378906 9.15625 -7.703125 C 9.382812 -6.023438 9.5 -4.691406 9.5 -3.703125 C 9.5 -3.085938 9.363281 -2.515625 9.09375 -1.984375 C 8.832031 -1.453125 8.46875 -0.878906 8 -0.265625 C 7.875 -0.0976562 7.78125 0 7.71875 0.03125 C 7.664062 0.0703125 7.539062 0.125 7.34375 0.1875 L 6.78125 0.328125 C 6.570312 0.378906 6.445312 0.382812 6.40625 0.34375 C 6.363281 0.300781 6.34375 0.1875 6.34375 0 L 6.34375 -14.5625 C 6.34375 -15.007812 6.234375 -15.320312 6.015625 -15.5 C 5.796875 -15.6875 5.378906 -15.835938 4.765625 -15.953125 C 2.984375 -16.242188 2.082031 -16.390625 2.0625 -16.390625 C 1.863281 -16.429688 1.707031 -16.539062 1.59375 -16.71875 C 1.476562 -16.90625 1.445312 -17.109375 1.5 -17.328125 L 2.453125 -21 C 2.515625 -21.207031 2.644531 -21.378906 2.84375 -21.515625 C 3.039062 -21.648438 3.222656 -21.71875 3.390625 -21.71875 C 3.554688 -21.71875 3.640625 -21.660156 3.640625 -21.546875 C 3.640625 -21.191406 3.695312 -20.828125 3.8125 -20.453125 C 3.925781 -20.085938 4.078125 -19.820312 4.265625 -19.65625 C 5.097656 -19.488281 5.796875 -19.300781 6.359375 -19.09375 C 6.929688 -18.882812 7.378906 -18.675781 7.703125 -18.46875 C 8.035156 -18.269531 8.285156 -18.019531 8.453125 -17.71875 C 8.617188 -17.414062 8.722656 -17.128906 8.765625 -16.859375 C 8.816406 -16.585938 8.84375 -16.234375 8.84375 -15.796875 Z M 8.84375 -14.859375 "/></g></g><g style="fill:#724913;fill-opacity:1;"><g transform="translate(290.283694, 353.540783)"><path style="stroke:none" d="M 2.984375 -0.375 C 2.984375 -0.71875 3.234375 -1.640625 3.734375 -3.140625 C 4.242188 -4.640625 4.753906 -6.335938 5.265625 -8.234375 C 5.773438 -10.128906 6.03125 -11.722656 6.03125 -13.015625 C 6.03125 -13.992188 5.742188 -14.617188 5.171875 -14.890625 L 2.421875 -15.953125 C 2.234375 -16.023438 2.09375 -16.082031 2 -16.125 C 1.914062 -16.164062 1.835938 -16.238281 1.765625 -16.34375 C 1.691406 -16.445312 1.675781 -16.578125 1.71875 -16.734375 L 2.90625 -21 C 2.96875 -21.195312 3.082031 -21.367188 3.25 -21.515625 C 3.414062 -21.660156 3.566406 -21.734375 3.703125 -21.734375 C 3.867188 -21.734375 4 -21.671875 4.09375 -21.546875 C 4.21875 -21.367188 4.328125 -21.003906 4.421875 -20.453125 C 4.515625 -19.898438 4.625 -19.566406 4.75 -19.453125 C 5.082031 -19.234375 5.582031 -19.019531 6.25 -18.8125 C 6.914062 -18.613281 7.429688 -18.390625 7.796875 -18.140625 C 8.171875 -17.890625 8.359375 -17.519531 8.359375 -17.03125 C 8.359375 -16.832031 8.34375 -16.628906 8.3125 -16.421875 C 8.28125 -16.222656 8.226562 -15.929688 8.15625 -15.546875 C 8.082031 -15.171875 8.015625 -14.757812 7.953125 -14.3125 C 7.953125 -14.132812 8.039062 -14.015625 8.21875 -13.953125 C 8.40625 -13.898438 8.5625 -13.941406 8.6875 -14.078125 C 10.207031 -15.390625 11.378906 -16.660156 12.203125 -17.890625 C 12.398438 -18.128906 12.546875 -18.363281 12.640625 -18.59375 C 12.742188 -18.820312 12.796875 -18.976562 12.796875 -19.0625 C 12.796875 -19.15625 12.867188 -19.238281 13.015625 -19.3125 C 13.171875 -19.382812 13.382812 -19.425781 13.65625 -19.4375 C 13.925781 -19.445312 14.390625 -19.453125 15.046875 -19.453125 C 15.765625 -19.453125 16.347656 -19.429688 16.796875 -19.390625 C 17.242188 -19.347656 17.691406 -19.242188 18.140625 -19.078125 C 18.597656 -18.921875 18.957031 -18.695312 19.21875 -18.40625 C 19.476562 -18.125 19.726562 -17.734375 19.96875 -17.234375 C 20.21875 -16.734375 20.421875 -16.128906 20.578125 -15.421875 C 20.734375 -14.710938 20.878906 -13.84375 21.015625 -12.8125 C 21.066406 -12.425781 21.148438 -11.804688 21.265625 -10.953125 C 21.378906 -10.109375 21.46875 -9.421875 21.53125 -8.890625 C 21.601562 -8.359375 21.671875 -7.671875 21.734375 -6.828125 C 21.796875 -5.992188 21.828125 -5.179688 21.828125 -4.390625 C 21.828125 -3.921875 21.769531 -3.453125 21.65625 -2.984375 C 21.550781 -2.523438 21.375 -2.0625 21.125 -1.59375 C 20.882812 -1.125 20.515625 -0.738281 20.015625 -0.4375 C 19.523438 -0.144531 18.945312 0 18.28125 0 L 10.25 0 C 9.976562 0 9.796875 -0.0351562 9.703125 -0.109375 C 9.609375 -0.179688 9.613281 -0.335938 9.71875 -0.578125 L 10.703125 -3.0625 C 10.828125 -3.351562 10.921875 -3.523438 10.984375 -3.578125 C 11.054688 -3.640625 11.222656 -3.671875 11.484375 -3.671875 L 17.59375 -3.671875 C 18.382812 -3.671875 18.914062 -3.75 19.1875 -3.90625 C 19.46875 -4.070312 19.609375 -4.425781 19.609375 -4.96875 C 19.609375 -5.039062 19.59375 -5.175781 19.5625 -5.375 C 19.539062 -5.582031 19.53125 -5.753906 19.53125 -5.890625 L 18.9375 -10.515625 C 18.59375 -12.441406 18.144531 -13.785156 17.59375 -14.546875 C 17.050781 -15.316406 16.148438 -15.703125 14.890625 -15.703125 C 14.398438 -15.703125 13.875 -15.660156 13.3125 -15.578125 C 12.550781 -15.328125 11.941406 -15.015625 11.484375 -14.640625 C 10.941406 -14.265625 10.457031 -13.863281 10.03125 -13.4375 C 9.613281 -13.019531 9.25 -12.53125 8.9375 -11.96875 C 8.625 -11.414062 8.363281 -10.898438 8.15625 -10.421875 C 7.957031 -9.953125 7.757812 -9.320312 7.5625 -8.53125 C 7.363281 -7.738281 7.207031 -7.054688 7.09375 -6.484375 C 6.976562 -5.921875 6.820312 -5.109375 6.625 -4.046875 C 6.425781 -2.992188 6.253906 -2.113281 6.109375 -1.40625 C 5.984375 -0.84375 5.828125 -0.46875 5.640625 -0.28125 C 5.460938 -0.09375 5.101562 0 4.5625 0 L 3.65625 0 C 3.40625 0 3.226562 -0.0195312 3.125 -0.0625 C 3.03125 -0.101562 2.984375 -0.207031 2.984375 -0.375 Z M 2.984375 -0.375 "/></g></g><g style="fill:#724913;fill-opacity:1;"><g transform="translate(313.223574, 353.540783)"><path style="stroke:none" d="M 1.859375 -16.390625 L 3.09375 -21 C 3.15625 -21.207031 3.28125 -21.378906 3.46875 -21.515625 C 3.664062 -21.660156 3.84375 -21.734375 4 -21.734375 C 4.226562 -21.734375 4.34375 -21.617188 4.34375 -21.390625 C 4.34375 -21.023438 4.40625 -20.648438 4.53125 -20.265625 C 4.65625 -19.890625 4.804688 -19.617188 4.984375 -19.453125 L 14.640625 -19.453125 C 15.410156 -19.453125 16.171875 -19.113281 16.921875 -18.4375 C 17.679688 -17.757812 18.117188 -16.929688 18.234375 -15.953125 C 18.503906 -14.554688 18.640625 -13.097656 18.640625 -11.578125 C 18.640625 -10.617188 18.609375 -9.738281 18.546875 -8.9375 C 18.492188 -8.132812 18.382812 -7.304688 18.21875 -6.453125 C 18.050781 -5.597656 17.835938 -4.832031 17.578125 -4.15625 C 17.316406 -3.488281 16.96875 -2.84375 16.53125 -2.21875 C 16.09375 -1.601562 15.578125 -1.09375 14.984375 -0.6875 C 14.398438 -0.289062 13.691406 0.0234375 12.859375 0.265625 C 12.035156 0.503906 11.113281 0.625 10.09375 0.625 C 9.320312 0.625 8.625 0.535156 8 0.359375 C 7.382812 0.191406 6.847656 -0.0078125 6.390625 -0.25 C 5.941406 -0.488281 5.539062 -0.863281 5.1875 -1.375 C 4.832031 -1.894531 4.535156 -2.363281 4.296875 -2.78125 C 4.066406 -3.195312 3.875 -3.804688 3.71875 -4.609375 C 3.5625 -5.421875 3.441406 -6.097656 3.359375 -6.640625 C 3.285156 -7.191406 3.222656 -7.988281 3.171875 -9.03125 C 3.128906 -10.082031 3.101562 -10.921875 3.09375 -11.546875 C 3.09375 -12.171875 3.09375 -13.09375 3.09375 -14.3125 C 3.09375 -14.582031 3.085938 -14.78125 3.078125 -14.90625 C 3.078125 -15.039062 3.023438 -15.164062 2.921875 -15.28125 C 2.828125 -15.394531 2.757812 -15.457031 2.71875 -15.46875 C 2.6875 -15.488281 2.550781 -15.5625 2.3125 -15.6875 C 1.914062 -15.832031 1.765625 -16.066406 1.859375 -16.390625 Z M 16.265625 -9.28125 C 16.265625 -9.96875 16.253906 -10.546875 16.234375 -11.015625 C 16.210938 -11.492188 16.171875 -11.972656 16.109375 -12.453125 C 16.054688 -12.929688 15.972656 -13.320312 15.859375 -13.625 C 15.753906 -13.925781 15.613281 -14.21875 15.4375 -14.5 C 15.269531 -14.789062 15.0625 -15.019531 14.8125 -15.1875 C 14.570312 -15.351562 14.273438 -15.492188 13.921875 -15.609375 C 13.566406 -15.734375 13.164062 -15.820312 12.71875 -15.875 C 12.28125 -15.925781 11.769531 -15.953125 11.1875 -15.953125 C 9.21875 -15.953125 7.582031 -15.859375 6.28125 -15.671875 C 5.800781 -15.597656 5.472656 -15.460938 5.296875 -15.265625 C 5.128906 -15.078125 5.046875 -14.6875 5.046875 -14.09375 C 5.046875 -12.769531 5.09375 -11.578125 5.1875 -10.515625 C 5.289062 -9.460938 5.425781 -8.578125 5.59375 -7.859375 C 5.757812 -7.140625 5.976562 -6.519531 6.25 -6 C 6.519531 -5.476562 6.796875 -5.070312 7.078125 -4.78125 C 7.359375 -4.488281 7.6875 -4.253906 8.0625 -4.078125 C 8.445312 -3.910156 8.804688 -3.800781 9.140625 -3.75 C 9.484375 -3.695312 9.878906 -3.671875 10.328125 -3.671875 C 11.171875 -3.671875 12.003906 -3.8125 12.828125 -4.09375 C 13.648438 -4.382812 14.363281 -4.742188 14.96875 -5.171875 C 15.507812 -5.691406 15.859375 -6.195312 16.015625 -6.6875 C 16.179688 -7.1875 16.265625 -7.773438 16.265625 -8.453125 Z M 16.265625 -9.28125 "/></g></g><g style="fill:#724913;fill-opacity:1;"><g transform="translate(333.289015, 353.540783)"><path style="stroke:none" d=""/></g></g><g style="fill:#724913;fill-opacity:1;"><g transform="translate(345.343115, 353.540783)"><path style="stroke:none" d="M 14.8125 -19.453125 C 15.4375 -19.453125 15.992188 -19.394531 16.484375 -19.28125 C 16.972656 -19.175781 17.378906 -19.035156 17.703125 -18.859375 C 18.023438 -18.691406 18.304688 -18.457031 18.546875 -18.15625 C 18.785156 -17.863281 18.960938 -17.570312 19.078125 -17.28125 C 19.203125 -17 19.300781 -16.644531 19.375 -16.21875 C 19.457031 -15.789062 19.503906 -15.40625 19.515625 -15.0625 C 19.535156 -14.71875 19.546875 -14.296875 19.546875 -13.796875 L 19.546875 -2.59375 C 19.546875 -2.332031 19.554688 -2.03125 19.578125 -1.6875 C 19.597656 -1.34375 19.609375 -1.117188 19.609375 -1.015625 C 19.609375 -0.585938 19.484375 -0.3125 19.234375 -0.1875 C 18.984375 -0.0625 18.410156 0 17.515625 0 L 4.390625 0 C 4.085938 0 3.859375 -0.0351562 3.703125 -0.109375 C 3.554688 -0.191406 3.46875 -0.285156 3.4375 -0.390625 C 3.414062 -0.503906 3.40625 -0.675781 3.40625 -0.90625 C 3.40625 -1.414062 3.382812 -2.164062 3.34375 -3.15625 C 3.300781 -4.15625 3.28125 -4.894531 3.28125 -5.375 C 3.28125 -9.988281 3.648438 -13.347656 4.390625 -15.453125 L 2.640625 -15.953125 C 2.054688 -16.117188 1.816406 -16.378906 1.921875 -16.734375 L 3.109375 -21 C 3.191406 -21.207031 3.328125 -21.378906 3.515625 -21.515625 C 3.703125 -21.648438 3.882812 -21.71875 4.0625 -21.71875 C 4.21875 -21.71875 4.296875 -21.660156 4.296875 -21.546875 C 4.296875 -21.179688 4.359375 -20.78125 4.484375 -20.34375 C 4.617188 -19.914062 4.773438 -19.617188 4.953125 -19.453125 Z M 5.65625 -9.28125 C 5.65625 -6.75 5.71875 -5.179688 5.84375 -4.578125 C 5.976562 -3.972656 6.34375 -3.671875 6.9375 -3.671875 L 16.1875 -3.671875 C 16.914062 -3.671875 17.367188 -3.785156 17.546875 -4.015625 C 17.734375 -4.242188 17.828125 -4.703125 17.828125 -5.390625 L 17.828125 -5.828125 C 17.828125 -6.265625 17.804688 -6.769531 17.765625 -7.34375 C 17.734375 -7.914062 17.6875 -8.460938 17.625 -8.984375 C 17.5625 -9.515625 17.5 -9.988281 17.4375 -10.40625 C 17.382812 -10.820312 17.332031 -11.195312 17.28125 -11.53125 L 17.21875 -12.0625 C 17.113281 -12.769531 16.972656 -13.347656 16.796875 -13.796875 C 16.628906 -14.253906 16.414062 -14.628906 16.15625 -14.921875 C 15.90625 -15.222656 15.53125 -15.441406 15.03125 -15.578125 C 14.539062 -15.722656 14.015625 -15.820312 13.453125 -15.875 C 12.890625 -15.925781 12.132812 -15.953125 11.1875 -15.953125 L 6.75 -15.953125 C 6.375 -15.953125 6.125 -15.867188 6 -15.703125 C 5.882812 -15.535156 5.828125 -15.253906 5.828125 -14.859375 C 5.828125 -14.222656 5.796875 -13.285156 5.734375 -12.046875 C 5.679688 -10.816406 5.65625 -9.894531 5.65625 -9.28125 Z M 5.65625 -9.28125 "/></g></g><g style="fill:#724913;fill-opacity:1;"><g transform="translate(367.244488, 353.540783)"><path style="stroke:none" d="M 15.765625 -2.046875 L 15.140625 -0.625 C 14.984375 -0.28125 14.84375 -0.0390625 14.71875 0.09375 C 14.601562 0.238281 14.414062 0.375 14.15625 0.5 C 14 0.5625 13.894531 0.59375 13.84375 0.59375 C 13.695312 0.59375 13.625 0.3125 13.625 -0.25 C 13.625 -0.820312 13.582031 -2.722656 13.5 -5.953125 C 13.425781 -9.191406 13.390625 -11.066406 13.390625 -11.578125 C 13.390625 -12.304688 13.378906 -12.828125 13.359375 -13.140625 C 13.335938 -13.453125 13.269531 -13.820312 13.15625 -14.25 C 13.039062 -14.675781 12.867188 -14.957031 12.640625 -15.09375 C 12.421875 -15.238281 12.085938 -15.398438 11.640625 -15.578125 C 11.191406 -15.753906 10.640625 -15.859375 9.984375 -15.890625 C 9.335938 -15.929688 8.515625 -15.953125 7.515625 -15.953125 L 2.40625 -15.953125 C 2.207031 -15.953125 2.035156 -16.003906 1.890625 -16.109375 C 1.742188 -16.222656 1.671875 -16.367188 1.671875 -16.546875 C 1.671875 -16.566406 1.679688 -16.628906 1.703125 -16.734375 L 2.890625 -21 C 2.960938 -21.21875 3.082031 -21.390625 3.25 -21.515625 C 3.414062 -21.648438 3.582031 -21.71875 3.75 -21.71875 C 3.96875 -21.71875 4.078125 -21.609375 4.078125 -21.390625 C 4.078125 -21.023438 4.140625 -20.648438 4.265625 -20.265625 C 4.390625 -19.890625 4.546875 -19.617188 4.734375 -19.453125 L 11.015625 -19.453125 C 11.617188 -19.453125 12.15625 -19.394531 12.625 -19.28125 C 13.09375 -19.164062 13.484375 -19.015625 13.796875 -18.828125 C 14.109375 -18.640625 14.375 -18.382812 14.59375 -18.0625 C 14.820312 -17.738281 14.992188 -17.429688 15.109375 -17.140625 C 15.222656 -16.847656 15.316406 -16.476562 15.390625 -16.03125 C 15.460938 -15.59375 15.507812 -15.203125 15.53125 -14.859375 C 15.5625 -14.523438 15.59375 -14.109375 15.625 -13.609375 C 15.664062 -13.109375 15.707031 -12.695312 15.75 -12.375 L 16.234375 -5.96875 C 16.234375 -5.875 16.242188 -5.5625 16.265625 -5.03125 C 16.285156 -4.5 16.296875 -4.195312 16.296875 -4.125 C 16.296875 -3.726562 16.257812 -3.398438 16.1875 -3.140625 C 16.113281 -2.878906 15.972656 -2.515625 15.765625 -2.046875 Z M 15.765625 -2.046875 "/></g></g><g style="fill:#724913;fill-opacity:1;"><g transform="translate(384.880565, 353.540783)"><path style="stroke:none" d="M 8.84375 -14.859375 C 8.84375 -14.472656 8.835938 -13.898438 8.828125 -13.140625 C 8.828125 -12.390625 8.828125 -11.890625 8.828125 -11.640625 C 8.828125 -10.691406 8.9375 -9.378906 9.15625 -7.703125 C 9.382812 -6.023438 9.5 -4.691406 9.5 -3.703125 C 9.5 -3.085938 9.363281 -2.515625 9.09375 -1.984375 C 8.832031 -1.453125 8.46875 -0.878906 8 -0.265625 C 7.875 -0.0976562 7.78125 0 7.71875 0.03125 C 7.664062 0.0703125 7.539062 0.125 7.34375 0.1875 L 6.78125 0.328125 C 6.570312 0.378906 6.445312 0.382812 6.40625 0.34375 C 6.363281 0.300781 6.34375 0.1875 6.34375 0 L 6.34375 -14.5625 C 6.34375 -15.007812 6.234375 -15.320312 6.015625 -15.5 C 5.796875 -15.6875 5.378906 -15.835938 4.765625 -15.953125 C 2.984375 -16.242188 2.082031 -16.390625 2.0625 -16.390625 C 1.863281 -16.429688 1.707031 -16.539062 1.59375 -16.71875 C 1.476562 -16.90625 1.445312 -17.109375 1.5 -17.328125 L 2.453125 -21 C 2.515625 -21.207031 2.644531 -21.378906 2.84375 -21.515625 C 3.039062 -21.648438 3.222656 -21.71875 3.390625 -21.71875 C 3.554688 -21.71875 3.640625 -21.660156 3.640625 -21.546875 C 3.640625 -21.191406 3.695312 -20.828125 3.8125 -20.453125 C 3.925781 -20.085938 4.078125 -19.820312 4.265625 -19.65625 C 5.097656 -19.488281 5.796875 -19.300781 6.359375 -19.09375 C 6.929688 -18.882812 7.378906 -18.675781 7.703125 -18.46875 C 8.035156 -18.269531 8.285156 -18.019531 8.453125 -17.71875 C 8.617188 -17.414062 8.722656 -17.128906 8.765625 -16.859375 C 8.816406 -16.585938 8.84375 -16.234375 8.84375 -15.796875 Z M 8.84375 -14.859375 "/></g></g><g style="fill:#724913;fill-opacity:1;"><g transform="translate(395.951792, 353.540783)"><path style="stroke:none" d=""/></g></g><g style="fill:#724913;fill-opacity:1;"><g transform="translate(408.005893, 353.540783)"><path style="stroke:none" d="M 4.890625 -21.84375 C 4.890625 -21.832031 4.882812 -21.796875 4.875 -21.734375 C 4.863281 -21.671875 4.851562 -21.582031 4.84375 -21.46875 C 4.832031 -21.351562 4.828125 -21.226562 4.828125 -21.09375 C 4.828125 -20.40625 4.9375 -19.921875 5.15625 -19.640625 L 7.84375 -19.15625 C 9.53125 -18.875 10.375 -17.929688 10.375 -16.328125 C 10.375 -15.472656 10.140625 -14.304688 9.671875 -12.828125 C 9.210938 -11.359375 8.738281 -10.210938 8.25 -9.390625 C 7.644531 -8.429688 6.914062 -7.789062 6.0625 -7.46875 C 5.945312 -7.4375 5.835938 -7.421875 5.734375 -7.421875 C 5.535156 -7.421875 5.359375 -7.460938 5.203125 -7.546875 C 5.054688 -7.628906 4.984375 -7.726562 4.984375 -7.84375 C 4.984375 -7.882812 4.988281 -7.914062 5 -7.9375 C 6.601562 -10.757812 7.40625 -12.769531 7.40625 -13.96875 C 7.40625 -15.09375 6.710938 -15.785156 5.328125 -16.046875 L 2.28125 -16.59375 C 2.09375 -16.625 1.9375 -16.695312 1.8125 -16.8125 C 1.6875 -16.925781 1.625 -17.0625 1.625 -17.21875 C 1.625 -17.3125 1.648438 -17.398438 1.703125 -17.484375 L 3.609375 -21.5 C 3.804688 -21.851562 4.125 -22.03125 4.5625 -22.03125 C 4.78125 -22.03125 4.890625 -21.96875 4.890625 -21.84375 Z M 4.890625 -21.84375 "/></g></g><g style="fill:#724913;fill-opacity:1;"><g transform="translate(420.356709, 353.540783)"><path style="stroke:none" d="M 4.78125 -26.359375 C 4.3125 -25.578125 4.078125 -24.425781 4.078125 -22.90625 C 4.078125 -22.125 4.207031 -21.289062 4.46875 -20.40625 C 4.675781 -19.769531 5.082031 -19.453125 5.6875 -19.453125 L 14.109375 -19.453125 C 16.015625 -19.128906 16.96875 -17.976562 16.96875 -16 C 16.96875 -14.476562 16.394531 -12.664062 15.25 -10.5625 C 14.113281 -8.46875 12.59375 -6.453125 10.6875 -4.515625 C 8.78125 -2.585938 6.832031 -1.148438 4.84375 -0.203125 C 4.25 0.0546875 3.921875 0.15625 3.859375 0.09375 C 3.804688 0.0390625 3.914062 -0.347656 4.1875 -1.078125 L 5.359375 -3.671875 C 5.472656 -3.984375 5.601562 -4.226562 5.75 -4.40625 C 5.90625 -4.59375 6.171875 -4.78125 6.546875 -4.96875 C 8.835938 -6.175781 10.632812 -7.625 11.9375 -9.3125 C 13.238281 -11.007812 13.890625 -12.519531 13.890625 -13.84375 C 13.890625 -14.488281 13.710938 -15 13.359375 -15.375 C 13.003906 -15.757812 12.488281 -15.953125 11.8125 -15.953125 L 3.359375 -15.953125 C 2.691406 -15.953125 2.269531 -16.0625 2.09375 -16.28125 C 1.925781 -16.507812 1.84375 -16.894531 1.84375 -17.4375 C 1.84375 -18.28125 1.863281 -19.082031 1.90625 -19.84375 C 1.957031 -20.613281 2.054688 -21.453125 2.203125 -22.359375 C 2.347656 -23.265625 2.46875 -23.960938 2.5625 -24.453125 C 2.65625 -24.953125 2.828125 -25.796875 3.078125 -26.984375 C 3.328125 -28.171875 3.492188 -28.984375 3.578125 -29.421875 C 3.679688 -29.878906 3.78125 -30.148438 3.875 -30.234375 C 3.976562 -30.328125 4.238281 -30.375 4.65625 -30.375 L 7.03125 -30.375 C 7.394531 -30.375 7.597656 -30.3125 7.640625 -30.1875 C 7.691406 -30.070312 7.660156 -29.863281 7.546875 -29.5625 L 6.9375 -27.40625 C 6.851562 -27.125 6.75 -26.9375 6.625 -26.84375 C 6.507812 -26.757812 6.3125 -26.71875 6.03125 -26.71875 C 5.570312 -26.71875 5.273438 -26.695312 5.140625 -26.65625 C 5.015625 -26.625 4.894531 -26.523438 4.78125 -26.359375 Z M 4.78125 -26.359375 "/></g></g><g style="fill:#724913;fill-opacity:1;"><g transform="translate(439.124016, 353.540783)"><path style="stroke:none" d="M 6.140625 -11.515625 C 6.140625 -10.304688 6.171875 -8.976562 6.234375 -7.53125 C 6.296875 -6.09375 6.328125 -5.203125 6.328125 -4.859375 C 6.328125 -3.929688 6.164062 -3.144531 5.84375 -2.5 C 5.519531 -1.863281 4.945312 -1.09375 4.125 -0.1875 C 3.90625 0.03125 3.675781 0.171875 3.4375 0.234375 L 2.875 0.328125 C 2.664062 0.359375 2.546875 0.347656 2.515625 0.296875 C 2.484375 0.242188 2.46875 0.117188 2.46875 -0.078125 C 2.46875 -1.234375 2.734375 -3.457031 3.265625 -6.75 C 3.796875 -10.050781 4.0625 -12.679688 4.0625 -14.640625 C 4.0625 -15.054688 3.976562 -15.378906 3.8125 -15.609375 C 3.644531 -15.835938 3.460938 -15.953125 3.265625 -15.953125 L 2.953125 -15.953125 C 2.703125 -15.953125 2.503906 -16.023438 2.359375 -16.171875 C 2.222656 -16.316406 2.1875 -16.503906 2.25 -16.734375 L 3.4375 -21 C 3.507812 -21.207031 3.640625 -21.378906 3.828125 -21.515625 C 4.023438 -21.648438 4.207031 -21.71875 4.375 -21.71875 C 4.539062 -21.71875 4.625 -21.660156 4.625 -21.546875 C 4.625 -21.179688 4.6875 -20.78125 4.8125 -20.34375 C 4.9375 -19.914062 5.085938 -19.617188 5.265625 -19.453125 L 20.46875 -19.453125 C 20.71875 -19.453125 20.882812 -19.40625 20.96875 -19.3125 C 21.050781 -19.21875 21.066406 -19.035156 21.015625 -18.765625 L 20.703125 -17.078125 C 20.628906 -16.742188 20.539062 -16.492188 20.4375 -16.328125 C 20.34375 -16.160156 20.25 -16.050781 20.15625 -16 C 20.0625 -15.957031 19.960938 -15.898438 19.859375 -15.828125 C 19.765625 -15.765625 19.664062 -15.613281 19.5625 -15.375 C 19.46875 -15.132812 19.382812 -14.796875 19.3125 -14.359375 C 19.15625 -13.566406 19.078125 -12.675781 19.078125 -11.6875 C 19.078125 -10.726562 19.210938 -9.40625 19.484375 -7.71875 C 19.765625 -6.03125 19.90625 -4.691406 19.90625 -3.703125 C 19.90625 -3.085938 19.769531 -2.515625 19.5 -1.984375 C 19.238281 -1.453125 18.875 -0.878906 18.40625 -0.265625 C 18.207031 -0.00390625 17.882812 0.191406 17.4375 0.328125 L 17.1875 0.328125 C 16.976562 0.378906 16.851562 0.382812 16.8125 0.34375 C 16.769531 0.300781 16.75 0.1875 16.75 0 C 16.75 -0.863281 16.753906 -2.640625 16.765625 -5.328125 C 16.785156 -8.015625 16.796875 -11.09375 16.796875 -14.5625 C 16.796875 -15.039062 16.679688 -15.390625 16.453125 -15.609375 C 16.234375 -15.835938 15.804688 -15.953125 15.171875 -15.953125 L 8.34375 -15.953125 C 7.914062 -15.953125 7.546875 -15.804688 7.234375 -15.515625 C 6.921875 -15.222656 6.691406 -14.832031 6.546875 -14.34375 C 6.398438 -13.863281 6.296875 -13.394531 6.234375 -12.9375 C 6.171875 -12.488281 6.140625 -12.015625 6.140625 -11.515625 Z M 6.140625 -11.515625 "/></g></g><g style="fill:#724913;fill-opacity:1;"><g transform="translate(461.896993, 353.540783)"><path style="stroke:none" d="M 15.765625 -2.046875 L 15.140625 -0.625 C 14.984375 -0.28125 14.84375 -0.0390625 14.71875 0.09375 C 14.601562 0.238281 14.414062 0.375 14.15625 0.5 C 14 0.5625 13.894531 0.59375 13.84375 0.59375 C 13.695312 0.59375 13.625 0.3125 13.625 -0.25 C 13.625 -0.820312 13.582031 -2.722656 13.5 -5.953125 C 13.425781 -9.191406 13.390625 -11.066406 13.390625 -11.578125 C 13.390625 -12.304688 13.378906 -12.828125 13.359375 -13.140625 C 13.335938 -13.453125 13.269531 -13.820312 13.15625 -14.25 C 13.039062 -14.675781 12.867188 -14.957031 12.640625 -15.09375 C 12.421875 -15.238281 12.085938 -15.398438 11.640625 -15.578125 C 11.191406 -15.753906 10.640625 -15.859375 9.984375 -15.890625 C 9.335938 -15.929688 8.515625 -15.953125 7.515625 -15.953125 L 2.40625 -15.953125 C 2.207031 -15.953125 2.035156 -16.003906 1.890625 -16.109375 C 1.742188 -16.222656 1.671875 -16.367188 1.671875 -16.546875 C 1.671875 -16.566406 1.679688 -16.628906 1.703125 -16.734375 L 2.890625 -21 C 2.960938 -21.21875 3.082031 -21.390625 3.25 -21.515625 C 3.414062 -21.648438 3.582031 -21.71875 3.75 -21.71875 C 3.96875 -21.71875 4.078125 -21.609375 4.078125 -21.390625 C 4.078125 -21.023438 4.140625 -20.648438 4.265625 -20.265625 C 4.390625 -19.890625 4.546875 -19.617188 4.734375 -19.453125 L 11.015625 -19.453125 C 11.617188 -19.453125 12.15625 -19.394531 12.625 -19.28125 C 13.09375 -19.164062 13.484375 -19.015625 13.796875 -18.828125 C 14.109375 -18.640625 14.375 -18.382812 14.59375 -18.0625 C 14.820312 -17.738281 14.992188 -17.429688 15.109375 -17.140625 C 15.222656 -16.847656 15.316406 -16.476562 15.390625 -16.03125 C 15.460938 -15.59375 15.507812 -15.203125 15.53125 -14.859375 C 15.5625 -14.523438 15.59375 -14.109375 15.625 -13.609375 C 15.664062 -13.109375 15.707031 -12.695312 15.75 -12.375 L 16.234375 -5.96875 C 16.234375 -5.875 16.242188 -5.5625 16.265625 -5.03125 C 16.285156 -4.5 16.296875 -4.195312 16.296875 -4.125 C 16.296875 -3.726562 16.257812 -3.398438 16.1875 -3.140625 C 16.113281 -2.878906 15.972656 -2.515625 15.765625 -2.046875 Z M 15.765625 -2.046875 "/></g></g><path style=" stroke:none;fill-rule:nonzero;fill:#f49588;fill-opacity:1;" d="M 372.789062 24.699219 C 373.90625 27.363281 374.269531 30.097656 372.820312 30.582031 C 370.269531 31.429688 370.152344 28.464844 369.035156 25.800781 C 367.917969 23.132812 365.617188 22.449219 368.21875 20.917969 C 369.519531 20.132812 371.667969 22.035156 372.789062 24.699219 "/><path style=" stroke:none;fill-rule:nonzero;fill:#f49588;fill-opacity:1;" d="M 395.316406 23.832031 C 394.046875 26.433594 393.53125 29.148438 394.949219 29.714844 C 397.449219 30.695312 397.75 27.75 399.019531 25.148438 C 400.285156 22.550781 402.621094 21.984375 400.101562 20.316406 C 398.851562 19.46875 396.601562 21.234375 395.316406 23.832031 "/><g clip-rule="nonzero" clip-path="url(#c197eb0871)"><path style=" stroke:none;fill-rule:nonzero;fill:#fabc9f;fill-opacity:1;" d="M 349.15625 142.703125 C 347.523438 143.035156 344.605469 138.171875 343.65625 133.507812 C 343.003906 130.289062 343.355469 127.273438 344.054688 121.261719 C 344.457031 117.914062 344.773438 116.847656 344.753906 114.148438 C 344.753906 110.546875 344.171875 103.550781 345.707031 96.71875 C 347.691406 87.875 347.738281 88.90625 348.15625 86.257812 C 349.191406 79.511719 348.625 74.246094 348.507812 73.195312 C 347.941406 68.214844 348.707031 68.082031 348.492188 63.867188 C 348.289062 59.953125 346.472656 56.035156 348.992188 52.523438 C 351.074219 49.605469 354.109375 48.421875 357.261719 47.171875 C 361.78125 45.40625 363.214844 46.207031 368.417969 44.125 C 371.652344 42.808594 373.453125 42.058594 374.820312 40.242188 C 377.441406 36.726562 376.339844 32.097656 375.9375 30.664062 C 382.691406 29.664062 389.460938 28.648438 396.214844 27.648438 C 395.597656 29.347656 394.765625 32.246094 395.03125 35.863281 C 395.183594 38.027344 395.433594 41.492188 397.71875 44.140625 C 400.070312 46.890625 402.453125 46.257812 407.90625 48.472656 C 410.792969 49.640625 414.710938 49.324219 417.863281 53.722656 C 421.179688 58.335938 421.496094 78.277344 421.0625 85.507812 C 420.664062 92.289062 420.546875 91.824219 420.496094 94.769531 C 420.296875 102.933594 421.230469 103.335938 420.730469 108.617188 C 420.144531 114.648438 418.863281 114.78125 419.128906 119.296875 C 419.261719 121.828125 419.664062 121.777344 420.746094 128.441406 C 421.746094 134.605469 421.628906 136.003906 421.246094 137.386719 C 420.964844 138.402344 420.113281 141.371094 417.179688 143.585938 C 414.292969 145.785156 411.15625 145.882812 410.125 145.867188 C 410.875 144.785156 411.691406 143.386719 412.375 141.667969 C 413.460938 138.988281 413.808594 136.554688 413.925781 134.804688 C 412.308594 137.054688 410.675781 139.320312 409.058594 141.585938 C 408.605469 139.054688 408.605469 136.90625 408.707031 135.355469 C 408.839844 133.371094 408.972656 131.355469 410.007812 129.039062 C 411.226562 126.292969 412.207031 126.523438 412.792969 124.542969 C 413.460938 122.210938 412.441406 120.792969 411.507812 116.730469 C 411.125 115.03125 410.925781 113.082031 410.523438 109.183594 C 409.941406 103.351562 410.859375 103.101562 410.105469 96.96875 C 409.472656 91.65625 407.457031 86.40625 406.804688 84.660156 C 405.972656 82.441406 404.371094 74.261719 404.871094 73.53125 C 403.703125 74.328125 401.9375 81.292969 401.167969 83.875 C 398.902344 91.554688 398.652344 95.753906 399.035156 99.9375 C 399.585938 105.832031 401.101562 108.597656 401.417969 109.398438 C 407.273438 124.425781 406.054688 145.335938 406.003906 150.980469 C 406.003906 150.980469 405.855469 168.839844 400.800781 190.667969 C 400.519531 191.882812 399.652344 195.414062 399.402344 200.246094 C 399.203125 204.226562 399.519531 206.742188 399.636719 209.207031 C 399.984375 216.171875 398.484375 217.738281 397.800781 225.335938 C 396.601562 238.414062 400.019531 243.894531 396.515625 246.59375 C 395.265625 247.558594 392.898438 248.359375 387.960938 246.792969 C 388.644531 239.964844 387.894531 234.683594 387.0625 231.082031 C 385.84375 225.785156 387.226562 224.46875 386.777344 220.019531 C 386.542969 217.65625 384.292969 218.023438 385.628906 205.894531 C 386.410156 198.828125 386.460938 197.796875 386.179688 196.082031 C 385.695312 193.148438 384.792969 191.597656 384.609375 188.015625 C 384.476562 185.234375 384.894531 183.203125 385.109375 182.019531 C 385.492188 179.789062 385.644531 177.773438 384.527344 157.328125 C 384.375 154.597656 384.175781 151.117188 383.941406 147.035156 C 382.640625 146.832031 382.691406 146.167969 381.390625 145.949219 C 381.558594 147.5 382.027344 149.066406 381.375 153.015625 C 379.15625 167.625 375.707031 170.691406 375.273438 183.917969 C 375.023438 191.449219 378.390625 199.78125 378.058594 208.757812 C 378.039062 209.425781 378.058594 216.191406 376.640625 222.6875 C 374.90625 230.632812 373.4375 238.097656 372.621094 238.78125 C 370.101562 240.863281 366.265625 238.914062 363.046875 236.480469 C 360.464844 234.53125 364.300781 229.851562 363.183594 217.820312 C 362.765625 213.242188 361.929688 210.359375 360.546875 197.230469 C 359.648438 188.734375 359.480469 190.847656 358.511719 176.15625 C 357.796875 165.191406 356.84375 151.515625 358.347656 139.21875 C 359.597656 129.039062 362.582031 121.160156 361.746094 114.847656 C 361.5625 113.414062 360.5625 110.980469 360.347656 109.582031 C 359.714844 105.652344 361.847656 94.621094 361.648438 94.589844 C 361.230469 94.472656 353.644531 112.679688 352.808594 114.796875 C 352.476562 115.664062 351.875 117.480469 351.992188 119.726562 C 352.125 122.59375 353.328125 124.109375 353.992188 125.875 C 354.84375 128.089844 355.210938 131.605469 352.691406 137.070312 C 352.492188 136.238281 352.277344 135.40625 352.058594 134.554688 C 351.675781 133.074219 351.308594 131.589844 350.925781 130.105469 C 351.257812 141.285156 349.839844 142.570312 349.15625 142.703125 "/></g><path style=" stroke:none;fill-rule:nonzero;fill:#221411;fill-opacity:1;" d="M 398.199219 238.929688 C 397.449219 237.863281 395.515625 237.949219 394.117188 237.8125 C 392.863281 237.679688 390.613281 237.5625 388.128906 238.363281 C 388.011719 239.046875 388.144531 240.179688 387.777344 241.429688 C 387.363281 242.863281 386.710938 244.261719 386.828125 245.429688 C 386.996094 247.078125 388.3125 248.09375 389.3125 250.710938 C 390.179688 252.957031 391.347656 254.957031 391.679688 255.589844 C 393.363281 258.804688 401.386719 261.488281 404.371094 255.242188 C 404.886719 254.175781 404.636719 251.757812 403.6875 249.976562 C 401.371094 245.609375 398.601562 245.09375 398.285156 242.011719 C 398.152344 240.746094 398.816406 239.796875 398.199219 238.929688 "/><path style=" stroke:none;fill-rule:nonzero;fill:#221411;fill-opacity:1;" d="M 374.605469 234.015625 C 374.839844 234.632812 374.839844 236.582031 374.421875 237.613281 C 373.789062 239.179688 372.253906 239.378906 371.386719 240.980469 C 370.804688 242.046875 370.519531 242.644531 370.019531 244.746094 C 369.417969 247.292969 369.183594 249.507812 366.902344 251.324219 C 364.28125 253.390625 360.613281 253.773438 360.0625 253.839844 C 356.777344 254.15625 352.777344 253.425781 351.140625 251.308594 C 350.042969 249.859375 350.457031 248.328125 350.757812 247.226562 C 351.441406 244.644531 354.027344 244.328125 356.996094 241.28125 C 358.246094 239.980469 359.730469 237.230469 361.03125 234.765625 C 361.914062 233.117188 366.183594 232.699219 367.734375 232.847656 C 369.367188 232.984375 373.921875 234.164062 374.605469 234.015625 "/><path style=" stroke:none;fill-rule:nonzero;fill:#f49588;fill-opacity:1;" d="M 395.382812 38.894531 C 395.164062 37.761719 395.082031 36.710938 395.03125 35.863281 C 394.765625 32.246094 395.597656 29.347656 396.214844 27.648438 C 389.460938 28.648438 382.691406 29.664062 375.9375 30.664062 C 376.339844 32.097656 377.441406 36.726562 374.820312 40.242188 C 374.820312 40.242188 380.65625 43.992188 381.941406 43.925781 C 383.726562 43.824219 389.964844 43.257812 395.382812 38.894531 "/><path style=" stroke:none;fill-rule:nonzero;fill:#ffffff;fill-opacity:1;" d="M 375.355469 39.394531 C 382.242188 44.824219 392.582031 41.257812 395.398438 38.859375 C 396.183594 39.828125 397.515625 42.691406 398.300781 44.742188 C 400.851562 51.488281 398.035156 58.167969 397.035156 60.886719 C 393.648438 69.980469 397.449219 68.546875 394.664062 89.671875 C 393.015625 102.183594 392.113281 108.515625 388.414062 111.699219 C 381.273438 117.828125 369.351562 114.695312 365.832031 113.664062 C 365.265625 102.566406 365.167969 90.339844 365.832031 77.195312 C 366.433594 65.183594 367.617188 54.039062 369.085938 43.859375 C 369.917969 43.574219 370.886719 43.175781 371.902344 42.59375 C 372.753906 42.125 374.753906 39.859375 375.355469 39.394531 "/><path style=" stroke:none;fill-rule:nonzero;fill:#fabc9f;fill-opacity:1;" d="M 396.832031 19.101562 C 396.984375 28.882812 389.53125 40.875 383.542969 41.210938 C 377.554688 41.527344 372.253906 33.878906 371.703125 24.101562 C 371.136719 14.335938 372.035156 5.789062 381.523438 5.824219 C 387.527344 5.824219 396.667969 7.421875 396.832031 19.101562 "/><path style=" stroke:none;fill-rule:nonzero;fill:#2b1512;fill-opacity:1;" d="M 371.601562 22.484375 C 370.769531 21.867188 369.9375 21.25 369.101562 20.632812 C 369.070312 19.402344 369.050781 17.570312 369.167969 15.371094 C 369.402344 11.304688 369.851562 9.40625 370.402344 7.691406 C 372.121094 2.226562 382.824219 0.957031 386.8125 1.542969 C 387.894531 1.691406 394.046875 2.425781 397.449219 7.125 C 398.601562 8.707031 399.085938 9.921875 399.300781 11.539062 C 399.800781 15.402344 400.234375 18.683594 400.070312 20.734375 C 399.535156 20.882812 398.285156 21.335938 397.21875 22.515625 C 396.082031 23.78125 395.816406 25.148438 395.734375 25.683594 C 395.164062 24.183594 394.464844 21.832031 394.433594 18.867188 C 394.398438 16.253906 394.898438 14.105469 395.367188 12.65625 C 394.046875 13.539062 392.429688 14.371094 390.511719 14.921875 C 382.027344 17.386719 374.90625 12.871094 373.203125 11.753906 C 373.238281 13.152344 373.171875 14.355469 373.054688 15.96875 C 372.886719 18.402344 372.003906 20.535156 371.601562 22.484375 "/><path style=" stroke:none;fill-rule:nonzero;fill:#181614;fill-opacity:1;" d="M 360.347656 109.582031 C 360.613281 111.046875 360.898438 112.496094 361.613281 114.164062 C 361.28125 115.429688 360.8125 117.277344 360.265625 119.511719 C 359.414062 123.042969 358.679688 126.191406 358.511719 127.390625 C 354.210938 156.363281 361.613281 224.785156 362.199219 233.75 C 363.214844 234.25 367.46875 236.347656 368.367188 236.429688 C 369.535156 236.546875 372.269531 235.449219 374.621094 234.015625 C 374.988281 233.800781 379.15625 221.902344 378.890625 205.410156 C 378.472656 180.46875 382.542969 147.183594 382.710938 147.152344 C 383.058594 147.898438 380.792969 211.109375 388.046875 238.296875 C 388.480469 239.898438 391.3125 240.878906 392.3125 240.878906 C 393.664062 240.878906 397.816406 239.128906 398.199219 238.929688 C 397.632812 231.800781 408.640625 148.351562 407.457031 130.605469 C 406.988281 123.660156 404.953125 119.644531 403.972656 115.445312 C 403.003906 111.214844 401.820312 108.234375 400.269531 106.433594 C 398.085938 107.214844 382.34375 112.714844 375.957031 113.648438 C 374.355469 113.878906 373.335938 113.832031 372.9375 113.8125 C 370.453125 113.664062 369.050781 112.863281 364.765625 111.199219 C 363.867188 110.863281 362.03125 110.164062 360.347656 109.582031 "/><g clip-rule="nonzero" clip-path="url(#d8db1840b7)"><path style=" stroke:none;fill-rule:nonzero;fill:#ffffff;fill-opacity:1;" d="M 344.054688 121.0625 C 343.789062 121.0625 343.335938 119.8125 343.421875 117.046875 C 343.554688 113.128906 347.941406 110.566406 350.957031 113.746094 C 351.691406 114.53125 351.992188 116.230469 352.125 117.144531 C 352.308594 118.296875 352.042969 120.34375 352.042969 120.527344 C 352.042969 121.0625 345.523438 121.0625 344.054688 121.0625 "/></g><path style=" stroke:none;fill-rule:nonzero;fill:#ffffff;fill-opacity:1;" d="M 419.878906 121.859375 C 420.0625 121.859375 420.613281 120.34375 420.878906 117.496094 C 421.246094 113.597656 415.695312 111.363281 412.675781 114.546875 C 411.941406 115.328125 411.640625 117.027344 411.492188 117.945312 C 411.324219 119.09375 411.589844 121.144531 411.589844 121.328125 C 411.589844 121.878906 418.429688 121.859375 419.878906 121.859375 "/><path style=" stroke:none;fill-rule:nonzero;fill:#100f0d;fill-opacity:1;" d="M 401.9375 109.097656 C 401.4375 108.03125 400.886719 107.132812 400.269531 106.433594 C 398.085938 107.214844 382.34375 112.714844 375.957031 113.648438 C 374.355469 113.878906 373.335938 113.832031 372.9375 113.8125 C 370.453125 113.664062 369.050781 112.863281 364.765625 111.199219 C 363.867188 110.863281 362.03125 110.164062 360.347656 109.582031 C 360.597656 111.046875 360.898438 112.496094 361.613281 114.148438 C 364.949219 115.664062 368.984375 117.3125 371.851562 117.460938 C 378.890625 117.8125 384.160156 115.546875 390.195312 113.695312 C 393.363281 112.714844 397.402344 111.265625 401.9375 109.097656 "/><path style=" stroke:none;fill-rule:nonzero;fill:#131110;fill-opacity:1;" d="M 374.921875 39.828125 C 368.953125 41.660156 355.726562 42.441406 350.707031 47.539062 C 346.421875 51.871094 347.390625 62.652344 347.125 66.332031 C 345.839844 83.425781 345.105469 92.707031 344.457031 96.738281 C 343.6875 101.503906 343.671875 108.53125 343.421875 117.046875 C 344.121094 116.664062 351.410156 116.777344 352.125 117.144531 C 353.011719 115.894531 359.945312 98.519531 360.378906 98.6875 C 360.597656 98.753906 360.378906 105.882812 359.746094 108.664062 C 359.445312 109.949219 358.964844 117.296875 359.5625 117.496094 C 365.601562 119.5625 368.816406 120.027344 374.90625 119.195312 C 371.1875 118.480469 365.398438 51.589844 374.921875 39.828125 "/><path style=" stroke:none;fill-rule:nonzero;fill:#131110;fill-opacity:1;" d="M 401.917969 40.808594 C 398.550781 40.042969 398.015625 39.59375 395.648438 39.144531 C 388.027344 54.921875 384.375 115.945312 385.027344 117.480469 C 395.183594 114.878906 403.070312 110.464844 403.921875 110 C 405.738281 109.03125 401.570312 96.953125 401.917969 86.109375 C 402.035156 82.644531 402.519531 79.792969 402.921875 77.910156 C 405.222656 84.09375 407.421875 91.574219 408.824219 100.203125 C 409.574219 104.851562 411.089844 113.480469 411.457031 117.3125 C 413.710938 117.046875 419.746094 117.730469 421.246094 118.027344 C 422.929688 105.25 420.878906 90.789062 421.148438 84.140625 C 421.480469 76.628906 421.429688 66.75 420.613281 59.269531 C 420.246094 55.96875 420.613281 45.089844 401.917969 40.808594 "/><path style=" stroke:none;fill-rule:nonzero;fill:#100f0d;fill-opacity:1;" d="M 382.527344 144.953125 C 382.460938 144.46875 382.359375 144 382.277344 143.519531 C 381.910156 141.601562 381.457031 139.71875 380.890625 137.855469 C 380.324219 136.003906 379.65625 134.171875 378.839844 132.40625 C 379.273438 134.304688 379.722656 136.171875 380.140625 138.054688 C 380.558594 139.921875 380.941406 141.800781 381.292969 143.703125 C 381.390625 144.167969 381.476562 144.636719 381.558594 145.117188 C 381.640625 145.585938 381.675781 146.066406 381.808594 146.535156 C 382.058594 147.449219 382.476562 147.898438 382.527344 148.167969 C 382.609375 147.984375 382.609375 147.535156 382.710938 147.152344 C 382.757812 147.199219 382.742188 147.398438 382.792969 147.449219 C 382.757812 147.132812 382.792969 146.699219 382.742188 146.402344 C 382.675781 145.917969 382.609375 145.433594 382.527344 144.953125 "/><path style=" stroke:none;fill-rule:nonzero;fill:#131110;fill-opacity:1;" d="M 374.671875 47.023438 C 375.273438 47.972656 376.757812 47.921875 377.90625 47.855469 C 378.921875 47.808594 380.523438 47.574219 381.757812 47.125 C 382.207031 47.441406 382.792969 47.640625 383.410156 47.671875 C 384.058594 47.691406 384.644531 47.523438 385.128906 47.242188 C 386.328125 47.773438 387.929688 48.140625 388.929688 48.257812 C 390.078125 48.40625 391.546875 48.574219 392.230469 47.671875 C 392.679688 47.074219 392.664062 46.222656 392.632812 45.007812 C 392.597656 43.910156 392.582031 43.324219 392.332031 42.957031 C 391.449219 41.691406 387.5625 42.507812 385.261719 43.808594 C 384.808594 43.476562 384.226562 43.273438 383.59375 43.242188 C 382.960938 43.226562 382.359375 43.390625 381.890625 43.675781 C 379.691406 42.210938 375.921875 41.125 374.9375 42.308594 C 374.65625 42.660156 374.589844 43.242188 374.472656 44.339844 C 374.355469 45.558594 374.253906 46.40625 374.671875 47.023438 "/><path style=" stroke:none;fill-rule:nonzero;fill:#131110;fill-opacity:1;" d="M 378.742188 42.742188 L 377.605469 44.492188 C 375.753906 43.992188 374.222656 43.242188 373.421875 41.910156 L 374.171875 40.125 C 374.804688 41.191406 376.839844 42.308594 378.742188 42.742188 "/><path style=" stroke:none;fill-rule:nonzero;fill:#131110;fill-opacity:1;" d="M 395.515625 39.425781 L 396.800781 41.078125 C 395.28125 42.910156 393.648438 44.324219 391.796875 44.808594 L 390.511719 43.160156 C 392.449219 42.757812 394.046875 41.308594 395.515625 39.425781 "/><path style=" stroke:none;fill-rule:nonzero;fill:#100f0d;fill-opacity:1;" d="M 360.378906 98.6875 C 360.445312 98.703125 360.480469 99.46875 360.464844 100.601562 C 360.496094 100.320312 360.53125 100.035156 360.5625 99.753906 C 360.695312 98.203125 360.796875 96.671875 360.847656 95.136719 C 360.878906 93.589844 360.898438 92.054688 360.863281 90.507812 C 360.847656 89.738281 360.832031 88.972656 360.796875 88.207031 C 360.765625 87.441406 360.714844 86.675781 360.664062 85.890625 C 360.546875 84.359375 360.414062 82.828125 360.097656 81.277344 C 359.796875 79.777344 359.546875 78.277344 359.363281 76.761719 C 359.179688 75.261719 359.03125 73.730469 358.964844 72.214844 C 358.878906 70.679688 358.863281 69.148438 358.878906 67.617188 C 358.644531 69.132812 358.53125 70.664062 358.480469 72.214844 L 358.460938 72.796875 L 358.460938 73.363281 C 358.460938 73.746094 358.460938 74.144531 358.460938 74.53125 C 358.480469 75.296875 358.511719 76.078125 358.578125 76.84375 C 358.613281 77.226562 358.644531 77.613281 358.679688 77.996094 C 358.730469 78.378906 358.761719 78.761719 358.8125 79.144531 C 358.914062 79.925781 359.03125 80.695312 359.179688 81.445312 C 359.3125 82.175781 359.398438 82.925781 359.464844 83.691406 C 359.546875 84.441406 359.613281 85.207031 359.664062 85.957031 C 359.78125 87.492188 359.863281 89.007812 359.914062 90.539062 C 359.980469 92.074219 360.03125 93.605469 360.0625 95.121094 L 360.097656 97.421875 C 360.097656 97.988281 360.097656 98.554688 360.082031 99.101562 C 360.230469 98.820312 360.347656 98.667969 360.378906 98.6875 "/><path style=" stroke:none;fill-rule:nonzero;fill:#100f0d;fill-opacity:1;" d="M 402.871094 71.898438 C 402.785156 69.964844 402.738281 68.046875 402.703125 66.117188 C 402.671875 64.183594 402.652344 62.25 402.601562 60.300781 C 402.238281 62.21875 402.035156 64.148438 401.917969 66.097656 C 401.820312 68.03125 401.785156 69.996094 401.871094 71.929688 C 401.953125 73.878906 402.121094 75.828125 402.386719 77.746094 C 402.453125 78.292969 402.535156 78.84375 402.636719 79.394531 C 402.738281 78.84375 402.835938 78.359375 402.921875 77.910156 C 403.019531 78.179688 403.121094 78.445312 403.21875 78.726562 C 403.203125 78.378906 403.171875 78.027344 403.152344 77.679688 C 403.035156 75.746094 402.9375 73.828125 402.871094 71.898438 "/></g></svg>