<svg xmlns="http://www.w3.org/2000/svg" xmlns:xlink="http://www.w3.org/1999/xlink" zoomAndPan="magnify" preserveAspectRatio="xMidYMid meet" version="1.0" viewBox="192.24 209.57 69.9 94.86"><defs><g/><clipPath id="a0c332ccc7"><path d="M 218.632812 216 L 237.363281 216 L 237.363281 268 L 218.632812 268 Z M 218.632812 216 " clip-rule="nonzero"/></clipPath><clipPath id="bbfadad04c"><path d="M 224 209.566406 L 233 209.566406 L 233 216 L 224 216 Z M 224 209.566406 " clip-rule="nonzero"/></clipPath><clipPath id="6a2c7f0002"><path d="M 218.632812 235 L 221 235 L 221 238 L 218.632812 238 Z M 218.632812 235 " clip-rule="nonzero"/></clipPath><clipPath id="c5866acccd"><path d="M 218.632812 218 L 227 218 L 227 238 L 218.632812 238 Z M 218.632812 218 " clip-rule="nonzero"/></clipPath><clipPath id="3c0e4082bb"><path d="M 228 218 L 237.363281 218 L 237.363281 238 L 228 238 Z M 228 218 " clip-rule="nonzero"/></clipPath></defs><path fill="#f49588" d="M 225.613281 215.3125 C 225.875 215.9375 225.960938 216.578125 225.621094 216.691406 C 225.023438 216.890625 224.996094 216.195312 224.734375 215.570312 C 224.472656 214.945312 223.933594 214.785156 224.542969 214.425781 C 224.847656 214.242188 225.351562 214.6875 225.613281 215.3125 " fill-opacity="1" fill-rule="nonzero"/><path fill="#f49588" d="M 230.890625 215.109375 C 230.59375 215.71875 230.472656 216.355469 230.804688 216.488281 C 231.390625 216.71875 231.460938 216.027344 231.757812 215.417969 C 232.054688 214.808594 232.601562 214.675781 232.011719 214.285156 C 231.71875 214.085938 231.191406 214.5 230.890625 215.109375 " fill-opacity="1" fill-rule="nonzero"/><g clip-path="url(#a0c332ccc7)"><path fill="#fabc9f" d="M 220.078125 242.980469 C 219.695312 243.058594 219.011719 241.917969 218.789062 240.824219 C 218.636719 240.070312 218.71875 239.363281 218.882812 237.953125 C 218.976562 237.167969 219.050781 236.917969 219.046875 236.285156 C 219.046875 235.441406 218.910156 233.800781 219.269531 232.199219 C 219.734375 230.125 219.746094 230.367188 219.84375 229.746094 C 220.085938 228.164062 219.953125 226.929688 219.925781 226.683594 C 219.792969 225.515625 219.972656 225.484375 219.921875 224.496094 C 219.875 223.578125 219.449219 222.660156 220.039062 221.835938 C 220.527344 221.152344 221.238281 220.875 221.976562 220.582031 C 223.035156 220.167969 223.371094 220.355469 224.589844 219.867188 C 225.347656 219.558594 225.769531 219.382812 226.089844 218.957031 C 226.703125 218.132812 226.445312 217.046875 226.351562 216.710938 C 227.933594 216.476562 229.519531 216.238281 231.101562 216.003906 C 230.957031 216.402344 230.761719 217.082031 230.824219 217.929688 C 230.859375 218.4375 230.917969 219.25 231.453125 219.871094 C 232.003906 220.515625 232.5625 220.367188 233.839844 220.886719 C 234.515625 221.160156 235.433594 221.085938 236.171875 222.117188 C 236.949219 223.199219 237.023438 227.875 236.921875 229.570312 C 236.828125 231.160156 236.800781 231.050781 236.789062 231.742188 C 236.742188 233.65625 236.960938 233.75 236.84375 234.988281 C 236.707031 236.402344 236.40625 236.433594 236.46875 237.492188 C 236.5 238.085938 236.59375 238.074219 236.847656 239.636719 C 237.082031 241.082031 237.054688 241.410156 236.964844 241.734375 C 236.898438 241.972656 236.699219 242.667969 236.011719 243.1875 C 235.335938 243.703125 234.601562 243.726562 234.359375 243.722656 C 234.535156 243.46875 234.726562 243.140625 234.886719 242.738281 C 235.140625 242.109375 235.222656 241.539062 235.25 241.128906 C 234.871094 241.65625 234.488281 242.1875 234.109375 242.71875 C 234.003906 242.125 234.003906 241.621094 234.027344 241.257812 C 234.058594 240.792969 234.089844 240.320312 234.332031 239.777344 C 234.617188 239.132812 234.847656 239.1875 234.984375 238.722656 C 235.140625 238.175781 234.902344 237.84375 234.683594 236.890625 C 234.59375 236.492188 234.546875 236.035156 234.453125 235.121094 C 234.316406 233.753906 234.53125 233.695312 234.355469 232.257812 C 234.207031 231.011719 233.734375 229.78125 233.582031 229.371094 C 233.386719 228.851562 233.011719 226.933594 233.128906 226.761719 C 232.855469 226.949219 232.441406 228.582031 232.261719 229.1875 C 231.730469 230.988281 231.671875 231.972656 231.761719 232.953125 C 231.890625 234.335938 232.246094 234.984375 232.320312 235.171875 C 233.691406 238.695312 233.40625 243.597656 233.394531 244.921875 C 233.394531 244.921875 233.359375 249.109375 232.175781 254.226562 C 232.109375 254.511719 231.90625 255.339844 231.847656 256.472656 C 231.800781 257.40625 231.875 257.996094 231.902344 258.574219 C 231.984375 260.207031 231.632812 260.574219 231.472656 262.355469 C 231.191406 265.421875 231.992188 266.707031 231.171875 267.339844 C 230.878906 267.566406 230.324219 267.753906 229.167969 267.386719 C 229.328125 265.785156 229.152344 264.546875 228.957031 263.703125 C 228.671875 262.460938 228.996094 262.152344 228.890625 261.109375 C 228.835938 260.554688 228.308594 260.640625 228.621094 257.796875 C 228.804688 256.140625 228.816406 255.898438 228.75 255.496094 C 228.636719 254.808594 228.425781 254.445312 228.382812 253.605469 C 228.351562 252.953125 228.449219 252.476562 228.5 252.199219 C 228.589844 251.675781 228.625 251.203125 228.363281 246.410156 C 228.328125 245.769531 228.28125 244.953125 228.226562 243.996094 C 227.921875 243.949219 227.933594 243.792969 227.628906 243.742188 C 227.667969 244.105469 227.777344 244.472656 227.625 245.398438 C 227.105469 248.824219 226.296875 249.542969 226.195312 252.644531 C 226.136719 254.410156 226.925781 256.363281 226.847656 258.46875 C 226.84375 258.625 226.847656 260.210938 226.515625 261.734375 C 226.109375 263.597656 225.765625 265.347656 225.574219 265.507812 C 224.984375 265.996094 224.085938 265.539062 223.332031 264.96875 C 222.726562 264.511719 223.625 263.414062 223.363281 260.59375 C 223.265625 259.519531 223.070312 258.84375 222.746094 255.765625 C 222.535156 253.773438 222.496094 254.269531 222.269531 250.824219 C 222.101562 248.253906 221.878906 245.046875 222.230469 242.164062 C 222.523438 239.777344 223.222656 237.929688 223.027344 236.449219 C 222.984375 236.113281 222.75 235.542969 222.699219 235.214844 C 222.550781 234.292969 223.050781 231.707031 223.003906 231.699219 C 222.90625 231.671875 221.128906 235.941406 220.933594 236.4375 C 220.855469 236.640625 220.714844 237.066406 220.742188 237.59375 C 220.773438 238.265625 221.054688 238.621094 221.210938 239.035156 C 221.410156 239.554688 221.496094 240.378906 220.90625 241.660156 C 220.859375 241.464844 220.808594 241.269531 220.757812 241.070312 C 220.667969 240.722656 220.582031 240.375 220.492188 240.027344 C 220.570312 242.648438 220.238281 242.949219 220.078125 242.980469 " fill-opacity="1" fill-rule="nonzero"/></g><path fill="#221411" d="M 231.566406 265.542969 C 231.390625 265.292969 230.9375 265.3125 230.609375 265.28125 C 230.316406 265.25 229.789062 265.222656 229.207031 265.410156 C 229.179688 265.570312 229.210938 265.835938 229.125 266.128906 C 229.027344 266.464844 228.875 266.792969 228.902344 267.066406 C 228.941406 267.453125 229.25 267.691406 229.484375 268.304688 C 229.6875 268.832031 229.960938 269.300781 230.039062 269.449219 C 230.433594 270.203125 232.3125 270.832031 233.011719 269.367188 C 233.132812 269.117188 233.074219 268.550781 232.851562 268.132812 C 232.308594 267.109375 231.660156 266.988281 231.585938 266.265625 C 231.554688 265.96875 231.710938 265.746094 231.566406 265.542969 " fill-opacity="1" fill-rule="nonzero"/><path fill="#221411" d="M 226.039062 264.390625 C 226.09375 264.535156 226.09375 264.992188 225.996094 265.234375 C 225.847656 265.601562 225.488281 265.648438 225.285156 266.023438 C 225.148438 266.273438 225.082031 266.414062 224.964844 266.90625 C 224.824219 267.503906 224.769531 268.023438 224.234375 268.449219 C 223.621094 268.933594 222.761719 269.023438 222.632812 269.039062 C 221.863281 269.113281 220.925781 268.941406 220.542969 268.445312 C 220.285156 268.105469 220.382812 267.746094 220.453125 267.488281 C 220.613281 266.882812 221.21875 266.808594 221.914062 266.09375 C 222.207031 265.789062 222.554688 265.144531 222.859375 264.566406 C 223.066406 264.179688 224.066406 264.082031 224.429688 264.117188 C 224.8125 264.148438 225.878906 264.425781 226.039062 264.390625 " fill-opacity="1" fill-rule="nonzero"/><path fill="#f49588" d="M 230.90625 218.640625 C 230.855469 218.375 230.835938 218.128906 230.824219 217.929688 C 230.761719 217.082031 230.957031 216.402344 231.101562 216.003906 C 229.519531 216.238281 227.933594 216.476562 226.351562 216.710938 C 226.445312 217.046875 226.703125 218.132812 226.089844 218.957031 C 226.089844 218.957031 227.457031 219.835938 227.757812 219.820312 C 228.175781 219.796875 229.636719 219.664062 230.90625 218.640625 " fill-opacity="1" fill-rule="nonzero"/><path fill="#ffffff" d="M 226.214844 218.757812 C 227.828125 220.03125 230.25 219.195312 230.910156 218.632812 C 231.09375 218.859375 231.40625 219.53125 231.589844 220.011719 C 232.1875 221.59375 231.527344 223.160156 231.292969 223.796875 C 230.5 225.929688 231.390625 225.59375 230.738281 230.546875 C 230.351562 233.480469 230.140625 234.964844 229.273438 235.710938 C 227.601562 237.148438 224.808594 236.414062 223.984375 236.171875 C 223.851562 233.570312 223.828125 230.703125 223.984375 227.621094 C 224.125 224.804688 224.402344 222.191406 224.746094 219.804688 C 224.941406 219.738281 225.167969 219.644531 225.40625 219.507812 C 225.605469 219.398438 226.074219 218.867188 226.214844 218.757812 " fill-opacity="1" fill-rule="nonzero"/><path fill="#fabc9f" d="M 231.246094 214 C 231.28125 216.292969 229.535156 219.105469 228.132812 219.183594 C 226.730469 219.257812 225.488281 217.464844 225.359375 215.171875 C 225.226562 212.882812 225.4375 210.878906 227.660156 210.886719 C 229.066406 210.886719 231.207031 211.261719 231.246094 214 " fill-opacity="1" fill-rule="nonzero"/><g clip-path="url(#bbfadad04c)"><path fill="#2b1512" d="M 225.335938 214.792969 C 225.140625 214.648438 224.945312 214.503906 224.75 214.359375 C 224.742188 214.070312 224.738281 213.640625 224.765625 213.125 C 224.820312 212.171875 224.925781 211.726562 225.054688 211.324219 C 225.457031 210.042969 227.964844 209.746094 228.898438 209.882812 C 229.152344 209.917969 230.59375 210.089844 231.390625 211.191406 C 231.660156 211.5625 231.773438 211.847656 231.824219 212.226562 C 231.941406 213.132812 232.042969 213.902344 232.003906 214.382812 C 231.878906 214.417969 231.585938 214.523438 231.335938 214.800781 C 231.070312 215.097656 231.007812 215.417969 230.988281 215.542969 C 230.855469 215.191406 230.691406 214.640625 230.683594 213.945312 C 230.675781 213.332031 230.792969 212.828125 230.902344 212.488281 C 230.59375 212.695312 230.214844 212.890625 229.765625 213.019531 C 227.777344 213.597656 226.109375 212.539062 225.710938 212.277344 C 225.71875 212.605469 225.703125 212.886719 225.675781 213.265625 C 225.636719 213.835938 225.429688 214.335938 225.335938 214.792969 " fill-opacity="1" fill-rule="nonzero"/></g><path fill="#181614" d="M 222.699219 235.214844 C 222.761719 235.558594 222.828125 235.898438 222.996094 236.289062 C 222.917969 236.585938 222.808594 237.019531 222.679688 237.542969 C 222.480469 238.371094 222.308594 239.109375 222.269531 239.390625 C 221.261719 246.183594 222.996094 262.226562 223.132812 264.328125 C 223.371094 264.445312 224.367188 264.9375 224.578125 264.957031 C 224.851562 264.984375 225.492188 264.726562 226.042969 264.390625 C 226.128906 264.339844 227.105469 261.550781 227.042969 257.683594 C 226.945312 251.835938 227.898438 244.03125 227.9375 244.023438 C 228.019531 244.199219 227.488281 259.019531 229.1875 265.394531 C 229.289062 265.769531 229.953125 266 230.1875 266 C 230.503906 266 231.476562 265.589844 231.566406 265.542969 C 231.433594 263.871094 234.011719 244.304688 233.734375 240.144531 C 233.625 238.515625 233.148438 237.574219 232.917969 236.589844 C 232.691406 235.597656 232.414062 234.898438 232.050781 234.476562 C 231.539062 234.660156 227.851562 235.949219 226.355469 236.167969 C 225.980469 236.222656 225.742188 236.210938 225.648438 236.207031 C 225.066406 236.171875 224.738281 235.984375 223.734375 235.59375 C 223.523438 235.515625 223.09375 235.351562 222.699219 235.214844 " fill-opacity="1" fill-rule="nonzero"/><g clip-path="url(#6a2c7f0002)"><path fill="#ffffff" d="M 218.882812 237.90625 C 218.820312 237.90625 218.714844 237.613281 218.734375 236.964844 C 218.765625 236.046875 219.792969 235.445312 220.5 236.191406 C 220.671875 236.375 220.742188 236.773438 220.773438 236.988281 C 220.816406 237.257812 220.753906 237.738281 220.753906 237.78125 C 220.753906 237.90625 219.226562 237.90625 218.882812 237.90625 " fill-opacity="1" fill-rule="nonzero"/></g><path fill="#ffffff" d="M 236.644531 238.09375 C 236.6875 238.09375 236.816406 237.738281 236.878906 237.070312 C 236.964844 236.15625 235.664062 235.632812 234.957031 236.378906 C 234.785156 236.5625 234.714844 236.960938 234.679688 237.175781 C 234.640625 237.445312 234.703125 237.925781 234.703125 237.96875 C 234.703125 238.097656 236.304688 238.09375 236.644531 238.09375 " fill-opacity="1" fill-rule="nonzero"/><path fill="#100f0d" d="M 232.441406 235.101562 C 232.324219 234.851562 232.195312 234.640625 232.050781 234.476562 C 231.539062 234.660156 227.851562 235.949219 226.355469 236.167969 C 225.980469 236.222656 225.742188 236.210938 225.648438 236.207031 C 225.066406 236.171875 224.738281 235.984375 223.734375 235.59375 C 223.523438 235.515625 223.09375 235.351562 222.699219 235.214844 C 222.757812 235.558594 222.828125 235.898438 222.996094 236.285156 C 223.777344 236.640625 224.722656 237.027344 225.394531 237.0625 C 227.042969 237.144531 228.277344 236.613281 229.691406 236.179688 C 230.433594 235.949219 231.378906 235.609375 232.441406 235.101562 " fill-opacity="1" fill-rule="nonzero"/><g clip-path="url(#c5866acccd)"><path fill="#131110" d="M 226.113281 218.859375 C 224.714844 219.289062 221.617188 219.472656 220.441406 220.667969 C 219.4375 221.683594 219.664062 224.210938 219.601562 225.074219 C 219.300781 229.082031 219.128906 231.257812 218.976562 232.203125 C 218.796875 233.320312 218.792969 234.96875 218.734375 236.964844 C 218.898438 236.875 220.605469 236.902344 220.773438 236.988281 C 220.980469 236.695312 222.605469 232.621094 222.707031 232.660156 C 222.757812 232.675781 222.707031 234.347656 222.558594 235 C 222.488281 235.300781 222.375 237.023438 222.515625 237.070312 C 223.929688 237.554688 224.683594 237.664062 226.109375 237.46875 C 225.238281 237.300781 223.882812 221.617188 226.113281 218.859375 " fill-opacity="1" fill-rule="nonzero"/></g><g clip-path="url(#3c0e4082bb)"><path fill="#131110" d="M 232.4375 219.089844 C 231.648438 218.910156 231.523438 218.804688 230.96875 218.699219 C 229.183594 222.398438 228.328125 236.707031 228.480469 237.066406 C 230.859375 236.457031 232.707031 235.421875 232.90625 235.3125 C 233.332031 235.085938 232.355469 232.253906 232.4375 229.710938 C 232.464844 228.898438 232.578125 228.230469 232.671875 227.789062 C 233.210938 229.238281 233.726562 230.992188 234.054688 233.015625 C 234.230469 234.105469 234.585938 236.128906 234.671875 237.027344 C 235.199219 236.964844 236.613281 237.125 236.964844 237.195312 C 237.359375 234.199219 236.878906 230.808594 236.941406 229.25 C 237.019531 227.488281 237.007812 225.171875 236.816406 223.417969 C 236.730469 222.644531 236.816406 220.09375 232.4375 219.089844 " fill-opacity="1" fill-rule="nonzero"/></g><path fill="#100f0d" d="M 227.894531 243.507812 C 227.878906 243.394531 227.855469 243.285156 227.835938 243.171875 C 227.75 242.722656 227.644531 242.28125 227.511719 241.84375 C 227.378906 241.410156 227.222656 240.980469 227.03125 240.566406 C 227.132812 241.011719 227.238281 241.449219 227.335938 241.890625 C 227.433594 242.328125 227.523438 242.769531 227.605469 243.214844 C 227.628906 243.324219 227.648438 243.433594 227.667969 243.546875 C 227.6875 243.65625 227.695312 243.769531 227.726562 243.878906 C 227.785156 244.09375 227.882812 244.199219 227.894531 244.261719 C 227.914062 244.21875 227.914062 244.113281 227.9375 244.023438 C 227.949219 244.035156 227.945312 244.082031 227.957031 244.09375 C 227.949219 244.019531 227.957031 243.917969 227.945312 243.847656 C 227.929688 243.734375 227.914062 243.621094 227.894531 243.507812 " fill-opacity="1" fill-rule="nonzero"/><path fill="#131110" d="M 226.054688 220.546875 C 226.195312 220.769531 226.542969 220.757812 226.8125 220.742188 C 227.050781 220.730469 227.425781 220.675781 227.714844 220.570312 C 227.820312 220.644531 227.957031 220.691406 228.101562 220.699219 C 228.253906 220.703125 228.390625 220.664062 228.503906 220.597656 C 228.785156 220.722656 229.160156 220.808594 229.394531 220.835938 C 229.664062 220.871094 230.007812 220.910156 230.167969 220.699219 C 230.273438 220.558594 230.269531 220.359375 230.261719 220.074219 C 230.253906 219.816406 230.25 219.679688 230.191406 219.59375 C 229.984375 219.296875 229.074219 219.488281 228.535156 219.792969 C 228.429688 219.714844 228.292969 219.667969 228.144531 219.660156 C 227.996094 219.65625 227.855469 219.695312 227.746094 219.761719 C 227.230469 219.417969 226.347656 219.164062 226.117188 219.441406 C 226.050781 219.523438 226.035156 219.660156 226.007812 219.917969 C 225.980469 220.203125 225.957031 220.402344 226.054688 220.546875 " fill-opacity="1" fill-rule="nonzero"/><path fill="#131110" d="M 227.007812 219.542969 L 226.742188 219.953125 C 226.308594 219.835938 225.949219 219.660156 225.761719 219.347656 L 225.9375 218.929688 C 226.085938 219.179688 226.5625 219.441406 227.007812 219.542969 " fill-opacity="1" fill-rule="nonzero"/><path fill="#131110" d="M 230.9375 218.765625 L 231.238281 219.152344 C 230.882812 219.582031 230.5 219.914062 230.066406 220.027344 L 229.765625 219.640625 C 230.21875 219.546875 230.59375 219.207031 230.9375 218.765625 " fill-opacity="1" fill-rule="nonzero"/><path fill="#100f0d" d="M 222.707031 232.660156 C 222.722656 232.664062 222.730469 232.84375 222.726562 233.109375 C 222.734375 233.042969 222.742188 232.976562 222.75 232.910156 C 222.78125 232.546875 222.804688 232.1875 222.816406 231.828125 C 222.824219 231.464844 222.828125 231.105469 222.820312 230.742188 C 222.816406 230.5625 222.8125 230.382812 222.804688 230.203125 C 222.796875 230.023438 222.785156 229.84375 222.773438 229.660156 C 222.746094 229.300781 222.714844 228.941406 222.640625 228.578125 C 222.570312 228.226562 222.511719 227.875 222.46875 227.519531 C 222.425781 227.167969 222.390625 226.808594 222.375 226.453125 C 222.355469 226.09375 222.351562 225.734375 222.355469 225.375 C 222.300781 225.730469 222.273438 226.089844 222.261719 226.453125 L 222.257812 226.589844 L 222.257812 226.722656 C 222.257812 226.8125 222.257812 226.90625 222.257812 226.996094 C 222.261719 227.175781 222.269531 227.359375 222.285156 227.539062 C 222.292969 227.628906 222.300781 227.71875 222.308594 227.808594 C 222.320312 227.898438 222.328125 227.988281 222.339844 228.078125 C 222.363281 228.261719 222.390625 228.441406 222.425781 228.617188 C 222.457031 228.789062 222.476562 228.964844 222.492188 229.144531 C 222.511719 229.320312 222.527344 229.5 222.539062 229.675781 C 222.566406 230.035156 222.585938 230.390625 222.597656 230.75 C 222.613281 231.109375 222.625 231.46875 222.632812 231.824219 L 222.640625 232.363281 C 222.640625 232.496094 222.640625 232.628906 222.636719 232.757812 C 222.671875 232.691406 222.699219 232.65625 222.707031 232.660156 " fill-opacity="1" fill-rule="nonzero"/><path fill="#100f0d" d="M 232.660156 226.378906 C 232.640625 225.925781 232.628906 225.476562 232.621094 225.023438 C 232.613281 224.570312 232.609375 224.117188 232.597656 223.660156 C 232.511719 224.109375 232.464844 224.5625 232.4375 225.019531 C 232.414062 225.472656 232.40625 225.933594 232.425781 226.386719 C 232.445312 226.84375 232.484375 227.300781 232.546875 227.75 C 232.5625 227.878906 232.582031 228.007812 232.605469 228.136719 C 232.628906 228.007812 232.652344 227.894531 232.671875 227.789062 C 232.695312 227.851562 232.71875 227.914062 232.742188 227.980469 C 232.738281 227.898438 232.730469 227.816406 232.726562 227.734375 C 232.699219 227.28125 232.675781 226.832031 232.660156 226.378906 " fill-opacity="1" fill-rule="nonzero"/><g fill="#24469d" fill-opacity="1"><g transform="translate(199.494387, 287.188608)"><g/></g></g><g fill="#24469d" fill-opacity="1"><g transform="translate(202.491544, 287.188608)"><g><path d="M 1.261719 1.507812 L 2.851562 1.507812 L 2.851562 -6.277344 L 0.503906 -6.277344 L 0.503906 -4.96875 L 1.261719 -4.96875 Z M 1.261719 1.507812 "/></g></g></g><g fill="#24469d" fill-opacity="1"><g transform="translate(206.522767, 287.188608)"><g><path d="M 1.425781 0.0820312 C 2.511719 0.0820312 3.507812 -0.328125 3.507812 -2.105469 L 3.507812 -4.96875 L 4.992188 -4.96875 C 5.65625 -4.96875 5.984375 -4.582031 5.984375 -3.867188 L 5.984375 0 L 7.550781 0 L 7.550781 -3.832031 C 7.550781 -4.558594 7.457031 -4.933594 7.316406 -5.214844 C 7 -5.832031 6.347656 -6.277344 5.363281 -6.277344 L 0.539062 -6.277344 L 0.539062 -4.96875 L 1.941406 -4.96875 L 1.941406 -2.3125 C 1.941406 -1.390625 1.578125 -1.226562 1.0625 -1.226562 C 0.851562 -1.226562 0.703125 -1.25 0.550781 -1.285156 L 0.550781 -0.046875 C 0.875 0.0585938 1.191406 0.0820312 1.425781 0.0820312 Z M 1.425781 0.0820312 "/></g></g></g><g fill="#24469d" fill-opacity="1"><g transform="translate(215.157587, 287.188608)"><g><path d="M 0.851562 0 L 2.417969 0 L 2.417969 -4.96875 L 4.171875 -4.96875 C 4.839844 -4.96875 5.179688 -4.582031 5.179688 -3.867188 L 5.179688 0 L 6.746094 0 L 6.746094 -3.824219 C 6.746094 -4.558594 6.640625 -4.921875 6.5 -5.214844 C 6.171875 -5.855469 5.515625 -6.277344 4.558594 -6.277344 L 0.851562 -6.277344 Z M 0.851562 0 "/></g></g></g><g fill="#24469d" fill-opacity="1"><g transform="translate(222.997878, 287.188608)"><g><path d="M 4.910156 0 L 6.476562 0 L 6.476562 -3.824219 C 6.476562 -4.558594 6.371094 -4.921875 6.230469 -5.214844 C 5.914062 -5.855469 5.25 -6.277344 4.289062 -6.277344 L 0.78125 -6.277344 L 0.78125 -4.96875 L 3.902344 -4.96875 C 4.570312 -4.96875 4.910156 -4.582031 4.910156 -3.867188 Z M 0.78125 0 L 2.347656 0 L 2.347656 -3.238281 L 0.78125 -3.238281 Z M 0.78125 0 "/></g></g></g><g fill="#24469d" fill-opacity="1"><g transform="translate(230.557743, 287.188608)"><g/></g></g><g fill="#24469d" fill-opacity="1"><g transform="translate(233.560762, 287.188608)"><g><path d="M 1.261719 -2.199219 L 2.828125 -2.199219 L 2.828125 -6.277344 L 0.550781 -6.277344 L 0.550781 -4.96875 L 1.261719 -4.96875 Z M 1.261719 -2.199219 "/></g></g></g><g fill="#24469d" fill-opacity="1"><g transform="translate(237.568616, 287.188608)"><g><path d="M 3.648438 0 L 5.214844 0 L 5.214844 -3.824219 C 5.214844 -4.558594 5.109375 -4.921875 4.96875 -5.214844 C 4.640625 -5.867188 3.984375 -6.277344 3.039062 -6.277344 L 0.433594 -6.277344 L 0.433594 -4.96875 L 2.640625 -4.96875 C 3.320312 -4.96875 3.648438 -4.582031 3.648438 -3.867188 Z M 3.648438 0 "/></g></g></g><g fill="#24469d" fill-opacity="1"><g transform="translate(243.866582, 287.188608)"><g><path d="M 1.308594 0 L 2.898438 0 L 2.898438 -6.277344 L 0.597656 -6.277344 L 0.597656 -4.96875 L 1.308594 -4.96875 Z M 1.308594 0 "/></g></g></g><g fill="#24469d" fill-opacity="1"><g transform="translate(247.932859, 287.188608)"><g><path d="M 4.910156 0 L 6.476562 0 L 6.476562 -3.824219 C 6.476562 -4.558594 6.371094 -4.921875 6.230469 -5.214844 C 5.914062 -5.855469 5.25 -6.277344 4.289062 -6.277344 L 0.78125 -6.277344 L 0.78125 -4.96875 L 3.902344 -4.96875 C 4.570312 -4.96875 4.910156 -4.582031 4.910156 -3.867188 Z M 0.78125 0 L 2.347656 0 L 2.347656 -3.238281 L 0.78125 -3.238281 Z M 0.78125 0 "/></g></g></g><g fill="#24469d" fill-opacity="1"><g transform="translate(191.802464, 304.422261)"><g><path d="M 3.648438 0 L 5.214844 0 L 5.214844 -3.824219 C 5.214844 -4.558594 5.109375 -4.921875 4.96875 -5.214844 C 4.640625 -5.867188 3.984375 -6.277344 3.039062 -6.277344 L 0.433594 -6.277344 L 0.433594 -4.96875 L 2.640625 -4.96875 C 3.320312 -4.96875 3.648438 -4.582031 3.648438 -3.867188 Z M 3.648438 0 "/></g></g></g><g fill="#24469d" fill-opacity="1"><g transform="translate(198.100432, 304.422261)"><g><path d="M 0.492188 0 L 2.128906 0 C 2.175781 -0.386719 2.234375 -0.714844 2.300781 -1.15625 C 2.40625 -1.71875 2.441406 -2.347656 3.074219 -2.6875 L 5.074219 0 L 6.90625 0 L 4.78125 -2.863281 C 6.054688 -3.226562 6.371094 -4.054688 6.605469 -5.285156 C 6.675781 -5.621094 6.734375 -5.972656 6.78125 -6.277344 L 5.167969 -6.277344 C 5.121094 -5.984375 5.085938 -5.65625 5.039062 -5.34375 C 4.945312 -4.699219 4.875 -4.078125 4.113281 -3.777344 L 2.257812 -6.277344 L 0.421875 -6.277344 L 2.371094 -3.636719 C 1.226562 -3.25 0.957031 -2.40625 0.738281 -1.308594 C 0.644531 -0.839844 0.5625 -0.410156 0.492188 0 Z M 0.492188 0 "/></g></g></g><g fill="#24469d" fill-opacity="1"><g transform="translate(205.753776, 304.422261)"><g><path d="M 0.945312 0 L 2.839844 0 C 5.25 0 6.523438 -1.203125 6.523438 -3.425781 C 6.523438 -5.398438 5.46875 -6.464844 3.496094 -6.464844 C 1.695312 -6.464844 0.492188 -5.492188 0.492188 -4.042969 C 0.492188 -2.40625 2.035156 -1.976562 2.816406 -1.976562 L 2.816406 -3.25 C 2.347656 -3.332031 1.976562 -3.578125 1.976562 -4.101562 C 1.976562 -4.734375 2.511719 -5.15625 3.378906 -5.15625 C 4.429688 -5.15625 4.992188 -4.570312 4.992188 -3.332031 C 4.992188 -1.800781 4.265625 -1.296875 2.582031 -1.296875 L 0.945312 -1.296875 Z M 0.945312 0 "/></g></g></g><g fill="#24469d" fill-opacity="1"><g transform="translate(213.091644, 304.422261)"><g/></g></g><g fill="#24469d" fill-opacity="1"><g transform="translate(216.094663, 304.422261)"><g><path d="M 4.910156 0 L 6.476562 0 L 6.476562 -3.824219 C 6.476562 -4.558594 6.371094 -4.921875 6.230469 -5.214844 C 5.914062 -5.855469 5.25 -6.277344 4.289062 -6.277344 L 0.78125 -6.277344 L 0.78125 -4.96875 L 3.902344 -4.96875 C 4.570312 -4.96875 4.910156 -4.582031 4.910156 -3.867188 Z M 0.78125 0 L 2.347656 0 L 2.347656 -3.238281 L 0.78125 -3.238281 Z M 0.78125 0 "/></g></g></g><g fill="#24469d" fill-opacity="1"><g transform="translate(223.654529, 304.422261)"><g><path d="M 1.261719 -2.199219 L 2.828125 -2.199219 L 2.828125 -6.277344 L 0.550781 -6.277344 L 0.550781 -4.96875 L 1.261719 -4.96875 Z M 1.261719 -2.199219 "/></g></g></g><g fill="#24469d" fill-opacity="1"><g transform="translate(227.662382, 304.422261)"><g><path d="M 0.851562 0 L 2.417969 0 L 2.417969 -4.96875 L 4.171875 -4.96875 C 4.839844 -4.96875 5.179688 -4.582031 5.179688 -3.867188 L 5.179688 0 L 6.746094 0 L 6.746094 -3.824219 C 6.746094 -4.558594 6.640625 -4.921875 6.5 -5.214844 C 6.171875 -5.855469 5.515625 -6.277344 4.558594 -6.277344 L 0.851562 -6.277344 Z M 0.851562 0 "/></g></g></g><g fill="#24469d" fill-opacity="1"><g transform="translate(235.502671, 304.422261)"><g><path d="M 1.308594 0 L 2.898438 0 L 2.898438 -6.277344 L 0.597656 -6.277344 L 0.597656 -4.96875 L 1.308594 -4.96875 Z M 1.308594 0 "/></g></g></g><g fill="#24469d" fill-opacity="1"><g transform="translate(239.568948, 304.422261)"><g/></g></g><g fill="#24469d" fill-opacity="1"><g transform="translate(242.571967, 304.422261)"><g><path d="M 1.261719 -2.199219 L 2.828125 -2.199219 L 2.828125 -6.277344 L 0.550781 -6.277344 L 0.550781 -4.96875 L 1.261719 -4.96875 Z M 1.261719 -2.199219 "/></g></g></g><g fill="#24469d" fill-opacity="1"><g transform="translate(246.579823, 304.422261)"><g><path d="M 1.847656 0 L 3.601562 0 C 2.933594 -1.730469 2.371094 -3.109375 2.371094 -3.9375 C 2.371094 -4.523438 2.652344 -4.96875 3.308594 -4.96875 L 4.089844 -4.96875 L 4.089844 -6.277344 L 0.398438 -6.277344 L 0.398438 -4.96875 L 1.566406 -4.96875 C 1.25 -4.617188 1.050781 -4.089844 1.050781 -3.378906 C 1.050781 -2.382812 1.460938 -1.167969 1.847656 0 Z M 1.847656 0 "/></g></g></g><g fill="#24469d" fill-opacity="1"><g transform="translate(251.510742, 304.422261)"><g><path d="M 1.308594 0 L 2.898438 0 L 2.898438 -6.277344 L 0.597656 -6.277344 L 0.597656 -4.96875 L 1.308594 -4.96875 Z M 1.308594 0 "/></g></g></g><g fill="#24469d" fill-opacity="1"><g transform="translate(255.577022, 304.422261)"><g><path d="M 0.667969 0 L 2.605469 0 C 5.085938 0 6.089844 -0.886719 6.40625 -2.945312 C 6.5 -3.589844 6.535156 -4.429688 6.546875 -5.109375 C 6.558594 -5.585938 6.558594 -5.9375 6.558594 -6.277344 L 4.945312 -6.277344 L 4.945312 -5.25 C 4.945312 -4.335938 4.875 -3.085938 4.6875 -2.441406 C 4.570312 -1.90625 4.394531 -1.625 4.078125 -1.472656 L 2.234375 -6.277344 L 0.527344 -6.277344 L 2.5 -1.308594 L 0.667969 -1.308594 Z M 0.667969 0 "/></g></g></g></svg>