<svg xmlns="http://www.w3.org/2000/svg" xmlns:xlink="http://www.w3.org/1999/xlink" zoomAndPan="magnify" preserveAspectRatio="xMidYMid meet" version="1.0" viewBox="97.29 235 35.97 58.29"><defs><clipPath id="c7b23050cc"><path d="M 97.285156 235 L 133.253906 235 L 133.253906 293.292969 L 97.285156 293.292969 Z M 97.285156 235 " clip-rule="nonzero"/></clipPath></defs><g clip-path="url(#c7b23050cc)"><path fill="#c92a2a" d="M 115.332031 293.292969 C 114.003906 286.78125 111.660156 281.359375 108.828125 276.339844 C 106.722656 272.613281 104.285156 269.171875 102.03125 265.5625 C 101.277344 264.355469 100.628906 263.082031 99.90625 261.828125 C 98.460938 259.328125 97.289062 256.425781 97.363281 252.660156 C 97.433594 248.984375 98.5 246.03125 100.035156 243.621094 C 102.558594 239.652344 106.789062 236.398438 112.464844 235.546875 C 117.105469 234.847656 121.457031 236.027344 124.539062 237.828125 C 127.0625 239.300781 129.015625 241.269531 130.496094 243.589844 C 132.046875 246.007812 133.113281 248.867188 133.203125 252.597656 C 133.25 254.507812 132.933594 256.277344 132.496094 257.742188 C 132.046875 259.230469 131.328125 260.46875 130.691406 261.796875 C 129.445312 264.386719 127.878906 266.757812 126.3125 269.132812 C 121.636719 276.203125 117.25 283.410156 115.332031 293.292969 Z M 115.332031 293.292969 " fill-opacity="1" fill-rule="evenodd"/></g><path fill="#ffffff" d="M 121.5625 252.621094 C 121.5625 253.03125 121.523438 253.441406 121.441406 253.84375 C 121.363281 254.246094 121.242188 254.640625 121.085938 255.019531 C 120.925781 255.402344 120.734375 255.761719 120.503906 256.105469 C 120.273438 256.449219 120.015625 256.765625 119.722656 257.054688 C 119.433594 257.347656 119.113281 257.605469 118.773438 257.835938 C 118.429688 258.066406 118.066406 258.257812 117.6875 258.414062 C 117.304688 258.574219 116.914062 258.691406 116.507812 258.773438 C 116.105469 258.851562 115.695312 258.894531 115.285156 258.894531 C 114.871094 258.894531 114.460938 258.851562 114.058594 258.773438 C 113.652344 258.691406 113.261719 258.574219 112.878906 258.414062 C 112.5 258.257812 112.136719 258.066406 111.792969 257.835938 C 111.453125 257.605469 111.132812 257.347656 110.84375 257.054688 C 110.550781 256.765625 110.292969 256.449219 110.0625 256.105469 C 109.832031 255.761719 109.640625 255.402344 109.480469 255.019531 C 109.324219 254.640625 109.203125 254.246094 109.125 253.84375 C 109.042969 253.441406 109.003906 253.03125 109.003906 252.621094 C 109.003906 252.207031 109.042969 251.800781 109.125 251.394531 C 109.203125 250.992188 109.324219 250.597656 109.480469 250.21875 C 109.640625 249.839844 109.832031 249.476562 110.0625 249.132812 C 110.292969 248.792969 110.550781 248.476562 110.84375 248.183594 C 111.132812 247.890625 111.453125 247.632812 111.792969 247.402344 C 112.136719 247.175781 112.5 246.980469 112.878906 246.824219 C 113.261719 246.664062 113.652344 246.546875 114.058594 246.464844 C 114.460938 246.386719 114.871094 246.347656 115.285156 246.347656 C 115.695312 246.347656 116.105469 246.386719 116.507812 246.464844 C 116.914062 246.546875 117.304688 246.664062 117.6875 246.824219 C 118.066406 246.980469 118.429688 247.175781 118.773438 247.402344 C 119.113281 247.632812 119.433594 247.890625 119.722656 248.183594 C 120.015625 248.476562 120.273438 248.792969 120.503906 249.132812 C 120.734375 249.476562 120.925781 249.839844 121.085938 250.21875 C 121.242188 250.597656 121.363281 250.992188 121.441406 251.394531 C 121.523438 251.800781 121.5625 252.207031 121.5625 252.621094 Z M 121.5625 252.621094 " fill-opacity="1" fill-rule="nonzero"/></svg>