<svg xmlns="http://www.w3.org/2000/svg" xmlns:xlink="http://www.w3.org/1999/xlink" zoomAndPan="magnify" preserveAspectRatio="xMidYMid meet" version="1.0" viewBox="43.91 56.25 68.25 66.69"><defs><g/><clipPath id="5e6ab90db4"><path d="M 80 122 L 82 122 L 82 122.941406 L 80 122.941406 Z M 80 122 " clip-rule="nonzero"/></clipPath><clipPath id="f98041c374"><path d="M 112 84 L 112.152344 84 L 112.152344 85 L 112 85 Z M 112 84 " clip-rule="nonzero"/></clipPath><clipPath id="8eb290700f"><path d="M 43.964844 56.253906 L 112 56.253906 L 112 122.941406 L 43.964844 122.941406 Z M 43.964844 56.253906 " clip-rule="nonzero"/></clipPath><clipPath id="28681ed0d7"><path d="M 75 122 L 77 122 L 77 122.941406 L 75 122.941406 Z M 75 122 " clip-rule="nonzero"/></clipPath><clipPath id="870762b16b"><path d="M 79 122 L 81 122 L 81 122.941406 L 79 122.941406 Z M 79 122 " clip-rule="nonzero"/></clipPath></defs><path fill="#144363" d="M 70.664062 108.859375 C 70.410156 108.941406 70.390625 108.859375 70.09375 108.953125 C 69.800781 109.042969 69.8125 108.78125 69.871094 108.738281 C 69.933594 108.699219 69.617188 108.597656 69.476562 108.660156 C 69.6875 108.898438 69.957031 109.015625 70.277344 109 C 70.277344 109.0625 70.277344 109.082031 70.226562 109.113281 C 70.460938 109.0625 70.746094 109.011719 70.664062 108.859375 Z M 70.664062 108.859375 " fill-opacity="1" fill-rule="nonzero"/><path fill="#144363" d="M 97.542969 99.78125 C 97.542969 99.863281 97.542969 99.902344 97.542969 99.914062 C 97.542969 99.925781 97.566406 99.78125 97.542969 99.78125 Z M 97.542969 99.78125 " fill-opacity="1" fill-rule="nonzero"/><path fill="#144363" d="M 88.03125 107.851562 L 88.324219 107.75 C 88.3125 107.710938 88.171875 107.851562 88.03125 107.851562 Z M 88.03125 107.851562 " fill-opacity="1" fill-rule="nonzero"/><path fill="#144363" d="M 83.414062 109.988281 L 83.324219 110.019531 L 83.273438 110.109375 Z M 83.414062 109.988281 " fill-opacity="1" fill-rule="nonzero"/><path fill="#144363" d="M 69.019531 108.660156 L 68.960938 108.660156 C 68.957031 108.683594 68.957031 108.707031 68.960938 108.730469 Z M 69.019531 108.660156 " fill-opacity="1" fill-rule="nonzero"/><path fill="#144363" d="M 99.898438 94.738281 C 99.878906 94.820312 99.898438 94.738281 99.898438 94.738281 Z M 99.898438 94.738281 " fill-opacity="1" fill-rule="nonzero"/><path fill="#144363" d="M 82.042969 69.324219 C 82.390625 69.515625 81.40625 69.382812 81.933594 69.625 C 81.894531 69.523438 82.511719 69.523438 82.042969 69.324219 Z M 82.042969 69.324219 " fill-opacity="1" fill-rule="nonzero"/><path fill="#144363" d="M 98.945312 83.058594 C 98.984375 83.113281 99.003906 83.175781 99.003906 83.242188 C 99 83.175781 98.980469 83.117188 98.945312 83.058594 Z M 98.945312 83.058594 " fill-opacity="1" fill-rule="nonzero"/><path fill="#144363" d="M 97.6875 80.207031 L 97.6875 80.277344 L 97.746094 80.355469 Z M 97.6875 80.207031 " fill-opacity="1" fill-rule="nonzero"/><path fill="#144363" d="M 61.046875 98.441406 C 61.035156 98.511719 61.011719 98.578125 60.976562 98.644531 C 61.058594 98.550781 61.269531 98.964844 61.046875 98.441406 Z M 61.046875 98.441406 " fill-opacity="1" fill-rule="nonzero"/><path fill="#144363" d="M 72.824219 109.457031 L 72.710938 109.457031 C 72.710938 109.457031 72.710938 109.457031 72.710938 109.515625 C 72.730469 109.460938 72.765625 109.441406 72.824219 109.457031 Z M 72.824219 109.457031 " fill-opacity="1" fill-rule="nonzero"/><path fill="#144363" d="M 97.109375 81.679688 C 97.125 81.578125 97.125 81.476562 97.109375 81.375 L 97.046875 81.375 Z M 97.109375 81.679688 " fill-opacity="1" fill-rule="nonzero"/><path fill="#144363" d="M 67.46875 108.011719 C 68.007812 108.355469 67.214844 108.265625 68.046875 108.699219 C 68.371094 108.832031 69.0625 108.929688 68.929688 108.820312 C 68.796875 108.710938 68.644531 108.617188 68.664062 108.539062 L 68.960938 108.636719 C 69.035156 108.5625 69.101562 108.480469 69.152344 108.386719 C 69.179688 108.4375 69.21875 108.464844 69.273438 108.476562 L 69.464844 108.367188 L 69.183594 108.304688 C 69.183594 108.195312 69.132812 108.042969 68.847656 107.8125 L 68.320312 107.710938 L 68.230469 107.527344 L 68.625 107.71875 C 68.480469 107.554688 68.296875 107.480469 68.078125 107.5 C 68.0625 107.414062 68.023438 107.339844 67.957031 107.285156 L 67.386719 107.285156 C 67.386719 107.175781 67.671875 107.285156 67.386719 107.023438 C 67.132812 107.023438 67.46875 107.328125 67.09375 107.175781 C 66.949219 106.945312 67.09375 106.902344 66.757812 106.832031 C 66.757812 106.753906 66.839844 106.753906 66.949219 106.832031 C 66.6875 106.753906 66.363281 106.488281 66.171875 106.519531 C 66.027344 106.277344 65.429688 106.066406 65.59375 105.886719 C 65.355469 105.828125 65.136719 105.734375 64.933594 105.601562 C 65.449219 105.601562 64.253906 105.039062 64.535156 104.875 C 64.109375 104.875 63.632812 104.171875 63.128906 103.867188 C 63.179688 103.878906 63.230469 103.902344 63.269531 103.9375 C 63.132812 103.777344 63.023438 103.605469 62.933594 103.414062 C 62.75 103.523438 62.398438 103.171875 62.121094 103.039062 C 62.019531 102.617188 62.46875 103.039062 62.527344 102.847656 C 62.417969 102.980469 61.96875 102.445312 61.941406 102.628906 C 61.847656 102.324219 61.828125 102.394531 61.859375 102.171875 C 61.625 102.285156 61.636719 101.992188 61.382812 101.882812 C 61.242188 101.445312 61.515625 101.648438 61.179688 101.296875 C 61.117188 101.074219 61.433594 101.367188 61.433594 101.367188 C 61.167969 100.964844 61.148438 101.285156 60.996094 101.265625 C 60.621094 100.820312 60.996094 100.964844 60.996094 100.75 C 60.742188 100.488281 60.4375 100.347656 60.328125 100.105469 C 60.328125 100.105469 60.328125 100.015625 60.386719 100.054688 C 60.074219 99.792969 59.839844 99.046875 59.453125 98.765625 C 59.445312 98.742188 59.445312 98.71875 59.453125 98.695312 C 59.410156 98.785156 59.339844 98.84375 59.242188 98.875 C 59.152344 98.671875 58.96875 98.542969 59.050781 98.421875 C 59.101562 98.542969 59.152344 98.53125 59.210938 98.574219 L 59.070312 98.382812 C 59.160156 98.117188 59.253906 98.644531 59.375 98.59375 C 59.113281 98.234375 58.890625 97.855469 58.703125 97.453125 C 58.847656 97.320312 59.078125 98.160156 59.050781 97.683594 L 59.203125 98.1875 C 59.292969 97.707031 59.304688 98.492188 59.433594 98.027344 C 59.222656 97.382812 59.019531 97.371094 58.847656 96.707031 C 58.703125 96.597656 58.726562 96.808594 58.582031 96.707031 C 58.105469 95.828125 58.773438 95.839844 58.328125 95.222656 C 58.15625 95.082031 57.933594 95.0625 57.933594 94.527344 L 58.167969 94.660156 C 58.046875 94.003906 57.800781 94.347656 57.78125 93.652344 C 57.894531 93.761719 57.964844 94.15625 57.964844 94.054688 C 58.023438 93.582031 57.78125 93.761719 57.710938 93.417969 L 57.871094 93.316406 C 57.78125 92.613281 57.496094 91.855469 57.445312 91.070312 C 57.496094 91.070312 57.558594 91.238281 57.609375 91.070312 C 57.574219 90.554688 57.574219 90.039062 57.609375 89.527344 C 57.679688 89 57.769531 88.515625 57.863281 88.011719 L 57.730469 87.640625 C 57.730469 87.546875 57.820312 87.488281 57.832031 87.578125 C 57.964844 87.226562 57.742188 87.578125 57.710938 87.367188 C 57.679688 87.15625 57.851562 87.105469 57.871094 87.246094 C 57.777344 86.351562 57.902344 85.488281 58.246094 84.652344 L 58.246094 84.796875 C 58.449219 84.289062 58.105469 84.121094 58.378906 83.675781 L 58.378906 83.777344 C 58.710938 82.6875 59.210938 81.679688 59.871094 80.75 C 59.75 80.488281 60.488281 79.742188 60.285156 79.5625 C 60.664062 79.261719 61 78.925781 61.300781 78.550781 C 61.441406 78.351562 61.363281 78.136719 61.535156 77.875 L 61.667969 77.96875 L 61.796875 77.535156 L 62.09375 77.484375 L 62.246094 77.21875 C 62.164062 77.3125 62.03125 77.371094 62.011719 77.332031 C 62.234375 76.90625 62.8125 76.542969 62.894531 76.605469 L 63.554688 75.75 C 63.554688 75.808594 63.472656 75.949219 63.402344 76.082031 C 63.683594 75.554688 63.59375 76.132812 63.855469 75.648438 C 63.785156 75.648438 63.855469 75.546875 63.855469 75.515625 C 64.234375 75.292969 64.570312 75.023438 64.871094 74.710938 L 64.871094 74.851562 C 65.519531 74.296875 66.199219 73.78125 66.898438 73.296875 C 66.605469 73.4375 66.566406 73.226562 66.769531 73.066406 L 66.949219 73.144531 C 67.03125 72.964844 66.6875 73.246094 66.949219 72.945312 C 67.253906 72.792969 67.253906 72.996094 67.113281 73.136719 L 67.4375 72.894531 C 67.488281 72.894531 67.4375 72.996094 67.4375 73.066406 C 67.527344 72.882812 68.136719 72.875 68.257812 72.601562 C 68.847656 72.265625 69.453125 71.960938 70.074219 71.695312 C 70.074219 71.542969 70.308594 71.460938 70.460938 71.261719 C 71.054688 71.160156 71.640625 71.027344 72.214844 70.855469 C 72.640625 70.664062 72.316406 70.707031 72.488281 70.574219 C 72.558594 70.695312 73.1875 70.574219 72.886719 70.707031 C 73.644531 70.542969 73.839844 70.414062 74.8125 70.210938 C 74.699219 70.160156 74.570312 70.160156 74.628906 70.101562 C 74.691406 70.039062 75.046875 70.101562 75.027344 70.179688 C 76.121094 69.796875 77.589844 70.382812 78.464844 70.128906 L 78.414062 70.128906 L 79.335938 70.050781 C 79.761719 70.109375 79.082031 70.140625 79.335938 70.242188 C 80.351562 70.058594 80.867188 70.503906 81.691406 70.472656 C 82.207031 70.996094 83.878906 70.957031 84.570312 71.5625 L 84.570312 71.441406 C 84.804688 71.441406 84.792969 71.59375 84.9375 71.671875 C 84.9375 71.59375 84.742188 71.5 84.9375 71.5 C 86.753906 72.183594 88.363281 73.191406 89.765625 74.527344 C 90.28125 74.972656 90.382812 74.398438 90.921875 75.113281 L 90.605469 75.113281 C 91.1875 75.523438 91.722656 75.984375 92.207031 76.503906 C 92.648438 77.050781 93.117188 77.578125 93.609375 78.078125 C 93.539062 78.078125 93.496094 78.078125 93.40625 77.957031 C 93.488281 78.257812 94.003906 78.835938 94.105469 78.785156 C 94.21875 78.964844 94.105469 78.875 94.105469 79.015625 C 94.105469 79.15625 94.664062 79.519531 94.621094 79.722656 C 94.621094 79.722656 94.550781 79.671875 94.511719 79.632812 C 94.652344 79.761719 94.917969 80.40625 94.96875 80.175781 C 95.140625 80.660156 95.515625 81.003906 95.605469 81.417969 C 95.859375 81.589844 95.878906 82.253906 96.132812 82.242188 C 95.890625 82.304688 96.328125 83.132812 96.5 83.414062 C 96.398438 83.332031 96.5 83.707031 96.386719 83.613281 C 96.5 83.96875 96.652344 84.28125 96.742188 84.179688 C 96.742188 84.894531 97.320312 85.460938 97.058594 85.914062 C 97.25 86.414062 97.394531 86.929688 97.484375 87.457031 C 97.59375 87.941406 97.675781 88.429688 97.726562 88.921875 C 97.515625 88.921875 97.613281 87.832031 97.363281 87.910156 C 97.605469 88.6875 97.730469 89.480469 97.726562 90.292969 C 97.726562 90.535156 97.613281 90.160156 97.574219 90.082031 C 97.675781 91.019531 97.472656 91.886719 97.492188 92.734375 C 97.492188 92.734375 97.492188 92.632812 97.492188 92.550781 C 97.492188 92.710938 97.390625 92.925781 97.492188 92.914062 L 97.492188 92.722656 C 97.695312 92.480469 97.707031 93.429688 97.777344 93.46875 C 97.523438 93.136719 97.554688 94.285156 97.25 93.761719 C 97.25 93.871094 97.25 94.023438 97.351562 94.015625 C 97.351562 94.164062 97.25 94.207031 97.199219 94.015625 C 97.199219 94.609375 97.28125 94.417969 97.199219 94.941406 C 97.148438 94.941406 97.199219 94.820312 97.109375 94.75 C 97.160156 95.097656 97.121094 95.433594 96.996094 95.757812 C 96.996094 95.757812 96.914062 95.757812 96.996094 95.628906 C 96.863281 96.375 96.621094 97.089844 96.277344 97.765625 C 96.15625 97.441406 96.09375 98.007812 95.902344 97.96875 C 95.902344 97.96875 95.757812 98.410156 95.757812 98.410156 L 95.929688 98.289062 C 95.804688 98.636719 95.65625 98.972656 95.484375 99.300781 L 95.546875 98.996094 L 95.230469 99.691406 L 95.496094 99.339844 C 95.394531 99.753906 95.738281 99.421875 95.433594 99.882812 C 95.433594 99.773438 95.25 100.246094 95.027344 100.359375 C 94.972656 100.597656 94.863281 100.8125 94.703125 101.003906 C 94.601562 101.003906 94.550781 100.832031 94.492188 100.84375 C 94.492188 101.105469 94.015625 101.679688 93.992188 101.972656 C 93.992188 101.882812 93.933594 101.820312 93.902344 101.832031 L 93.902344 102.042969 C 93.75 102.164062 93.710938 102.171875 93.667969 102.09375 C 93.292969 102.515625 93.984375 102.09375 93.464844 102.566406 C 93.464844 102.515625 93.464844 102.566406 93.515625 102.425781 C 93.136719 102.949219 92.71875 103.441406 92.257812 103.898438 C 91.984375 103.898438 92.605469 103.472656 92.332031 103.515625 C 91.792969 104.261719 91.171875 104.933594 90.472656 105.53125 L 90.617188 105.441406 C 90.699219 105.734375 90.027344 105.765625 89.765625 106.128906 C 89.84375 106.054688 89.765625 105.925781 89.765625 105.964844 C 89.175781 106.363281 88.617188 106.800781 88.089844 107.277344 L 88.152344 107.15625 C 87.804688 107.265625 87.320312 107.570312 86.964844 107.71875 C 86.902344 107.839844 86.710938 107.933594 86.875 107.960938 C 85.644531 108.105469 84.925781 109.121094 83.828125 109.09375 C 83.941406 109.09375 84.082031 108.941406 83.992188 108.972656 L 83.171875 109.304688 C 83.273438 109.40625 83.300781 109.304688 83.503906 109.375 C 83.355469 109.515625 83.183594 109.617188 82.988281 109.675781 C 83.34375 109.476562 82.925781 109.507812 82.746094 109.464844 C 82.746094 109.464844 82.746094 109.546875 82.746094 109.585938 C 82.238281 109.476562 82.746094 109.839844 82.074219 109.828125 L 82.074219 109.769531 C 81.859375 109.875 81.632812 109.957031 81.394531 110.011719 C 81.265625 109.898438 81.628906 109.898438 81.617188 109.777344 C 81.273438 109.859375 80.980469 110.210938 80.605469 110.089844 C 80.777344 110.050781 80.945312 109.996094 81.113281 109.929688 C 80.90625 109.871094 80.695312 109.851562 80.484375 109.867188 L 79.894531 109.867188 L 80.058594 109.867188 C 79.652344 110.273438 79.152344 110.082031 78.566406 110.3125 C 79.144531 110.070312 78.65625 110.183594 78.6875 110.019531 C 78.535156 110.019531 78.300781 109.929688 78.363281 109.890625 C 78.078125 110.019531 77.886719 109.796875 77.492188 109.988281 C 77.492188 109.988281 77.1875 109.988281 77.257812 109.867188 C 76.882812 109.867188 77.339844 109.949219 77.257812 110.019531 C 76.679688 110.210938 75.9375 109.71875 75.097656 109.910156 C 74.386719 109.910156 74.234375 110.039062 73.554688 110.019531 C 73.351562 109.898438 73.769531 109.867188 73.769531 109.867188 C 73.460938 109.753906 73.140625 109.691406 72.8125 109.675781 C 72.894531 109.675781 72.8125 109.597656 72.753906 109.515625 C 72.488281 109.457031 72.53125 109.648438 72.207031 109.515625 C 72.300781 109.457031 72.402344 109.414062 72.511719 109.394531 C 72.195312 109.394531 71.871094 109.394531 71.496094 109.3125 C 71.433594 109.203125 71.730469 109.234375 71.851562 109.214844 C 71.492188 109.121094 71.125 109.089844 70.753906 109.113281 L 70.957031 109.242188 C 70.835938 109.242188 70.957031 109.113281 71.039062 109.113281 C 71.382812 109.113281 71.464844 109.285156 71.464844 109.34375 L 71.230469 109.34375 C 71.375 109.707031 72.164062 109.554688 72.609375 109.707031 L 72.367188 109.859375 L 72.886719 109.859375 C 72.976562 109.941406 73.015625 110.082031 72.785156 110.050781 C 73.089844 110.230469 73.097656 110.050781 73.363281 110.203125 L 73.707031 110.203125 C 73.636719 110.203125 73.707031 110.363281 73.535156 110.300781 C 74.121094 110.535156 74.546875 110.300781 74.730469 110.515625 C 75.582031 110.515625 74.832031 110.375 75.480469 110.242188 L 75.867188 110.664062 L 75.96875 110.515625 C 76.050781 110.515625 76.222656 110.515625 76.191406 110.617188 C 76.515625 110.523438 76.140625 110.542969 76.332031 110.453125 C 76.738281 110.644531 77.480469 110.453125 77.570312 110.675781 C 77.722656 110.542969 77.175781 110.585938 77.621094 110.496094 C 77.753906 110.765625 78.128906 110.433594 78.515625 110.554688 C 78.402344 110.695312 78.039062 110.625 78.433594 110.746094 C 78.648438 110.503906 79.183594 110.746094 79.507812 110.6875 C 79.507812 110.625 79.578125 110.585938 79.679688 110.566406 C 79.640625 110.625 79.582031 110.667969 79.507812 110.6875 C 79.496094 110.714844 79.496094 110.746094 79.507812 110.777344 C 79.589844 110.777344 79.609375 110.625 79.628906 110.554688 C 79.875 110.496094 80.308594 110.472656 80.644531 110.394531 C 81.164062 110.394531 81.675781 110.351562 82.1875 110.261719 C 82.1875 110.039062 82.765625 110 83.109375 109.839844 C 83.109375 109.949219 83.109375 110.019531 82.886719 110.121094 L 83.230469 110.019531 C 83.335938 109.90625 83.460938 109.824219 83.605469 109.777344 L 83.605469 109.941406 C 84.085938 109.714844 84.582031 109.523438 85.085938 109.363281 C 85.085938 109.234375 84.507812 109.203125 85.085938 108.871094 C 85.085938 108.929688 85.210938 109.042969 85.085938 109.132812 C 85.164062 109.0625 85.253906 109.011719 85.351562 108.980469 L 85.167969 109.203125 C 85.441406 109.144531 85.261719 109.042969 85.464844 108.972656 C 85.464844 109.070312 85.644531 108.972656 85.644531 109.0625 C 85.644531 109.152344 85.453125 109.0625 85.390625 109.171875 C 85.605469 109.085938 85.828125 109.046875 86.0625 109.0625 C 86.0625 109.011719 86 108.929688 86.164062 108.839844 C 86.597656 108.648438 86.367188 108.890625 86.648438 108.839844 C 86.730469 108.738281 87.035156 108.660156 86.964844 108.515625 C 87.085938 108.445312 87.148438 108.515625 87.21875 108.515625 C 87.402344 108.347656 88.230469 107.953125 87.898438 107.941406 L 87.835938 107.941406 C 88.476562 107.457031 89.289062 107.125 89.925781 106.632812 C 90.304688 106.335938 90.640625 105.996094 90.941406 105.621094 C 91.042969 105.53125 91.253906 105.480469 91.253906 105.5625 C 91.453125 105.320312 91.679688 105.113281 91.933594 104.9375 C 91.742188 105.257812 92.085938 104.9375 91.722656 105.25 C 92.042969 105.050781 92.296875 104.789062 92.484375 104.464844 C 92.484375 104.675781 92.859375 104.320312 92.988281 104.128906 L 92.683594 104.300781 C 92.839844 104.125 93.003906 103.960938 93.183594 103.808594 L 93.183594 104.007812 C 93.984375 103.382812 94.042969 102.4375 94.753906 101.992188 C 94.753906 101.710938 94.390625 102.394531 94.398438 102.113281 C 94.652344 101.851562 94.921875 101.609375 95.210938 101.386719 C 95.628906 100.914062 95.324219 100.769531 95.699219 100.246094 C 95.605469 100.246094 95.433594 100.246094 95.597656 99.824219 C 95.757812 99.398438 96.082031 99.460938 95.992188 99.742188 C 95.992188 99.832031 95.910156 99.875 95.890625 99.863281 C 95.871094 99.855469 95.777344 100.1875 95.890625 100.054688 L 95.890625 99.976562 C 96.054688 99.804688 96.335938 99.25 96.355469 99.429688 C 96.46875 99.097656 96.355469 99.257812 96.183594 99.429688 C 96.46875 99.015625 96.707031 98.574219 96.894531 98.109375 C 96.824219 98.179688 96.734375 98.230469 96.761719 98.109375 C 97.160156 97.332031 96.761719 97.707031 96.984375 97.152344 C 97.199219 96.878906 97.160156 97.34375 97.300781 96.765625 C 97.492188 96.445312 97.484375 96.765625 97.484375 96.898438 C 97.597656 96.464844 97.761719 96.050781 97.980469 95.65625 L 97.980469 95.949219 C 98.003906 95.796875 98.03125 95.644531 98.070312 95.496094 L 97.910156 95.628906 C 97.980469 95.464844 98.019531 95.324219 98.0625 95.34375 C 98.0625 95.152344 97.828125 95.414062 97.808594 95.0625 C 97.789062 94.710938 97.941406 94.398438 98.101562 94.347656 C 97.878906 95.023438 98.292969 94.347656 98.164062 94.902344 C 98.179688 94.757812 98.21875 94.621094 98.273438 94.488281 C 98.273438 94.488281 98.273438 94.488281 98.273438 94.570312 C 98.546875 93.933594 98.144531 94.214844 98.273438 93.558594 C 98.355469 93.671875 98.476562 93.429688 98.476562 93.316406 C 98.476562 93.589844 98.304688 93.417969 98.273438 93.15625 C 98.425781 92.722656 98.273438 92.671875 98.355469 92.441406 L 98.273438 92.703125 C 98.203125 92.601562 98.273438 92.378906 98.273438 92.066406 C 98.355469 92.066406 98.273438 92.359375 98.34375 92.25 C 98.203125 91.886719 98.578125 91.492188 98.496094 91 C 98.578125 90.777344 98.679688 91 98.742188 90.785156 C 98.660156 90.242188 98.882812 90.203125 98.742188 89.625 C 98.621094 89.796875 98.648438 89.816406 98.519531 89.425781 L 98.628906 90.363281 L 98.4375 89.757812 C 98.472656 90.007812 98.492188 90.261719 98.496094 90.515625 C 98.40625 90.230469 98.425781 90.261719 98.324219 90.394531 C 98.507812 90.007812 98.203125 89.636719 98.324219 89.191406 L 98.742188 89.191406 C 98.894531 88.507812 98.527344 88.003906 98.496094 87.175781 L 98.496094 87.457031 C 98.355469 87.367188 98.417969 86.933594 98.324219 86.660156 C 98.4375 86.660156 98.457031 86.488281 98.496094 86.359375 C 98.425781 86.359375 98.367188 85.734375 98.144531 85.691406 L 98.144531 85.289062 C 98.042969 84.582031 97.707031 84.574219 97.523438 83.9375 C 97.695312 84.089844 97.664062 83.777344 97.890625 84.191406 C 97.816406 83.976562 97.777344 83.777344 97.707031 83.796875 C 97.707031 83.644531 97.382812 83.242188 97.414062 83.011719 C 97.332031 82.9375 97.21875 82.949219 97.148438 82.707031 C 97.148438 82.707031 96.945312 82.363281 96.914062 82.605469 C 96.914062 81.871094 96.183594 80.839844 96.105469 80.214844 L 95.292969 78.914062 C 95.292969 78.914062 95.292969 78.914062 95.375 78.964844 C 95.109375 78.410156 94.90625 78.8125 94.601562 78.1875 C 94.542969 77.796875 94.886719 78.441406 94.816406 78.1875 C 95.039062 77.917969 94.320312 77.511719 94.1875 77.027344 L 94.269531 77.101562 C 94.125 76.757812 93.597656 76.503906 93.253906 76.039062 C 92.761719 75.738281 92.296875 75.402344 91.855469 75.03125 C 92.066406 75.03125 92.085938 75.152344 92.097656 75.03125 C 91.90625 74.871094 92.003906 75.242188 91.621094 74.921875 C 91.550781 74.757812 91.335938 74.445312 91.386719 74.316406 C 91.4375 74.183594 91.742188 74.636719 91.742188 74.636719 C 91.742188 74.316406 91.285156 74.214844 91.101562 74.042969 L 91.183594 74.042969 C 90.597656 73.601562 90.453125 73.75 89.855469 73.257812 L 89.855469 73.359375 C 89.398438 73.257812 89.632812 73.054688 89.1875 72.945312 L 89.1875 72.703125 C 88.910156 72.589844 88.253906 72.320312 87.796875 72.105469 C 88.222656 72.179688 88.632812 72.308594 89.023438 72.492188 C 88.710938 72.269531 88.375 72.105469 88.007812 71.996094 C 88.132812 72.023438 88.246094 72.078125 88.34375 72.15625 C 87.882812 72.082031 87.445312 71.933594 87.035156 71.714844 C 87.308594 71.402344 85.796875 70.945312 85.515625 70.554688 C 85.023438 70.421875 84.550781 70.246094 84.09375 70.03125 C 83.605469 69.859375 83.078125 69.667969 82.53125 69.523438 C 82.847656 69.9375 82.195312 69.445312 82.1875 69.777344 C 82.058594 69.757812 81.933594 69.730469 81.8125 69.695312 L 81.039062 69.363281 C 80.867188 69.242188 81.316406 69.363281 81.304688 69.261719 C 80.714844 69.140625 81.082031 69.089844 80.695312 68.941406 C 80.757812 69.0625 80.460938 69.0625 80.136719 68.941406 L 80.59375 69.171875 C 79.753906 69.171875 79.90625 68.808594 79.042969 68.898438 L 79.316406 68.820312 C 78.878906 68.820312 77.714844 68.6875 77.289062 69 C 77.214844 69 77.113281 68.878906 77.289062 68.847656 C 76.273438 68.789062 75.015625 69.253906 74.246094 69.203125 L 74.304688 69.121094 C 74.121094 69.121094 74 69.292969 73.746094 69.273438 C 73.746094 69.273438 73.816406 69.183594 73.746094 69.191406 C 73.519531 69.320312 73.273438 69.402344 73.015625 69.445312 L 73.210938 69.3125 C 72.410156 69.464844 71.667969 69.753906 70.976562 70.179688 C 70.917969 69.96875 70.125 70.109375 69.75 70.242188 C 68.796875 70.648438 67.910156 71.171875 67.09375 71.816406 C 66.363281 71.894531 65.0625 72.914062 64.171875 73.480469 C 64.324219 73.40625 64.261719 73.640625 64.171875 73.78125 C 64.082031 73.921875 63.734375 74.347656 63.632812 74.15625 L 63.707031 74.105469 C 63.421875 74.105469 63.035156 74.425781 62.761719 74.730469 L 62.902344 74.980469 C 62.34375 75.289062 61.886719 75.703125 61.535156 76.230469 C 61.160156 76.757812 60.84375 77.242188 60.519531 77.339844 C 60.382812 77.585938 60.261719 77.839844 60.15625 78.097656 L 60.03125 77.996094 C 59.644531 78.511719 59.308594 79.054688 59.019531 79.632812 L 59.019531 79.417969 C 58.773438 79.863281 59.109375 80.1875 58.90625 80.589844 L 58.644531 80.589844 C 58.15625 81.320312 57.820312 82.113281 57.628906 82.96875 C 57.628906 82.96875 57.546875 82.898438 57.628906 82.769531 C 57.4375 83.121094 57.011719 84.21875 57.335938 84.160156 C 57.152344 84.160156 57.070312 85.015625 57.050781 85.480469 L 56.917969 85.378906 C 57.046875 85.707031 57.089844 86.042969 57.039062 86.390625 C 57.039062 86.511719 56.898438 86.480469 56.96875 86.316406 C 56.816406 86.730469 57.050781 86.671875 56.878906 87.164062 L 56.816406 86.964844 C 56.734375 87.191406 56.75 87.414062 56.867188 87.628906 C 56.867188 87.910156 56.777344 88.457031 56.636719 88.507812 C 56.765625 88.679688 56.804688 88.871094 56.746094 89.082031 C 56.746094 89.082031 56.664062 89.011719 56.65625 88.972656 C 56.472656 89.695312 56.816406 90.058594 56.65625 90.574219 C 56.609375 90.582031 56.582031 90.609375 56.574219 90.65625 C 56.574219 90.070312 56.574219 89.648438 56.574219 89.648438 C 56.433594 89.648438 56.421875 90.128906 56.21875 89.746094 C 56.40625 90.230469 56.507812 90.730469 56.523438 91.25 L 56.472656 91.3125 C 56.453125 91.410156 56.453125 91.503906 56.472656 91.601562 C 56.460938 91.730469 56.460938 91.859375 56.472656 91.988281 C 56.371094 92.046875 56.472656 92.542969 56.472656 92.773438 C 56.625 92.773438 56.636719 93.046875 56.714844 92.773438 C 56.714844 92.773438 56.714844 92.773438 56.714844 92.582031 C 56.71875 92.546875 56.71875 92.515625 56.714844 92.480469 C 56.714844 92.328125 56.714844 92.128906 56.644531 91.894531 C 56.769531 92.089844 56.8125 92.304688 56.777344 92.53125 L 57.050781 92.824219 C 56.878906 93.175781 56.847656 93.832031 56.765625 93.921875 C 57.019531 94.609375 57.152344 95.597656 57.597656 95.941406 C 57.691406 96.121094 57.597656 96.183594 57.597656 96.273438 C 57.554688 96.171875 57.507812 96.074219 57.445312 95.980469 C 57.640625 96.355469 57.84375 97.128906 58.054688 97.160156 C 58.136719 97.675781 57.78125 96.949219 58.054688 97.605469 L 57.964844 97.535156 C 58.105469 98.152344 58.378906 98.710938 58.773438 99.207031 C 59.226562 99.707031 59.542969 100.277344 59.730469 100.921875 C 59.730469 100.820312 59.679688 100.761719 59.730469 100.730469 C 60.636719 102.195312 61.679688 103.5625 62.851562 104.824219 C 63.167969 105.210938 63.300781 105.160156 63.574219 105.300781 L 63.574219 105.492188 L 64.101562 105.683594 C 64.761719 106.007812 64.8125 106.832031 65.765625 107.117188 L 65.765625 106.964844 C 66.027344 107.15625 66.675781 107.480469 66.566406 107.558594 C 66.664062 107.53125 66.742188 107.558594 66.800781 107.640625 L 66.800781 107.710938 C 67.015625 107.828125 67.238281 107.929688 67.46875 108.011719 Z M 56.441406 92.148438 C 56.441406 91.988281 56.441406 91.9375 56.441406 91.90625 C 56.441406 91.875 56.441406 92.066406 56.441406 92.179688 Z M 57.265625 90.34375 C 57.265625 90.34375 57.324219 90.160156 57.355469 90.019531 C 57.355469 90.140625 57.355469 90.28125 57.355469 90.433594 C 57.355469 90.585938 57.265625 90.433594 57.265625 90.34375 Z M 57.386719 90.976562 C 57.386719 91.070312 57.386719 91.160156 57.386719 91.210938 Z M 57.386719 90.976562 " fill-opacity="1" fill-rule="nonzero"/><path fill="#144363" d="M 58.167969 92.410156 L 58.167969 92.46875 L 58.167969 92.371094 L 58.117188 92.371094 Z M 58.167969 92.410156 " fill-opacity="1" fill-rule="nonzero"/><path fill="#144363" d="M 61.738281 77.917969 L 61.707031 77.894531 L 61.6875 77.976562 Z M 61.738281 77.917969 " fill-opacity="1" fill-rule="nonzero"/><path fill="#144363" d="M 78.71875 110.011719 C 78.714844 110.035156 78.714844 110.058594 78.71875 110.082031 Z M 78.71875 110.011719 " fill-opacity="1" fill-rule="nonzero"/><path fill="#144363" d="M 96.558594 100.410156 C 96.582031 100.320312 96.609375 100.230469 96.640625 100.144531 C 96.550781 100.265625 96.488281 100.359375 96.558594 100.410156 Z M 96.558594 100.410156 " fill-opacity="1" fill-rule="nonzero"/><path fill="#144363" d="M 97.867188 83.574219 L 97.847656 83.523438 Z M 97.867188 83.574219 " fill-opacity="1" fill-rule="nonzero"/><path fill="#144363" d="M 73.523438 109.546875 C 73.644531 109.484375 74.011719 109.757812 74.183594 109.699219 C 73.972656 109.613281 73.75 109.5625 73.523438 109.546875 Z M 73.523438 109.546875 " fill-opacity="1" fill-rule="nonzero"/><path fill="#144363" d="M 77.074219 110.707031 C 77.074219 110.707031 76.464844 110.625 76.464844 110.625 C 76.464844 110.625 76.710938 110.777344 76.464844 110.765625 C 77.195312 110.988281 76.273438 110.636719 77.074219 110.707031 Z M 77.074219 110.707031 " fill-opacity="1" fill-rule="nonzero"/><path fill="#144363" d="M 78.972656 110.878906 C 79.175781 110.816406 79.226562 110.785156 78.972656 110.765625 C 78.71875 110.746094 78.980469 110.878906 78.972656 110.878906 Z M 78.972656 110.878906 " fill-opacity="1" fill-rule="nonzero"/><path fill="#144363" d="M 91.449219 105.542969 L 91.507812 105.671875 C 91.691406 105.492188 91.476562 105.632812 91.449219 105.542969 Z M 91.449219 105.542969 " fill-opacity="1" fill-rule="nonzero"/><path fill="#144363" d="M 94.09375 103.363281 L 94.09375 103.523438 C 94.167969 103.433594 94.238281 103.339844 94.296875 103.242188 Z M 94.09375 103.363281 " fill-opacity="1" fill-rule="nonzero"/><path fill="#144363" d="M 96.03125 102.65625 L 95.972656 102.757812 L 96.207031 102.394531 Z M 96.03125 102.65625 " fill-opacity="1" fill-rule="nonzero"/><path fill="#144363" d="M 98.09375 80.671875 L 97.96875 80.8125 C 98.0625 80.953125 98.253906 80.902344 98.09375 80.671875 Z M 98.09375 80.671875 " fill-opacity="1" fill-rule="nonzero"/><path fill="#144363" d="M 89.613281 72.804688 C 89.792969 72.933594 89.9375 73.117188 90.039062 73.175781 C 89.964844 72.976562 89.820312 72.851562 89.613281 72.804688 Z M 89.613281 72.804688 " fill-opacity="1" fill-rule="nonzero"/><path fill="#144363" d="M 62.316406 75.222656 L 62.449219 75.09375 L 62.546875 74.910156 Z M 62.316406 75.222656 " fill-opacity="1" fill-rule="nonzero"/><path fill="#144363" d="M 65.804688 119.832031 C 65.519531 119.742188 65.347656 119.570312 65.429688 119.511719 C 65.308594 119.511719 65.023438 119.300781 64.820312 119.371094 C 65.175781 119.710938 65.597656 119.894531 66.089844 119.914062 C 66.171875 120.003906 66.089844 120.015625 66.007812 120.046875 C 66.382812 120.046875 66.820312 120.046875 66.6875 119.753906 C 66.28125 119.832031 66.28125 119.714844 65.804688 119.832031 Z M 65.804688 119.832031 " fill-opacity="1" fill-rule="nonzero"/><path fill="#144363" d="M 106.765625 105.339844 C 106.703125 105.472656 106.703125 105.53125 106.765625 105.550781 C 106.824219 105.574219 106.796875 105.332031 106.765625 105.339844 Z M 106.765625 105.339844 " fill-opacity="1" fill-rule="nonzero"/><path fill="#144363" d="M 94.683594 117.9375 C 94.683594 117.855469 94.441406 118.007812 94.226562 118.109375 Z M 94.683594 117.9375 " fill-opacity="1" fill-rule="nonzero"/><path fill="#144363" d="M 69.964844 120.710938 C 69.875 120.695312 69.789062 120.695312 69.699219 120.710938 Z M 69.964844 120.710938 " fill-opacity="1" fill-rule="nonzero"/><path fill="#144363" d="M 86.875 121.425781 L 86.730469 121.476562 L 86.640625 121.597656 Z M 86.875 121.425781 " fill-opacity="1" fill-rule="nonzero"/><g clip-path="url(#5e6ab90db4)"><path fill="#144363" d="M 81.019531 122.316406 C 80.945312 122.40625 80.851562 122.464844 80.734375 122.488281 C 80.742188 122.539062 80.765625 122.582031 80.808594 122.617188 C 80.949219 122.617188 80.980469 122.414062 81.019531 122.316406 Z M 81.019531 122.316406 " fill-opacity="1" fill-rule="nonzero"/></g><path fill="#144363" d="M 64.121094 119.398438 L 64.03125 119.398438 C 64 119.425781 63.976562 119.457031 63.957031 119.492188 Z M 64.121094 119.398438 " fill-opacity="1" fill-rule="nonzero"/><path fill="#144363" d="M 84.703125 57.28125 C 85.25 57.5625 83.6875 57.339844 84.539062 57.683594 C 84.480469 57.59375 85.414062 57.523438 84.703125 57.28125 Z M 84.703125 57.28125 " fill-opacity="1" fill-rule="nonzero"/><g clip-path="url(#f98041c374)"><path fill="#144363" d="M 112.089844 84.261719 C 112.089844 84.261719 112.089844 84.261719 112.152344 84.109375 C 112.121094 84.15625 112.101562 84.207031 112.089844 84.261719 Z M 112.089844 84.261719 " fill-opacity="1" fill-rule="nonzero"/></g><path fill="#144363" d="M 110.496094 78.914062 L 110.496094 78.976562 C 110.5625 79.058594 110.597656 79.152344 110.597656 79.257812 C 110.585938 79.136719 110.550781 79.023438 110.496094 78.914062 Z M 110.496094 78.914062 " fill-opacity="1" fill-rule="nonzero"/><path fill="#144363" d="M 106.96875 74.40625 L 106.976562 74.519531 L 107.070312 74.660156 Z M 106.96875 74.40625 " fill-opacity="1" fill-rule="nonzero"/><path fill="#144363" d="M 50.449219 103.3125 C 50.4375 103.414062 50.414062 103.511719 50.375 103.605469 C 50.46875 103.464844 50.8125 104.128906 50.449219 103.3125 Z M 50.449219 103.3125 " fill-opacity="1" fill-rule="nonzero"/><path fill="#144363" d="M 70.105469 120.78125 L 69.933594 120.78125 C 69.898438 120.808594 69.898438 120.835938 69.933594 120.863281 C 69.972656 120.800781 70.03125 120.773438 70.105469 120.78125 Z M 70.105469 120.78125 " fill-opacity="1" fill-rule="nonzero"/><path fill="#144363" d="M 106.320312 76.585938 C 106.34375 76.425781 106.34375 76.269531 106.320312 76.109375 L 106.238281 76.050781 Z M 106.320312 76.585938 " fill-opacity="1" fill-rule="nonzero"/><g clip-path="url(#8eb290700f)"><path fill="#144363" d="M 111.136719 89.453125 C 110.964844 89.71875 111.015625 89.769531 110.832031 89.132812 L 110.984375 90.613281 L 110.722656 89.695312 C 110.773438 90.09375 110.800781 90.496094 110.800781 90.898438 C 110.691406 90.445312 110.710938 90.492188 110.578125 90.695312 C 110.820312 90.101562 110.40625 89.503906 110.578125 88.808594 L 111.003906 88.808594 C 111.199219 87.742188 110.699219 86.945312 110.628906 85.570312 L 110.628906 86.027344 C 110.4375 85.863281 110.496094 85.1875 110.386719 84.753906 C 110.527344 84.753906 110.546875 84.492188 110.597656 84.289062 C 110.507812 84.289062 110.394531 83.28125 110.09375 83.230469 L 110.09375 82.597656 C 109.917969 81.496094 109.464844 81.445312 109.167969 80.4375 C 109.414062 80.699219 109.351562 80.214844 109.675781 80.863281 C 109.574219 80.519531 109.492188 80.207031 109.402344 80.238281 C 109.402344 80.003906 108.925781 79.347656 108.945312 79.007812 C 108.84375 78.875 108.691406 78.886719 108.582031 78.5 C 108.582031 78.453125 108.640625 78.5 108.640625 78.5 C 108.640625 78.5 108.335938 77.957031 108.316406 78.332031 C 108.265625 77.179688 107.160156 75.527344 106.96875 74.566406 C 106.5625 73.902344 106.074219 73.105469 105.699219 72.550781 C 105.761719 72.550781 105.761719 72.550781 105.832031 72.632812 C 105.386719 71.765625 105.152344 72.359375 104.65625 71.382812 C 104.523438 70.785156 105.089844 71.785156 104.960938 71.453125 C 105.242188 71.078125 104.179688 70.371094 103.945312 69.636719 L 104.078125 69.757812 C 103.832031 69.222656 103.0625 68.75 102.472656 68.074219 C 102.472656 68.074219 102.535156 68.074219 102.535156 68.074219 C 101.78125 67.542969 101.058594 66.980469 100.363281 66.378906 C 100.6875 66.4375 100.71875 66.589844 100.730469 66.378906 C 100.425781 66.117188 100.609375 66.671875 100.007812 66.15625 C 99.886719 65.902344 99.542969 65.429688 99.601562 65.25 C 99.601562 65.25 100.160156 65.761719 100.160156 65.761719 C 100.058594 65.289062 99.429688 65.097656 99.148438 64.824219 L 99.257812 64.773438 C 98.324219 64.070312 98.144531 64.28125 97.230469 63.492188 L 97.230469 63.636719 C 96.53125 63.453125 96.855469 63.191406 96.214844 62.980469 L 96.214844 62.636719 C 95.699219 62.285156 94.683594 61.820312 93.992188 61.457031 C 94.652344 61.609375 95.285156 61.839844 95.890625 62.140625 C 95.414062 61.792969 94.898438 61.519531 94.339844 61.324219 C 94.53125 61.382812 94.703125 61.472656 94.855469 61.597656 C 94.148438 61.429688 93.472656 61.175781 92.828125 60.839844 C 93.214844 60.4375 90.859375 59.640625 90.394531 59.097656 C 89.621094 58.878906 88.871094 58.601562 88.140625 58.269531 C 87.371094 58.007812 86.570312 57.714844 85.675781 57.480469 C 86.203125 58.066406 85.160156 57.351562 85.160156 57.804688 C 84.949219 57.792969 84.742188 57.753906 84.539062 57.695312 L 83.324219 57.210938 C 83.039062 57.039062 83.738281 57.210938 83.71875 57.089844 C 82.796875 56.898438 83.363281 56.835938 82.753906 56.613281 C 82.867188 56.796875 82.398438 56.777344 81.882812 56.613281 L 82.601562 56.949219 C 81.273438 56.9375 81.496094 56.414062 80.15625 56.554688 L 80.59375 56.453125 C 79.90625 56.453125 78.070312 56.25 77.398438 56.675781 C 77.277344 56.625 77.113281 56.515625 77.398438 56.472656 C 76.539062 56.472656 75.6875 56.554688 74.84375 56.714844 C 74.09375 56.902344 73.332031 57 72.558594 57.007812 L 72.671875 56.886719 C 72.390625 57.015625 72.097656 57.089844 71.789062 57.109375 C 71.789062 57.109375 71.890625 56.988281 71.789062 57.007812 C 71.414062 57.210938 71.015625 57.351562 70.59375 57.421875 L 70.90625 57.242188 C 70.246094 57.328125 69.605469 57.5 68.988281 57.753906 C 68.46875 58.050781 67.929688 58.3125 67.378906 58.542969 C 67.285156 58.257812 66.046875 58.542969 65.460938 58.714844 L 65.460938 58.621094 C 63.941406 59.25 62.523438 60.054688 61.210938 61.042969 C 60.425781 61.246094 59.707031 61.582031 59.050781 62.050781 C 58.238281 62.597656 57.324219 63.152344 56.636719 63.65625 C 56.867188 63.535156 56.757812 63.875 56.542969 64.089844 C 56.332031 64.300781 55.832031 64.957031 55.691406 64.703125 L 55.8125 64.613281 C 55.398438 64.613281 54.800781 65.15625 54.34375 65.621094 L 54.535156 65.964844 C 53.675781 66.488281 52.960938 67.160156 52.386719 67.980469 C 51.980469 68.683594 51.453125 69.273438 50.792969 69.746094 C 50.5625 70.125 50.359375 70.511719 50.183594 70.917969 L 50.050781 70.824219 C 49.425781 71.636719 48.871094 72.496094 48.386719 73.398438 L 48.386719 73.074219 C 48.011719 73.769531 48.4375 74.234375 48.113281 74.871094 L 47.75 74.929688 C 47.007812 76.089844 46.472656 77.335938 46.148438 78.671875 C 46.148438 78.671875 46.046875 78.570312 46.148438 78.359375 C 45.84375 78.933594 45.191406 80.671875 45.648438 80.558594 C 45.386719 80.5 45.222656 81.902344 45.171875 82.578125 L 44.980469 82.476562 C 45.136719 82.984375 45.175781 83.503906 45.101562 84.027344 C 45.039062 84.21875 44.910156 84.171875 45.011719 83.917969 C 44.789062 84.5625 45.101562 84.460938 44.859375 85.257812 L 44.789062 84.9375 C 44.652344 85.273438 44.652344 85.609375 44.789062 85.945312 C 44.839844 86.390625 44.644531 87.257812 44.453125 87.347656 C 44.625 87.625 44.671875 87.925781 44.59375 88.246094 C 44.523438 88.296875 44.492188 88.144531 44.472656 88.0625 C 44.21875 89.222656 44.695312 89.796875 44.472656 90.59375 C 44.410156 90.621094 44.371094 90.667969 44.359375 90.734375 C 44.359375 89.808594 44.359375 89.0625 44.359375 89.132812 C 44.1875 89.132812 44.167969 89.878906 43.90625 89.273438 C 44.1875 90.0625 44.339844 90.875 44.371094 91.714844 C 44.355469 91.75 44.335938 91.785156 44.3125 91.816406 L 44.3125 91.734375 C 44.285156 91.890625 44.285156 92.042969 44.3125 92.199219 C 44.300781 92.398438 44.300781 92.601562 44.3125 92.804688 C 44.167969 92.90625 44.3125 93.679688 44.371094 94.054688 C 44.5625 93.992188 44.59375 94.488281 44.695312 94.054688 C 44.695312 94.113281 44.695312 93.992188 44.625 93.742188 L 44.625 93.589844 C 44.625 93.347656 44.542969 93.035156 44.492188 92.671875 C 44.679688 92.984375 44.746094 93.320312 44.695312 93.679688 C 44.847656 93.863281 45 94.054688 45.070312 94.15625 C 44.878906 94.628906 44.867188 95.628906 44.757812 95.75 C 45.132812 96.847656 45.355469 98.402344 45.996094 98.957031 C 46.136719 99.25 45.996094 99.339844 45.996094 99.46875 C 45.925781 99.3125 45.84375 99.160156 45.75 99.015625 C 46.046875 99.601562 46.378906 100.832031 46.675781 100.890625 C 46.828125 101.699219 46.289062 100.539062 46.675781 101.578125 L 46.542969 101.46875 C 46.792969 102.429688 47.21875 103.308594 47.808594 104.109375 C 48.496094 104.925781 49.007812 105.835938 49.34375 106.84375 C 49.34375 106.683594 49.261719 106.601562 49.28125 106.550781 C 50.558594 109.050781 52.679688 111.148438 54.421875 113.277344 C 54.714844 113.644531 55.085938 113.90625 55.53125 114.066406 L 55.53125 114.335938 C 55.53125 114.335938 56.320312 114.671875 56.320312 114.671875 C 57.335938 115.214844 57.507812 116.414062 58.96875 116.910156 L 58.886719 116.6875 C 59.3125 117 60.328125 117.523438 60.164062 117.613281 C 60.3125 117.59375 60.433594 117.640625 60.53125 117.757812 L 60.53125 117.855469 C 60.925781 118.042969 61.332031 118.207031 61.746094 118.339844 C 62.597656 118.867188 61.390625 118.652344 62.691406 119.351562 C 63.207031 119.570312 64.222656 119.773438 64.070312 119.613281 C 63.917969 119.449219 63.59375 119.289062 63.632812 119.1875 L 64.101562 119.359375 C 64.195312 119.265625 64.285156 119.164062 64.363281 119.058594 C 64.421875 119.113281 64.488281 119.152344 64.566406 119.167969 L 64.851562 119.027344 L 64.335938 118.945312 C 64.335938 118.785156 64.203125 118.574219 63.765625 118.242188 L 62.945312 118.039062 L 62.78125 117.777344 L 63.402344 118.078125 C 63.167969 117.839844 62.882812 117.722656 62.546875 117.726562 C 62.515625 117.59375 62.441406 117.492188 62.324219 117.421875 L 61.464844 117.324219 C 61.464844 117.160156 61.898438 117.324219 61.464844 116.9375 C 61.066406 116.859375 61.625 117.382812 61.046875 117.132812 C 60.792969 116.789062 60.957031 116.746094 60.5 116.605469 C 60.5 116.496094 60.601562 116.503906 60.773438 116.605469 C 60.378906 116.476562 59.839844 116.0625 59.566406 116.082031 C 59.3125 115.730469 58.378906 115.34375 58.613281 115.074219 C 58.246094 114.96875 57.910156 114.808594 57.597656 114.589844 C 58.371094 114.730469 56.511719 113.691406 56.917969 113.5 C 56.28125 113.5 55.5 112.351562 54.71875 111.867188 C 54.769531 111.867188 54.878906 111.867188 54.921875 111.976562 C 54.703125 111.726562 54.519531 111.460938 54.363281 111.171875 C 54.121094 111.300781 53.5625 110.738281 53.15625 110.523438 C 52.964844 109.867188 53.652344 110.605469 53.714844 110.28125 C 53.570312 110.453125 52.851562 109.605469 52.839844 109.890625 C 52.667969 109.414062 52.648438 109.515625 52.667969 109.191406 C 52.34375 109.335938 52.324219 108.902344 51.9375 108.6875 C 51.695312 108.023438 52.109375 108.355469 51.59375 107.800781 C 51.480469 107.449219 51.957031 107.921875 51.957031 107.921875 C 51.53125 107.296875 51.542969 107.769531 51.328125 107.71875 C 50.75 107.003906 51.25 107.265625 51.1875 106.933594 C 50.792969 106.511719 50.355469 106.269531 50.171875 105.925781 C 50.171875 105.925781 50.171875 105.804688 50.265625 105.855469 C 49.789062 105.429688 49.382812 104.300781 48.8125 103.789062 C 48.796875 103.75 48.796875 103.714844 48.8125 103.675781 C 48.761719 103.804688 48.664062 103.890625 48.53125 103.929688 C 48.386719 103.617188 48.125 103.402344 48.226562 103.210938 C 48.308594 103.414062 48.378906 103.394531 48.460938 103.464844 L 48.257812 103.160156 C 48.347656 102.757812 48.53125 103.585938 48.691406 103.503906 C 48.292969 102.929688 47.953125 102.320312 47.679688 101.679688 C 47.859375 101.488281 48.257812 102.820312 48.164062 102.074219 L 48.417969 102.878906 C 48.511719 102.144531 48.589844 103.351562 48.734375 102.648438 C 48.378906 101.640625 48.09375 101.589844 47.800781 100.539062 C 47.597656 100.347656 47.636719 100.679688 47.445312 100.539062 C 46.726562 99.128906 47.636719 99.199219 46.976562 98.199219 C 46.785156 98.082031 46.636719 97.921875 46.53125 97.722656 C 46.429688 97.519531 46.390625 97.304688 46.410156 97.078125 L 46.734375 97.292969 C 46.542969 96.28125 46.226562 96.777344 46.167969 95.65625 C 46.308594 95.828125 46.429688 96.453125 46.429688 96.292969 C 46.429688 95.546875 46.167969 95.820312 46.046875 95.285156 L 46.269531 95.132812 C 46.125 94.023438 45.710938 92.804688 45.640625 91.554688 C 45.710938 91.613281 45.792969 91.824219 45.851562 91.554688 C 45.78125 90.730469 45.757812 89.90625 45.78125 89.082031 C 45.894531 88.253906 46.023438 87.4375 46.148438 86.691406 L 45.996094 85.933594 C 45.996094 85.804688 46.125 85.703125 46.148438 85.84375 C 46.320312 85.28125 46.015625 85.84375 45.984375 85.511719 C 45.953125 85.179688 46.175781 85.085938 46.207031 85.308594 C 46.148438 83.914062 46.386719 82.570312 46.917969 81.273438 L 46.917969 81.496094 C 47.230469 80.699219 46.777344 80.488281 47.171875 79.730469 L 47.171875 79.882812 C 47.890625 78.160156 48.488281 76.152344 49.492188 75.050781 C 49.34375 74.660156 50.507812 73.480469 50.203125 73.1875 C 50.792969 72.691406 51.328125 72.144531 51.808594 71.542969 C 52.03125 71.21875 51.949219 70.917969 52.234375 70.535156 L 52.40625 70.65625 L 52.648438 70 L 53.09375 69.828125 L 53.339844 69.433594 C 53.214844 69.566406 53.015625 69.675781 52.984375 69.617188 C 53.359375 68.96875 54.242188 68.355469 54.351562 68.4375 L 55.429688 67.085938 C 55.429688 67.175781 55.285156 67.40625 55.164062 67.597656 C 55.652344 66.792969 55.4375 67.648438 55.882812 66.902344 C 55.773438 66.902344 55.882812 66.773438 55.824219 66.722656 C 56.417969 66.351562 56.960938 65.921875 57.457031 65.429688 L 57.457031 65.632812 C 58.496094 64.753906 59.582031 63.933594 60.710938 63.171875 C 60.246094 63.394531 60.207031 63.109375 60.539062 62.859375 L 60.804688 62.949219 C 60.957031 62.675781 60.386719 63.128906 60.804688 62.667969 C 61.28125 62.414062 61.25 62.667969 61.027344 62.917969 L 61.554688 62.546875 C 61.625 62.546875 61.503906 62.6875 61.554688 62.777344 C 61.71875 62.527344 62.648438 62.445312 62.863281 62.042969 L 62.933594 62.042969 C 63.84375 61.523438 64.78125 61.058594 65.742188 60.648438 C 65.683594 60.457031 66.121094 60.316406 66.382812 60.035156 C 67.234375 59.824219 68.1875 59.679688 69.164062 59.347656 C 69.84375 59.066406 69.324219 59.136719 69.617188 58.945312 C 69.710938 59.105469 70.722656 58.863281 70.226562 59.105469 C 71.433594 58.855469 71.75 58.640625 73.269531 58.351562 C 73.089844 58.289062 72.886719 58.277344 72.976562 58.207031 C 73.261719 58.148438 73.636719 58.207031 73.605469 58.300781 L 73.535156 58.300781 C 75.277344 57.746094 77.589844 58.519531 79.011719 58.199219 L 78.960938 58.199219 L 80.484375 58.148438 C 81.140625 58.230469 80.066406 58.257812 80.554688 58.410156 C 82.15625 58.167969 82.988281 58.8125 84.308594 58.792969 C 84.988281 59.183594 85.714844 59.449219 86.488281 59.589844 C 86.933594 59.703125 87.402344 59.800781 87.828125 59.933594 C 88.1875 60.0625 88.523438 60.234375 88.839844 60.449219 L 88.839844 60.296875 C 89.207031 60.296875 89.207031 60.519531 89.429688 60.640625 C 89.429688 60.539062 89.113281 60.398438 89.347656 60.417969 C 90.785156 60.925781 92.136719 61.597656 93.40625 62.433594 C 94.054688 62.839844 94.652344 63.332031 95.273438 63.765625 L 96.195312 64.441406 L 97.046875 65.1875 C 97.878906 65.894531 97.949219 65.078125 98.84375 66.195312 L 98.375 66.125 C 99.285156 66.796875 100.128906 67.542969 100.902344 68.363281 C 101.632812 69.234375 102.351562 70.089844 103.125 70.875 C 103.011719 70.804688 102.960938 70.875 102.820312 70.675781 C 102.972656 71.140625 103.832031 72.078125 103.902344 72.007812 C 104.085938 72.289062 103.84375 72.136719 103.902344 72.347656 C 104.078125 72.78125 104.757812 73.175781 104.726562 73.488281 C 104.726562 73.539062 104.613281 73.398438 104.5625 73.335938 C 104.777344 73.550781 105.210938 74.566406 105.253906 74.214844 C 105.558594 74.980469 106.105469 75.535156 106.269531 76.183594 C 106.632812 76.484375 106.722656 77.511719 107.058594 77.511719 C 106.734375 77.59375 107.425781 78.914062 107.675781 79.378906 C 107.535156 79.238281 107.675781 79.832031 107.535156 79.683594 C 107.71875 80.246094 107.941406 80.691406 108.0625 80.589844 C 108.0625 81.707031 108.925781 82.605469 108.589844 83.34375 L 108.984375 84.574219 C 109.066406 84.996094 109.160156 85.402344 109.238281 85.804688 C 109.417969 86.597656 109.542969 87.394531 109.613281 88.203125 C 109.339844 88.152344 109.441406 86.460938 109.109375 86.558594 C 109.464844 87.808594 109.636719 89.085938 109.625 90.382812 C 109.625 90.765625 109.484375 90.160156 109.421875 90.03125 C 109.503906 90.753906 109.503906 91.476562 109.421875 92.199219 C 109.351562 92.90625 109.421875 93.589844 109.3125 94.214844 C 109.3125 94.214844 109.3125 94.054688 109.3125 93.921875 C 109.3125 94.183594 109.160156 94.519531 109.3125 94.507812 L 109.3125 94.246094 C 109.59375 93.863281 109.5625 95.34375 109.664062 95.414062 C 109.332031 94.902344 109.332031 96.71875 108.933594 95.910156 C 108.933594 96.082031 108.933594 96.3125 109.066406 96.292969 C 108.984375 96.546875 108.925781 96.605469 108.855469 96.292969 C 108.785156 97.230469 108.945312 96.929688 108.734375 97.765625 C 108.660156 97.765625 108.683594 97.5625 108.632812 97.464844 C 108.671875 98.007812 108.597656 98.535156 108.40625 99.046875 C 108.40625 98.996094 108.296875 99.046875 108.355469 98.855469 C 108.195312 100.019531 107.871094 101.140625 107.394531 102.214844 C 107.261719 101.71875 107.128906 102.605469 106.867188 102.578125 C 106.867188 102.578125 106.804688 102.75 106.753906 102.929688 C 106.703125 103.113281 106.621094 103.261719 106.621094 103.261719 L 106.875 103.0625 C 106.667969 103.613281 106.429688 104.152344 106.15625 104.675781 L 106.277344 104.199219 L 105.761719 105.300781 L 106.167969 104.734375 C 105.984375 105.378906 106.492188 104.824219 106.035156 105.5625 C 106.085938 105.390625 105.742188 106.148438 105.394531 106.339844 C 105.296875 106.714844 105.121094 107.050781 104.867188 107.347656 C 104.726562 107.398438 104.675781 107.105469 104.582031 107.136719 C 104.582031 107.519531 103.832031 108.445312 103.761719 108.890625 C 103.761719 108.757812 103.691406 108.667969 103.640625 108.6875 L 103.640625 109 C 103.40625 109.203125 103.355469 109.214844 103.296875 109.113281 C 102.707031 109.789062 103.742188 109.113281 102.949219 109.839844 C 102.949219 109.769531 102.949219 109.777344 103.042969 109.628906 C 102.425781 110.453125 101.746094 111.230469 101.011719 111.957031 C 100.617188 111.957031 101.570312 111.292969 101.175781 111.382812 C 100.699219 111.894531 100.230469 112.480469 99.765625 113.046875 C 99.292969 113.585938 98.765625 114.074219 98.195312 114.507812 L 98.40625 114.367188 C 98.496094 114.769531 97.515625 114.890625 97.066406 115.445312 C 97.1875 115.335938 97.066406 115.152344 97.066406 115.214844 C 96.140625 115.839844 95.246094 116.511719 94.390625 117.230469 L 94.492188 117.058594 C 93.964844 117.253906 93.183594 117.714844 92.632812 117.96875 C 92.523438 118.140625 92.207031 118.289062 92.460938 118.320312 C 91.582031 118.535156 90.75 118.871094 89.96875 119.328125 C 89.25 119.816406 88.460938 120.089844 87.59375 120.148438 C 87.777344 120.085938 88.007812 119.925781 87.855469 119.976562 L 86.570312 120.550781 C 86.722656 120.671875 86.773438 120.550781 87.097656 120.621094 C 86.847656 120.824219 86.566406 120.972656 86.253906 121.066406 C 86.832031 120.761719 86.183594 120.832031 85.890625 120.792969 C 85.949219 120.792969 85.890625 120.902344 85.890625 120.953125 C 85.097656 120.824219 85.890625 121.296875 84.8125 121.316406 L 84.8125 121.226562 C 84.464844 121.386719 84.101562 121.507812 83.730469 121.597656 C 83.535156 121.449219 84.113281 121.425781 84.105469 121.265625 C 83.554688 121.398438 83.089844 121.882812 82.523438 121.738281 C 82.792969 121.679688 83.058594 121.601562 83.324219 121.507812 C 82.988281 121.4375 82.648438 121.421875 82.308594 121.457031 L 81.34375 121.457031 L 81.597656 121.457031 C 80.9375 122.003906 80.179688 121.78125 79.226562 122.082031 C 80.148438 121.761719 79.378906 121.910156 79.4375 121.691406 C 79.183594 121.691406 78.808594 121.578125 78.910156 121.519531 C 78.472656 121.699219 78.160156 121.398438 77.53125 121.667969 C 77.53125 121.597656 77.042969 121.667969 77.15625 121.5 C 76.566406 121.570312 77.289062 121.609375 77.238281 121.699219 C 76.324219 121.953125 75.136719 121.285156 73.808594 121.527344 C 72.683594 121.527344 72.449219 121.667969 71.382812 121.609375 C 71.050781 121.4375 71.71875 121.40625 71.71875 121.40625 C 71.222656 121.246094 70.714844 121.148438 70.195312 121.113281 C 70.320312 121.113281 70.195312 121.003906 70.085938 120.894531 C 69.667969 120.792969 69.75 121.054688 69.222656 120.800781 C 69.375 120.722656 69.539062 120.671875 69.710938 120.652344 C 69.203125 120.582031 68.695312 120.558594 68.167969 120.480469 C 68.066406 120.328125 68.523438 120.390625 68.726562 120.367188 C 68.15625 120.222656 67.578125 120.152344 66.992188 120.15625 L 67.328125 120.359375 C 67.125 120.289062 67.277344 120.167969 67.4375 120.1875 C 67.964844 120.1875 68.117188 120.4375 68.128906 120.519531 L 67.753906 120.460938 C 68.007812 120.945312 69.234375 120.800781 69.945312 121.023438 L 69.566406 121.226562 L 70.378906 121.226562 C 70.523438 121.328125 70.59375 121.527344 70.21875 121.46875 C 70.722656 121.738281 70.714844 121.46875 71.152344 121.710938 L 71.6875 121.710938 C 71.578125 121.710938 71.738281 121.933594 71.425781 121.832031 C 72.347656 122.164062 72.988281 121.832031 73.3125 122.164062 L 73.230469 122.164062 C 74.570312 122.234375 73.390625 121.980469 74.40625 121.820312 L 75.035156 122.394531 L 75.175781 122.195312 C 75.320312 122.195312 75.582031 122.195312 75.53125 122.335938 C 76.050781 122.222656 75.453125 122.234375 75.753906 122.113281 C 76.40625 122.394531 77.570312 122.113281 77.722656 122.425781 C 77.957031 122.253906 77.09375 122.316406 77.792969 122.183594 C 77.996094 122.546875 78.605469 122.101562 79.214844 122.253906 C 79.042969 122.445312 78.464844 122.367188 79.074219 122.515625 C 79.425781 122.195312 80.269531 122.515625 80.777344 122.40625 C 80.777344 122.152344 81.871094 122.175781 82.714844 121.980469 C 83.53125 121.976562 84.339844 121.890625 85.136719 121.730469 C 85.230469 121.425781 86.0625 121.355469 86.609375 121.105469 C 86.609375 121.257812 86.546875 121.355469 86.253906 121.507812 C 86.253906 121.507812 86.792969 121.347656 86.792969 121.347656 C 86.964844 121.179688 87.167969 121.058594 87.402344 120.984375 L 87.320312 121.214844 C 88.066406 120.914062 88.832031 120.660156 89.613281 120.460938 C 89.613281 120.269531 88.730469 120.289062 89.613281 119.785156 C 89.683594 119.855469 89.785156 119.996094 89.550781 120.136719 C 89.679688 120.03125 89.824219 119.953125 89.988281 119.90625 L 89.671875 120.21875 C 90.109375 120.117188 89.835938 120.003906 90.160156 119.882812 C 90.160156 120.015625 90.433594 119.882812 90.433594 119.996094 C 90.433594 120.105469 90.128906 120.054688 90.027344 120.167969 C 90.351562 120.03125 90.691406 119.957031 91.042969 119.945312 C 90.980469 119.882812 90.972656 119.773438 91.234375 119.640625 C 91.914062 119.339844 91.539062 119.691406 91.976562 119.582031 C 92.105469 119.441406 92.574219 119.300781 92.492188 119.097656 C 92.617188 119.039062 92.742188 119.039062 92.867188 119.097656 C 93.171875 118.824219 94.460938 118.191406 93.964844 118.210938 L 93.871094 118.210938 C 94.886719 117.472656 96.164062 116.890625 97.179688 116.132812 L 97.179688 116.183594 C 97.765625 115.722656 98.300781 115.207031 98.78125 114.640625 C 98.953125 114.5 99.269531 114.40625 99.25 114.527344 C 99.578125 114.160156 99.941406 113.824219 100.332031 113.519531 C 100.007812 114.023438 100.558594 113.460938 99.980469 114.003906 C 100.472656 113.679688 100.875 113.265625 101.1875 112.765625 C 101.113281 113.085938 101.742188 112.523438 101.957031 112.230469 L 101.5 112.511719 C 101.746094 112.234375 102.003906 111.972656 102.28125 111.726562 L 102.28125 112.015625 C 103.5 111.007812 103.703125 109.585938 104.757812 108.910156 C 104.847656 108.476562 104.199219 109.546875 104.238281 109.121094 C 104.625 108.703125 105.035156 108.304688 105.464844 107.933594 C 106.105469 107.175781 105.699219 107.003906 106.277344 106.175781 C 106.144531 106.25 105.902344 106.25 106.175781 105.542969 C 106.449219 104.835938 106.886719 104.9375 106.746094 105.359375 C 106.664062 105.523438 106.601562 105.582031 106.582031 105.5625 C 106.511719 105.773438 106.398438 106.066406 106.582031 105.855469 L 106.582031 105.734375 C 106.824219 105.460938 107.273438 104.582031 107.28125 104.855469 C 107.464844 104.34375 107.28125 104.582031 107.046875 104.917969 C 107.519531 104.25 107.925781 103.546875 108.265625 102.808594 C 108.175781 102.929688 108.03125 103.019531 108.082031 102.878906 C 108.691406 101.640625 108.164062 102.253906 108.46875 101.375 C 108.785156 100.933594 108.683594 101.660156 108.925781 100.75 C 109.21875 100.257812 109.179688 100.75 109.160156 100.953125 C 109.351562 100.257812 109.609375 99.585938 109.929688 98.9375 L 109.867188 99.398438 C 109.898438 99.15625 109.949219 98.917969 110.03125 98.683594 L 109.796875 98.894531 C 109.898438 98.644531 109.960938 98.429688 110.019531 98.453125 C 110.019531 98.160156 109.695312 98.582031 109.695312 98.019531 C 109.867188 97.695312 109.917969 97.007812 110.132812 96.898438 C 109.789062 97.90625 110.394531 96.828125 110.132812 97.746094 C 110.164062 97.523438 110.226562 97.308594 110.316406 97.101562 C 110.316406 97.101562 110.316406 97.152344 110.316406 97.222656 C 110.710938 96.210938 110.152344 96.6875 110.316406 95.597656 C 110.417969 95.757812 110.597656 95.386719 110.597656 95.203125 C 110.519531 95.648438 110.355469 95.375 110.335938 94.960938 C 110.433594 94.59375 110.476562 94.222656 110.46875 93.84375 L 110.355469 94.246094 C 110.253906 94.09375 110.355469 93.75 110.355469 93.238281 C 110.457031 93.238281 110.355469 93.679688 110.445312 93.519531 C 110.265625 92.953125 110.773438 92.308594 110.679688 91.503906 C 110.792969 91.148438 110.914062 91.503906 110.996094 91.167969 C 110.996094 90.433594 111.269531 90.363281 111.136719 89.453125 Z M 44.359375 93.246094 C 44.300781 93.003906 44.359375 92.914062 44.359375 92.875 C 44.359375 92.996094 44.359375 93.125 44.441406 93.308594 C 44.410156 93.292969 44.382812 93.273438 44.359375 93.246094 Z M 45.375 90.402344 C 45.425781 90.492188 45.457031 90.128906 45.507812 89.898438 C 45.507812 90.089844 45.507812 90.324219 45.507812 90.5625 C 45.488281 90.613281 45.417969 90.5625 45.417969 90.402344 Z M 45.546875 91.410156 C 45.546875 91.5625 45.546875 91.695312 45.546875 91.785156 Z M 45.546875 91.410156 " fill-opacity="1" fill-rule="nonzero"/></g><path fill="#144363" d="M 44.664062 93.660156 L 44.664062 93.761719 L 44.664062 93.609375 L 44.65625 93.53125 Z M 44.664062 93.660156 " fill-opacity="1" fill-rule="nonzero"/><path fill="#144363" d="M 52.445312 70.632812 L 52.40625 70.605469 L 52.363281 70.734375 Z M 52.445312 70.632812 " fill-opacity="1" fill-rule="nonzero"/><path fill="#144363" d="M 79.46875 121.660156 C 79.457031 121.6875 79.457031 121.714844 79.46875 121.738281 Z M 79.46875 121.660156 " fill-opacity="1" fill-rule="nonzero"/><path fill="#144363" d="M 105.324219 106.378906 C 105.324219 106.238281 105.414062 106.105469 105.476562 105.976562 C 105.335938 106.167969 105.234375 106.320312 105.324219 106.378906 Z M 105.324219 106.378906 " fill-opacity="1" fill-rule="nonzero"/><path fill="#144363" d="M 109.058594 79.640625 L 109.066406 79.640625 L 109.035156 79.5625 Z M 109.058594 79.640625 " fill-opacity="1" fill-rule="nonzero"/><path fill="#144363" d="M 66.972656 119.953125 L 67.296875 119.953125 C 67.175781 119.953125 67.050781 119.875 66.972656 119.953125 Z M 66.972656 119.953125 " fill-opacity="1" fill-rule="nonzero"/><path fill="#144363" d="M 71.171875 120.964844 C 71.363281 120.894531 71.953125 121.277344 72.183594 121.195312 C 71.855469 121.066406 71.519531 120.972656 71.171875 120.914062 Z M 71.171875 120.964844 " fill-opacity="1" fill-rule="nonzero"/><g clip-path="url(#28681ed0d7)"><path fill="#144363" d="M 75.835938 122.65625 C 77.054688 122.972656 75.59375 122.488281 76.851562 122.585938 C 76.851562 122.585938 75.886719 122.464844 75.886719 122.464844 C 76.058594 122.558594 76.285156 122.679688 75.835938 122.65625 Z M 75.835938 122.65625 " fill-opacity="1" fill-rule="nonzero"/></g><g clip-path="url(#870762b16b)"><path fill="#144363" d="M 79.855469 122.777344 C 80.179688 122.6875 80.257812 122.65625 79.855469 122.628906 C 79.449219 122.597656 79.875 122.738281 79.855469 122.777344 Z M 79.855469 122.777344 " fill-opacity="1" fill-rule="nonzero"/></g><path fill="#144363" d="M 99.550781 114.417969 L 99.632812 114.589844 C 99.929688 114.316406 99.59375 114.539062 99.550781 114.417969 Z M 99.550781 114.417969 " fill-opacity="1" fill-rule="nonzero"/><path fill="#144363" d="M 101.785156 110.878906 L 101.449219 111.089844 L 101.449219 111.320312 C 101.449219 111.320312 101.785156 110.878906 101.785156 110.878906 Z M 101.785156 110.878906 " fill-opacity="1" fill-rule="nonzero"/><path fill="#144363" d="M 104.230469 109.96875 L 104.605469 109.414062 L 104.320312 109.820312 Z M 104.230469 109.96875 " fill-opacity="1" fill-rule="nonzero"/><path fill="#144363" d="M 107.578125 75.152344 L 107.433594 75.363281 C 107.578125 75.578125 107.871094 75.578125 107.578125 75.152344 Z M 107.578125 75.152344 " fill-opacity="1" fill-rule="nonzero"/><path fill="#144363" d="M 96.710938 62.738281 C 97.007812 62.9375 97.25 63.210938 97.402344 63.300781 C 97.257812 63.007812 97.027344 62.820312 96.710938 62.738281 Z M 96.710938 62.738281 " fill-opacity="1" fill-rule="nonzero"/><path fill="#144363" d="M 53.988281 66.117188 L 53.613281 66.589844 L 53.816406 66.386719 Z M 53.988281 66.117188 " fill-opacity="1" fill-rule="nonzero"/><path fill="#144363" d="M 52.082031 84.5625 C 52.019531 84.894531 51.949219 85.238281 51.898438 85.570312 C 51.277344 89.296875 51.480469 92.980469 52.507812 96.617188 C 52.558594 96.804688 52.679688 96.910156 52.871094 96.9375 C 52.9375 96.953125 53.007812 96.953125 53.074219 96.9375 C 53.195312 96.90625 53.289062 96.832031 53.351562 96.722656 C 53.410156 96.609375 53.425781 96.496094 53.390625 96.375 C 52.40625 92.871094 52.210938 89.324219 52.8125 85.734375 C 52.863281 85.402344 52.921875 85.066406 52.992188 84.726562 C 53.019531 84.597656 52.996094 84.484375 52.925781 84.378906 C 52.851562 84.269531 52.753906 84.207031 52.628906 84.179688 C 52.496094 84.144531 52.375 84.167969 52.265625 84.246094 C 52.152344 84.320312 52.089844 84.429688 52.082031 84.5625 Z M 52.082031 84.5625 " fill-opacity="1" fill-rule="nonzero"/><path fill="#144363" d="M 103.527344 91.410156 C 103.402344 91.402344 103.289062 91.441406 103.191406 91.523438 C 103.097656 91.605469 103.042969 91.710938 103.03125 91.835938 C 103.03125 92.460938 102.898438 93.085938 102.796875 93.722656 C 102.253906 97.023438 101.089844 100.09375 99.300781 102.929688 C 99.230469 103.035156 99.210938 103.148438 99.238281 103.273438 C 99.269531 103.394531 99.335938 103.488281 99.441406 103.554688 C 99.492188 103.59375 99.550781 103.617188 99.613281 103.625 C 99.816406 103.660156 99.972656 103.589844 100.082031 103.414062 C 101.941406 100.476562 103.148438 97.292969 103.703125 93.863281 C 103.8125 93.21875 103.894531 92.5625 103.953125 91.914062 C 103.96875 91.785156 103.933594 91.671875 103.851562 91.574219 C 103.765625 91.472656 103.660156 91.417969 103.527344 91.410156 Z M 103.527344 91.410156 " fill-opacity="1" fill-rule="nonzero"/><g fill="#144363" fill-opacity="1"><g transform="translate(99.334988, 82.948882)"><g><path d="M -0.0585938 0.375 C -0.015625 0.589844 0.0507812 0.617188 0.246094 0.640625 C 0.328125 0.648438 0.425781 0.710938 0.496094 0.699219 L 0.628906 0.71875 C 1.21875 0.984375 1.796875 1.0625 2.425781 1.234375 C 1.910156 1.867188 1.414062 2.515625 0.878906 3.132812 C 0.800781 3.148438 0.746094 3.1875 0.757812 3.277344 L 0.722656 3.355469 C 0.726562 3.414062 0.734375 3.46875 0.746094 3.523438 L 0.777344 3.6875 C 0.851562 3.695312 0.941406 3.71875 1.015625 3.703125 C 1.125 3.679688 1.726562 2.914062 1.886719 2.765625 C 2.515625 3.070312 3.210938 3.15625 3.871094 3.355469 C 3.972656 3.328125 4.136719 3.277344 4.105469 3.132812 C 4.058594 2.914062 3.902344 2.667969 3.640625 2.722656 C 3.527344 2.746094 2.667969 2.433594 2.414062 2.414062 L 2.273438 2.320312 C 2.503906 1.988281 2.753906 1.671875 2.984375 1.34375 C 3.101562 1.316406 3.277344 1.207031 3.25 1.0625 C 3.242188 1.042969 3.230469 1.015625 3.21875 0.996094 C 3.359375 0.773438 3.828125 0 3.777344 -0.238281 C 3.757812 -0.34375 3.640625 -0.453125 3.53125 -0.429688 C 3.414062 -0.40625 3.300781 -0.199219 3.257812 -0.0976562 C 3.136719 0.214844 2.996094 0.5 2.800781 0.769531 C 2.414062 0.648438 2.015625 0.554688 1.621094 0.457031 C 1.253906 0.363281 0.8125 0.308594 0.542969 0.128906 C 0.398438 0.125 0.222656 0.00390625 0.0859375 0.03125 C -0.078125 0.0664062 -0.0859375 0.238281 -0.0585938 0.375 Z M -0.0585938 0.375 "/></g></g></g><g fill="#144363" fill-opacity="1"><g transform="translate(98.524924, 81.136883)"><g><path d="M 0.371094 1.085938 C 0.429688 1.257812 0.664062 1.289062 0.804688 1.222656 L 0.875 1.191406 C 1.304688 0.996094 1.714844 0.734375 2.164062 0.578125 C 2.554688 0.445312 2.945312 0.328125 3.332031 0.195312 C 3.4375 0.15625 3.53125 0.101562 3.636719 0.0664062 C 3.800781 0.0078125 3.988281 0.03125 4.140625 -0.0195312 C 4.292969 -0.0742188 4.28125 -0.246094 4.238281 -0.375 C 4.222656 -0.425781 4.1875 -0.480469 4.15625 -0.527344 C 4.003906 -0.582031 3.695312 -0.53125 3.542969 -0.480469 C 3.390625 -0.425781 3.257812 -0.34375 3.105469 -0.289062 C 2.914062 -0.222656 2.695312 -0.214844 2.496094 -0.144531 C 1.976562 0.0390625 1.5 0.242188 1.023438 0.496094 C 0.863281 0.582031 0.703125 0.695312 0.53125 0.757812 C 0.382812 0.804688 0.316406 0.933594 0.371094 1.085938 Z M 0.371094 1.085938 "/></g></g></g><g fill="#144363" fill-opacity="1"><g transform="translate(96.709127, 77.232719)"><g><path d="M 1.660156 2.679688 C 1.746094 2.847656 1.894531 2.84375 2.058594 2.800781 C 2.53125 2.664062 2.972656 2.472656 3.425781 2.285156 C 3.917969 2.078125 4.4375 1.925781 4.910156 1.6875 C 5.105469 1.589844 5.277344 1.367188 5.179688 1.175781 C 5.089844 1 4.996094 0.828125 4.910156 0.652344 C 4.722656 0.285156 4.550781 -0.0898438 4.441406 -0.496094 C 4.378906 -0.707031 4.367188 -0.9375 4.265625 -1.136719 C 4.160156 -1.347656 3.917969 -1.359375 3.71875 -1.261719 C 3.695312 -1.246094 3.679688 -1.230469 3.660156 -1.207031 C 3.449219 -1.125 3.234375 -1.039062 3.027344 -0.9375 C 2.976562 -0.910156 2.941406 -0.875 2.890625 -0.851562 C 2.796875 -0.804688 2.695312 -0.777344 2.601562 -0.730469 C 2.070312 -0.460938 2.238281 -0.15625 2.425781 0.28125 C 2.507812 0.476562 2.550781 0.679688 2.644531 0.867188 C 2.734375 1.050781 2.914062 1.09375 3.09375 1.003906 C 3.246094 0.925781 3.167969 0.644531 3.109375 0.535156 C 3.046875 0.410156 2.964844 0.308594 2.902344 0.183594 C 2.859375 0.0976562 2.808594 -0.0195312 2.847656 -0.109375 L 3.003906 -0.1875 C 3.28125 -0.328125 3.566406 -0.457031 3.84375 -0.59375 L 3.875 -0.609375 C 3.890625 -0.574219 3.90625 -0.542969 3.921875 -0.5 C 4.058594 -0.0234375 4.230469 0.472656 4.453125 0.914062 C 4.507812 1.027344 4.5625 1.132812 4.613281 1.25 C 4.570312 1.269531 4.535156 1.296875 4.492188 1.316406 C 4.472656 1.328125 4.449219 1.339844 4.425781 1.34375 C 4.042969 1.464844 3.675781 1.609375 3.3125 1.777344 C 2.902344 1.960938 2.492188 2.167969 2.042969 2.222656 C 1.996094 2.054688 1.90625 1.84375 1.828125 1.6875 C 1.789062 1.613281 1.734375 1.546875 1.695312 1.472656 C 1.554688 1.191406 1.476562 0.894531 1.367188 0.601562 C 1.296875 0.539062 1.144531 0.316406 0.976562 0.402344 C 0.820312 0.480469 0.824219 0.71875 0.898438 0.871094 C 1.007812 1.082031 1.066406 1.3125 1.171875 1.523438 C 1.300781 1.773438 1.414062 2.019531 1.542969 2.269531 C 1.605469 2.402344 1.59375 2.546875 1.660156 2.679688 Z M 1.660156 2.679688 "/></g></g></g><g fill="#144363" fill-opacity="1"><g transform="translate(95.456569, 75.670943)"><g><path d="M 2.355469 -0.191406 C 2.621094 0.195312 3.328125 -0.316406 3.832031 -0.558594 C 3.84375 -0.566406 3.859375 -0.570312 3.871094 -0.578125 C 4.207031 -0.804688 3.742188 -1.277344 3.617188 -1.632812 C 3.59375 -1.691406 3.570312 -1.75 3.53125 -1.808594 C 3.484375 -1.878906 3.277344 -1.992188 3.199219 -1.9375 C 2.984375 -1.792969 3.058594 -1.511719 3.171875 -1.34375 C 3.226562 -1.261719 3.296875 -1.195312 3.363281 -1.121094 C 3.410156 -1.03125 3.414062 -1.011719 3.320312 -0.949219 C 3.21875 -0.878906 3.113281 -0.796875 3.011719 -0.730469 C 2.828125 -0.605469 2.582031 -0.605469 2.398438 -0.480469 C 2.296875 -0.414062 2.292969 -0.28125 2.355469 -0.191406 Z M 2.355469 -0.191406 "/></g></g></g><g fill="#144363" fill-opacity="1"><g transform="translate(93.179564, 72.61351)"><g><path d="M 1.652344 2.066406 C 1.894531 2.339844 2.15625 1.980469 2.382812 1.871094 C 2.871094 1.628906 3.375 1.417969 3.847656 1.148438 C 4.207031 0.941406 4.527344 0.671875 4.898438 0.480469 C 4.976562 0.441406 5.058594 0.40625 5.125 0.347656 C 5.425781 0.0820312 5.117188 -0.214844 4.921875 -0.433594 C 4.644531 -0.75 4.28125 -0.921875 4.007812 -1.230469 C 3.878906 -1.375 3.734375 -1.550781 3.59375 -1.707031 C 3.375 -1.957031 3.113281 -2.222656 2.804688 -2.0625 C 2.761719 -1.941406 2.722656 -1.777344 2.820312 -1.664062 C 2.96875 -1.5 3.195312 -1.398438 3.347656 -1.226562 C 3.433594 -1.125 3.492188 -1.007812 3.578125 -0.910156 C 3.867188 -0.585938 4.242188 -0.359375 4.53125 -0.03125 L 4.542969 -0.015625 L 4.492188 0.03125 C 4.226562 0.265625 3.769531 0.507812 3.417969 0.714844 C 2.898438 1.023438 2.3125 1.214844 1.808594 1.554688 C 1.742188 1.671875 1.585938 1.734375 1.617188 1.886719 C 1.597656 1.949219 1.609375 2.011719 1.652344 2.066406 Z M 1.652344 2.066406 "/></g></g></g><g fill="#144363" fill-opacity="1"><g transform="translate(90.489533, 70.494181)"><g/></g></g><g fill="#144363" fill-opacity="1"><g transform="translate(88.511603, 69.424926)"><g><path d="M 0.953125 0.636719 C 1.105469 0.734375 1.308594 0.617188 1.382812 0.480469 L 1.417969 0.414062 C 1.640625 0 1.808594 -0.457031 2.070312 -0.855469 C 2.296875 -1.199219 2.539062 -1.527344 2.765625 -1.871094 C 2.824219 -1.964844 2.867188 -2.066406 2.925781 -2.160156 C 3.023438 -2.304688 3.1875 -2.398438 3.273438 -2.535156 C 3.363281 -2.667969 3.25 -2.800781 3.136719 -2.875 C 3.089844 -2.90625 3.03125 -2.929688 2.976562 -2.945312 C 2.824219 -2.894531 2.609375 -2.667969 2.523438 -2.535156 C 2.433594 -2.402344 2.378906 -2.253906 2.289062 -2.117188 C 2.179688 -1.949219 2.011719 -1.808594 1.894531 -1.632812 C 1.589844 -1.171875 1.335938 -0.71875 1.113281 -0.230469 C 1.039062 -0.0625 0.980469 0.125 0.878906 0.277344 C 0.796875 0.40625 0.820312 0.546875 0.953125 0.636719 Z M 0.953125 0.636719 "/></g></g></g><g fill="#144363" fill-opacity="1"><g transform="translate(84.182201, 67.292337)"><g><path d="M 3.390625 1.480469 C 3.753906 1.652344 4.070312 0.65625 4.320312 0.304688 C 4.351562 0.253906 4.382812 0.21875 4.410156 0.167969 C 4.445312 0.0898438 4.464844 0.015625 4.496094 -0.0546875 C 4.507812 -0.078125 4.523438 -0.113281 4.542969 -0.132812 C 4.546875 -0.160156 4.542969 -0.164062 4.542969 -0.171875 C 4.546875 -0.175781 4.550781 -0.183594 4.5625 -0.195312 C 4.753906 -0.699219 4.953125 -1.199219 5.140625 -1.707031 C 5.128906 -1.867188 5.238281 -1.933594 5.113281 -2.09375 C 4.972656 -2.265625 4.226562 -2.671875 3.992188 -2.785156 L 3.960938 -2.78125 C 3.601562 -2.953125 2.289062 -3.320312 1.914062 -3.296875 C 1.863281 -3.25 1.792969 -3.203125 1.765625 -3.140625 C 1.707031 -3.023438 1.789062 -2.851562 1.917969 -2.792969 C 1.949219 -2.777344 1.992188 -2.769531 2.023438 -2.773438 C 2.0625 -2.753906 2.519531 -2.660156 2.589844 -2.648438 C 3.023438 -2.578125 3.429688 -2.460938 3.824219 -2.277344 C 4.089844 -2.152344 4.34375 -2 4.582031 -1.824219 C 4.546875 -1.648438 4.445312 -1.464844 4.386719 -1.289062 C 4.269531 -0.960938 4.164062 -0.628906 4.015625 -0.3125 C 3.78125 0.1875 3.488281 0.652344 3.222656 1.136719 C 3.238281 1.269531 3.253906 1.414062 3.390625 1.480469 Z M 1.046875 -0.433594 C 0.890625 -0.0976562 0.625 0.472656 0.949219 0.625 C 1.070312 0.683594 1.195312 0.644531 1.28125 0.542969 C 1.375 0.25 1.503906 -0.0390625 1.636719 -0.324219 C 1.753906 -0.570312 1.875 -0.808594 1.988281 -1.046875 C 2.066406 -1.210938 2.132812 -1.375 2.203125 -1.535156 C 2.136719 -1.589844 2.121094 -1.605469 2.117188 -1.691406 C 1.953125 -1.738281 1.847656 -1.78125 1.679688 -1.71875 C 1.46875 -1.292969 1.25 -0.863281 1.046875 -0.433594 Z M 1.046875 -0.433594 "/></g></g></g><g fill="#144363" fill-opacity="1"><g transform="translate(82.325371, 66.835381)"><g><path d="M 1.726562 -1.617188 C 2.171875 -1.476562 2.40625 -2.320312 2.652344 -2.824219 C 2.65625 -2.835938 2.664062 -2.847656 2.667969 -2.859375 C 2.789062 -3.246094 2.132812 -3.328125 1.816406 -3.527344 C 1.761719 -3.5625 1.703125 -3.59375 1.636719 -3.613281 C 1.558594 -3.640625 1.324219 -3.601562 1.296875 -3.507812 C 1.21875 -3.261719 1.449219 -3.085938 1.644531 -3.027344 C 1.738281 -2.996094 1.835938 -2.988281 1.933594 -2.972656 C 2.023438 -2.929688 2.042969 -2.917969 2.007812 -2.808594 C 1.972656 -2.691406 1.9375 -2.5625 1.902344 -2.445312 C 1.835938 -2.234375 1.644531 -2.082031 1.578125 -1.867188 C 1.542969 -1.753906 1.617188 -1.648438 1.726562 -1.617188 Z M 1.726562 -1.617188 "/></g></g></g><g fill="#144363" fill-opacity="1"><g transform="translate(78.68837, 66.115557)"><g><path d="M 2.019531 0.769531 C 2.359375 0.832031 2.378906 0.40625 2.515625 0.167969 C 2.898438 -0.535156 3.257812 -1.257812 3.632812 -1.972656 C 3.785156 -2.269531 3.980469 -2.519531 4.058594 -2.851562 C 3.851562 -2.941406 3.960938 -3.035156 3.660156 -3.089844 C 3.425781 -3.132812 3.207031 -3.222656 2.972656 -3.265625 C 2.71875 -3.3125 2.460938 -3.230469 2.207031 -3.277344 C 2.003906 -3.316406 1.785156 -3.339844 1.578125 -3.378906 L 1.464844 -3.402344 C 1.585938 -3.648438 1.679688 -3.894531 1.75 -4.15625 C 1.804688 -4.363281 1.972656 -4.515625 2.011719 -4.722656 C 2.042969 -4.894531 1.960938 -5.101562 1.773438 -5.136719 C 1.382812 -5.207031 1.332031 -4.511719 1.179688 -4.257812 C 1.085938 -4.101562 0.917969 -3.5 0.800781 -3.445312 C 0.769531 -3.269531 0.835938 -2.96875 1.042969 -2.929688 C 1.078125 -2.921875 1.121094 -2.921875 1.152344 -2.9375 C 1.3125 -2.894531 1.488281 -2.8125 1.65625 -2.78125 C 1.804688 -2.753906 1.960938 -2.78125 2.113281 -2.753906 C 2.53125 -2.679688 3.140625 -2.625 3.140625 -2.625 L 3.265625 -2.570312 C 3.25 -2.554688 3.246094 -2.53125 3.242188 -2.511719 L 3.230469 -2.457031 C 3.226562 -2.429688 3.222656 -2.402344 3.195312 -2.386719 C 3.007812 -2.179688 2.8125 -1.660156 2.695312 -1.390625 C 2.441406 -0.832031 2.078125 -0.324219 1.859375 0.25 C 1.863281 0.277344 1.855469 0.304688 1.851562 0.332031 C 1.84375 0.367188 1.832031 0.398438 1.828125 0.425781 C 1.816406 0.484375 1.820312 0.539062 1.863281 0.613281 L 1.910156 0.664062 C 1.898438 0.652344 1.890625 0.652344 1.886719 0.652344 C 1.882812 0.664062 1.945312 0.753906 2.019531 0.769531 Z M 2.019531 0.769531 "/></g></g></g><g fill="#144363" fill-opacity="1"><g transform="translate(73.832898, 66.05985)"><g><path d="M 3.699219 -0.0898438 C 4.097656 -0.0859375 3.964844 -1.121094 4.042969 -1.550781 C 4.050781 -1.605469 4.066406 -1.652344 4.066406 -1.710938 C 4.066406 -1.792969 4.054688 -1.871094 4.054688 -1.949219 C 4.054688 -1.976562 4.054688 -2.011719 4.0625 -2.039062 C 4.054688 -2.066406 4.046875 -2.066406 4.046875 -2.074219 C 4.046875 -2.082031 4.046875 -2.085938 4.054688 -2.101562 C 4.015625 -2.640625 3.984375 -3.179688 3.9375 -3.71875 C 3.863281 -3.859375 3.933594 -3.960938 3.753906 -4.054688 C 3.550781 -4.152344 2.703125 -4.207031 2.445312 -4.210938 L 2.417969 -4.195312 C 2.019531 -4.199219 0.675781 -3.976562 0.34375 -3.796875 C 0.316406 -3.734375 0.273438 -3.664062 0.273438 -3.59375 C 0.273438 -3.460938 0.417969 -3.339844 0.558594 -3.339844 C 0.59375 -3.339844 0.636719 -3.351562 0.664062 -3.367188 C 0.707031 -3.367188 1.160156 -3.476562 1.230469 -3.496094 C 1.652344 -3.613281 2.070312 -3.679688 2.503906 -3.675781 C 2.796875 -3.675781 3.09375 -3.644531 3.386719 -3.589844 C 3.425781 -3.414062 3.410156 -3.203125 3.429688 -3.019531 C 3.464844 -2.671875 3.511719 -2.328125 3.507812 -1.980469 C 3.503906 -1.425781 3.4375 -0.882812 3.402344 -0.328125 C 3.46875 -0.21875 3.546875 -0.0898438 3.699219 -0.0898438 Z M 0.765625 -0.835938 C 0.765625 -0.464844 0.769531 0.164062 1.125 0.167969 C 1.257812 0.167969 1.355469 0.078125 1.390625 -0.046875 C 1.351562 -0.355469 1.347656 -0.671875 1.347656 -0.984375 C 1.351562 -1.257812 1.359375 -1.523438 1.359375 -1.789062 C 1.363281 -1.972656 1.355469 -2.144531 1.351562 -2.320312 C 1.265625 -2.34375 1.246094 -2.347656 1.203125 -2.425781 C 1.035156 -2.398438 0.921875 -2.394531 0.796875 -2.269531 C 0.785156 -1.792969 0.769531 -1.308594 0.765625 -0.835938 Z M 0.765625 -0.835938 "/></g></g></g><g fill="#144363" fill-opacity="1"><g transform="translate(70.874301, 66.71052)"><g/></g></g><g fill="#144363" fill-opacity="1"><g transform="translate(66.05341, 68.191322)"><g><path d="M 3.464844 -1.304688 C 3.839844 -1.433594 3.371094 -2.367188 3.308594 -2.796875 C 3.296875 -2.851562 3.292969 -2.902344 3.273438 -2.957031 C 3.246094 -3.035156 3.210938 -3.101562 3.183594 -3.175781 C 3.175781 -3.203125 3.164062 -3.234375 3.160156 -3.265625 C 3.144531 -3.289062 3.140625 -3.285156 3.136719 -3.292969 C 3.136719 -3.300781 3.132812 -3.304688 3.132812 -3.320312 C 2.921875 -3.816406 2.710938 -4.316406 2.492188 -4.808594 C 2.375 -4.917969 2.40625 -5.039062 2.203125 -5.066406 C 1.980469 -5.09375 1.164062 -4.863281 0.917969 -4.78125 L 0.898438 -4.757812 C 0.519531 -4.628906 -0.675781 -3.976562 -0.925781 -3.695312 C -0.933594 -3.628906 -0.949219 -3.546875 -0.925781 -3.480469 C -0.882812 -3.355469 -0.707031 -3.292969 -0.574219 -3.335938 C -0.542969 -3.347656 -0.507812 -3.375 -0.484375 -3.398438 C -0.445312 -3.410156 -0.0507812 -3.664062 0.0078125 -3.707031 C 0.367188 -3.957031 0.742188 -4.15625 1.152344 -4.296875 C 1.429688 -4.394531 1.714844 -4.460938 2.011719 -4.503906 C 2.109375 -4.351562 2.164062 -4.148438 2.242188 -3.984375 C 2.390625 -3.664062 2.546875 -3.355469 2.660156 -3.027344 C 2.839844 -2.503906 2.957031 -1.964844 3.101562 -1.433594 C 3.203125 -1.347656 3.316406 -1.253906 3.464844 -1.304688 Z M 0.449219 -1.039062 C 0.570312 -0.691406 0.78125 -0.0976562 1.117188 -0.210938 C 1.242188 -0.257812 1.304688 -0.375 1.296875 -0.503906 C 1.160156 -0.78125 1.050781 -1.078125 0.949219 -1.375 C 0.859375 -1.632812 0.78125 -1.886719 0.695312 -2.136719 C 0.636719 -2.308594 0.570312 -2.472656 0.507812 -2.636719 C 0.421875 -2.628906 0.402344 -2.628906 0.335938 -2.6875 C 0.1875 -2.605469 0.0820312 -2.5625 0.00390625 -2.402344 C 0.152344 -1.953125 0.296875 -1.492188 0.449219 -1.039062 Z M 0.449219 -1.039062 "/></g></g></g><g fill="#144363" fill-opacity="1"><g transform="translate(63.993313, 69.699014)"><g><path d="M 0.472656 -0.0546875 C 0.550781 -0.0976562 0.609375 -0.167969 0.667969 -0.238281 C 0.484375 -0.574219 0.265625 -0.894531 0.0859375 -1.234375 C 0.00390625 -1.390625 -0.0546875 -1.554688 -0.125 -1.71875 C -0.285156 -2.089844 -0.46875 -2.453125 -0.628906 -2.828125 C -0.746094 -3.105469 -0.773438 -3.410156 -0.847656 -3.695312 C -0.402344 -3.859375 0.0117188 -4.09375 0.4375 -4.308594 C 0.496094 -4.226562 0.542969 -4.136719 0.589844 -4.046875 C 0.757812 -3.734375 0.851562 -3.378906 1.019531 -3.066406 C 1.117188 -2.878906 1.242188 -2.707031 1.339844 -2.523438 C 1.390625 -2.429688 1.429688 -2.324219 1.480469 -2.234375 C 1.65625 -1.90625 2.125 -1.199219 2.398438 -1.34375 C 2.480469 -1.386719 2.601562 -1.632812 2.550781 -1.726562 C 2.5 -1.824219 2.316406 -2.078125 2.21875 -2.125 C 2.035156 -2.378906 1.882812 -2.652344 1.734375 -2.929688 C 1.464844 -3.4375 1.261719 -3.980469 0.992188 -4.484375 C 0.855469 -4.738281 0.644531 -4.996094 0.269531 -4.796875 C -0.136719 -4.578125 -0.578125 -4.410156 -0.984375 -4.191406 C -1.027344 -4.167969 -1.074219 -4.136719 -1.117188 -4.113281 C -1.164062 -4.085938 -1.351562 -4.058594 -1.460938 -4 C -1.601562 -3.925781 -1.691406 -3.773438 -1.605469 -3.621094 C -1.550781 -3.515625 -1.460938 -3.476562 -1.347656 -3.488281 C -1.300781 -3.285156 -1.222656 -3.050781 -1.214844 -2.839844 C -0.992188 -2.300781 -0.730469 -1.773438 -0.515625 -1.230469 C -0.46875 -1.113281 -0.417969 -0.988281 -0.359375 -0.878906 C -0.289062 -0.75 -0.195312 -0.648438 -0.125 -0.519531 C -0.09375 -0.457031 -0.0625 -0.386719 -0.0234375 -0.3125 C 0.0820312 -0.113281 0.222656 0.078125 0.472656 -0.0546875 Z M 0.472656 -0.0546875 "/></g></g></g><g fill="#144363" fill-opacity="1"><g transform="translate(60.646706, 72.045167)"><g><path d="M 2.675781 -1.910156 C 2.78125 -1.988281 2.804688 -2.109375 2.8125 -2.230469 C 2.589844 -2.652344 2.300781 -3.066406 2.015625 -3.457031 C 1.949219 -3.546875 1.859375 -3.628906 1.792969 -3.71875 C 1.75 -3.78125 1.710938 -3.855469 1.664062 -3.917969 C 1.632812 -3.964844 1.585938 -3.992188 1.550781 -4.035156 C 1.390625 -4.253906 1.183594 -4.597656 1.03125 -4.886719 C 1.011719 -4.898438 0.996094 -4.910156 0.980469 -4.925781 C 0.945312 -4.976562 0.921875 -5.03125 0.890625 -5.078125 C 0.707031 -5.324219 0.402344 -5.222656 0.214844 -5.082031 C 0.0078125 -4.929688 -0.199219 -4.761719 -0.363281 -4.5625 C -0.523438 -4.367188 -0.644531 -4.140625 -0.851562 -3.984375 C -0.996094 -3.878906 -1.160156 -3.800781 -1.304688 -3.695312 C -1.496094 -3.554688 -1.523438 -3.410156 -1.382812 -3.21875 C -1.246094 -3.035156 -0.941406 -3.25 -0.8125 -3.34375 L 0.320312 -1.710938 C 0.347656 -1.671875 0.390625 -1.640625 0.417969 -1.601562 C 0.480469 -1.519531 0.527344 -1.421875 0.585938 -1.335938 L 0.613281 -1.300781 C 0.535156 -1.195312 0.328125 -0.96875 0.226562 -0.894531 C 0.125 -0.820312 0.0117188 -0.75 -0.0898438 -0.671875 C -0.148438 -0.414062 -0.15625 -0.398438 -0.0195312 -0.160156 C 0.0195312 -0.1875 0.0546875 -0.222656 0.09375 -0.25 C 0.257812 -0.371094 0.4375 -0.46875 0.597656 -0.589844 C 0.824219 -0.753906 1.382812 -1.28125 1.1875 -1.585938 C 0.984375 -1.695312 0.75 -2.003906 0.578125 -2.234375 C 0.390625 -2.488281 0.261719 -2.769531 0.0742188 -3.023438 C 0 -3.125 -0.109375 -3.210938 -0.183594 -3.3125 C -0.246094 -3.398438 -0.289062 -3.496094 -0.351562 -3.578125 L -0.417969 -3.667969 C -0.171875 -3.972656 0.0546875 -4.324219 0.371094 -4.554688 C 0.449219 -4.613281 0.503906 -4.636719 0.566406 -4.550781 C 0.886719 -4.113281 1.199219 -3.65625 1.511719 -3.207031 C 1.660156 -2.996094 1.835938 -2.769531 1.957031 -2.542969 C 2.054688 -2.363281 2.113281 -2.164062 2.234375 -2 C 2.351562 -1.84375 2.511719 -1.789062 2.675781 -1.910156 Z M 2.675781 -1.910156 "/></g></g></g><g fill="#144363" fill-opacity="1"><g transform="translate(58.94139, 73.418297)"><g><path d="M 0.835938 -0.785156 C 0.96875 -0.910156 0.898438 -1.132812 0.785156 -1.238281 L 0.726562 -1.289062 C 0.371094 -1.597656 -0.0351562 -1.867188 -0.363281 -2.210938 C -0.648438 -2.511719 -0.910156 -2.816406 -1.195312 -3.117188 C -1.273438 -3.199219 -1.359375 -3.261719 -1.4375 -3.339844 C -1.558594 -3.46875 -1.613281 -3.648438 -1.722656 -3.765625 C -1.835938 -3.878906 -1.988281 -3.800781 -2.085938 -3.710938 C -2.125 -3.671875 -2.164062 -3.617188 -2.195312 -3.570312 C -2.179688 -3.410156 -2.007812 -3.148438 -1.894531 -3.03125 C -1.785156 -2.914062 -1.652344 -2.828125 -1.542969 -2.710938 C -1.402344 -2.5625 -1.304688 -2.367188 -1.160156 -2.214844 C -0.78125 -1.816406 -0.398438 -1.464844 0.0273438 -1.136719 C 0.175781 -1.023438 0.34375 -0.925781 0.46875 -0.792969 C 0.578125 -0.683594 0.71875 -0.675781 0.835938 -0.785156 Z M 0.835938 -0.785156 "/></g></g></g><g fill="#144363" fill-opacity="1"><g transform="translate(56.99842, 76.045764)"><g><path d="M 0.308594 -0.355469 C 0.570312 -0.789062 0.925781 -1.15625 1.179688 -1.601562 C 1.292969 -1.800781 1.527344 -2.015625 1.441406 -2.261719 C 1.234375 -2.828125 0.730469 -3.316406 0.273438 -3.695312 C 0.171875 -3.78125 0.0546875 -3.863281 -0.046875 -3.945312 C -0.242188 -4.113281 -0.378906 -4.335938 -0.574219 -4.5 C -0.683594 -4.589844 -0.777344 -4.589844 -0.890625 -4.507812 C -1.007812 -4.554688 -1.128906 -4.519531 -1.210938 -4.421875 C -1.234375 -4.390625 -1.253906 -4.359375 -1.269531 -4.328125 C -1.363281 -4.128906 -1.472656 -3.957031 -1.609375 -3.792969 C -1.671875 -3.714844 -1.761719 -3.632812 -1.835938 -3.542969 C -1.980469 -3.371094 -2.074219 -3.183594 -1.847656 -2.996094 C -1.761719 -2.925781 -1.640625 -2.917969 -1.566406 -3.003906 C -1.5 -3.085938 -1.449219 -3.199219 -1.378906 -3.285156 C -1.207031 -3.488281 -1.015625 -3.664062 -0.84375 -3.867188 L -0.800781 -3.832031 C -0.453125 -3.539062 -0.109375 -3.230469 0.222656 -2.917969 C 0.464844 -2.6875 0.816406 -2.4375 0.898438 -2.09375 C 0.839844 -2 0.789062 -1.894531 0.714844 -1.808594 C 0.699219 -1.789062 0.683594 -1.773438 0.65625 -1.757812 C 0.503906 -1.558594 0.34375 -1.375 0.238281 -1.140625 C 0.171875 -1.117188 0.109375 -1.066406 0.0664062 -1.011719 C 0.0234375 -0.964844 0 -0.914062 -0.0195312 -0.855469 L -0.0195312 -0.792969 L -0.0859375 -0.722656 C -0.078125 -0.59375 -0.234375 -0.460938 -0.105469 -0.351562 C -0.0078125 -0.273438 0.207031 -0.28125 0.308594 -0.355469 Z M 0.308594 -0.355469 "/></g></g></g><g fill="#144363" fill-opacity="1"><g transform="translate(54.263425, 80.101878)"><g><path d="M 1.777344 -3.246094 C 1.976562 -3.589844 1.015625 -3.996094 0.683594 -4.277344 C 0.640625 -4.3125 0.605469 -4.347656 0.558594 -4.375 C 0.484375 -4.417969 0.410156 -4.445312 0.34375 -4.484375 C 0.320312 -4.5 0.289062 -4.515625 0.269531 -4.535156 C 0.242188 -4.542969 0.238281 -4.539062 0.234375 -4.542969 C 0.226562 -4.546875 0.222656 -4.550781 0.210938 -4.5625 C -0.273438 -4.796875 -0.753906 -5.039062 -1.246094 -5.269531 C -1.402344 -5.277344 -1.460938 -5.390625 -1.628906 -5.277344 C -1.816406 -5.152344 -2.289062 -4.449219 -2.417969 -4.226562 L -2.421875 -4.195312 C -2.621094 -3.851562 -3.101562 -2.574219 -3.113281 -2.199219 C -3.070312 -2.144531 -3.03125 -2.070312 -2.972656 -2.035156 C -2.859375 -1.96875 -2.679688 -2.035156 -2.609375 -2.15625 C -2.59375 -2.1875 -2.582031 -2.230469 -2.582031 -2.261719 C -2.558594 -2.296875 -2.425781 -2.746094 -2.410156 -2.816406 C -2.300781 -3.238281 -2.148438 -3.636719 -1.929688 -4.011719 C -1.78125 -4.261719 -1.605469 -4.503906 -1.410156 -4.726562 C -1.238281 -4.675781 -1.0625 -4.558594 -0.894531 -4.484375 C -0.578125 -4.335938 -0.257812 -4.203125 0.0429688 -4.027344 C 0.519531 -3.75 0.960938 -3.417969 1.417969 -3.109375 C 1.550781 -3.113281 1.699219 -3.113281 1.777344 -3.246094 Z M -0.339844 -1.082031 C -0.0195312 -0.894531 0.527344 -0.582031 0.707031 -0.890625 C 0.777344 -1.003906 0.746094 -1.132812 0.65625 -1.230469 C 0.371094 -1.347656 0.09375 -1.5 -0.175781 -1.660156 C -0.410156 -1.796875 -0.636719 -1.9375 -0.867188 -2.074219 C -1.023438 -2.164062 -1.179688 -2.25 -1.332031 -2.332031 C -1.394531 -2.269531 -1.410156 -2.253906 -1.496094 -2.257812 C -1.558594 -2.097656 -1.609375 -2 -1.5625 -1.824219 C -1.15625 -1.578125 -0.75 -1.324219 -0.339844 -1.082031 Z M -0.339844 -1.082031 "/></g></g></g><g fill="#144363" fill-opacity="1"><g transform="translate(53.477804, 83.275412)"><g/></g></g><g fill="#144363" fill-opacity="1"><g transform="translate(61.756755, 84.247249)"><g><path d="M 3.65625 -4.203125 C 3.800781 -4.179688 3.898438 -4.140625 3.953125 -4.078125 C 4.003906 -4.015625 4.019531 -3.925781 4 -3.8125 L 3.671875 -1.703125 L 4.34375 -1.59375 C 4.40625 -1.582031 4.445312 -1.5625 4.46875 -1.53125 C 4.5 -1.507812 4.519531 -1.46875 4.53125 -1.40625 C 4.550781 -1.351562 4.550781 -1.273438 4.53125 -1.171875 C 4.519531 -1.066406 4.5 -0.984375 4.46875 -0.921875 C 4.4375 -0.867188 4.398438 -0.832031 4.359375 -0.8125 C 4.328125 -0.800781 4.28125 -0.800781 4.21875 -0.8125 L 3.546875 -0.921875 L 3.453125 -0.265625 L 4 -0.171875 C 4.0625 -0.171875 4.109375 -0.15625 4.140625 -0.125 C 4.171875 -0.09375 4.191406 -0.0507812 4.203125 0 C 4.210938 0.0507812 4.207031 0.128906 4.1875 0.234375 C 4.164062 0.347656 4.144531 0.429688 4.125 0.484375 C 4.101562 0.546875 4.070312 0.582031 4.03125 0.59375 C 3.988281 0.601562 3.9375 0.609375 3.875 0.609375 L 1.71875 0.265625 C 1.65625 0.253906 1.609375 0.234375 1.578125 0.203125 C 1.546875 0.179688 1.523438 0.140625 1.515625 0.078125 C 1.503906 0.0234375 1.507812 -0.0546875 1.53125 -0.171875 C 1.550781 -0.273438 1.570312 -0.351562 1.59375 -0.40625 C 1.613281 -0.457031 1.644531 -0.488281 1.6875 -0.5 C 1.726562 -0.519531 1.78125 -0.523438 1.84375 -0.515625 L 2.484375 -0.421875 L 2.578125 -1.078125 L 0.921875 -1.328125 C 0.867188 -1.335938 0.828125 -1.351562 0.796875 -1.375 C 0.765625 -1.40625 0.742188 -1.445312 0.734375 -1.5 C 0.734375 -1.5625 0.738281 -1.644531 0.75 -1.75 C 0.78125 -1.90625 0.820312 -2.015625 0.875 -2.078125 L 3.03125 -4.046875 C 3.113281 -4.128906 3.203125 -4.179688 3.296875 -4.203125 C 3.398438 -4.222656 3.519531 -4.222656 3.65625 -4.203125 Z M 1.90625 -1.96875 L 2.75 -1.84375 L 2.984375 -2.953125 Z M 1.90625 -1.96875 "/></g></g><g transform="translate(66.492273, 84.982972)"><g><path d="M 2.59375 -1.0625 C 2.8125 -1.03125 2.96875 -0.984375 3.0625 -0.921875 C 3.164062 -0.867188 3.210938 -0.800781 3.203125 -0.71875 L 3.046875 0.265625 C 3.035156 0.347656 2.972656 0.398438 2.859375 0.421875 C 2.753906 0.453125 2.59375 0.453125 2.375 0.421875 C 2.144531 0.378906 1.984375 0.328125 1.890625 0.265625 C 1.796875 0.210938 1.753906 0.144531 1.765625 0.0625 L 1.921875 -0.921875 C 1.929688 -1.003906 1.988281 -1.054688 2.09375 -1.078125 C 2.195312 -1.109375 2.363281 -1.101562 2.59375 -1.0625 Z M 2.59375 -1.0625 "/></g></g><g transform="translate(71.227791, 85.718695)"><g><path d="M 4 -0.171875 C 4.0625 -0.171875 4.109375 -0.15625 4.140625 -0.125 C 4.171875 -0.09375 4.191406 -0.0507812 4.203125 0 C 4.210938 0.0507812 4.207031 0.128906 4.1875 0.234375 C 4.164062 0.347656 4.144531 0.429688 4.125 0.484375 C 4.101562 0.546875 4.070312 0.582031 4.03125 0.59375 C 3.988281 0.601562 3.9375 0.609375 3.875 0.609375 L 1.046875 0.15625 C 0.984375 0.15625 0.9375 0.140625 0.90625 0.109375 C 0.882812 0.0859375 0.867188 0.046875 0.859375 -0.015625 C 0.847656 -0.078125 0.851562 -0.164062 0.875 -0.28125 C 0.894531 -0.382812 0.914062 -0.457031 0.9375 -0.5 C 0.957031 -0.550781 0.984375 -0.582031 1.015625 -0.59375 C 1.054688 -0.613281 1.109375 -0.625 1.171875 -0.625 L 2.125 -0.46875 L 2.53125 -3.078125 L 1.65625 -2.75 C 1.601562 -2.738281 1.5625 -2.734375 1.53125 -2.734375 C 1.476562 -2.742188 1.429688 -2.773438 1.390625 -2.828125 C 1.347656 -2.878906 1.316406 -2.957031 1.296875 -3.0625 C 1.253906 -3.175781 1.242188 -3.273438 1.265625 -3.359375 C 1.265625 -3.410156 1.273438 -3.453125 1.296875 -3.484375 C 1.328125 -3.515625 1.375 -3.539062 1.4375 -3.5625 L 3.21875 -4.21875 C 3.300781 -4.25 3.378906 -4.257812 3.453125 -4.25 C 3.523438 -4.238281 3.578125 -4.210938 3.609375 -4.171875 C 3.648438 -4.128906 3.664062 -4.066406 3.65625 -3.984375 L 3.09375 -0.328125 Z M 4 -0.171875 "/></g></g><g transform="translate(75.963308, 86.454418)"><g><path d="M 4 -0.171875 C 4.0625 -0.171875 4.109375 -0.15625 4.140625 -0.125 C 4.171875 -0.09375 4.191406 -0.0507812 4.203125 0 C 4.210938 0.0507812 4.207031 0.128906 4.1875 0.234375 C 4.164062 0.347656 4.144531 0.429688 4.125 0.484375 C 4.101562 0.546875 4.070312 0.582031 4.03125 0.59375 C 3.988281 0.601562 3.9375 0.609375 3.875 0.609375 L 1.046875 0.15625 C 0.984375 0.15625 0.9375 0.140625 0.90625 0.109375 C 0.882812 0.0859375 0.867188 0.046875 0.859375 -0.015625 C 0.847656 -0.078125 0.851562 -0.164062 0.875 -0.28125 C 0.894531 -0.382812 0.914062 -0.457031 0.9375 -0.5 C 0.957031 -0.550781 0.984375 -0.582031 1.015625 -0.59375 C 1.054688 -0.613281 1.109375 -0.625 1.171875 -0.625 L 2.125 -0.46875 L 2.53125 -3.078125 L 1.65625 -2.75 C 1.601562 -2.738281 1.5625 -2.734375 1.53125 -2.734375 C 1.476562 -2.742188 1.429688 -2.773438 1.390625 -2.828125 C 1.347656 -2.878906 1.316406 -2.957031 1.296875 -3.0625 C 1.253906 -3.175781 1.242188 -3.273438 1.265625 -3.359375 C 1.265625 -3.410156 1.273438 -3.453125 1.296875 -3.484375 C 1.328125 -3.515625 1.375 -3.539062 1.4375 -3.5625 L 3.21875 -4.21875 C 3.300781 -4.25 3.378906 -4.257812 3.453125 -4.25 C 3.523438 -4.238281 3.578125 -4.210938 3.609375 -4.171875 C 3.648438 -4.128906 3.664062 -4.066406 3.65625 -3.984375 L 3.09375 -0.328125 Z M 4 -0.171875 "/></g></g><g transform="translate(80.698826, 87.190141)"><g><path d="M 2.59375 -1.0625 C 2.8125 -1.03125 2.96875 -0.984375 3.0625 -0.921875 C 3.164062 -0.867188 3.210938 -0.800781 3.203125 -0.71875 L 3.046875 0.265625 C 3.035156 0.347656 2.972656 0.398438 2.859375 0.421875 C 2.753906 0.453125 2.59375 0.453125 2.375 0.421875 C 2.144531 0.378906 1.984375 0.328125 1.890625 0.265625 C 1.796875 0.210938 1.753906 0.144531 1.765625 0.0625 L 1.921875 -0.921875 C 1.929688 -1.003906 1.988281 -1.054688 2.09375 -1.078125 C 2.195312 -1.109375 2.363281 -1.101562 2.59375 -1.0625 Z M 2.59375 -1.0625 "/></g></g><g transform="translate(85.434344, 87.925864)"><g><path d="M 3.03125 -4.296875 C 3.375 -4.242188 3.65625 -4.144531 3.875 -4 C 4.09375 -3.851562 4.25 -3.660156 4.34375 -3.421875 C 4.4375 -3.191406 4.457031 -2.929688 4.40625 -2.640625 C 4.375 -2.390625 4.28125 -2.160156 4.125 -1.953125 C 3.96875 -1.753906 3.742188 -1.5625 3.453125 -1.375 L 2.234375 -0.5 L 3.34375 -0.328125 L 3.40625 -0.6875 C 3.414062 -0.78125 3.445312 -0.835938 3.5 -0.859375 C 3.5625 -0.890625 3.675781 -0.894531 3.84375 -0.875 C 4.007812 -0.84375 4.125 -0.800781 4.1875 -0.75 C 4.257812 -0.695312 4.289062 -0.628906 4.28125 -0.546875 L 4.125 0.390625 C 4.113281 0.472656 4.085938 0.53125 4.046875 0.5625 C 4.003906 0.601562 3.9375 0.613281 3.84375 0.59375 L 0.84375 0.125 C 0.78125 0.125 0.734375 0.109375 0.703125 0.078125 C 0.679688 0.0546875 0.664062 0.015625 0.65625 -0.046875 C 0.65625 -0.109375 0.664062 -0.195312 0.6875 -0.3125 C 0.707031 -0.414062 0.722656 -0.488281 0.734375 -0.53125 C 0.753906 -0.582031 0.785156 -0.617188 0.828125 -0.640625 L 2.71875 -1.984375 C 2.96875 -2.148438 3.140625 -2.289062 3.234375 -2.40625 C 3.335938 -2.53125 3.398438 -2.660156 3.421875 -2.796875 C 3.453125 -2.960938 3.421875 -3.109375 3.328125 -3.234375 C 3.242188 -3.359375 3.101562 -3.4375 2.90625 -3.46875 C 2.6875 -3.5 2.460938 -3.484375 2.234375 -3.421875 L 2.140625 -2.890625 C 2.128906 -2.796875 2.09375 -2.734375 2.03125 -2.703125 C 1.96875 -2.671875 1.851562 -2.671875 1.6875 -2.703125 C 1.519531 -2.722656 1.398438 -2.753906 1.328125 -2.796875 C 1.265625 -2.847656 1.238281 -2.921875 1.25 -3.015625 L 1.390625 -3.921875 C 1.410156 -4.023438 1.476562 -4.101562 1.59375 -4.15625 C 1.851562 -4.238281 2.101562 -4.289062 2.34375 -4.3125 C 2.582031 -4.332031 2.8125 -4.328125 3.03125 -4.296875 Z M 3.03125 -4.296875 "/></g></g><g transform="translate(90.169862, 88.661587)"><g><path d="M 3.03125 -4.296875 C 3.375 -4.242188 3.65625 -4.144531 3.875 -4 C 4.09375 -3.851562 4.25 -3.660156 4.34375 -3.421875 C 4.4375 -3.191406 4.457031 -2.929688 4.40625 -2.640625 C 4.375 -2.390625 4.28125 -2.160156 4.125 -1.953125 C 3.96875 -1.753906 3.742188 -1.5625 3.453125 -1.375 L 2.234375 -0.5 L 3.34375 -0.328125 L 3.40625 -0.6875 C 3.414062 -0.78125 3.445312 -0.835938 3.5 -0.859375 C 3.5625 -0.890625 3.675781 -0.894531 3.84375 -0.875 C 4.007812 -0.84375 4.125 -0.800781 4.1875 -0.75 C 4.257812 -0.695312 4.289062 -0.628906 4.28125 -0.546875 L 4.125 0.390625 C 4.113281 0.472656 4.085938 0.53125 4.046875 0.5625 C 4.003906 0.601562 3.9375 0.613281 3.84375 0.59375 L 0.84375 0.125 C 0.78125 0.125 0.734375 0.109375 0.703125 0.078125 C 0.679688 0.0546875 0.664062 0.015625 0.65625 -0.046875 C 0.65625 -0.109375 0.664062 -0.195312 0.6875 -0.3125 C 0.707031 -0.414062 0.722656 -0.488281 0.734375 -0.53125 C 0.753906 -0.582031 0.785156 -0.617188 0.828125 -0.640625 L 2.71875 -1.984375 C 2.96875 -2.148438 3.140625 -2.289062 3.234375 -2.40625 C 3.335938 -2.53125 3.398438 -2.660156 3.421875 -2.796875 C 3.453125 -2.960938 3.421875 -3.109375 3.328125 -3.234375 C 3.242188 -3.359375 3.101562 -3.4375 2.90625 -3.46875 C 2.6875 -3.5 2.460938 -3.484375 2.234375 -3.421875 L 2.140625 -2.890625 C 2.128906 -2.796875 2.09375 -2.734375 2.03125 -2.703125 C 1.96875 -2.671875 1.851562 -2.671875 1.6875 -2.703125 C 1.519531 -2.722656 1.398438 -2.753906 1.328125 -2.796875 C 1.265625 -2.847656 1.238281 -2.921875 1.25 -3.015625 L 1.390625 -3.921875 C 1.410156 -4.023438 1.476562 -4.101562 1.59375 -4.15625 C 1.851562 -4.238281 2.101562 -4.289062 2.34375 -4.3125 C 2.582031 -4.332031 2.8125 -4.328125 3.03125 -4.296875 Z M 3.03125 -4.296875 "/></g></g></g></svg>