<svg xmlns="http://www.w3.org/2000/svg" xmlns:xlink="http://www.w3.org/1999/xlink" zoomAndPan="magnify" preserveAspectRatio="xMidYMid meet" version="1.0" viewBox="78.81 144.07 145 91.32"><defs><g/></defs><g fill="#144363" fill-opacity="1"><g transform="translate(76.924503, 187.366036)"><g><path d="M 12.671875 -13.09375 C 13.585938 -12.332031 14.347656 -11.425781 14.953125 -10.375 C 15.554688 -9.332031 15.976562 -8.222656 16.21875 -7.046875 C 16.457031 -5.867188 16.5 -4.675781 16.34375 -3.46875 C 16.1875 -2.269531 15.816406 -1.15625 15.234375 -0.125 C 15.085938 0.09375 14.851562 0.257812 14.53125 0.375 C 14.207031 0.488281 13.890625 0.535156 13.578125 0.515625 C 13.273438 0.503906 13.03125 0.425781 12.84375 0.28125 C 12.664062 0.144531 12.664062 -0.0703125 12.84375 -0.375 C 13.5625 -1.71875 13.90625 -3.144531 13.875 -4.65625 C 13.851562 -6.164062 13.519531 -7.59375 12.875 -8.9375 C 12.539062 -9.632812 12.097656 -10.316406 11.546875 -10.984375 C 11.003906 -11.660156 10.359375 -12.125 9.609375 -12.375 C 8.265625 -12.789062 7.101562 -12.71875 6.125 -12.15625 C 5.144531 -11.601562 4.570312 -10.613281 4.40625 -9.1875 C 4.375 -8.9375 4.21875 -8.726562 3.9375 -8.5625 C 3.664062 -8.394531 3.367188 -8.289062 3.046875 -8.25 C 2.722656 -8.207031 2.441406 -8.25 2.203125 -8.375 C 1.960938 -8.5 1.859375 -8.710938 1.890625 -9.015625 C 2.023438 -10.222656 2.484375 -11.257812 3.265625 -12.125 C 4.054688 -12.988281 4.988281 -13.625 6.0625 -14.03125 C 7.132812 -14.4375 8.265625 -14.578125 9.453125 -14.453125 C 10.648438 -14.328125 11.722656 -13.875 12.671875 -13.09375 Z M 8.015625 -6.96875 C 8.265625 -6.882812 8.421875 -6.734375 8.484375 -6.515625 C 8.554688 -6.304688 8.484375 -6.109375 8.265625 -5.921875 C 7.898438 -5.578125 7.617188 -5.179688 7.421875 -4.734375 C 7.222656 -4.285156 7.082031 -3.820312 7 -3.34375 C 6.914062 -2.875 6.875 -2.378906 6.875 -1.859375 C 6.875 -1.347656 6.875 -0.867188 6.875 -0.421875 C 6.875 -0.171875 6.75 0.0390625 6.5 0.21875 C 6.25 0.40625 5.976562 0.539062 5.6875 0.625 C 5.394531 0.707031 5.113281 0.722656 4.84375 0.671875 C 4.582031 0.617188 4.4375 0.460938 4.40625 0.203125 C 4.351562 -0.347656 4.332031 -0.929688 4.34375 -1.546875 C 4.351562 -2.160156 4.421875 -2.757812 4.546875 -3.34375 C 4.671875 -3.9375 4.863281 -4.5 5.125 -5.03125 C 5.394531 -5.5625 5.769531 -6.035156 6.25 -6.453125 C 6.75 -6.960938 7.335938 -7.132812 8.015625 -6.96875 Z M 8.015625 -6.96875 "/></g></g></g><g fill="#144363" fill-opacity="1"><g transform="translate(95.214004, 187.366036)"><g><path d="M 12.921875 -41.53125 C 11.441406 -41.3125 10.28125 -40.617188 9.4375 -39.453125 C 8.601562 -38.296875 7.972656 -36.835938 7.546875 -35.078125 C 7.128906 -33.316406 6.882812 -31.347656 6.8125 -29.171875 C 6.75 -27.003906 6.738281 -24.804688 6.78125 -22.578125 C 6.820312 -20.359375 6.875 -18.191406 6.9375 -16.078125 C 7.007812 -13.972656 6.988281 -12.097656 6.875 -10.453125 C 6.738281 -8.828125 6.578125 -7.1875 6.390625 -5.53125 C 6.210938 -3.882812 5.878906 -2.332031 5.390625 -0.875 C 4.898438 0.570312 4.171875 1.875 3.203125 3.03125 C 2.242188 4.195312 0.910156 5.085938 -0.796875 5.703125 C -1.191406 5.847656 -1.5 5.867188 -1.71875 5.765625 C -1.945312 5.671875 -2.082031 5.523438 -2.125 5.328125 C -2.164062 5.128906 -2.113281 4.914062 -1.96875 4.6875 C -1.832031 4.46875 -1.582031 4.289062 -1.21875 4.15625 C -0.125 3.757812 0.78125 3.070312 1.5 2.09375 C 2.226562 1.113281 2.820312 -0.0390625 3.28125 -1.375 C 3.75 -2.71875 4.09375 -4.210938 4.3125 -5.859375 C 4.539062 -7.515625 4.6875 -9.21875 4.75 -10.96875 C 4.820312 -12.71875 4.835938 -14.476562 4.796875 -16.25 C 4.753906 -18.03125 4.695312 -19.707031 4.625 -21.28125 C 4.5625 -22.863281 4.5 -24.316406 4.4375 -25.640625 C 4.382812 -26.972656 4.390625 -28.078125 4.453125 -28.953125 C 4.503906 -30.546875 4.648438 -32.128906 4.890625 -33.703125 C 5.128906 -35.285156 5.554688 -36.734375 6.171875 -38.046875 C 6.785156 -39.359375 7.648438 -40.484375 8.765625 -41.421875 C 9.890625 -42.359375 11.359375 -42.96875 13.171875 -43.25 C 13.585938 -43.332031 13.875 -43.296875 14.03125 -43.140625 C 14.1875 -42.992188 14.234375 -42.804688 14.171875 -42.578125 C 14.117188 -42.359375 13.976562 -42.144531 13.75 -41.9375 C 13.53125 -41.726562 13.253906 -41.59375 12.921875 -41.53125 Z M 12.921875 -41.53125 "/></g></g></g><g fill="#144363" fill-opacity="1"><g transform="translate(104.400709, 187.366036)"><g><path d="M 5.03125 -14.9375 C 5.257812 -14.90625 5.484375 -14.796875 5.703125 -14.609375 C 5.929688 -14.429688 5.960938 -14.203125 5.796875 -13.921875 C 5.367188 -13.304688 5.132812 -12.640625 5.09375 -11.921875 C 5.050781 -11.210938 5.085938 -10.5 5.203125 -9.78125 C 5.234375 -9.5 5.128906 -9.25 4.890625 -9.03125 C 4.648438 -8.820312 4.375 -8.675781 4.0625 -8.59375 C 3.757812 -8.507812 3.46875 -8.503906 3.1875 -8.578125 C 2.90625 -8.648438 2.753906 -8.828125 2.734375 -9.109375 C 2.585938 -9.972656 2.535156 -10.84375 2.578125 -11.71875 C 2.617188 -12.601562 2.890625 -13.425781 3.390625 -14.1875 C 3.816406 -14.769531 4.363281 -15.019531 5.03125 -14.9375 Z M 5.03125 -14.9375 "/></g></g></g><g fill="#144363" fill-opacity="1"><g transform="translate(111.489985, 187.366036)"><g><path d="M 12.671875 -13.09375 C 13.585938 -12.332031 14.347656 -11.425781 14.953125 -10.375 C 15.554688 -9.332031 15.976562 -8.222656 16.21875 -7.046875 C 16.457031 -5.867188 16.5 -4.675781 16.34375 -3.46875 C 16.1875 -2.269531 15.816406 -1.15625 15.234375 -0.125 C 15.085938 0.09375 14.851562 0.257812 14.53125 0.375 C 14.207031 0.488281 13.890625 0.535156 13.578125 0.515625 C 13.273438 0.503906 13.03125 0.425781 12.84375 0.28125 C 12.664062 0.144531 12.664062 -0.0703125 12.84375 -0.375 C 13.5625 -1.71875 13.90625 -3.144531 13.875 -4.65625 C 13.851562 -6.164062 13.519531 -7.59375 12.875 -8.9375 C 12.539062 -9.632812 12.097656 -10.316406 11.546875 -10.984375 C 11.003906 -11.660156 10.359375 -12.125 9.609375 -12.375 C 8.265625 -12.789062 7.101562 -12.71875 6.125 -12.15625 C 5.144531 -11.601562 4.570312 -10.613281 4.40625 -9.1875 C 4.375 -8.9375 4.21875 -8.726562 3.9375 -8.5625 C 3.664062 -8.394531 3.367188 -8.289062 3.046875 -8.25 C 2.722656 -8.207031 2.441406 -8.25 2.203125 -8.375 C 1.960938 -8.5 1.859375 -8.710938 1.890625 -9.015625 C 2.023438 -10.222656 2.484375 -11.257812 3.265625 -12.125 C 4.054688 -12.988281 4.988281 -13.625 6.0625 -14.03125 C 7.132812 -14.4375 8.265625 -14.578125 9.453125 -14.453125 C 10.648438 -14.328125 11.722656 -13.875 12.671875 -13.09375 Z M 8.015625 -6.96875 C 8.265625 -6.882812 8.421875 -6.734375 8.484375 -6.515625 C 8.554688 -6.304688 8.484375 -6.109375 8.265625 -5.921875 C 7.898438 -5.578125 7.617188 -5.179688 7.421875 -4.734375 C 7.222656 -4.285156 7.082031 -3.820312 7 -3.34375 C 6.914062 -2.875 6.875 -2.378906 6.875 -1.859375 C 6.875 -1.347656 6.875 -0.867188 6.875 -0.421875 C 6.875 -0.171875 6.75 0.0390625 6.5 0.21875 C 6.25 0.40625 5.976562 0.539062 5.6875 0.625 C 5.394531 0.707031 5.113281 0.722656 4.84375 0.671875 C 4.582031 0.617188 4.4375 0.460938 4.40625 0.203125 C 4.351562 -0.347656 4.332031 -0.929688 4.34375 -1.546875 C 4.351562 -2.160156 4.421875 -2.757812 4.546875 -3.34375 C 4.671875 -3.9375 4.863281 -4.5 5.125 -5.03125 C 5.394531 -5.5625 5.769531 -6.035156 6.25 -6.453125 C 6.75 -6.960938 7.335938 -7.132812 8.015625 -6.96875 Z M 8.015625 -6.96875 "/></g></g></g><g fill="#144363" fill-opacity="1"><g transform="translate(129.779487, 187.366036)"><g><path d="M 5.078125 0.84375 C 5.128906 1.0625 5.039062 1.269531 4.8125 1.46875 C 4.59375 1.664062 4.320312 1.804688 4 1.890625 C 3.6875 1.972656 3.378906 1.984375 3.078125 1.921875 C 2.785156 1.867188 2.613281 1.734375 2.5625 1.515625 C 2.28125 0.390625 2.109375 -0.90625 2.046875 -2.375 C 1.992188 -3.84375 1.992188 -5.34375 2.046875 -6.875 C 2.109375 -8.414062 2.179688 -9.921875 2.265625 -11.390625 C 2.347656 -12.859375 2.390625 -14.148438 2.390625 -15.265625 C 2.390625 -15.492188 2.515625 -15.691406 2.765625 -15.859375 C 3.015625 -16.023438 3.300781 -16.132812 3.625 -16.1875 C 3.945312 -16.25 4.234375 -16.226562 4.484375 -16.125 C 4.734375 -16.03125 4.859375 -15.84375 4.859375 -15.5625 C 4.859375 -14.46875 4.816406 -13.203125 4.734375 -11.765625 C 4.648438 -10.328125 4.585938 -8.851562 4.546875 -7.34375 C 4.503906 -5.832031 4.507812 -4.363281 4.5625 -2.9375 C 4.625 -1.507812 4.796875 -0.25 5.078125 0.84375 Z M 5.078125 0.84375 "/></g></g></g><g fill="#144363" fill-opacity="1"><g transform="translate(136.742917, 187.366036)"><g/></g></g><g fill="#144363" fill-opacity="1"><g transform="translate(149.327434, 187.366036)"><g><path d="M 12.671875 -13.765625 C 13.585938 -13.003906 14.347656 -12.09375 14.953125 -11.03125 C 15.554688 -9.96875 15.976562 -8.847656 16.21875 -7.671875 C 16.457031 -6.503906 16.5 -5.316406 16.34375 -4.109375 C 16.1875 -2.910156 15.816406 -1.789062 15.234375 -0.75 C 15.085938 -0.53125 14.851562 -0.363281 14.53125 -0.25 C 14.207031 -0.132812 13.890625 -0.0820312 13.578125 -0.09375 C 13.273438 -0.113281 13.03125 -0.191406 12.84375 -0.328125 C 12.664062 -0.472656 12.664062 -0.695312 12.84375 -1 C 13.5625 -2.34375 13.90625 -3.773438 13.875 -5.296875 C 13.851562 -6.828125 13.519531 -8.265625 12.875 -9.609375 C 12.539062 -10.273438 12.097656 -10.941406 11.546875 -11.609375 C 11.003906 -12.285156 10.359375 -12.75 9.609375 -13 C 8.265625 -13.445312 7.101562 -13.390625 6.125 -12.828125 C 5.144531 -12.273438 4.570312 -11.285156 4.40625 -9.859375 C 4.375 -9.578125 4.21875 -9.351562 3.9375 -9.1875 C 3.664062 -9.019531 3.367188 -8.914062 3.046875 -8.875 C 2.722656 -8.832031 2.441406 -8.875 2.203125 -9 C 1.960938 -9.125 1.859375 -9.34375 1.890625 -9.65625 C 2.023438 -10.851562 2.484375 -11.890625 3.265625 -12.765625 C 4.054688 -13.648438 4.988281 -14.296875 6.0625 -14.703125 C 7.132812 -15.109375 8.265625 -15.25 9.453125 -15.125 C 10.648438 -15 11.722656 -14.546875 12.671875 -13.765625 Z M 12.671875 -13.765625 "/></g></g></g><g fill="#144363" fill-opacity="1"><g transform="translate(167.616936, 187.366036)"><g><path d="M 5.03125 -14.9375 C 5.257812 -14.90625 5.484375 -14.796875 5.703125 -14.609375 C 5.929688 -14.429688 5.960938 -14.203125 5.796875 -13.921875 C 5.367188 -13.304688 5.132812 -12.640625 5.09375 -11.921875 C 5.050781 -11.210938 5.085938 -10.5 5.203125 -9.78125 C 5.234375 -9.5 5.128906 -9.25 4.890625 -9.03125 C 4.648438 -8.820312 4.375 -8.675781 4.0625 -8.59375 C 3.757812 -8.507812 3.46875 -8.503906 3.1875 -8.578125 C 2.90625 -8.648438 2.753906 -8.828125 2.734375 -9.109375 C 2.585938 -9.972656 2.535156 -10.84375 2.578125 -11.71875 C 2.617188 -12.601562 2.890625 -13.425781 3.390625 -14.1875 C 3.816406 -14.769531 4.363281 -15.019531 5.03125 -14.9375 Z M 5.03125 -14.9375 "/></g></g></g><g fill="#144363" fill-opacity="1"><g transform="translate(174.706212, 187.366036)"><g><path d="M 5.921875 -19.46875 C 9.210938 -19.550781 11.941406 -19.050781 14.109375 -17.96875 C 16.285156 -16.894531 17.957031 -15.484375 19.125 -13.734375 C 20.300781 -11.992188 21 -10.046875 21.21875 -7.890625 C 21.445312 -5.734375 21.253906 -3.601562 20.640625 -1.5 C 20.023438 0.59375 19.007812 2.519531 17.59375 4.28125 C 16.1875 6.039062 14.445312 7.394531 12.375 8.34375 C 11.226562 8.875 9.976562 9.164062 8.625 9.21875 C 7.269531 9.28125 6.007812 9.066406 4.84375 8.578125 C 3.6875 8.085938 2.722656 7.316406 1.953125 6.265625 C 1.179688 5.222656 0.796875 3.863281 0.796875 2.1875 C 0.796875 0.8125 1.066406 -0.566406 1.609375 -1.953125 C 2.160156 -3.335938 2.953125 -4.539062 3.984375 -5.5625 C 5.015625 -6.582031 6.289062 -7.320312 7.8125 -7.78125 C 9.34375 -8.238281 11.085938 -8.242188 13.046875 -7.796875 C 13.296875 -7.742188 13.503906 -7.65625 13.671875 -7.53125 C 13.835938 -7.40625 13.941406 -7.28125 13.984375 -7.15625 C 14.023438 -7.03125 14.003906 -6.925781 13.921875 -6.84375 C 13.835938 -6.757812 13.671875 -6.742188 13.421875 -6.796875 C 11.992188 -6.992188 10.628906 -6.828125 9.328125 -6.296875 C 8.035156 -5.765625 6.929688 -4.976562 6.015625 -3.9375 C 5.109375 -2.90625 4.453125 -1.679688 4.046875 -0.265625 C 3.640625 1.140625 3.601562 2.640625 3.9375 4.234375 C 4.195312 5.378906 4.675781 6.191406 5.375 6.671875 C 6.070312 7.148438 6.890625 7.378906 7.828125 7.359375 C 8.765625 7.347656 9.765625 7.117188 10.828125 6.671875 C 11.890625 6.222656 12.894531 5.660156 13.84375 4.984375 C 14.789062 4.316406 15.628906 3.5625 16.359375 2.71875 C 17.085938 1.882812 17.59375 1.0625 17.875 0.25 C 18.820312 -2.289062 19.222656 -4.660156 19.078125 -6.859375 C 18.941406 -9.054688 18.320312 -10.953125 17.21875 -12.546875 C 16.113281 -14.140625 14.546875 -15.390625 12.515625 -16.296875 C 10.492188 -17.203125 8.070312 -17.65625 5.25 -17.65625 C 5.019531 -17.65625 4.90625 -17.742188 4.90625 -17.921875 C 4.90625 -18.109375 4.960938 -18.320312 5.078125 -18.5625 C 5.191406 -18.800781 5.332031 -19.007812 5.5 -19.1875 C 5.664062 -19.375 5.804688 -19.46875 5.921875 -19.46875 Z M 5.921875 -19.46875 "/></g></g></g><g fill="#144363" fill-opacity="1"><g transform="translate(198.323161, 187.366036)"><g><path d="M 5.078125 0.84375 C 5.128906 1.0625 5.039062 1.269531 4.8125 1.46875 C 4.59375 1.664062 4.320312 1.804688 4 1.890625 C 3.6875 1.972656 3.378906 1.984375 3.078125 1.921875 C 2.785156 1.867188 2.613281 1.734375 2.5625 1.515625 C 2.28125 0.390625 2.109375 -0.90625 2.046875 -2.375 C 1.992188 -3.84375 1.992188 -5.34375 2.046875 -6.875 C 2.109375 -8.414062 2.179688 -9.921875 2.265625 -11.390625 C 2.347656 -12.859375 2.390625 -14.148438 2.390625 -15.265625 C 2.390625 -15.492188 2.515625 -15.691406 2.765625 -15.859375 C 3.015625 -16.023438 3.300781 -16.132812 3.625 -16.1875 C 3.945312 -16.25 4.234375 -16.226562 4.484375 -16.125 C 4.734375 -16.03125 4.859375 -15.84375 4.859375 -15.5625 C 4.859375 -14.46875 4.816406 -13.203125 4.734375 -11.765625 C 4.648438 -10.328125 4.585938 -8.851562 4.546875 -7.34375 C 4.503906 -5.832031 4.507812 -4.363281 4.5625 -2.9375 C 4.625 -1.507812 4.796875 -0.25 5.078125 0.84375 Z M 5.078125 0.84375 "/></g></g></g><g fill="#144363" fill-opacity="1"><g transform="translate(205.286591, 187.366036)"><g><path d="M 17.53125 -2.09375 C 17.957031 -2.175781 18.238281 -2.144531 18.375 -2 C 18.507812 -1.863281 18.550781 -1.691406 18.5 -1.484375 C 18.445312 -1.273438 18.304688 -1.070312 18.078125 -0.875 C 17.859375 -0.6875 17.59375 -0.5625 17.28125 -0.5 C 16.101562 -0.300781 14.859375 -0.257812 13.546875 -0.375 C 12.234375 -0.488281 11.023438 -0.796875 9.921875 -1.296875 C 8.816406 -1.804688 7.898438 -2.523438 7.171875 -3.453125 C 6.441406 -4.390625 6.078125 -5.601562 6.078125 -7.09375 C 6.078125 -8.457031 6.390625 -9.625 7.015625 -10.59375 C 7.648438 -11.5625 8.460938 -12.34375 9.453125 -12.9375 C 10.453125 -13.539062 11.550781 -13.96875 12.75 -14.21875 C 13.957031 -14.46875 15.144531 -14.566406 16.3125 -14.515625 C 16.738281 -14.484375 16.984375 -14.375 17.046875 -14.1875 C 17.117188 -14.007812 17.078125 -13.820312 16.921875 -13.625 C 16.773438 -13.4375 16.550781 -13.265625 16.25 -13.109375 C 15.957031 -12.953125 15.6875 -12.875 15.4375 -12.875 C 14.507812 -12.9375 13.59375 -12.835938 12.6875 -12.578125 C 11.78125 -12.328125 10.988281 -11.929688 10.3125 -11.390625 C 9.644531 -10.847656 9.148438 -10.171875 8.828125 -9.359375 C 8.503906 -8.546875 8.46875 -7.609375 8.71875 -6.546875 C 8.976562 -5.515625 9.40625 -4.664062 10 -4 C 10.601562 -3.34375 11.300781 -2.847656 12.09375 -2.515625 C 12.894531 -2.179688 13.765625 -1.984375 14.703125 -1.921875 C 15.640625 -1.867188 16.582031 -1.925781 17.53125 -2.09375 Z M 8.765625 -24.453125 C 7.316406 -22.078125 6.28125 -19.566406 5.65625 -16.921875 C 5.039062 -14.285156 4.65625 -11.585938 4.5 -8.828125 C 4.351562 -6.078125 4.34375 -3.304688 4.46875 -0.515625 C 4.59375 2.265625 4.671875 4.984375 4.703125 7.640625 C 4.703125 7.941406 4.566406 8.179688 4.296875 8.359375 C 4.035156 8.546875 3.742188 8.648438 3.421875 8.671875 C 3.097656 8.703125 2.800781 8.648438 2.53125 8.515625 C 2.269531 8.378906 2.140625 8.140625 2.140625 7.796875 C 2.109375 5.085938 2.03125 2.320312 1.90625 -0.5 C 1.78125 -3.320312 1.800781 -6.125 1.96875 -8.90625 C 2.132812 -11.695312 2.53125 -14.429688 3.15625 -17.109375 C 3.789062 -19.796875 4.847656 -22.359375 6.328125 -24.796875 C 6.503906 -25.046875 6.757812 -25.222656 7.09375 -25.328125 C 7.425781 -25.441406 7.742188 -25.484375 8.046875 -25.453125 C 8.359375 -25.429688 8.597656 -25.335938 8.765625 -25.171875 C 8.929688 -25.003906 8.929688 -24.765625 8.765625 -24.453125 Z M 8.765625 -24.453125 "/></g></g></g><g fill="#f15630" fill-opacity="1"><g transform="translate(88.525854, 218.830664)"><g><path d="M 5.5625 -6 C 5.5625 -5.707031 5.382812 -5.484375 5.03125 -5.328125 C 4.6875 -5.179688 4.332031 -5.109375 3.96875 -5.109375 C 3.738281 -5.109375 3.535156 -5.148438 3.359375 -5.234375 C 3.191406 -5.328125 3.109375 -5.488281 3.109375 -5.71875 C 3.109375 -6.96875 3.132812 -8.195312 3.1875 -9.40625 C 3.238281 -10.613281 3.289062 -11.828125 3.34375 -13.046875 C 3.394531 -14.503906 3.453125 -15.945312 3.515625 -17.375 C 3.585938 -18.800781 3.609375 -20.242188 3.578125 -21.703125 C 3.578125 -21.960938 3.753906 -22.175781 4.109375 -22.34375 C 4.460938 -22.507812 4.820312 -22.59375 5.1875 -22.59375 C 5.394531 -22.59375 5.582031 -22.546875 5.75 -22.453125 C 5.914062 -22.359375 6 -22.210938 6 -22.015625 L 6 -20.796875 C 6 -19.503906 5.976562 -18.238281 5.9375 -17 C 5.894531 -15.769531 5.847656 -14.53125 5.796875 -13.28125 C 5.742188 -12.0625 5.691406 -10.847656 5.640625 -9.640625 C 5.585938 -8.429688 5.5625 -7.21875 5.5625 -6 Z M 4.953125 0.421875 C 5.234375 0.503906 5.53125 0.664062 5.84375 0.90625 C 6.15625 1.15625 6.335938 1.460938 6.390625 1.828125 C 6.410156 2.066406 6.347656 2.269531 6.203125 2.4375 C 6.066406 2.601562 5.894531 2.742188 5.6875 2.859375 C 5.476562 2.972656 5.253906 3.066406 5.015625 3.140625 C 4.785156 3.222656 4.59375 3.28125 4.4375 3.3125 C 3.914062 3.414062 3.476562 3.425781 3.125 3.34375 C 2.78125 3.269531 2.46875 3.023438 2.1875 2.609375 C 1.925781 2.242188 1.863281 1.882812 2 1.53125 C 2.144531 1.1875 2.375 0.894531 2.6875 0.65625 C 3.414062 0.269531 4.15625 0.191406 4.90625 0.421875 Z M 4.953125 0.421875 "/></g></g></g><g fill="#f15630" fill-opacity="1"><g transform="translate(97.134082, 218.830664)"><g><path d="M 18 -9.15625 C 18.257812 -9.78125 18.335938 -10.28125 18.234375 -10.65625 C 18.128906 -11.03125 17.929688 -11.332031 17.640625 -11.5625 C 17.359375 -11.800781 17.015625 -11.976562 16.609375 -12.09375 C 16.210938 -12.207031 15.84375 -12.316406 15.5 -12.421875 C 14.507812 -12.710938 13.546875 -12.875 12.609375 -12.90625 C 11.679688 -12.945312 10.804688 -12.832031 9.984375 -12.5625 C 9.171875 -12.289062 8.425781 -11.847656 7.75 -11.234375 C 7.070312 -10.628906 6.5 -9.832031 6.03125 -8.84375 C 5.976562 -8.707031 5.929688 -8.585938 5.890625 -8.484375 C 5.859375 -8.390625 5.816406 -8.273438 5.765625 -8.140625 C 6.359375 -7.773438 6.992188 -7.472656 7.671875 -7.234375 C 8.347656 -7.003906 8.957031 -6.8125 9.5 -6.65625 C 10.175781 -6.476562 10.9375 -6.351562 11.78125 -6.28125 C 12.625 -6.21875 13.445312 -6.265625 14.25 -6.421875 C 15.0625 -6.578125 15.800781 -6.867188 16.46875 -7.296875 C 17.144531 -7.734375 17.65625 -8.351562 18 -9.15625 Z M 20.25 -11.84375 C 20.507812 -11.476562 20.609375 -11.070312 20.546875 -10.625 C 20.484375 -10.1875 20.332031 -9.738281 20.09375 -9.28125 C 19.863281 -8.832031 19.59375 -8.421875 19.28125 -8.046875 C 18.96875 -7.671875 18.679688 -7.378906 18.421875 -7.171875 C 16.503906 -5.710938 14.347656 -4.929688 11.953125 -4.828125 C 11.484375 -4.804688 10.96875 -4.828125 10.40625 -4.890625 C 9.851562 -4.953125 9.269531 -5.054688 8.65625 -5.203125 C 8.050781 -5.347656 7.441406 -5.53125 6.828125 -5.75 C 6.222656 -5.96875 5.648438 -6.21875 5.109375 -6.5 C 4.484375 -4.757812 4.050781 -2.941406 3.8125 -1.046875 C 3.789062 -0.835938 3.660156 -0.660156 3.421875 -0.515625 C 3.191406 -0.378906 2.945312 -0.296875 2.6875 -0.265625 C 2.425781 -0.242188 2.195312 -0.273438 2 -0.359375 C 1.8125 -0.453125 1.726562 -0.617188 1.75 -0.859375 C 1.882812 -1.953125 2.082031 -3.066406 2.34375 -4.203125 C 2.601562 -5.347656 2.953125 -6.476562 3.390625 -7.59375 C 2.710938 -8.164062 2.207031 -8.800781 1.875 -9.5 C 1.789062 -9.6875 1.832031 -9.863281 2 -10.03125 C 2.175781 -10.195312 2.382812 -10.316406 2.625 -10.390625 C 2.875 -10.472656 3.128906 -10.492188 3.390625 -10.453125 C 3.648438 -10.421875 3.816406 -10.285156 3.890625 -10.046875 C 3.941406 -9.941406 4 -9.835938 4.0625 -9.734375 C 4.132812 -9.628906 4.195312 -9.523438 4.25 -9.421875 C 4.820312 -10.441406 5.484375 -11.351562 6.234375 -12.15625 C 6.984375 -12.957031 7.90625 -13.578125 9 -14.015625 C 9.726562 -14.328125 10.628906 -14.507812 11.703125 -14.5625 C 12.785156 -14.613281 13.878906 -14.546875 14.984375 -14.359375 C 16.085938 -14.179688 17.117188 -13.878906 18.078125 -13.453125 C 19.035156 -13.023438 19.757812 -12.488281 20.25 -11.84375 Z M 20.25 -11.84375 "/></g></g></g><g fill="#f15630" fill-opacity="1"><g transform="translate(119.453163, 218.830664)"><g><path d="M 4.671875 -13.875 C 4.878906 -13.84375 5.085938 -13.742188 5.296875 -13.578125 C 5.503906 -13.410156 5.53125 -13.195312 5.375 -12.9375 C 4.988281 -12.363281 4.773438 -11.742188 4.734375 -11.078125 C 4.691406 -10.421875 4.722656 -9.753906 4.828125 -9.078125 C 4.859375 -8.816406 4.757812 -8.585938 4.53125 -8.390625 C 4.3125 -8.203125 4.054688 -8.066406 3.765625 -7.984375 C 3.484375 -7.910156 3.210938 -7.90625 2.953125 -7.96875 C 2.703125 -8.03125 2.5625 -8.191406 2.53125 -8.453125 C 2.40625 -9.253906 2.359375 -10.0625 2.390625 -10.875 C 2.429688 -11.695312 2.6875 -12.460938 3.15625 -13.171875 C 3.539062 -13.710938 4.046875 -13.945312 4.671875 -13.875 Z M 4.671875 -13.875 "/></g></g></g><g fill="#f15630" fill-opacity="1"><g transform="translate(126.035935, 218.830664)"><g><path d="M 4.046875 -17.640625 C 4.046875 -17.898438 4.171875 -18.109375 4.421875 -18.265625 C 4.671875 -18.421875 4.9375 -18.519531 5.21875 -18.5625 C 5.5 -18.601562 5.765625 -18.5625 6.015625 -18.4375 C 6.265625 -18.320312 6.390625 -18.125 6.390625 -17.84375 C 6.390625 -15.84375 6.394531 -13.75 6.40625 -11.5625 C 6.414062 -9.382812 6.320312 -7.21875 6.125 -5.0625 C 5.9375 -2.90625 5.582031 -0.796875 5.0625 1.265625 C 4.539062 3.328125 3.75 5.253906 2.6875 7.046875 C 1.695312 8.660156 0.570312 10.03125 -0.6875 11.15625 C -1.945312 12.289062 -3.320312 13.234375 -4.8125 13.984375 C -6.300781 14.734375 -7.890625 15.3125 -9.578125 15.71875 C -11.265625 16.125 -13.019531 16.40625 -14.84375 16.5625 C -15.226562 16.582031 -15.492188 16.515625 -15.640625 16.359375 C -15.785156 16.203125 -15.835938 16.019531 -15.796875 15.8125 C -15.753906 15.601562 -15.625 15.398438 -15.40625 15.203125 C -15.1875 15.015625 -14.921875 14.90625 -14.609375 14.875 C -12.398438 14.695312 -10.347656 14.28125 -8.453125 13.625 C -6.554688 12.976562 -4.859375 12.082031 -3.359375 10.9375 C -1.867188 9.800781 -0.609375 8.394531 0.421875 6.71875 C 1.460938 5.039062 2.234375 3.085938 2.734375 0.859375 C 3.378906 -2.179688 3.757812 -5.242188 3.875 -8.328125 C 3.988281 -11.421875 4.046875 -14.523438 4.046875 -17.640625 Z M 4.046875 -17.640625 "/></g></g></g><g fill="#f15630" fill-opacity="1"><g transform="translate(134.877882, 218.830664)"><g><path d="M 9.546875 -13.796875 C 10.660156 -13.015625 11.722656 -12.164062 12.734375 -11.25 C 13.742188 -10.34375 14.640625 -9.363281 15.421875 -8.3125 C 16.203125 -7.257812 16.832031 -6.125 17.3125 -4.90625 C 17.789062 -3.6875 18.046875 -2.347656 18.078125 -0.890625 C 18.078125 -0.660156 17.957031 -0.46875 17.71875 -0.3125 C 17.488281 -0.15625 17.222656 -0.046875 16.921875 0.015625 C 16.628906 0.078125 16.363281 0.0859375 16.125 0.046875 C 15.894531 0.015625 15.78125 -0.0859375 15.78125 -0.265625 C 15.75 -1.492188 15.5625 -2.640625 15.21875 -3.703125 C 14.882812 -4.765625 14.425781 -5.765625 13.84375 -6.703125 C 13.257812 -7.640625 12.570312 -8.507812 11.78125 -9.3125 C 10.988281 -10.113281 10.140625 -10.863281 9.234375 -11.5625 C 9.046875 -9.507812 8.609375 -7.535156 7.921875 -5.640625 C 7.234375 -3.742188 6.34375 -2.003906 5.25 -0.421875 C 4.164062 1.160156 2.910156 2.5625 1.484375 3.78125 C 0.0546875 5 -1.476562 5.957031 -3.125 6.65625 C -4.78125 7.363281 -6.507812 7.78125 -8.3125 7.90625 C -10.125 8.039062 -11.953125 7.804688 -13.796875 7.203125 C -13.941406 7.148438 -13.953125 7.070312 -13.828125 6.96875 C -13.703125 6.863281 -13.515625 6.753906 -13.265625 6.640625 C -13.015625 6.523438 -12.753906 6.429688 -12.484375 6.359375 C -12.210938 6.296875 -12.007812 6.28125 -11.875 6.3125 C -9.925781 6.675781 -8.117188 6.664062 -6.453125 6.28125 C -4.796875 5.90625 -3.285156 5.253906 -1.921875 4.328125 C -0.566406 3.410156 0.640625 2.285156 1.703125 0.953125 C 2.773438 -0.378906 3.691406 -1.832031 4.453125 -3.40625 C 5.222656 -4.976562 5.832031 -6.609375 6.28125 -8.296875 C 6.738281 -9.984375 7.046875 -11.632812 7.203125 -13.25 C 7.234375 -13.40625 7.367188 -13.539062 7.609375 -13.65625 C 7.859375 -13.769531 8.125 -13.851562 8.40625 -13.90625 C 8.695312 -13.957031 8.957031 -13.984375 9.1875 -13.984375 C 9.425781 -13.984375 9.546875 -13.945312 9.546875 -13.875 L 9.5 -13.828125 C 9.53125 -13.828125 9.546875 -13.816406 9.546875 -13.796875 Z M 9.546875 -13.796875 "/></g></g></g><g fill="#f15630" fill-opacity="1"><g transform="translate(154.080865, 218.830664)"><g><path d="M 13.671875 -0.734375 C 13.597656 -0.472656 13.414062 -0.285156 13.125 -0.171875 C 12.84375 -0.0546875 12.554688 -0.00390625 12.265625 -0.015625 C 11.984375 -0.0234375 11.75 -0.113281 11.5625 -0.28125 C 11.382812 -0.457031 11.347656 -0.703125 11.453125 -1.015625 C 11.660156 -1.742188 11.820312 -2.503906 11.9375 -3.296875 C 12.050781 -4.085938 12.085938 -4.878906 12.046875 -5.671875 C 12.015625 -6.460938 11.882812 -7.234375 11.65625 -7.984375 C 11.4375 -8.734375 11.125 -9.445312 10.71875 -10.125 C 10.113281 -11.082031 9.335938 -11.648438 8.390625 -11.828125 C 7.441406 -12.015625 6.5 -11.925781 5.5625 -11.5625 C 5.488281 -10.65625 5.410156 -9.734375 5.328125 -8.796875 C 5.253906 -7.867188 5.210938 -6.9375 5.203125 -6 C 5.191406 -5.0625 5.238281 -4.125 5.34375 -3.1875 C 5.445312 -2.257812 5.640625 -1.351562 5.921875 -0.46875 C 5.972656 -0.257812 5.894531 -0.0703125 5.6875 0.09375 C 5.476562 0.257812 5.226562 0.378906 4.9375 0.453125 C 4.65625 0.535156 4.378906 0.554688 4.109375 0.515625 C 3.835938 0.484375 3.660156 0.347656 3.578125 0.109375 C 3.316406 -0.742188 3.132812 -1.601562 3.03125 -2.46875 C 2.925781 -3.34375 2.875 -4.210938 2.875 -5.078125 C 2.875 -5.953125 2.90625 -6.828125 2.96875 -7.703125 C 3.039062 -8.585938 3.113281 -9.472656 3.1875 -10.359375 C 2.957031 -10.304688 2.722656 -10.304688 2.484375 -10.359375 C 2.253906 -10.410156 2.070312 -10.507812 1.9375 -10.65625 C 1.8125 -10.800781 1.753906 -10.960938 1.765625 -11.140625 C 1.785156 -11.316406 1.925781 -11.507812 2.1875 -11.71875 C 2.519531 -11.976562 2.90625 -12.210938 3.34375 -12.421875 L 3.34375 -12.890625 C 3.34375 -13.078125 3.445312 -13.238281 3.65625 -13.375 C 3.863281 -13.519531 4.097656 -13.625 4.359375 -13.6875 C 4.617188 -13.757812 4.875 -13.769531 5.125 -13.71875 C 5.375 -13.664062 5.535156 -13.5625 5.609375 -13.40625 C 6.703125 -13.71875 7.789062 -13.820312 8.875 -13.71875 C 9.96875 -13.613281 10.957031 -13.179688 11.84375 -12.421875 C 12.625 -11.773438 13.207031 -10.960938 13.59375 -9.984375 C 13.976562 -9.015625 14.222656 -7.984375 14.328125 -6.890625 C 14.429688 -5.804688 14.410156 -4.722656 14.265625 -3.640625 C 14.128906 -2.566406 13.929688 -1.597656 13.671875 -0.734375 Z M 13.671875 -0.734375 "/></g></g></g><g fill="#f15630" fill-opacity="1"><g transform="translate(170.206694, 218.830664)"><g><path d="M 9.546875 -13.796875 C 10.660156 -13.015625 11.722656 -12.164062 12.734375 -11.25 C 13.742188 -10.34375 14.640625 -9.363281 15.421875 -8.3125 C 16.203125 -7.257812 16.832031 -6.125 17.3125 -4.90625 C 17.789062 -3.6875 18.046875 -2.347656 18.078125 -0.890625 C 18.078125 -0.660156 17.957031 -0.46875 17.71875 -0.3125 C 17.488281 -0.15625 17.222656 -0.046875 16.921875 0.015625 C 16.628906 0.078125 16.363281 0.0859375 16.125 0.046875 C 15.894531 0.015625 15.78125 -0.0859375 15.78125 -0.265625 C 15.75 -1.492188 15.5625 -2.640625 15.21875 -3.703125 C 14.882812 -4.765625 14.425781 -5.765625 13.84375 -6.703125 C 13.257812 -7.640625 12.570312 -8.507812 11.78125 -9.3125 C 10.988281 -10.113281 10.140625 -10.863281 9.234375 -11.5625 C 9.046875 -9.507812 8.609375 -7.535156 7.921875 -5.640625 C 7.234375 -3.742188 6.34375 -2.003906 5.25 -0.421875 C 4.164062 1.160156 2.910156 2.5625 1.484375 3.78125 C 0.0546875 5 -1.476562 5.957031 -3.125 6.65625 C -4.78125 7.363281 -6.507812 7.78125 -8.3125 7.90625 C -10.125 8.039062 -11.953125 7.804688 -13.796875 7.203125 C -13.941406 7.148438 -13.953125 7.070312 -13.828125 6.96875 C -13.703125 6.863281 -13.515625 6.753906 -13.265625 6.640625 C -13.015625 6.523438 -12.753906 6.429688 -12.484375 6.359375 C -12.210938 6.296875 -12.007812 6.28125 -11.875 6.3125 C -9.925781 6.675781 -8.117188 6.664062 -6.453125 6.28125 C -4.796875 5.90625 -3.285156 5.253906 -1.921875 4.328125 C -0.566406 3.410156 0.640625 2.285156 1.703125 0.953125 C 2.773438 -0.378906 3.691406 -1.832031 4.453125 -3.40625 C 5.222656 -4.976562 5.832031 -6.609375 6.28125 -8.296875 C 6.738281 -9.984375 7.046875 -11.632812 7.203125 -13.25 C 7.234375 -13.40625 7.367188 -13.539062 7.609375 -13.65625 C 7.859375 -13.769531 8.125 -13.851562 8.40625 -13.90625 C 8.695312 -13.957031 8.957031 -13.984375 9.1875 -13.984375 C 9.425781 -13.984375 9.546875 -13.945312 9.546875 -13.875 L 9.5 -13.828125 C 9.53125 -13.828125 9.546875 -13.816406 9.546875 -13.796875 Z M 9.546875 -13.796875 "/></g></g></g><g fill="#f15630" fill-opacity="1"><g transform="translate(189.409677, 218.830664)"><g><path d="M 20.640625 -12.734375 C 20.640625 -12.972656 20.765625 -13.171875 21.015625 -13.328125 C 21.265625 -13.484375 21.53125 -13.578125 21.8125 -13.609375 C 22.101562 -13.648438 22.367188 -13.617188 22.609375 -13.515625 C 22.859375 -13.410156 22.984375 -13.21875 22.984375 -12.9375 C 22.984375 -12.175781 22.9375 -11.332031 22.84375 -10.40625 C 22.75 -9.488281 22.59375 -8.550781 22.375 -7.59375 C 22.15625 -6.632812 21.859375 -5.695312 21.484375 -4.78125 C 21.109375 -3.875 20.644531 -3.0625 20.09375 -2.34375 C 19.550781 -1.632812 18.898438 -1.066406 18.140625 -0.640625 C 17.390625 -0.210938 16.523438 0 15.546875 0 C 14.273438 0 13.203125 -0.1875 12.328125 -0.5625 C 11.460938 -0.9375 10.71875 -1.445312 10.09375 -2.09375 C 9.46875 -2.75 8.925781 -3.5 8.46875 -4.34375 C 8.019531 -5.1875 7.585938 -6.0625 7.171875 -6.96875 C 6.929688 -5.019531 6.554688 -3.101562 6.046875 -1.21875 C 5.546875 0.65625 4.878906 2.453125 4.046875 4.171875 C 3.941406 4.378906 3.742188 4.539062 3.453125 4.65625 C 3.171875 4.769531 2.890625 4.820312 2.609375 4.8125 C 2.328125 4.800781 2.097656 4.726562 1.921875 4.59375 C 1.753906 4.46875 1.738281 4.257812 1.875 3.96875 C 3.007812 1.6875 3.820312 -0.773438 4.3125 -3.421875 C 4.8125 -6.078125 5.078125 -8.6875 5.109375 -11.25 C 5.109375 -11.4375 5.203125 -11.609375 5.390625 -11.765625 C 5.585938 -11.921875 5.804688 -12.03125 6.046875 -12.09375 C 6.296875 -12.15625 6.546875 -12.164062 6.796875 -12.125 C 7.046875 -12.09375 7.222656 -12 7.328125 -11.84375 C 7.765625 -11.113281 8.15625 -10.269531 8.5 -9.3125 C 8.851562 -8.351562 9.238281 -7.40625 9.65625 -6.46875 C 10.070312 -5.53125 10.550781 -4.664062 11.09375 -3.875 C 11.644531 -3.082031 12.335938 -2.492188 13.171875 -2.109375 C 14.234375 -1.609375 15.148438 -1.429688 15.921875 -1.578125 C 16.703125 -1.722656 17.375 -2.078125 17.9375 -2.640625 C 18.5 -3.210938 18.953125 -3.929688 19.296875 -4.796875 C 19.648438 -5.671875 19.921875 -6.582031 20.109375 -7.53125 C 20.304688 -8.476562 20.441406 -9.410156 20.515625 -10.328125 C 20.597656 -11.253906 20.640625 -12.054688 20.640625 -12.734375 Z M 20.640625 -12.734375 "/></g></g></g></svg>